<?xml version="1.0" encoding="utf-8" standalone="no"?>
<!DOCTYPE svg PUBLIC "-//W3C//DTD SVG 1.1//EN"
  "http://www.w3.org/Graphics/SVG/1.1/DTD/svg11.dtd">
<svg xmlns:xlink="http://www.w3.org/1999/xlink" width="382.63176pt" height="277.183008pt" viewBox="0 0 382.63176 277.183008" xmlns="http://www.w3.org/2000/svg" version="1.1">
 <metadata>
  <rdf:RDF xmlns:dc="http://purl.org/dc/elements/1.1/" xmlns:cc="http://creativecommons.org/ns#" xmlns:rdf="http://www.w3.org/1999/02/22-rdf-syntax-ns#">
   <cc:Work>
    <dc:type rdf:resource="http://purl.org/dc/dcmitype/StillImage"/>
    <dc:date>2023-07-24T18:58:52.984666</dc:date>
    <dc:format>image/svg+xml</dc:format>
    <dc:creator>
     <cc:Agent>
      <dc:title>Matplotlib v3.6.2, https://matplotlib.org/</dc:title>
     </cc:Agent>
    </dc:creator>
   </cc:Work>
  </rdf:RDF>
 </metadata>
 <defs>
  <style type="text/css">*{stroke-linejoin: round; stroke-linecap: butt}</style>
 </defs>
 <g id="figure_1">
  <g id="patch_1">
   <path d="M 0 277.183008 
L 382.63176 277.183008 
L 382.63176 0 
L 0 0 
z
" style="fill: #ffffff"/>
  </g>
  <g id="axes_1">
   <g id="patch_2">
    <path d="M 38.28 74.293359 
L 372.93176 74.293359 
L 372.93176 7.2 
L 38.28 7.2 
z
" style="fill: #ffffff"/>
   </g>
   <g id="patch_3">
    <path d="M 53.491444 21.46724 
L 154.901068 60.627448 
L 154.901068 23.319851 
z
" clip-path="url(#p101eee95d0)" style="fill: #808080; opacity: 0.3"/>
   </g>
   <g id="patch_4">
    <path d="M 154.901068 60.627448 
L 256.310692 64.327738 
L 256.310692 24.875243 
L 154.901068 23.319851 
z
" clip-path="url(#p101eee95d0)" style="fill: #808080; opacity: 0.3"/>
   </g>
   <g id="patch_5">
    <path d="M 256.310692 64.327738 
L 357.720316 68.911043 
L 357.720316 26.020283 
L 256.310692 24.875243 
z
" clip-path="url(#p101eee95d0)" style="fill: #808080; opacity: 0.3"/>
   </g>
   <g id="patch_6">
    <path d="M 53.491444 251.132747 
L 154.901068 274.094924 
L 154.901068 253.97991 
z
" clip-path="url(#p101eee95d0)" style="fill: #6dd2ea; opacity: 0.3"/>
   </g>
   <g id="patch_7">
    <path d="M 154.901068 274.094924 
L 256.310692 281.774461 
L 256.310692 256.285168 
L 154.901068 253.97991 
z
" clip-path="url(#p101eee95d0)" style="fill: #6dd2ea; opacity: 0.3"/>
   </g>
   <g id="patch_8">
    <path d="M 256.310692 281.774461 
L 357.720316 283.321673 
L 357.720316 258.229132 
L 256.310692 256.285168 
z
" clip-path="url(#p101eee95d0)" style="fill: #6dd2ea; opacity: 0.3"/>
   </g>
   <g id="patch_9">
    <path d="M 53.491444 208.625487 
L 154.901068 256.904614 
L 154.901068 219.558413 
z
" clip-path="url(#p101eee95d0)" style="fill: #fb7b71; opacity: 0.3"/>
   </g>
   <g id="patch_10">
    <path d="M 154.901068 256.904614 
L 256.310692 267.171131 
L 256.310692 225.723074 
L 154.901068 219.558413 
z
" clip-path="url(#p101eee95d0)" style="fill: #fb7b71; opacity: 0.3"/>
   </g>
   <g id="patch_11">
    <path d="M 256.310692 267.171131 
L 357.720316 270.685088 
L 357.720316 230.737454 
L 256.310692 225.723074 
z
" clip-path="url(#p101eee95d0)" style="fill: #fb7b71; opacity: 0.3"/>
   </g>
   <g id="line2d_1">
    <path d="M 53.491444 21.46724 
L 154.901068 60.627448 
" clip-path="url(#p101eee95d0)" style="fill: none; stroke: #000000; stroke-width: 0.5; stroke-linecap: square"/>
   </g>
   <g id="line2d_2">
    <path d="M 154.901068 60.627448 
L 256.310692 64.327738 
L 357.720316 68.911043 
" clip-path="url(#p101eee95d0)" style="fill: none; stroke: #000000; stroke-width: 0.5; stroke-linecap: square"/>
   </g>
   <g id="line2d_3">
    <path d="M 53.491444 21.46724 
L 154.901068 23.319851 
" clip-path="url(#p101eee95d0)" style="fill: none; stroke-dasharray: 5.55,2.4; stroke-dashoffset: 0; stroke: #000000; stroke-width: 1.5"/>
   </g>
   <g id="line2d_4">
    <path d="M 154.901068 23.319851 
L 256.310692 24.875243 
L 357.720316 26.020283 
" clip-path="url(#p101eee95d0)" style="fill: none; stroke-dasharray: 5.55,2.4; stroke-dashoffset: 0; stroke: #000000; stroke-width: 1.5"/>
   </g>
   <g id="line2d_5">
    <path d="M 53.491444 21.46724 
L 154.901068 26.44278 
" clip-path="url(#p101eee95d0)" style="fill: none; stroke-dasharray: 9.6,2.4,1.5,2.4; stroke-dashoffset: 0; stroke: #000000; stroke-width: 1.5"/>
   </g>
   <g id="line2d_6">
    <path d="M 154.901068 26.44278 
L 256.310692 33.065163 
L 357.720316 37.085556 
" clip-path="url(#p101eee95d0)" style="fill: none; stroke-dasharray: 9.6,2.4,1.5,2.4; stroke-dashoffset: 0; stroke: #000000; stroke-width: 1.5"/>
   </g>
   <g id="line2d_7">
    <path d="M 53.491444 21.46724 
L 154.901068 55.060451 
" clip-path="url(#p101eee95d0)" style="fill: none; stroke-dasharray: 1.85,0.8; stroke-dashoffset: 0; stroke: #000000; stroke-width: 0.5"/>
   </g>
   <g id="line2d_8">
    <path d="M 154.901068 55.060451 
L 256.310692 56.934611 
L 357.720316 57.954219 
" clip-path="url(#p101eee95d0)" style="fill: none; stroke-dasharray: 1.85,0.8; stroke-dashoffset: 0; stroke: #000000; stroke-width: 0.5"/>
   </g>
   <g id="line2d_9">
    <path d="M 53.491444 21.46724 
L 154.901068 58.337908 
" clip-path="url(#p101eee95d0)" style="fill: none; stroke-dasharray: 3.2,0.8,0.5,0.8; stroke-dashoffset: 0; stroke: #000000; stroke-width: 0.5"/>
   </g>
   <g id="line2d_10">
    <path d="M 154.901068 58.337908 
L 256.310692 61.585185 
L 357.720316 62.402977 
" clip-path="url(#p101eee95d0)" style="fill: none; stroke-dasharray: 3.2,0.8,0.5,0.8; stroke-dashoffset: 0; stroke: #000000; stroke-width: 0.5"/>
   </g>
   <g id="line2d_11">
    <path d="M 53.491444 21.46724 
L 154.901068 33.774856 
" clip-path="url(#p101eee95d0)" style="fill: none; stroke: #000000; stroke-width: 1.5; stroke-linecap: square"/>
   </g>
   <g id="line2d_12">
    <path d="M 154.901068 33.774856 
L 256.310692 37.71049 
L 357.720316 38.416367 
" clip-path="url(#p101eee95d0)" style="fill: none; stroke: #000000; stroke-width: 1.5; stroke-linecap: square"/>
   </g>
   <g id="line2d_13">
    <path d="M 53.491444 251.132747 
L 154.901068 274.094924 
" clip-path="url(#p101eee95d0)" style="fill: none; stroke: #167f99; stroke-width: 0.5; stroke-linecap: square"/>
   </g>
   <g id="line2d_14">
    <path d="M 154.901068 274.094924 
L 217.896698 278.183008 
" clip-path="url(#p101eee95d0)" style="fill: none; stroke: #167f99; stroke-width: 0.5; stroke-linecap: square"/>
   </g>
   <g id="line2d_15">
    <path d="M 53.491444 251.132747 
L 154.901068 253.97991 
" clip-path="url(#p101eee95d0)" style="fill: none; stroke-dasharray: 5.55,2.4; stroke-dashoffset: 0; stroke: #167f99; stroke-width: 1.5"/>
   </g>
   <g id="line2d_16">
    <path d="M 154.901068 253.97991 
L 256.310692 256.285168 
L 357.720316 258.229132 
" clip-path="url(#p101eee95d0)" style="fill: none; stroke-dasharray: 5.55,2.4; stroke-dashoffset: 0; stroke: #167f99; stroke-width: 1.5"/>
   </g>
   <g id="line2d_17">
    <path d="M 53.491444 251.132747 
L 154.901068 259.505541 
" clip-path="url(#p101eee95d0)" style="fill: none; stroke-dasharray: 9.6,2.4,1.5,2.4; stroke-dashoffset: 0; stroke: #167f99; stroke-width: 1.5"/>
   </g>
   <g id="line2d_18">
    <path d="M 154.901068 259.505541 
L 256.310692 271.666916 
L 332.034564 278.183008 
" clip-path="url(#p101eee95d0)" style="fill: none; stroke-dasharray: 9.6,2.4,1.5,2.4; stroke-dashoffset: 0; stroke: #167f99; stroke-width: 1.5"/>
   </g>
   <g id="line2d_19">
    <path d="M 53.491444 251.132747 
L 154.901068 261.442092 
" clip-path="url(#p101eee95d0)" style="fill: none; stroke-dasharray: 1.85,0.8; stroke-dashoffset: 0; stroke: #167f99; stroke-width: 0.5"/>
   </g>
   <g id="line2d_20">
    <path d="M 154.901068 261.442092 
L 256.310692 267.429346 
L 357.720316 271.547802 
" clip-path="url(#p101eee95d0)" style="fill: none; stroke-dasharray: 1.85,0.8; stroke-dashoffset: 0; stroke: #167f99; stroke-width: 0.5"/>
   </g>
   <g id="line2d_21">
    <path d="M 53.491444 251.132747 
L 154.901068 268.654258 
" clip-path="url(#p101eee95d0)" style="fill: none; stroke-dasharray: 3.2,0.8,0.5,0.8; stroke-dashoffset: 0; stroke: #167f99; stroke-width: 0.5"/>
   </g>
   <g id="line2d_22">
    <path d="M 154.901068 268.654258 
L 255.647715 278.183008 
" clip-path="url(#p101eee95d0)" style="fill: none; stroke-dasharray: 3.2,0.8,0.5,0.8; stroke-dashoffset: 0; stroke: #167f99; stroke-width: 0.5"/>
   </g>
   <g id="line2d_23">
    <path d="M 53.491444 251.132747 
L 154.901068 273.607369 
" clip-path="url(#p101eee95d0)" style="fill: none; stroke: #167f99; stroke-width: 1.5; stroke-linecap: square"/>
   </g>
   <g id="line2d_24">
    <path d="M 154.901068 273.607369 
L 211.716132 278.183008 
" clip-path="url(#p101eee95d0)" style="fill: none; stroke: #167f99; stroke-width: 1.5; stroke-linecap: square"/>
   </g>
   <g id="line2d_25">
    <path d="M 53.491444 208.625487 
L 154.901068 256.904614 
" clip-path="url(#p101eee95d0)" style="fill: none; stroke: #b71205; stroke-width: 0.5; stroke-linecap: square"/>
   </g>
   <g id="line2d_26">
    <path d="M 154.901068 256.904614 
L 256.310692 267.171131 
L 357.720316 270.685088 
" clip-path="url(#p101eee95d0)" style="fill: none; stroke: #b71205; stroke-width: 0.5; stroke-linecap: square"/>
   </g>
   <g id="line2d_27">
    <path d="M 53.491444 208.625487 
L 154.901068 219.558413 
" clip-path="url(#p101eee95d0)" style="fill: none; stroke-dasharray: 5.55,2.4; stroke-dashoffset: 0; stroke: #b71205; stroke-width: 1.5"/>
   </g>
   <g id="line2d_28">
    <path d="M 154.901068 219.558413 
L 256.310692 225.723074 
L 357.720316 230.737454 
" clip-path="url(#p101eee95d0)" style="fill: none; stroke-dasharray: 5.55,2.4; stroke-dashoffset: 0; stroke: #b71205; stroke-width: 1.5"/>
   </g>
   <g id="line2d_29">
    <path d="M 53.491444 208.625487 
L 154.901068 227.356874 
" clip-path="url(#p101eee95d0)" style="fill: none; stroke-dasharray: 9.6,2.4,1.5,2.4; stroke-dashoffset: 0; stroke: #b71205; stroke-width: 1.5"/>
   </g>
   <g id="line2d_30">
    <path d="M 154.901068 227.356874 
L 256.310692 249.49927 
L 357.720316 264.789577 
" clip-path="url(#p101eee95d0)" style="fill: none; stroke-dasharray: 9.6,2.4,1.5,2.4; stroke-dashoffset: 0; stroke: #b71205; stroke-width: 1.5"/>
   </g>
   <g id="line2d_31">
    <path d="M 53.491444 208.625487 
L 154.901068 236.166508 
" clip-path="url(#p101eee95d0)" style="fill: none; stroke-dasharray: 1.85,0.8; stroke-dashoffset: 0; stroke: #b71205; stroke-width: 0.5"/>
   </g>
   <g id="line2d_32">
    <path d="M 154.901068 236.166508 
L 256.310692 249.527579 
L 357.720316 258.357112 
" clip-path="url(#p101eee95d0)" style="fill: none; stroke-dasharray: 1.85,0.8; stroke-dashoffset: 0; stroke: #b71205; stroke-width: 0.5"/>
   </g>
   <g id="line2d_33">
    <path d="M 53.491444 208.625487 
L 154.901068 248.138581 
" clip-path="url(#p101eee95d0)" style="fill: none; stroke-dasharray: 3.2,0.8,0.5,0.8; stroke-dashoffset: 0; stroke: #b71205; stroke-width: 0.5"/>
   </g>
   <g id="line2d_34">
    <path d="M 154.901068 248.138581 
L 256.310692 264.65175 
L 357.720316 269.405305 
" clip-path="url(#p101eee95d0)" style="fill: none; stroke-dasharray: 3.2,0.8,0.5,0.8; stroke-dashoffset: 0; stroke: #b71205; stroke-width: 0.5"/>
   </g>
   <g id="line2d_35">
    <path d="M 53.491444 208.625487 
L 154.901068 250.746287 
" clip-path="url(#p101eee95d0)" style="fill: none; stroke: #b71205; stroke-width: 1.5; stroke-linecap: square"/>
   </g>
   <g id="line2d_36">
    <path d="M 154.901068 250.746287 
L 256.310692 264.772373 
L 357.720316 267.890216 
" clip-path="url(#p101eee95d0)" style="fill: none; stroke: #b71205; stroke-width: 1.5; stroke-linecap: square"/>
   </g>
   <g id="matplotlib.axis_1">
    <g id="xtick_1"/>
    <g id="xtick_2"/>
    <g id="xtick_3"/>
    <g id="xtick_4"/>
   </g>
   <g id="matplotlib.axis_2">
    <g id="ytick_1">
     <g id="line2d_37">
      <defs>
       <path id="m8abf69d086" d="M 0 0 
L -3.5 0 
" style="stroke: #000000; stroke-width: 0.8"/>
      </defs>
      <g>
       <use xlink:href="#m8abf69d086" x="38.28" y="63.111133" style="stroke: #000000; stroke-width: 0.8"/>
      </g>
     </g>
     <g id="text_1">
      <!-- 2.2 -->
      <g transform="translate(20.16 65.974258) scale(0.08 -0.08)">
       <defs>
        <path id="ArialMT-32" d="M 3222 541 
L 3222 0 
L 194 0 
Q 188 203 259 391 
Q 375 700 629 1000 
Q 884 1300 1366 1694 
Q 2113 2306 2375 2664 
Q 2638 3022 2638 3341 
Q 2638 3675 2398 3904 
Q 2159 4134 1775 4134 
Q 1369 4134 1125 3890 
Q 881 3647 878 3216 
L 300 3275 
Q 359 3922 746 4261 
Q 1134 4600 1788 4600 
Q 2447 4600 2831 4234 
Q 3216 3869 3216 3328 
Q 3216 3053 3103 2787 
Q 2991 2522 2730 2228 
Q 2469 1934 1863 1422 
Q 1356 997 1212 845 
Q 1069 694 975 541 
L 3222 541 
z
" transform="scale(0.015625)"/>
        <path id="ArialMT-2e" d="M 581 0 
L 581 641 
L 1222 641 
L 1222 0 
L 581 0 
z
" transform="scale(0.015625)"/>
       </defs>
       <use xlink:href="#ArialMT-32"/>
       <use xlink:href="#ArialMT-2e" x="55.615234"/>
       <use xlink:href="#ArialMT-32" x="83.398438"/>
      </g>
     </g>
    </g>
    <g id="ytick_2">
     <g id="line2d_38">
      <g>
       <use xlink:href="#m8abf69d086" x="38.28" y="40.74668" style="stroke: #000000; stroke-width: 0.8"/>
      </g>
     </g>
     <g id="text_2">
      <!-- 2.4 -->
      <g transform="translate(20.16 43.609805) scale(0.08 -0.08)">
       <defs>
        <path id="ArialMT-34" d="M 2069 0 
L 2069 1097 
L 81 1097 
L 81 1613 
L 2172 4581 
L 2631 4581 
L 2631 1613 
L 3250 1613 
L 3250 1097 
L 2631 1097 
L 2631 0 
L 2069 0 
z
M 2069 1613 
L 2069 3678 
L 634 1613 
L 2069 1613 
z
" transform="scale(0.015625)"/>
       </defs>
       <use xlink:href="#ArialMT-32"/>
       <use xlink:href="#ArialMT-2e" x="55.615234"/>
       <use xlink:href="#ArialMT-34" x="83.398438"/>
      </g>
     </g>
    </g>
    <g id="ytick_3">
     <g id="line2d_39">
      <g>
       <use xlink:href="#m8abf69d086" x="38.28" y="18.382227" style="stroke: #000000; stroke-width: 0.8"/>
      </g>
     </g>
     <g id="text_3">
      <!-- 2.6 -->
      <g transform="translate(20.16 21.245352) scale(0.08 -0.08)">
       <defs>
        <path id="ArialMT-36" d="M 3184 3459 
L 2625 3416 
Q 2550 3747 2413 3897 
Q 2184 4138 1850 4138 
Q 1581 4138 1378 3988 
Q 1113 3794 959 3422 
Q 806 3050 800 2363 
Q 1003 2672 1297 2822 
Q 1591 2972 1913 2972 
Q 2475 2972 2870 2558 
Q 3266 2144 3266 1488 
Q 3266 1056 3080 686 
Q 2894 316 2569 119 
Q 2244 -78 1831 -78 
Q 1128 -78 684 439 
Q 241 956 241 2144 
Q 241 3472 731 4075 
Q 1159 4600 1884 4600 
Q 2425 4600 2770 4297 
Q 3116 3994 3184 3459 
z
M 888 1484 
Q 888 1194 1011 928 
Q 1134 663 1356 523 
Q 1578 384 1822 384 
Q 2178 384 2434 671 
Q 2691 959 2691 1453 
Q 2691 1928 2437 2201 
Q 2184 2475 1800 2475 
Q 1419 2475 1153 2201 
Q 888 1928 888 1484 
z
" transform="scale(0.015625)"/>
       </defs>
       <use xlink:href="#ArialMT-32"/>
       <use xlink:href="#ArialMT-2e" x="55.615234"/>
       <use xlink:href="#ArialMT-36" x="83.398438"/>
      </g>
     </g>
    </g>
   </g>
   <g id="PathCollection_1">
    <defs>
     <path id="m3134a8b4b0" d="M -3.872983 3.872983 
L 3.872983 3.872983 
L 3.872983 -3.872983 
L -3.872983 -3.872983 
z
" style="stroke: #000000"/>
    </defs>
    <g clip-path="url(#p101eee95d0)">
     <use xlink:href="#m3134a8b4b0" x="53.491444" y="21.46724" style="fill: #d8d8d8; stroke: #000000"/>
    </g>
   </g>
   <g id="PathCollection_2">
    <defs>
     <path id="me7592f0e49" d="M 0 -3.872983 
L -3.872983 3.872983 
L 3.872983 3.872983 
z
" style="stroke: #167f99"/>
    </defs>
    <g clip-path="url(#p101eee95d0)">
     <use xlink:href="#me7592f0e49" x="53.491444" y="251.132747" style="fill: #6dd2ea; stroke: #167f99"/>
    </g>
   </g>
   <g id="PathCollection_3">
    <defs>
     <path id="m49a4080833" d="M 0 -3.872983 
L -3.354102 -1.936492 
L -3.354102 1.936492 
L -0 3.872983 
L 3.354102 1.936492 
L 3.354102 -1.936492 
z
" style="stroke: #b71205"/>
    </defs>
    <g clip-path="url(#p101eee95d0)">
     <use xlink:href="#m49a4080833" x="53.491444" y="208.625487" style="fill: #fb7b71; stroke: #b71205"/>
    </g>
   </g>
   <g id="line2d_40">
    <defs>
     <path id="m731fb413ca" d="M -2.5 0 
L 2.5 0 
" style="stroke: #000000"/>
    </defs>
    <g>
     <use xlink:href="#m731fb413ca" x="38.28" y="74.293359" style="stroke: #000000"/>
     <use xlink:href="#m731fb413ca" x="372.93176" y="74.293359" style="stroke: #000000"/>
    </g>
   </g>
   <g id="patch_12">
    <path d="M 38.28 74.293359 
L 38.28 7.2 
" style="fill: none; stroke: #000000; stroke-width: 0.8; stroke-linejoin: miter; stroke-linecap: square"/>
   </g>
   <g id="patch_13">
    <path d="M 372.93176 74.293359 
L 372.93176 7.2 
" style="fill: none; stroke: #000000; stroke-width: 0.8; stroke-linejoin: miter; stroke-linecap: square"/>
   </g>
   <g id="patch_14">
    <path d="M 38.28 7.2 
L 372.93176 7.2 
" style="fill: none; stroke: #000000; stroke-width: 0.8; stroke-linejoin: miter; stroke-linecap: square"/>
   </g>
  </g>
  <g id="axes_2">
   <g id="patch_15">
    <path d="M 38.28 255.666758 
L 372.93176 255.666758 
L 372.93176 87.933359 
L 38.28 87.933359 
z
" style="fill: #ffffff"/>
   </g>
   <g id="patch_16">
    <path d="M 53.491444 -274.910091 
L 154.901068 -196.589675 
L 154.901068 -271.204869 
z
" clip-path="url(#pcda8f8c63a)" style="fill: #808080; opacity: 0.3"/>
   </g>
   <g id="patch_17">
    <path d="M 154.901068 -196.589675 
L 256.310692 -189.189096 
L 256.310692 -268.094085 
L 154.901068 -271.204869 
z
" clip-path="url(#pcda8f8c63a)" style="fill: #808080; opacity: 0.3"/>
   </g>
   <g id="patch_18">
    <path d="M 256.310692 -189.189096 
L 357.720316 -180.022485 
L 357.720316 -265.804005 
L 256.310692 -268.094085 
z
" clip-path="url(#pcda8f8c63a)" style="fill: #808080; opacity: 0.3"/>
   </g>
   <g id="patch_19">
    <path d="M 53.491444 184.420924 
L 154.901068 230.345277 
L 154.901068 190.11525 
z
" clip-path="url(#pcda8f8c63a)" style="fill: #6dd2ea; opacity: 0.3"/>
   </g>
   <g id="patch_20">
    <path d="M 154.901068 230.345277 
L 256.310692 245.704351 
L 256.310692 194.725765 
L 154.901068 190.11525 
z
" clip-path="url(#pcda8f8c63a)" style="fill: #6dd2ea; opacity: 0.3"/>
   </g>
   <g id="patch_21">
    <path d="M 256.310692 245.704351 
L 357.720316 248.798776 
L 357.720316 198.613694 
L 256.310692 194.725765 
z
" clip-path="url(#pcda8f8c63a)" style="fill: #6dd2ea; opacity: 0.3"/>
   </g>
   <g id="patch_22">
    <path d="M 53.491444 99.406404 
L 154.901068 195.964657 
L 154.901068 121.272256 
z
" clip-path="url(#pcda8f8c63a)" style="fill: #fb7b71; opacity: 0.3"/>
   </g>
   <g id="patch_23">
    <path d="M 154.901068 195.964657 
L 256.310692 216.497691 
L 256.310692 133.601578 
L 154.901068 121.272256 
z
" clip-path="url(#pcda8f8c63a)" style="fill: #fb7b71; opacity: 0.3"/>
   </g>
   <g id="patch_24">
    <path d="M 256.310692 216.497691 
L 357.720316 223.525605 
L 357.720316 143.630336 
L 256.310692 133.601578 
z
" clip-path="url(#pcda8f8c63a)" style="fill: #fb7b71; opacity: 0.3"/>
   </g>
   <g id="line2d_41">
    <path clip-path="url(#pcda8f8c63a)" style="fill: none; stroke: #000000; stroke-width: 0.5; stroke-linecap: square"/>
   </g>
   <g id="line2d_42">
    <path clip-path="url(#pcda8f8c63a)" style="fill: none; stroke: #000000; stroke-width: 0.5; stroke-linecap: square"/>
   </g>
   <g id="line2d_43">
    <path clip-path="url(#pcda8f8c63a)" style="fill: none; stroke-dasharray: 5.55,2.4; stroke-dashoffset: 0; stroke: #000000; stroke-width: 1.5"/>
   </g>
   <g id="line2d_44">
    <path clip-path="url(#pcda8f8c63a)" style="fill: none; stroke-dasharray: 5.55,2.4; stroke-dashoffset: 0; stroke: #000000; stroke-width: 1.5"/>
   </g>
   <g id="line2d_45">
    <path clip-path="url(#pcda8f8c63a)" style="fill: none; stroke-dasharray: 9.6,2.4,1.5,2.4; stroke-dashoffset: 0; stroke: #000000; stroke-width: 1.5"/>
   </g>
   <g id="line2d_46">
    <path clip-path="url(#pcda8f8c63a)" style="fill: none; stroke-dasharray: 9.6,2.4,1.5,2.4; stroke-dashoffset: 0; stroke: #000000; stroke-width: 1.5"/>
   </g>
   <g id="line2d_47">
    <path clip-path="url(#pcda8f8c63a)" style="fill: none; stroke-dasharray: 1.85,0.8; stroke-dashoffset: 0; stroke: #000000; stroke-width: 0.5"/>
   </g>
   <g id="line2d_48">
    <path clip-path="url(#pcda8f8c63a)" style="fill: none; stroke-dasharray: 1.85,0.8; stroke-dashoffset: 0; stroke: #000000; stroke-width: 0.5"/>
   </g>
   <g id="line2d_49">
    <path clip-path="url(#pcda8f8c63a)" style="fill: none; stroke-dasharray: 3.2,0.8,0.5,0.8; stroke-dashoffset: 0; stroke: #000000; stroke-width: 0.5"/>
   </g>
   <g id="line2d_50">
    <path clip-path="url(#pcda8f8c63a)" style="fill: none; stroke-dasharray: 3.2,0.8,0.5,0.8; stroke-dashoffset: 0; stroke: #000000; stroke-width: 0.5"/>
   </g>
   <g id="line2d_51">
    <path clip-path="url(#pcda8f8c63a)" style="fill: none; stroke: #000000; stroke-width: 1.5; stroke-linecap: square"/>
   </g>
   <g id="line2d_52">
    <path clip-path="url(#pcda8f8c63a)" style="fill: none; stroke: #000000; stroke-width: 1.5; stroke-linecap: square"/>
   </g>
   <g id="line2d_53">
    <path d="M 53.491444 184.420924 
L 154.901068 230.345277 
" clip-path="url(#pcda8f8c63a)" style="fill: none; stroke: #167f99; stroke-width: 0.5; stroke-linecap: square"/>
   </g>
   <g id="line2d_54">
    <path d="M 154.901068 230.345277 
L 256.310692 243.507177 
L 357.720316 248.798776 
" clip-path="url(#pcda8f8c63a)" style="fill: none; stroke: #167f99; stroke-width: 0.5; stroke-linecap: square"/>
   </g>
   <g id="line2d_55">
    <path d="M 53.491444 184.420924 
L 154.901068 190.11525 
" clip-path="url(#pcda8f8c63a)" style="fill: none; stroke-dasharray: 5.55,2.4; stroke-dashoffset: 0; stroke: #167f99; stroke-width: 1.5"/>
   </g>
   <g id="line2d_56">
    <path d="M 154.901068 190.11525 
L 256.310692 194.725765 
L 357.720316 198.613694 
" clip-path="url(#pcda8f8c63a)" style="fill: none; stroke-dasharray: 5.55,2.4; stroke-dashoffset: 0; stroke: #167f99; stroke-width: 1.5"/>
   </g>
   <g id="line2d_57">
    <path d="M 53.491444 184.420924 
L 154.901068 201.166511 
" clip-path="url(#pcda8f8c63a)" style="fill: none; stroke-dasharray: 9.6,2.4,1.5,2.4; stroke-dashoffset: 0; stroke: #167f99; stroke-width: 1.5"/>
   </g>
   <g id="line2d_58">
    <path d="M 154.901068 201.166511 
L 256.310692 225.489262 
L 357.720316 242.941999 
" clip-path="url(#pcda8f8c63a)" style="fill: none; stroke-dasharray: 9.6,2.4,1.5,2.4; stroke-dashoffset: 0; stroke: #167f99; stroke-width: 1.5"/>
   </g>
   <g id="line2d_59">
    <path d="M 53.491444 184.420924 
L 154.901068 205.039613 
" clip-path="url(#pcda8f8c63a)" style="fill: none; stroke-dasharray: 1.85,0.8; stroke-dashoffset: 0; stroke: #167f99; stroke-width: 0.5"/>
   </g>
   <g id="line2d_60">
    <path d="M 154.901068 205.039613 
L 256.310692 217.014122 
L 357.720316 225.251033 
" clip-path="url(#pcda8f8c63a)" style="fill: none; stroke-dasharray: 1.85,0.8; stroke-dashoffset: 0; stroke: #167f99; stroke-width: 0.5"/>
   </g>
   <g id="line2d_61">
    <path d="M 53.491444 184.420924 
L 154.901068 219.463946 
" clip-path="url(#pcda8f8c63a)" style="fill: none; stroke-dasharray: 3.2,0.8,0.5,0.8; stroke-dashoffset: 0; stroke: #167f99; stroke-width: 0.5"/>
   </g>
   <g id="line2d_62">
    <path d="M 154.901068 219.463946 
L 256.310692 238.646856 
L 357.720316 245.359388 
" clip-path="url(#pcda8f8c63a)" style="fill: none; stroke-dasharray: 3.2,0.8,0.5,0.8; stroke-dashoffset: 0; stroke: #167f99; stroke-width: 0.5"/>
   </g>
   <g id="line2d_63">
    <path d="M 53.491444 184.420924 
L 154.901068 229.370167 
" clip-path="url(#pcda8f8c63a)" style="fill: none; stroke: #167f99; stroke-width: 1.5; stroke-linecap: square"/>
   </g>
   <g id="line2d_64">
    <path d="M 154.901068 229.370167 
L 256.310692 245.704351 
L 357.720316 248.495048 
" clip-path="url(#pcda8f8c63a)" style="fill: none; stroke: #167f99; stroke-width: 1.5; stroke-linecap: square"/>
   </g>
   <g id="line2d_65">
    <path d="M 53.491444 99.406404 
L 154.901068 195.964657 
" clip-path="url(#pcda8f8c63a)" style="fill: none; stroke: #b71205; stroke-width: 0.5; stroke-linecap: square"/>
   </g>
   <g id="line2d_66">
    <path d="M 154.901068 195.964657 
L 256.310692 216.497691 
L 357.720316 223.525605 
" clip-path="url(#pcda8f8c63a)" style="fill: none; stroke: #b71205; stroke-width: 0.5; stroke-linecap: square"/>
   </g>
   <g id="line2d_67">
    <path d="M 53.491444 99.406404 
L 154.901068 121.272256 
" clip-path="url(#pcda8f8c63a)" style="fill: none; stroke-dasharray: 5.55,2.4; stroke-dashoffset: 0; stroke: #b71205; stroke-width: 1.5"/>
   </g>
   <g id="line2d_68">
    <path d="M 154.901068 121.272256 
L 256.310692 133.601578 
L 357.720316 143.630336 
" clip-path="url(#pcda8f8c63a)" style="fill: none; stroke-dasharray: 5.55,2.4; stroke-dashoffset: 0; stroke: #b71205; stroke-width: 1.5"/>
   </g>
   <g id="line2d_69">
    <path d="M 53.491444 99.406404 
L 154.901068 136.869178 
" clip-path="url(#pcda8f8c63a)" style="fill: none; stroke-dasharray: 9.6,2.4,1.5,2.4; stroke-dashoffset: 0; stroke: #b71205; stroke-width: 1.5"/>
   </g>
   <g id="line2d_70">
    <path d="M 154.901068 136.869178 
L 256.310692 181.153969 
L 357.720316 211.734583 
" clip-path="url(#pcda8f8c63a)" style="fill: none; stroke-dasharray: 9.6,2.4,1.5,2.4; stroke-dashoffset: 0; stroke: #b71205; stroke-width: 1.5"/>
   </g>
   <g id="line2d_71">
    <path d="M 53.491444 99.406404 
L 154.901068 154.488446 
" clip-path="url(#pcda8f8c63a)" style="fill: none; stroke-dasharray: 1.85,0.8; stroke-dashoffset: 0; stroke: #b71205; stroke-width: 0.5"/>
   </g>
   <g id="line2d_72">
    <path d="M 154.901068 154.488446 
L 256.310692 181.210587 
L 357.720316 198.869653 
" clip-path="url(#pcda8f8c63a)" style="fill: none; stroke-dasharray: 1.85,0.8; stroke-dashoffset: 0; stroke: #b71205; stroke-width: 0.5"/>
   </g>
   <g id="line2d_73">
    <path d="M 53.491444 99.406404 
L 154.901068 178.432592 
" clip-path="url(#pcda8f8c63a)" style="fill: none; stroke-dasharray: 3.2,0.8,0.5,0.8; stroke-dashoffset: 0; stroke: #b71205; stroke-width: 0.5"/>
   </g>
   <g id="line2d_74">
    <path d="M 154.901068 178.432592 
L 256.310692 211.458929 
L 357.720316 220.966038 
" clip-path="url(#pcda8f8c63a)" style="fill: none; stroke-dasharray: 3.2,0.8,0.5,0.8; stroke-dashoffset: 0; stroke: #b71205; stroke-width: 0.5"/>
   </g>
   <g id="line2d_75">
    <path d="M 53.491444 99.406404 
L 154.901068 183.648003 
" clip-path="url(#pcda8f8c63a)" style="fill: none; stroke: #b71205; stroke-width: 1.5; stroke-linecap: square"/>
   </g>
   <g id="line2d_76">
    <path d="M 154.901068 183.648003 
L 256.310692 211.700176 
L 357.720316 217.935862 
" clip-path="url(#pcda8f8c63a)" style="fill: none; stroke: #b71205; stroke-width: 1.5; stroke-linecap: square"/>
   </g>
   <g id="matplotlib.axis_3">
    <g id="xtick_5">
     <g id="line2d_77">
      <defs>
       <path id="m727e2f4760" d="M 0 0 
L 0 3.5 
" style="stroke: #000000; stroke-width: 0.8"/>
      </defs>
      <g>
       <use xlink:href="#m727e2f4760" x="53.491444" y="255.666758" style="stroke: #000000; stroke-width: 0.8"/>
      </g>
     </g>
     <g id="text_4">
      <!-- 2020 -->
      <g transform="translate(44.593944 268.393008) scale(0.08 -0.08)">
       <defs>
        <path id="ArialMT-30" d="M 266 2259 
Q 266 3072 433 3567 
Q 600 4063 929 4331 
Q 1259 4600 1759 4600 
Q 2128 4600 2406 4451 
Q 2684 4303 2865 4023 
Q 3047 3744 3150 3342 
Q 3253 2941 3253 2259 
Q 3253 1453 3087 958 
Q 2922 463 2592 192 
Q 2263 -78 1759 -78 
Q 1097 -78 719 397 
Q 266 969 266 2259 
z
M 844 2259 
Q 844 1131 1108 757 
Q 1372 384 1759 384 
Q 2147 384 2411 759 
Q 2675 1134 2675 2259 
Q 2675 3391 2411 3762 
Q 2147 4134 1753 4134 
Q 1366 4134 1134 3806 
Q 844 3388 844 2259 
z
" transform="scale(0.015625)"/>
       </defs>
       <use xlink:href="#ArialMT-32"/>
       <use xlink:href="#ArialMT-30" x="55.615234"/>
       <use xlink:href="#ArialMT-32" x="111.230469"/>
       <use xlink:href="#ArialMT-30" x="166.845703"/>
      </g>
     </g>
    </g>
    <g id="xtick_6">
     <g id="line2d_78">
      <g>
       <use xlink:href="#m727e2f4760" x="154.901068" y="255.666758" style="stroke: #000000; stroke-width: 0.8"/>
      </g>
     </g>
     <g id="text_5">
      <!-- 2030 -->
      <g transform="translate(146.003568 268.393008) scale(0.08 -0.08)">
       <defs>
        <path id="ArialMT-33" d="M 269 1209 
L 831 1284 
Q 928 806 1161 595 
Q 1394 384 1728 384 
Q 2125 384 2398 659 
Q 2672 934 2672 1341 
Q 2672 1728 2419 1979 
Q 2166 2231 1775 2231 
Q 1616 2231 1378 2169 
L 1441 2663 
Q 1497 2656 1531 2656 
Q 1891 2656 2178 2843 
Q 2466 3031 2466 3422 
Q 2466 3731 2256 3934 
Q 2047 4138 1716 4138 
Q 1388 4138 1169 3931 
Q 950 3725 888 3313 
L 325 3413 
Q 428 3978 793 4289 
Q 1159 4600 1703 4600 
Q 2078 4600 2393 4439 
Q 2709 4278 2876 4000 
Q 3044 3722 3044 3409 
Q 3044 3113 2884 2869 
Q 2725 2625 2413 2481 
Q 2819 2388 3044 2092 
Q 3269 1797 3269 1353 
Q 3269 753 2831 336 
Q 2394 -81 1725 -81 
Q 1122 -81 723 278 
Q 325 638 269 1209 
z
" transform="scale(0.015625)"/>
       </defs>
       <use xlink:href="#ArialMT-32"/>
       <use xlink:href="#ArialMT-30" x="55.615234"/>
       <use xlink:href="#ArialMT-33" x="111.230469"/>
       <use xlink:href="#ArialMT-30" x="166.845703"/>
      </g>
     </g>
    </g>
    <g id="xtick_7">
     <g id="line2d_79">
      <g>
       <use xlink:href="#m727e2f4760" x="256.310692" y="255.666758" style="stroke: #000000; stroke-width: 0.8"/>
      </g>
     </g>
     <g id="text_6">
      <!-- 2040 -->
      <g transform="translate(247.413192 268.393008) scale(0.08 -0.08)">
       <use xlink:href="#ArialMT-32"/>
       <use xlink:href="#ArialMT-30" x="55.615234"/>
       <use xlink:href="#ArialMT-34" x="111.230469"/>
       <use xlink:href="#ArialMT-30" x="166.845703"/>
      </g>
     </g>
    </g>
    <g id="xtick_8">
     <g id="line2d_80">
      <g>
       <use xlink:href="#m727e2f4760" x="357.720316" y="255.666758" style="stroke: #000000; stroke-width: 0.8"/>
      </g>
     </g>
     <g id="text_7">
      <!-- 2050 -->
      <g transform="translate(348.822816 268.393008) scale(0.08 -0.08)">
       <defs>
        <path id="ArialMT-35" d="M 266 1200 
L 856 1250 
Q 922 819 1161 601 
Q 1400 384 1738 384 
Q 2144 384 2425 690 
Q 2706 997 2706 1503 
Q 2706 1984 2436 2262 
Q 2166 2541 1728 2541 
Q 1456 2541 1237 2417 
Q 1019 2294 894 2097 
L 366 2166 
L 809 4519 
L 3088 4519 
L 3088 3981 
L 1259 3981 
L 1013 2750 
Q 1425 3038 1878 3038 
Q 2478 3038 2890 2622 
Q 3303 2206 3303 1553 
Q 3303 931 2941 478 
Q 2500 -78 1738 -78 
Q 1113 -78 717 272 
Q 322 622 266 1200 
z
" transform="scale(0.015625)"/>
       </defs>
       <use xlink:href="#ArialMT-32"/>
       <use xlink:href="#ArialMT-30" x="55.615234"/>
       <use xlink:href="#ArialMT-35" x="111.230469"/>
       <use xlink:href="#ArialMT-30" x="166.845703"/>
      </g>
     </g>
    </g>
   </g>
   <g id="matplotlib.axis_4">
    <g id="ytick_4">
     <g id="line2d_81">
      <g>
       <use xlink:href="#m8abf69d086" x="38.28" y="255.666758" style="stroke: #000000; stroke-width: 0.8"/>
      </g>
     </g>
     <g id="text_8">
      <!-- 0.2 -->
      <g transform="translate(20.16 258.529883) scale(0.08 -0.08)">
       <use xlink:href="#ArialMT-30"/>
       <use xlink:href="#ArialMT-2e" x="55.615234"/>
       <use xlink:href="#ArialMT-32" x="83.398438"/>
      </g>
     </g>
    </g>
    <g id="ytick_5">
     <g id="line2d_82">
      <g>
       <use xlink:href="#m8abf69d086" x="38.28" y="233.302305" style="stroke: #000000; stroke-width: 0.8"/>
      </g>
     </g>
     <g id="text_9">
      <!-- 0.3 -->
      <g transform="translate(20.16 236.16543) scale(0.08 -0.08)">
       <use xlink:href="#ArialMT-30"/>
       <use xlink:href="#ArialMT-2e" x="55.615234"/>
       <use xlink:href="#ArialMT-33" x="83.398438"/>
      </g>
     </g>
    </g>
    <g id="ytick_6">
     <g id="line2d_83">
      <g>
       <use xlink:href="#m8abf69d086" x="38.28" y="210.937852" style="stroke: #000000; stroke-width: 0.8"/>
      </g>
     </g>
     <g id="text_10">
      <!-- 0.4 -->
      <g transform="translate(20.16 213.800977) scale(0.08 -0.08)">
       <use xlink:href="#ArialMT-30"/>
       <use xlink:href="#ArialMT-2e" x="55.615234"/>
       <use xlink:href="#ArialMT-34" x="83.398438"/>
      </g>
     </g>
    </g>
    <g id="ytick_7">
     <g id="line2d_84">
      <g>
       <use xlink:href="#m8abf69d086" x="38.28" y="188.573399" style="stroke: #000000; stroke-width: 0.8"/>
      </g>
     </g>
     <g id="text_11">
      <!-- 0.5 -->
      <g transform="translate(20.16 191.436524) scale(0.08 -0.08)">
       <use xlink:href="#ArialMT-30"/>
       <use xlink:href="#ArialMT-2e" x="55.615234"/>
       <use xlink:href="#ArialMT-35" x="83.398438"/>
      </g>
     </g>
    </g>
    <g id="ytick_8">
     <g id="line2d_85">
      <g>
       <use xlink:href="#m8abf69d086" x="38.28" y="166.208945" style="stroke: #000000; stroke-width: 0.8"/>
      </g>
     </g>
     <g id="text_12">
      <!-- 0.6 -->
      <g transform="translate(20.16 169.07207) scale(0.08 -0.08)">
       <use xlink:href="#ArialMT-30"/>
       <use xlink:href="#ArialMT-2e" x="55.615234"/>
       <use xlink:href="#ArialMT-36" x="83.398438"/>
      </g>
     </g>
    </g>
    <g id="ytick_9">
     <g id="line2d_86">
      <g>
       <use xlink:href="#m8abf69d086" x="38.28" y="143.844492" style="stroke: #000000; stroke-width: 0.8"/>
      </g>
     </g>
     <g id="text_13">
      <!-- 0.7 -->
      <g transform="translate(20.16 146.707617) scale(0.08 -0.08)">
       <defs>
        <path id="ArialMT-37" d="M 303 3981 
L 303 4522 
L 3269 4522 
L 3269 4084 
Q 2831 3619 2401 2847 
Q 1972 2075 1738 1259 
Q 1569 684 1522 0 
L 944 0 
Q 953 541 1156 1306 
Q 1359 2072 1739 2783 
Q 2119 3494 2547 3981 
L 303 3981 
z
" transform="scale(0.015625)"/>
       </defs>
       <use xlink:href="#ArialMT-30"/>
       <use xlink:href="#ArialMT-2e" x="55.615234"/>
       <use xlink:href="#ArialMT-37" x="83.398438"/>
      </g>
     </g>
    </g>
    <g id="ytick_10">
     <g id="line2d_87">
      <g>
       <use xlink:href="#m8abf69d086" x="38.28" y="121.480039" style="stroke: #000000; stroke-width: 0.8"/>
      </g>
     </g>
     <g id="text_14">
      <!-- 0.8 -->
      <g transform="translate(20.16 124.343164) scale(0.08 -0.08)">
       <defs>
        <path id="ArialMT-38" d="M 1131 2484 
Q 781 2613 612 2850 
Q 444 3088 444 3419 
Q 444 3919 803 4259 
Q 1163 4600 1759 4600 
Q 2359 4600 2725 4251 
Q 3091 3903 3091 3403 
Q 3091 3084 2923 2848 
Q 2756 2613 2416 2484 
Q 2838 2347 3058 2040 
Q 3278 1734 3278 1309 
Q 3278 722 2862 322 
Q 2447 -78 1769 -78 
Q 1091 -78 675 323 
Q 259 725 259 1325 
Q 259 1772 486 2073 
Q 713 2375 1131 2484 
z
M 1019 3438 
Q 1019 3113 1228 2906 
Q 1438 2700 1772 2700 
Q 2097 2700 2305 2904 
Q 2513 3109 2513 3406 
Q 2513 3716 2298 3927 
Q 2084 4138 1766 4138 
Q 1444 4138 1231 3931 
Q 1019 3725 1019 3438 
z
M 838 1322 
Q 838 1081 952 856 
Q 1066 631 1291 507 
Q 1516 384 1775 384 
Q 2178 384 2440 643 
Q 2703 903 2703 1303 
Q 2703 1709 2433 1975 
Q 2163 2241 1756 2241 
Q 1359 2241 1098 1978 
Q 838 1716 838 1322 
z
" transform="scale(0.015625)"/>
       </defs>
       <use xlink:href="#ArialMT-30"/>
       <use xlink:href="#ArialMT-2e" x="55.615234"/>
       <use xlink:href="#ArialMT-38" x="83.398438"/>
      </g>
     </g>
    </g>
    <g id="ytick_11">
     <g id="line2d_88">
      <g>
       <use xlink:href="#m8abf69d086" x="38.28" y="99.115586" style="stroke: #000000; stroke-width: 0.8"/>
      </g>
     </g>
     <g id="text_15">
      <!-- 0.9 -->
      <g transform="translate(20.16 101.978711) scale(0.08 -0.08)">
       <defs>
        <path id="ArialMT-39" d="M 350 1059 
L 891 1109 
Q 959 728 1153 556 
Q 1347 384 1650 384 
Q 1909 384 2104 503 
Q 2300 622 2425 820 
Q 2550 1019 2634 1356 
Q 2719 1694 2719 2044 
Q 2719 2081 2716 2156 
Q 2547 1888 2255 1720 
Q 1963 1553 1622 1553 
Q 1053 1553 659 1965 
Q 266 2378 266 3053 
Q 266 3750 677 4175 
Q 1088 4600 1706 4600 
Q 2153 4600 2523 4359 
Q 2894 4119 3086 3673 
Q 3278 3228 3278 2384 
Q 3278 1506 3087 986 
Q 2897 466 2520 194 
Q 2144 -78 1638 -78 
Q 1100 -78 759 220 
Q 419 519 350 1059 
z
M 2653 3081 
Q 2653 3566 2395 3850 
Q 2138 4134 1775 4134 
Q 1400 4134 1122 3828 
Q 844 3522 844 3034 
Q 844 2597 1108 2323 
Q 1372 2050 1759 2050 
Q 2150 2050 2401 2323 
Q 2653 2597 2653 3081 
z
" transform="scale(0.015625)"/>
       </defs>
       <use xlink:href="#ArialMT-30"/>
       <use xlink:href="#ArialMT-2e" x="55.615234"/>
       <use xlink:href="#ArialMT-39" x="83.398438"/>
      </g>
     </g>
    </g>
    <g id="text_16">
     <!-- GWP [kg CO$_\mathrm{2}$-eq kg$^\mathrm{-1}$] -->
     <g transform="translate(14.4 213.360059) rotate(-90) scale(0.08 -0.08)">
      <defs>
       <path id="ArialMT-47" d="M 2638 1797 
L 2638 2334 
L 4578 2338 
L 4578 638 
Q 4131 281 3656 101 
Q 3181 -78 2681 -78 
Q 2006 -78 1454 211 
Q 903 500 622 1047 
Q 341 1594 341 2269 
Q 341 2938 620 3517 
Q 900 4097 1425 4378 
Q 1950 4659 2634 4659 
Q 3131 4659 3532 4498 
Q 3934 4338 4162 4050 
Q 4391 3763 4509 3300 
L 3963 3150 
Q 3859 3500 3706 3700 
Q 3553 3900 3268 4020 
Q 2984 4141 2638 4141 
Q 2222 4141 1919 4014 
Q 1616 3888 1430 3681 
Q 1244 3475 1141 3228 
Q 966 2803 966 2306 
Q 966 1694 1177 1281 
Q 1388 869 1791 669 
Q 2194 469 2647 469 
Q 3041 469 3416 620 
Q 3791 772 3984 944 
L 3984 1797 
L 2638 1797 
z
" transform="scale(0.015625)"/>
       <path id="ArialMT-57" d="M 1294 0 
L 78 4581 
L 700 4581 
L 1397 1578 
Q 1509 1106 1591 641 
Q 1766 1375 1797 1488 
L 2669 4581 
L 3400 4581 
L 4056 2263 
Q 4303 1400 4413 641 
Q 4500 1075 4641 1638 
L 5359 4581 
L 5969 4581 
L 4713 0 
L 4128 0 
L 3163 3491 
Q 3041 3928 3019 4028 
Q 2947 3713 2884 3491 
L 1913 0 
L 1294 0 
z
" transform="scale(0.015625)"/>
       <path id="ArialMT-50" d="M 494 0 
L 494 4581 
L 2222 4581 
Q 2678 4581 2919 4538 
Q 3256 4481 3484 4323 
Q 3713 4166 3852 3881 
Q 3991 3597 3991 3256 
Q 3991 2672 3619 2267 
Q 3247 1863 2275 1863 
L 1100 1863 
L 1100 0 
L 494 0 
z
M 1100 2403 
L 2284 2403 
Q 2872 2403 3119 2622 
Q 3366 2841 3366 3238 
Q 3366 3525 3220 3729 
Q 3075 3934 2838 4000 
Q 2684 4041 2272 4041 
L 1100 4041 
L 1100 2403 
z
" transform="scale(0.015625)"/>
       <path id="ArialMT-20" transform="scale(0.015625)"/>
       <path id="ArialMT-5b" d="M 434 -1272 
L 434 4581 
L 1675 4581 
L 1675 4116 
L 997 4116 
L 997 -806 
L 1675 -806 
L 1675 -1272 
L 434 -1272 
z
" transform="scale(0.015625)"/>
       <path id="ArialMT-6b" d="M 425 0 
L 425 4581 
L 988 4581 
L 988 1969 
L 2319 3319 
L 3047 3319 
L 1778 2088 
L 3175 0 
L 2481 0 
L 1384 1697 
L 988 1316 
L 988 0 
L 425 0 
z
" transform="scale(0.015625)"/>
       <path id="ArialMT-67" d="M 319 -275 
L 866 -356 
Q 900 -609 1056 -725 
Q 1266 -881 1628 -881 
Q 2019 -881 2231 -725 
Q 2444 -569 2519 -288 
Q 2563 -116 2559 434 
Q 2191 0 1641 0 
Q 956 0 581 494 
Q 206 988 206 1678 
Q 206 2153 378 2554 
Q 550 2956 876 3175 
Q 1203 3394 1644 3394 
Q 2231 3394 2613 2919 
L 2613 3319 
L 3131 3319 
L 3131 450 
Q 3131 -325 2973 -648 
Q 2816 -972 2473 -1159 
Q 2131 -1347 1631 -1347 
Q 1038 -1347 672 -1080 
Q 306 -813 319 -275 
z
M 784 1719 
Q 784 1066 1043 766 
Q 1303 466 1694 466 
Q 2081 466 2343 764 
Q 2606 1063 2606 1700 
Q 2606 2309 2336 2618 
Q 2066 2928 1684 2928 
Q 1309 2928 1046 2623 
Q 784 2319 784 1719 
z
" transform="scale(0.015625)"/>
       <path id="ArialMT-43" d="M 3763 1606 
L 4369 1453 
Q 4178 706 3683 314 
Q 3188 -78 2472 -78 
Q 1731 -78 1267 223 
Q 803 525 561 1097 
Q 319 1669 319 2325 
Q 319 3041 592 3573 
Q 866 4106 1370 4382 
Q 1875 4659 2481 4659 
Q 3169 4659 3637 4309 
Q 4106 3959 4291 3325 
L 3694 3184 
Q 3534 3684 3231 3912 
Q 2928 4141 2469 4141 
Q 1941 4141 1586 3887 
Q 1231 3634 1087 3207 
Q 944 2781 944 2328 
Q 944 1744 1114 1308 
Q 1284 872 1643 656 
Q 2003 441 2422 441 
Q 2931 441 3284 734 
Q 3638 1028 3763 1606 
z
" transform="scale(0.015625)"/>
       <path id="ArialMT-4f" d="M 309 2231 
Q 309 3372 921 4017 
Q 1534 4663 2503 4663 
Q 3138 4663 3647 4359 
Q 4156 4056 4423 3514 
Q 4691 2972 4691 2284 
Q 4691 1588 4409 1038 
Q 4128 488 3612 205 
Q 3097 -78 2500 -78 
Q 1853 -78 1343 234 
Q 834 547 571 1087 
Q 309 1628 309 2231 
z
M 934 2222 
Q 934 1394 1379 917 
Q 1825 441 2497 441 
Q 3181 441 3623 922 
Q 4066 1403 4066 2288 
Q 4066 2847 3877 3264 
Q 3688 3681 3323 3911 
Q 2959 4141 2506 4141 
Q 1863 4141 1398 3698 
Q 934 3256 934 2222 
z
" transform="scale(0.015625)"/>
       <path id="DejaVuSans-32" d="M 1228 531 
L 3431 531 
L 3431 0 
L 469 0 
L 469 531 
Q 828 903 1448 1529 
Q 2069 2156 2228 2338 
Q 2531 2678 2651 2914 
Q 2772 3150 2772 3378 
Q 2772 3750 2511 3984 
Q 2250 4219 1831 4219 
Q 1534 4219 1204 4116 
Q 875 4013 500 3803 
L 500 4441 
Q 881 4594 1212 4672 
Q 1544 4750 1819 4750 
Q 2544 4750 2975 4387 
Q 3406 4025 3406 3419 
Q 3406 3131 3298 2873 
Q 3191 2616 2906 2266 
Q 2828 2175 2409 1742 
Q 1991 1309 1228 531 
z
" transform="scale(0.015625)"/>
       <path id="ArialMT-2d" d="M 203 1375 
L 203 1941 
L 1931 1941 
L 1931 1375 
L 203 1375 
z
" transform="scale(0.015625)"/>
       <path id="ArialMT-65" d="M 2694 1069 
L 3275 997 
Q 3138 488 2766 206 
Q 2394 -75 1816 -75 
Q 1088 -75 661 373 
Q 234 822 234 1631 
Q 234 2469 665 2931 
Q 1097 3394 1784 3394 
Q 2450 3394 2872 2941 
Q 3294 2488 3294 1666 
Q 3294 1616 3291 1516 
L 816 1516 
Q 847 969 1125 678 
Q 1403 388 1819 388 
Q 2128 388 2347 550 
Q 2566 713 2694 1069 
z
M 847 1978 
L 2700 1978 
Q 2663 2397 2488 2606 
Q 2219 2931 1791 2931 
Q 1403 2931 1139 2672 
Q 875 2413 847 1978 
z
" transform="scale(0.015625)"/>
       <path id="ArialMT-71" d="M 2538 -1272 
L 2538 353 
Q 2406 169 2170 47 
Q 1934 -75 1669 -75 
Q 1078 -75 651 397 
Q 225 869 225 1691 
Q 225 2191 398 2587 
Q 572 2984 901 3189 
Q 1231 3394 1625 3394 
Q 2241 3394 2594 2875 
L 2594 3319 
L 3100 3319 
L 3100 -1272 
L 2538 -1272 
z
M 803 1669 
Q 803 1028 1072 708 
Q 1341 388 1716 388 
Q 2075 388 2334 692 
Q 2594 997 2594 1619 
Q 2594 2281 2320 2615 
Q 2047 2950 1678 2950 
Q 1313 2950 1058 2639 
Q 803 2328 803 1669 
z
" transform="scale(0.015625)"/>
       <path id="DejaVuSans-2212" d="M 678 2272 
L 4684 2272 
L 4684 1741 
L 678 1741 
L 678 2272 
z
" transform="scale(0.015625)"/>
       <path id="DejaVuSans-31" d="M 794 531 
L 1825 531 
L 1825 4091 
L 703 3866 
L 703 4441 
L 1819 4666 
L 2450 4666 
L 2450 531 
L 3481 531 
L 3481 0 
L 794 0 
L 794 531 
z
" transform="scale(0.015625)"/>
       <path id="ArialMT-5d" d="M 1363 -1272 
L 122 -1272 
L 122 -806 
L 800 -806 
L 800 4116 
L 122 4116 
L 122 4581 
L 1363 4581 
L 1363 -1272 
z
" transform="scale(0.015625)"/>
      </defs>
      <use xlink:href="#ArialMT-47" transform="translate(0 0.684375)"/>
      <use xlink:href="#ArialMT-57" transform="translate(77.783203 0.684375)"/>
      <use xlink:href="#ArialMT-50" transform="translate(172.167969 0.684375)"/>
      <use xlink:href="#ArialMT-20" transform="translate(238.867188 0.684375)"/>
      <use xlink:href="#ArialMT-5b" transform="translate(266.650391 0.684375)"/>
      <use xlink:href="#ArialMT-6b" transform="translate(294.433594 0.684375)"/>
      <use xlink:href="#ArialMT-67" transform="translate(344.433594 0.684375)"/>
      <use xlink:href="#ArialMT-20" transform="translate(400.048828 0.684375)"/>
      <use xlink:href="#ArialMT-43" transform="translate(427.832031 0.684375)"/>
      <use xlink:href="#ArialMT-4f" transform="translate(500.048828 0.684375)"/>
      <use xlink:href="#DejaVuSans-32" transform="translate(578.789062 -15.721875) scale(0.7)"/>
      <use xlink:href="#ArialMT-2d" transform="translate(626.05957 0.684375)"/>
      <use xlink:href="#ArialMT-65" transform="translate(659.360352 0.684375)"/>
      <use xlink:href="#ArialMT-71" transform="translate(714.975586 0.684375)"/>
      <use xlink:href="#ArialMT-20" transform="translate(770.59082 0.684375)"/>
      <use xlink:href="#ArialMT-6b" transform="translate(798.374023 0.684375)"/>
      <use xlink:href="#ArialMT-67" transform="translate(848.374023 0.684375)"/>
      <use xlink:href="#DejaVuSans-2212" transform="translate(904.946289 38.965625) scale(0.7)"/>
      <use xlink:href="#DejaVuSans-31" transform="translate(963.598633 38.965625) scale(0.7)"/>
      <use xlink:href="#ArialMT-5d" transform="translate(1010.869141 0.684375)"/>
     </g>
    </g>
   </g>
   <g id="PathCollection_4">
    <g clip-path="url(#pcda8f8c63a)"/>
   </g>
   <g id="PathCollection_5">
    <g clip-path="url(#pcda8f8c63a)">
     <use xlink:href="#me7592f0e49" x="53.491444" y="184.420924" style="fill: #6dd2ea; stroke: #167f99"/>
    </g>
   </g>
   <g id="PathCollection_6">
    <g clip-path="url(#pcda8f8c63a)">
     <use xlink:href="#m49a4080833" x="53.491444" y="99.406404" style="fill: #fb7b71; stroke: #b71205"/>
    </g>
   </g>
   <g id="line2d_89">
    <g>
     <use xlink:href="#m731fb413ca" x="38.28" y="87.933359" style="stroke: #000000"/>
     <use xlink:href="#m731fb413ca" x="372.93176" y="87.933359" style="stroke: #000000"/>
    </g>
   </g>
   <g id="patch_25">
    <path d="M 38.28 255.666758 
L 38.28 87.933359 
" style="fill: none; stroke: #000000; stroke-width: 0.8; stroke-linejoin: miter; stroke-linecap: square"/>
   </g>
   <g id="patch_26">
    <path d="M 372.93176 255.666758 
L 372.93176 87.933359 
" style="fill: none; stroke: #000000; stroke-width: 0.8; stroke-linejoin: miter; stroke-linecap: square"/>
   </g>
   <g id="patch_27">
    <path d="M 38.28 255.666758 
L 372.93176 255.666758 
" style="fill: none; stroke: #000000; stroke-width: 0.8; stroke-linejoin: miter; stroke-linecap: square"/>
   </g>
  </g>
 </g>
 <defs>
  <clipPath id="p101eee95d0">
   <rect x="38.28" y="7.2" width="334.65176" height="67.093359"/>
  </clipPath>
  <clipPath id="pcda8f8c63a">
   <rect x="38.28" y="87.933359" width="334.65176" height="167.733399"/>
  </clipPath>
 </defs>
</svg>
