<?xml version="1.0" encoding="UTF-8" standalone="no"?>
<svg
   width="248.63754pt"
   height="241.92pt"
   viewBox="0 0 248.63755 241.92"
   version="1.1"
   id="svg4"
   xmlns="http://www.w3.org/2000/svg"
   xmlns:svg="http://www.w3.org/2000/svg"
   xmlns:rdf="http://www.w3.org/1999/02/22-rdf-syntax-ns#"
   xmlns:cc="http://creativecommons.org/ns#"
   xmlns:dc="http://purl.org/dc/elements/1.1/">
  <metadata
     id="metadata1">
    <rdf:RDF>
      <cc:Work>
        <dc:type
           rdf:resource="http://purl.org/dc/dcmitype/StillImage" />
        <dc:date>2024-05-30T11:36:26.840485</dc:date>
        <dc:format>image/svg+xml</dc:format>
        <dc:creator>
          <cc:Agent>
            <dc:title>Matplotlib v3.8.2, https://matplotlib.org/</dc:title>
          </cc:Agent>
        </dc:creator>
      </cc:Work>
    </rdf:RDF>
  </metadata>
  <defs
     id="defs1">
    <style
       type="text/css"
       id="style1">*{stroke-linejoin: round; stroke-linecap: butt}</style>
  </defs>
  <g
     id="figure_1"
     transform="translate(-61.441229,-19.296001)">
    <g
       id="patch_1">
      <path
         d="M 0,280.512 H 371.52 V 0 H 0 Z"
         style="fill:none"
         id="path1" />
    </g>
    <g
       id="axes_1">
      <g
         id="patch_2">
        <path
           d="m 180.23131,23.635892 c -19.34618,0 -38.40265,4.726085 -55.50691,13.765951 C 107.62014,46.441709 92.980376,59.524602 82.082282,75.509171 71.184188,91.49374 64.354174,109.90123 62.188089,129.12577 c -2.166084,19.22454 0.396638,38.69034 7.464594,56.69919 7.067957,18.00886 18.429455,34.02139 33.093317,46.64066 14.66386,12.61927 32.19089,21.46733 51.05203,25.77225 18.86113,4.30493 38.49147,3.9378 57.17845,-1.06936 18.68698,-5.00716 35.87091,-14.50439 50.05266,-27.66314 l -80.79783,-87.07933 z"
           style="fill:#5dafd8"
           id="path2" />
      </g>
      <g
         id="patch_3">
        <path
           d="m 272.08701,225.16548 c 17.49789,-16.23568 29.70244,-37.37459 35.014,-60.64605 5.31156,-23.27147 3.48746,-47.61232 -5.23321,-69.832214 L 191.28917,138.08615 Z"
           style="fill:#d2555a"
           id="path3" />
      </g>
      <g
         id="patch_4">
        <path
           d="M 301.8678,94.687216 C 293.14713,72.467322 277.9283,53.383519 258.20603,39.93711 238.48376,26.490701 215.15909,19.295996 191.28915,19.296 l 2e-5,118.79015 z"
           style="fill:#ffc36e"
           id="path4" />
      </g>
      <g
         id="matplotlib.axis_1" />
      <g
         id="matplotlib.axis_2" />
    </g>
  </g>
</svg>
