<?xml version="1.0" encoding="UTF-8" standalone="no"?>
<svg
   width="213.55659pt"
   height="231.81053pt"
   viewBox="0 0 213.5566 231.81053"
   version="1.1"
   id="svg123"
   xmlns:xlink="http://www.w3.org/1999/xlink"
   xmlns="http://www.w3.org/2000/svg"
   xmlns:svg="http://www.w3.org/2000/svg"
   xmlns:rdf="http://www.w3.org/1999/02/22-rdf-syntax-ns#"
   xmlns:cc="http://creativecommons.org/ns#"
   xmlns:dc="http://purl.org/dc/elements/1.1/">
  <metadata
     id="metadata1">
    <rdf:RDF>
      <cc:Work>
        <dc:type
           rdf:resource="http://purl.org/dc/dcmitype/StillImage" />
        <dc:date>2024-05-29T11:52:28.144676</dc:date>
        <dc:format>image/svg+xml</dc:format>
        <dc:creator>
          <cc:Agent>
            <dc:title>Matplotlib v3.8.2, https://matplotlib.org/</dc:title>
          </cc:Agent>
        </dc:creator>
      </cc:Work>
    </rdf:RDF>
  </metadata>
  <defs
     id="defs1">
    <style
       type="text/css"
       id="style1">*{stroke-linejoin: round; stroke-linecap: butt}</style>
  </defs>
  <g
     id="figure_1">
    <g
       id="patch_1">
      <path
         d="M 0,231.81053 H 213.5566 V 0 H 0 Z"
         style="fill:#ffffff"
         id="path1" />
    </g>
    <g
       id="axes_1">
      <g
         id="patch_2">
        <path
           d="M 37.72,185.26351 H 195.99365 V 16.2 H 37.72 Z"
           style="fill:#ffffff"
           id="path2" />
      </g>
      <g
         id="line2d_1">
        <path
           d="m 44.914257,171.30129 47.961714,2.36865 47.961709,1.14654 47.96172,2.76232"
           clip-path="url(#pfe92d9a84c)"
           style="fill:none;stroke:#000000;stroke-linecap:square"
           id="path3" />
      </g>
      <g
         id="line2d_2">
        <path
           d="m 44.914257,163.64841 47.961714,4.31602 47.961709,2.87163 47.96172,6.46583"
           clip-path="url(#pfe92d9a84c)"
           style="fill:none;stroke:#52318e;stroke-linecap:square"
           id="path4" />
      </g>
      <g
         id="line2d_3">
        <path
           d="M 44.914257,23.884705 92.875971,50.428023 140.83768,67.21807 188.7994,86.517665"
           clip-path="url(#pfe92d9a84c)"
           style="fill:none;stroke:#b71205;stroke-linecap:square"
           id="path5" />
      </g>
      <g
         id="line2d_4">
        <path
           d="M 44.914257,44.125075 92.875971,58.607422 140.83768,68.911417 188.7994,82.421038"
           clip-path="url(#pfe92d9a84c)"
           style="fill:none;stroke:#167f99;stroke-linecap:square"
           id="path6" />
      </g>
      <g
         id="PathCollection_1">
        <defs
           id="defs6">
          <path
             id="mb2c6ea105b"
             d="m 0,2.236068 c 0.593012,0 1.161816,-0.235606 1.581139,-0.654929 C 2.000462,1.161816 2.236068,0.593012 2.236068,0 c 0,-0.593012 -0.235606,-1.161816 -0.654929,-1.581139 C 1.161816,-2.000462 0.593012,-2.236068 0,-2.236068 c -0.593012,0 -1.161816,0.235606 -1.581139,0.654929 C -2.000462,-1.161816 -2.236068,-0.593012 -2.236068,0 c 0,0.593012 0.235606,1.161816 0.654929,1.581139 C -1.161816,2.000462 -0.593012,2.236068 0,2.236068 Z"
             style="stroke:#000000" />
        </defs>
        <g
           clip-path="url(#pfe92d9a84c)"
           id="g6">
          <use
             xlink:href="#mb2c6ea105b"
             x="44.914257"
             y="171.3013"
             style="fill:#d8d8d8;stroke:#000000"
             id="use6" />
        </g>
      </g>
      <g
         id="PathCollection_2">
        <defs
           id="defs7">
          <path
             id="m2b88015f64"
             d="M 0,3.162278 1.897367,0 0,-3.162278 -1.897367,0 Z"
             style="stroke:#52318e" />
        </defs>
        <g
           clip-path="url(#pfe92d9a84c)"
           id="g7">
          <use
             xlink:href="#m2b88015f64"
             x="44.914257"
             y="163.64841"
             style="fill:#a78dd8;stroke:#52318e"
             id="use7" />
        </g>
      </g>
      <g
         id="PathCollection_3">
        <defs
           id="defs8">
          <path
             id="mc614776005"
             d="m 0,-2.236068 -1.936492,1.118034 V 1.118034 L 0,2.236068 1.936492,1.118034 v -2.236068 z"
             style="stroke:#b71205" />
        </defs>
        <g
           clip-path="url(#pfe92d9a84c)"
           id="g8">
          <use
             xlink:href="#mc614776005"
             x="44.914257"
             y="23.884705"
             style="fill:#fb7b71;stroke:#b71205"
             id="use8" />
        </g>
      </g>
      <g
         id="PathCollection_4">
        <defs
           id="defs9">
          <path
             id="meeb741e385"
             d="M 0,-2.236068 -2.236068,2.236068 H 2.236068 Z"
             style="stroke:#167f99" />
        </defs>
        <g
           clip-path="url(#pfe92d9a84c)"
           id="g9">
          <use
             xlink:href="#meeb741e385"
             x="44.914257"
             y="44.125076"
             style="fill:#6dd2ea;stroke:#167f99"
             id="use9" />
        </g>
      </g>
      <g
         id="matplotlib.axis_1">
        <g
           id="xtick_1">
          <g
             id="line2d_5">
            <defs
               id="defs10">
              <path
                 id="m5f45b49418"
                 d="M 0,0 V 3.5"
                 style="stroke:#000000;stroke-width:0.8" />
            </defs>
            <g
               id="g10">
              <use
                 xlink:href="#m5f45b49418"
                 x="44.914257"
                 y="185.2635"
                 style="stroke:#000000;stroke-width:0.8"
                 id="use10" />
            </g>
          </g>
          <g
             id="text_1">
            <!-- 2020 -->
            <g
               transform="matrix(0.08,0,0,-0.08,36.490507,198.26351)"
               id="g14">
              <defs
                 id="defs11">
                <path
                   id="FiraSans-Regular-32"
                   d="m 1459,4346 q 384,0 675,-154 292,-154 452,-420 160,-265 160,-598 0,-390 -176,-749 Q 2394,2067 2029,1651 1664,1235 922,493 H 2848 L 2778,0 H 250 v 467 q 857,890 1215,1302 359,413 512,720 154,308 154,660 0,333 -192,521 -192,189 -512,189 -262,0 -461,-109 -198,-108 -422,-358 l -384,307 q 262,327 582,487 320,160 717,160 z"
                   transform="scale(0.015625)" />
                <path
                   id="FiraSans-Regular-30"
                   d="m 1786,4346 q 710,0 1071,-567 362,-566 362,-1641 0,-1076 -362,-1646 -361,-569 -1071,-569 -711,0 -1073,569 -361,570 -361,1646 0,1075 361,1641 362,567 1073,567 z m 0,-468 q -416,0 -618,-410 -202,-409 -202,-1330 0,-922 202,-1335 202,-413 618,-413 409,0 614,413 205,413 205,1335 0,915 -205,1327 -205,413 -614,413 z"
                   transform="scale(0.015625)" />
              </defs>
              <use
                 xlink:href="#FiraSans-Regular-32"
                 id="use11" />
              <use
                 xlink:href="#FiraSans-Regular-30"
                 x="49.499985"
                 id="use12" />
              <use
                 xlink:href="#FiraSans-Regular-32"
                 x="105.29997"
                 id="use13" />
              <use
                 xlink:href="#FiraSans-Regular-30"
                 x="154.79996"
                 id="use14" />
            </g>
          </g>
        </g>
        <g
           id="xtick_2">
          <g
             id="line2d_6">
            <g
               id="g15">
              <use
                 xlink:href="#m5f45b49418"
                 x="92.875969"
                 y="185.2635"
                 style="stroke:#000000;stroke-width:0.8"
                 id="use15" />
            </g>
          </g>
          <g
             id="text_2">
            <!-- 2030 -->
            <g
               transform="matrix(0.08,0,0,-0.08,84.435971,198.26351)"
               id="g19">
              <defs
                 id="defs15">
                <path
                   id="FiraSans-Regular-33"
                   d="m 1440,4346 q 397,0 681,-148 285,-147 435,-397 151,-249 151,-543 0,-391 -227,-644 -227,-252 -605,-342 429,-38 698,-307 269,-269 269,-730 0,-371 -180,-672 Q 2483,262 2150,92 1818,-77 1382,-77 992,-77 665,67 339,211 96,499 l 352,327 q 211,-218 432,-321 221,-102 483,-102 403,0 633,227 231,228 231,612 0,422 -218,595 -217,173 -633,173 h -320 l 70,454 h 218 q 333,0 553,198 221,199 221,557 0,301 -192,477 -192,176 -518,176 -250,0 -458,-90 -208,-89 -425,-294 l -307,352 q 544,506 1222,506 z"
                   transform="scale(0.015625)" />
              </defs>
              <use
                 xlink:href="#FiraSans-Regular-32"
                 id="use16" />
              <use
                 xlink:href="#FiraSans-Regular-30"
                 x="49.499985"
                 id="use17" />
              <use
                 xlink:href="#FiraSans-Regular-33"
                 x="105.29997"
                 id="use18" />
              <use
                 xlink:href="#FiraSans-Regular-30"
                 x="155.19997"
                 id="use19" />
            </g>
          </g>
        </g>
        <g
           id="xtick_3">
          <g
             id="line2d_7">
            <g
               id="g20">
              <use
                 xlink:href="#m5f45b49418"
                 x="140.83769"
                 y="185.2635"
                 style="stroke:#000000;stroke-width:0.8"
                 id="use20" />
            </g>
          </g>
          <g
             id="text_3">
            <!-- 2040 -->
            <g
               transform="matrix(0.08,0,0,-0.08,132.26581,198.26351)"
               id="g24">
              <defs
                 id="defs20">
                <path
                   id="FiraSans-Regular-34"
                   d="M 3213,1523 V 1056 H 2656 V 0 H 2086 V 1056 H 256 v 422 L 1542,4346 2035,4141 877,1523 h 1216 l 51,1152 h 512 V 1523 Z"
                   transform="scale(0.015625)" />
              </defs>
              <use
                 xlink:href="#FiraSans-Regular-32"
                 id="use21" />
              <use
                 xlink:href="#FiraSans-Regular-30"
                 x="49.499985"
                 id="use22" />
              <use
                 xlink:href="#FiraSans-Regular-34"
                 x="105.29997"
                 id="use23" />
              <use
                 xlink:href="#FiraSans-Regular-30"
                 x="158.49997"
                 id="use24" />
            </g>
          </g>
        </g>
        <g
           id="xtick_4">
          <g
             id="line2d_8">
            <g
               id="g25">
              <use
                 xlink:href="#m5f45b49418"
                 x="188.79939"
                 y="185.2635"
                 style="stroke:#000000;stroke-width:0.8"
                 id="use25" />
            </g>
          </g>
          <g
             id="text_4">
            <!-- 2050 -->
            <g
               transform="matrix(0.08,0,0,-0.08,180.3519,198.26351)"
               id="g29">
              <defs
                 id="defs25">
                <path
                   id="FiraSans-Regular-35"
                   d="M 2688,3821 H 1018 V 2560 q 326,166 684,166 551,0 883,-362 333,-361 333,-994 0,-423 -186,-753 Q 2547,288 2211,105 1875,-77 1434,-77 1043,-77 736,60 429,198 166,467 l 346,339 q 205,-204 422,-304 218,-99 493,-99 410,0 643,256 234,256 234,723 0,468 -211,679 -211,211 -570,211 -166,0 -307,-35 -141,-35 -301,-112 H 454 v 2157 h 2317 z"
                   transform="scale(0.015625)" />
              </defs>
              <use
                 xlink:href="#FiraSans-Regular-32"
                 id="use26" />
              <use
                 xlink:href="#FiraSans-Regular-30"
                 x="49.499985"
                 id="use27" />
              <use
                 xlink:href="#FiraSans-Regular-35"
                 x="105.29997"
                 id="use28" />
              <use
                 xlink:href="#FiraSans-Regular-30"
                 x="155.39996"
                 id="use29" />
            </g>
          </g>
        </g>
      </g>
      <g
         id="matplotlib.axis_2">
        <g
           id="ytick_1">
          <g
             id="line2d_9">
            <defs
               id="defs29">
              <path
                 id="mceb74c17e0"
                 d="M 0,0 H -3.5"
                 style="stroke:#000000;stroke-width:0.8" />
            </defs>
            <g
               id="g30">
              <use
                 xlink:href="#mceb74c17e0"
                 x="37.720001"
                 y="169.47716"
                 style="stroke:#000000;stroke-width:0.8"
                 id="use30" />
            </g>
          </g>
          <g
             id="text_5">
            <!-- $\mathdefault{0.2}$ -->
            <g
               transform="matrix(0.08,0,0,-0.08,20.32,172.47716)"
               id="g33">
              <defs
                 id="defs30">
                <path
                   id="FiraSans-Regular-2e"
                   d="M 762,813 Q 954,813 1082,685 1210,557 1210,371 1210,186 1082,54 954,-77 762,-77 576,-77 448,54 320,186 320,371 q 0,186 128,314 128,128 314,128 z"
                   transform="scale(0.015625)" />
              </defs>
              <use
                 xlink:href="#FiraSans-Regular-30"
                 transform="translate(0,0.09375)"
                 id="use31" />
              <use
                 xlink:href="#FiraSans-Regular-2e"
                 transform="translate(55.799988,0.09375)"
                 id="use32" />
              <use
                 xlink:href="#FiraSans-Regular-32"
                 transform="translate(79.799973,0.09375)"
                 id="use33" />
            </g>
          </g>
        </g>
        <g
           id="ytick_2">
          <g
             id="line2d_10">
            <g
               id="g34">
              <use
                 xlink:href="#mceb74c17e0"
                 x="37.720001"
                 y="137.36072"
                 style="stroke:#000000;stroke-width:0.8"
                 id="use34" />
            </g>
          </g>
          <g
             id="text_6">
            <!-- $\mathdefault{0.4}$ -->
            <g
               transform="matrix(0.08,0,0,-0.08,20.08,140.36071)"
               id="g37">
              <use
                 xlink:href="#FiraSans-Regular-30"
                 transform="translate(0,0.09375)"
                 id="use35" />
              <use
                 xlink:href="#FiraSans-Regular-2e"
                 transform="translate(55.799988,0.09375)"
                 id="use36" />
              <use
                 xlink:href="#FiraSans-Regular-34"
                 transform="translate(79.799973,0.09375)"
                 id="use37" />
            </g>
          </g>
        </g>
        <g
           id="ytick_3">
          <g
             id="line2d_11">
            <g
               id="g38">
              <use
                 xlink:href="#mceb74c17e0"
                 x="37.720001"
                 y="105.24426"
                 style="stroke:#000000;stroke-width:0.8"
                 id="use38" />
            </g>
          </g>
          <g
             id="text_7">
            <!-- $\mathdefault{0.6}$ -->
            <g
               transform="matrix(0.08,0,0,-0.08,20,108.24426)"
               id="g41">
              <defs
                 id="defs38">
                <path
                   id="FiraSans-Regular-36"
                   d="m 1971,2816 q 327,0 595,-154 269,-153 429,-461 160,-307 160,-748 0,-455 -183,-804 Q 2790,301 2480,112 2170,-77 1792,-77 1043,-77 697,476 352,1030 352,2010 q 0,697 195,1225 195,528 560,819 365,292 864,292 487,0 883,-263 l -230,-390 q -301,185 -659,185 -461,0 -730,-442 -269,-441 -294,-1183 397,563 1030,563 z M 1792,390 q 371,0 569,282 199,282 199,762 0,915 -691,915 -282,0 -519,-157 -236,-157 -403,-432 19,-704 221,-1037 202,-333 624,-333 z"
                   transform="scale(0.015625)" />
              </defs>
              <use
                 xlink:href="#FiraSans-Regular-30"
                 transform="translate(0,0.09375)"
                 id="use39" />
              <use
                 xlink:href="#FiraSans-Regular-2e"
                 transform="translate(55.799988,0.09375)"
                 id="use40" />
              <use
                 xlink:href="#FiraSans-Regular-36"
                 transform="translate(79.799973,0.09375)"
                 id="use41" />
            </g>
          </g>
        </g>
        <g
           id="ytick_4">
          <g
             id="line2d_12">
            <g
               id="g42">
              <use
                 xlink:href="#mceb74c17e0"
                 x="37.720001"
                 y="73.127808"
                 style="stroke:#000000;stroke-width:0.8"
                 id="use42" />
            </g>
          </g>
          <g
             id="text_8">
            <!-- $\mathdefault{0.8}$ -->
            <g
               transform="matrix(0.08,0,0,-0.08,19.92,76.12781)"
               id="g45">
              <defs
                 id="defs42">
                <path
                   id="FiraSans-Regular-38"
                   d="M 2336,2298 Q 3238,1933 3238,1146 3238,794 3049,515 2861,237 2521,80 2182,-77 1754,-77 1318,-77 985,76 653,230 470,505 288,781 288,1133 q 0,397 214,665 215,269 631,448 -339,173 -503,419 -163,247 -163,580 0,345 182,595 183,250 480,378 298,128 637,128 333,0 630,-122 298,-122 484,-368 186,-246 186,-592 0,-320 -180,-551 -179,-230 -550,-415 z m -570,1606 q -332,0 -528,-173 -195,-173 -195,-493 0,-307 189,-467 189,-160 605,-294 l 109,-39 q 288,167 416,352 128,186 128,455 0,301 -189,480 -189,179 -535,179 z m -6,-3514 q 397,0 630,205 234,205 234,544 0,231 -90,387 -89,157 -288,275 -198,119 -556,241 l -160,57 Q 1210,1946 1056,1712 902,1478 902,1133 902,781 1132,585 1363,390 1760,390 Z"
                   transform="scale(0.015625)" />
              </defs>
              <use
                 xlink:href="#FiraSans-Regular-30"
                 transform="translate(0,0.09375)"
                 id="use43" />
              <use
                 xlink:href="#FiraSans-Regular-2e"
                 transform="translate(55.799988,0.09375)"
                 id="use44" />
              <use
                 xlink:href="#FiraSans-Regular-38"
                 transform="translate(79.799973,0.09375)"
                 id="use45" />
            </g>
          </g>
        </g>
        <g
           id="ytick_5">
          <g
             id="line2d_13">
            <g
               id="g46">
              <use
                 xlink:href="#mceb74c17e0"
                 x="37.720001"
                 y="41.01136"
                 style="stroke:#000000;stroke-width:0.8"
                 id="use46" />
            </g>
          </g>
          <g
             id="text_9">
            <!-- $\mathdefault{1.0}$ -->
            <g
               transform="matrix(0.08,0,0,-0.08,20.8,44.011359)"
               id="g49">
              <defs
                 id="defs46">
                <path
                   id="FiraSans-Regular-31"
                   d="M 2067,4282 V 0 h -589 v 3654 l -998,-608 -256,416 1325,820 z"
                   transform="scale(0.015625)" />
              </defs>
              <use
                 xlink:href="#FiraSans-Regular-31"
                 transform="translate(0,0.09375)"
                 id="use47" />
              <use
                 xlink:href="#FiraSans-Regular-2e"
                 transform="translate(43.299988,0.09375)"
                 id="use48" />
              <use
                 xlink:href="#FiraSans-Regular-30"
                 transform="translate(67.299973,0.09375)"
                 id="use49" />
            </g>
          </g>
        </g>
        <g
           id="text_10">
          <!-- Particulate matter [disease incidence kg$^\mathdefault{-1}$] -->
          <g
             transform="matrix(0,-0.08,-0.08,0,14.08,178.65175)"
             id="g92">
            <defs
               id="defs49">
              <path
                 id="FiraSans-Bold-50"
                 d="m 1850,4435 q 876,0 1362,-365 487,-364 487,-1081 0,-749 -477,-1130 -476,-381 -1276,-381 H 1466 V 0 H 416 v 4435 z m 6,-2201 q 371,0 566,176 196,176 196,579 0,697 -781,697 H 1466 V 2234 Z"
                 transform="scale(0.015625)" />
              <path
                 id="FiraSans-Bold-61"
                 d="m 3098,986 q 0,-192 54,-282 54,-90 176,-134 L 3117,-90 q -314,26 -513,138 -198,112 -306,355 -333,-512 -1024,-512 -506,0 -807,294 -301,295 -301,769 0,556 410,850 410,295 1184,295 h 346 v 147 q 0,301 -128,413 -128,112 -448,112 -167,0 -404,-48 -236,-48 -486,-131 l -230,666 q 320,121 656,185 336,64 624,64 729,0 1068,-301 340,-300 340,-902 z M 1568,614 q 346,0 538,327 v 601 h -250 q -346,0 -516,-122 -169,-121 -169,-377 0,-205 105,-317 106,-112 292,-112 z"
                 transform="scale(0.015625)" />
              <path
                 id="FiraSans-Bold-72"
                 d="m 2240,3494 q 186,0 339,-44 l -160,-980 q -192,45 -307,45 -301,0 -458,-208 -156,-208 -246,-624 V 0 H 397 v 3398 h 883 l 83,-659 q 115,352 349,553 234,202 528,202 z"
                 transform="scale(0.015625)" />
              <path
                 id="FiraSans-Bold-74"
                 d="M 2528,160 Q 2342,32 2096,-38 1850,-109 1606,-109 493,-102 493,1120 V 2694 H 13 v 704 h 480 v 736 l 1011,116 v -852 h 781 L 2176,2694 H 1504 V 1133 q 0,-237 77,-340 77,-102 243,-102 173,0 365,109 z"
                 transform="scale(0.015625)" />
              <path
                 id="FiraSans-Bold-69"
                 d="M 1408,3398 V 0 H 397 V 3398 Z M 896,5190 q 262,0 432,-163 170,-163 170,-413 0,-249 -170,-413 -170,-163 -432,-163 -262,0 -429,163 -166,164 -166,413 0,250 166,413 167,163 429,163 z"
                 transform="scale(0.015625)" />
              <path
                 id="FiraSans-Bold-63"
                 d="m 1869,3507 q 352,0 633,-103 282,-102 532,-313 l -436,-601 q -320,243 -646,243 -339,0 -512,-250 -173,-249 -173,-806 0,-538 173,-762 173,-224 499,-224 173,0 314,54 141,55 339,177 l 442,-628 q -506,-403 -1146,-403 -518,0 -896,221 -378,221 -583,621 -204,400 -204,937 0,538 204,954 205,416 583,649 378,234 877,234 z"
                 transform="scale(0.015625)" />
              <path
                 id="FiraSans-Bold-75"
                 d="m 3264,0 h -877 l -45,429 Q 1971,-109 1312,-109 845,-109 605,172 365,454 365,960 V 3398 H 1376 V 1088 q 0,-250 80,-349 80,-99 246,-99 320,0 551,397 v 2361 h 1011 z"
                 transform="scale(0.015625)" />
              <path
                 id="FiraSans-Bold-6c"
                 d="M 1299,-109 Q 858,-109 611,144 365,397 365,864 v 3885 l 1011,109 V 902 q 0,-211 173,-211 89,0 166,32 L 1914,6 q -276,-115 -615,-115 z"
                 transform="scale(0.015625)" />
              <path
                 id="FiraSans-Bold-65"
                 d="m 3360,1766 q 0,-211 -19,-364 H 1235 q 51,-429 243,-602 192,-173 532,-173 204,0 396,73 192,74 416,228 l 416,-563 q -595,-474 -1324,-474 -826,0 -1268,486 -441,487 -441,1306 0,519 185,931 186,413 544,653 359,240 858,240 736,0 1152,-461 416,-460 416,-1280 z m -992,288 q -13,781 -550,781 -263,0 -407,-192 -144,-192 -176,-633 h 1133 z"
                 transform="scale(0.015625)" />
              <path
                 id="FiraSans-Bold-20"
                 transform="scale(0.015625)"
                 d="" />
              <path
                 id="FiraSans-Bold-6d"
                 d="m 4154,3507 q 403,0 646,-272 243,-272 243,-752 V 0 H 4032 v 2310 q 0,455 -288,455 -160,0 -282,-109 -121,-109 -236,-333 V 0 H 2214 v 2310 q 0,455 -288,455 -153,0 -278,-112 -125,-112 -240,-330 V 0 H 397 v 3398 h 883 l 70,-396 q 199,256 439,380 240,125 547,125 288,0 496,-141 208,-140 304,-396 205,275 451,406 247,131 567,131 z"
                 transform="scale(0.015625)" />
              <path
                 id="FiraSans-Bold-5b"
                 d="M 1914,5267 V 4512 H 1178 V -38 h 736 V -787 H 218 v 6054 z"
                 transform="scale(0.015625)" />
              <path
                 id="FiraSans-Bold-64"
                 d="M 3443,4749 V 0 h -896 l -51,397 q -358,-506 -966,-506 -634,0 -964,486 -329,487 -329,1332 0,518 172,927 173,410 490,640 317,231 727,231 486,0 806,-320 V 4858 Z M 1843,634 q 352,0 589,384 v 1465 q -122,147 -247,217 -124,71 -284,71 -282,0 -449,-263 -166,-262 -166,-806 0,-595 144,-832 144,-236 413,-236 z"
                 transform="scale(0.015625)" />
              <path
                 id="FiraSans-Bold-73"
                 d="m 1594,3507 q 364,0 684,-109 320,-108 564,-307 l -372,-569 q -416,262 -838,262 -198,0 -304,-67 -106,-67 -106,-189 0,-96 48,-157 48,-61 195,-125 148,-64 455,-153 531,-154 790,-401 260,-246 260,-681 0,-345 -199,-598 Q 2573,160 2227,25 1882,-109 1459,-109 1030,-109 662,25 294,160 38,397 l 493,550 q 429,-333 903,-333 230,0 361,83 131,84 131,237 0,122 -51,192 -51,71 -198,131 -147,61 -467,151 -506,147 -756,409 -249,263 -249,653 0,295 169,528 170,234 487,371 317,138 733,138 z"
                 transform="scale(0.015625)" />
              <path
                 id="FiraSans-Bold-6e"
                 d="m 2387,3507 q 442,0 691,-269 250,-268 250,-755 V 0 H 2317 v 2310 q 0,256 -80,355 -80,100 -240,100 -307,0 -589,-442 V 0 H 397 v 3398 h 883 l 70,-403 q 218,256 471,384 253,128 566,128 z"
                 transform="scale(0.015625)" />
              <path
                 id="FiraSans-Bold-6b"
                 d="M 1408,4858 V 0 H 397 V 4749 Z M 3507,3398 2477,1907 3590,0 H 2451 L 1440,1856 2477,3398 Z"
                 transform="scale(0.015625)" />
              <path
                 id="FiraSans-Bold-67"
                 d="m 3526,3200 q -332,-134 -979,-134 333,-141 486,-346 154,-205 154,-531 0,-327 -173,-586 -172,-259 -496,-406 -323,-147 -758,-147 -205,0 -390,38 -52,-26 -81,-80 -28,-54 -28,-112 0,-96 73,-151 74,-54 298,-54 h 512 q 390,0 684,-128 295,-128 455,-352 160,-224 160,-505 0,-532 -458,-829 -457,-298 -1321,-298 -621,0 -980,132 -358,131 -502,368 -144,236 -144,595 h 909 q 0,-154 61,-243 61,-90 221,-135 160,-45 461,-45 416,0 576,100 160,99 160,284 0,154 -122,244 -122,89 -365,89 h -493 q -524,0 -784,189 -259,189 -259,483 0,186 109,362 109,176 294,291 -320,173 -464,406 -144,234 -144,567 0,569 410,905 410,336 1082,336 512,-13 867,102 355,116 733,340 z M 1715,2842 q -237,0 -375,-151 -137,-150 -137,-413 0,-275 137,-426 138,-150 375,-150 250,0 381,147 131,148 131,442 0,551 -512,551 z"
                 transform="scale(0.015625)" />
              <path
                 id="FiraSans-Bold-2212"
                 d="m 307,1734 v 781 h 2701 v -781 z"
                 transform="scale(0.015625)" />
              <path
                 id="FiraSans-Bold-31"
                 d="M 2445,4326 V 0 H 1453 V 3341 L 525,2771 83,3443 1542,4326 Z"
                 transform="scale(0.015625)" />
              <path
                 id="FiraSans-Bold-5d"
                 d="M 1856,5267 V -787 H 160 V -32 H 896 V 4512 H 160 v 755 z"
                 transform="scale(0.015625)" />
            </defs>
            <use
               xlink:href="#FiraSans-Bold-50"
               transform="translate(0,0.403125)"
               id="use50" />
            <use
               xlink:href="#FiraSans-Bold-61"
               transform="translate(59.999985,0.403125)"
               id="use51" />
            <use
               xlink:href="#FiraSans-Bold-72"
               transform="translate(114.79997,0.403125)"
               id="use52" />
            <use
               xlink:href="#FiraSans-Bold-74"
               transform="translate(154.89996,0.403125)"
               id="use53" />
            <use
               xlink:href="#FiraSans-Bold-69"
               transform="translate(193.49995,0.403125)"
               id="use54" />
            <use
               xlink:href="#FiraSans-Bold-63"
               transform="translate(221.69995,0.403125)"
               id="use55" />
            <use
               xlink:href="#FiraSans-Bold-75"
               transform="translate(269.59994,0.403125)"
               id="use56" />
            <use
               xlink:href="#FiraSans-Bold-6c"
               transform="translate(326.79994,0.403125)"
               id="use57" />
            <use
               xlink:href="#FiraSans-Bold-61"
               transform="translate(356.49994,0.403125)"
               id="use58" />
            <use
               xlink:href="#FiraSans-Bold-74"
               transform="translate(411.29993,0.403125)"
               id="use59" />
            <use
               xlink:href="#FiraSans-Bold-65"
               transform="translate(449.89992,0.403125)"
               id="use60" />
            <use
               xlink:href="#FiraSans-Bold-20"
               transform="translate(505.09991,0.403125)"
               id="use61" />
            <use
               xlink:href="#FiraSans-Bold-6d"
               transform="translate(528.79991,0.403125)"
               id="use62" />
            <use
               xlink:href="#FiraSans-Bold-61"
               transform="translate(613.2999,0.403125)"
               id="use63" />
            <use
               xlink:href="#FiraSans-Bold-74"
               transform="translate(668.09988,0.403125)"
               id="use64" />
            <use
               xlink:href="#FiraSans-Bold-74"
               transform="translate(706.69988,0.403125)"
               id="use65" />
            <use
               xlink:href="#FiraSans-Bold-65"
               transform="translate(745.29987,0.403125)"
               id="use66" />
            <use
               xlink:href="#FiraSans-Bold-72"
               transform="translate(800.49986,0.403125)"
               id="use67" />
            <use
               xlink:href="#FiraSans-Bold-20"
               transform="translate(840.59985,0.403125)"
               id="use68" />
            <use
               xlink:href="#FiraSans-Bold-5b"
               transform="translate(864.29985,0.403125)"
               id="use69" />
            <use
               xlink:href="#FiraSans-Bold-64"
               transform="translate(896.69984,0.403125)"
               id="use70" />
            <use
               xlink:href="#FiraSans-Bold-69"
               transform="translate(956.69983,0.403125)"
               id="use71" />
            <use
               xlink:href="#FiraSans-Bold-73"
               transform="translate(984.89983,0.403125)"
               id="use72" />
            <use
               xlink:href="#FiraSans-Bold-65"
               transform="translate(1033.1998,0.403125)"
               id="use73" />
            <use
               xlink:href="#FiraSans-Bold-61"
               transform="translate(1088.3998,0.403125)"
               id="use74" />
            <use
               xlink:href="#FiraSans-Bold-73"
               transform="translate(1143.1998,0.403125)"
               id="use75" />
            <use
               xlink:href="#FiraSans-Bold-65"
               transform="translate(1191.4998,0.403125)"
               id="use76" />
            <use
               xlink:href="#FiraSans-Bold-20"
               transform="translate(1246.6998,0.403125)"
               id="use77" />
            <use
               xlink:href="#FiraSans-Bold-69"
               transform="translate(1270.3998,0.403125)"
               id="use78" />
            <use
               xlink:href="#FiraSans-Bold-6e"
               transform="translate(1298.5998,0.403125)"
               id="use79" />
            <use
               xlink:href="#FiraSans-Bold-63"
               transform="translate(1356.2998,0.403125)"
               id="use80" />
            <use
               xlink:href="#FiraSans-Bold-69"
               transform="translate(1404.1998,0.403125)"
               id="use81" />
            <use
               xlink:href="#FiraSans-Bold-64"
               transform="translate(1432.3998,0.403125)"
               id="use82" />
            <use
               xlink:href="#FiraSans-Bold-65"
               transform="translate(1492.3998,0.403125)"
               id="use83" />
            <use
               xlink:href="#FiraSans-Bold-6e"
               transform="translate(1547.5997,0.403125)"
               id="use84" />
            <use
               xlink:href="#FiraSans-Bold-63"
               transform="translate(1605.2997,0.403125)"
               id="use85" />
            <use
               xlink:href="#FiraSans-Bold-65"
               transform="translate(1653.1997,0.403125)"
               id="use86" />
            <use
               xlink:href="#FiraSans-Bold-20"
               transform="translate(1708.3997,0.403125)"
               id="use87" />
            <use
               xlink:href="#FiraSans-Bold-6b"
               transform="translate(1732.0997,0.403125)"
               id="use88" />
            <use
               xlink:href="#FiraSans-Bold-67"
               transform="translate(1787.2997,0.403125)"
               id="use89" />
            <use
               xlink:href="#FiraSans-Bold-2212"
               transform="matrix(0.7,0,0,0.7,1843.3568,38.684375)"
               id="use90" />
            <use
               xlink:href="#FiraSans-Bold-31"
               transform="matrix(0.7,0,0,0.7,1879.6867,38.684375)"
               id="use91" />
            <use
               xlink:href="#FiraSans-Bold-5d"
               transform="translate(1914.9011,0.403125)"
               id="use92" />
          </g>
        </g>
        <g
           id="text_11">
          <!-- $\times\mathdefault{10^{−7}}\mathdefault{}$ -->
          <g
             transform="matrix(0.08,0,0,-0.08,37.72,13.2)"
             id="g97">
            <defs
               id="defs92">
              <path
                 id="DejaVuSans-d7"
                 d="M 4488,3438 3059,2003 4488,575 4116,197 2681,1631 1247,197 878,575 2303,2003 878,3438 1247,3816 2681,2381 4116,3816 Z"
                 transform="scale(0.015625)" />
              <path
                 id="FiraSans-Regular-2212"
                 d="m 397,1882 v 492 h 2406 v -492 z"
                 transform="scale(0.015625)" />
              <path
                 id="FiraSans-Regular-37"
                 d="M 2650,4282 V 3840 L 1050,-64 512,115 2054,3802 H 160 v 480 z"
                 transform="scale(0.015625)" />
            </defs>
            <use
               xlink:href="#DejaVuSans-d7"
               transform="translate(0,0.273438)"
               id="use93" />
            <use
               xlink:href="#FiraSans-Regular-31"
               transform="translate(83.789062,0.273438)"
               id="use94" />
            <use
               xlink:href="#FiraSans-Regular-30"
               transform="translate(127.08905,0.273438)"
               id="use95" />
            <use
               xlink:href="#FiraSans-Regular-2212"
               transform="matrix(0.7,0,0,0.7,183.81134,37.165625)"
               id="use96" />
            <use
               xlink:href="#FiraSans-Regular-37"
               transform="matrix(0.7,0,0,0.7,218.81133,37.165625)"
               id="use97" />
          </g>
        </g>
      </g>
      <g
         id="patch_3">
        <path
           d="M 37.72,185.26351 V 16.2"
           style="fill:none;stroke:#000000;stroke-width:0.8;stroke-linecap:square;stroke-linejoin:miter"
           id="path97" />
      </g>
      <g
         id="patch_4">
        <path
           d="M 195.99365,185.26351 V 16.2"
           style="fill:none;stroke:#000000;stroke-width:0.8;stroke-linecap:square;stroke-linejoin:miter"
           id="path98" />
      </g>
      <g
         id="patch_5">
        <path
           d="M 37.72,185.26351 H 195.99365"
           style="fill:none;stroke:#000000;stroke-width:0.8;stroke-linecap:square;stroke-linejoin:miter"
           id="path99" />
      </g>
      <g
         id="patch_6">
        <path
           d="M 37.72,16.2 H 195.99365"
           style="fill:none;stroke:#000000;stroke-width:0.8;stroke-linecap:square;stroke-linejoin:miter"
           id="path100" />
      </g>
    </g>
    <g
       id="legend_1"
       transform="translate(-0.99992272)">
      <g
         id="line2d_14">
        <path
           d="m 13.909096,216.90678 h 8 8"
           style="fill:none;stroke:#000000;stroke-width:1.5;stroke-linecap:square;stroke-opacity:0"
           id="path101" />
        <defs
           id="defs101">
          <path
             id="mca2f02cbfc"
             d="M 0,2.5 C 0.663008,2.5 1.29895,2.236584 1.767767,1.767767 2.236584,1.29895 2.5,0.663008 2.5,0 2.5,-0.663008 2.236584,-1.29895 1.767767,-1.767767 1.29895,-2.236584 0.663008,-2.5 0,-2.5 c -0.663008,0 -1.29895,0.263416 -1.767767,0.732233 C -2.236584,-1.29895 -2.5,-0.663008 -2.5,0 c 0,0.663008 0.263416,1.29895 0.732233,1.767767 C -1.29895,2.236584 -0.663008,2.5 0,2.5 Z"
             style="stroke:#000000" />
        </defs>
        <g
           id="g101">
          <use
             xlink:href="#mca2f02cbfc"
             x="21.909096"
             y="216.90678"
             style="fill:#d8d8d8;stroke:#000000"
             id="use101" />
        </g>
      </g>
      <g
         id="text_12">
        <!-- Fossil -->
        <g
           transform="matrix(0.08,0,0,-0.08,30.709096,219.70678)"
           id="g107">
          <defs
             id="defs102">
            <path
               id="FiraSans-Regular-46"
               d="m 640,0 v 4410 h 2342 l -70,-487 H 1248 V 2419 H 2688 V 1939 H 1248 V 0 Z"
               transform="scale(0.015625)" />
            <path
               id="FiraSans-Regular-6f"
               d="m 1875,3450 q 711,0 1104,-474 394,-474 394,-1286 0,-525 -180,-925 Q 3014,365 2675,144 2336,-77 1869,-77 1158,-77 761,396 365,870 365,1683 q 0,525 179,925 179,400 518,621 340,221 813,221 z m 0,-474 q -877,0 -877,-1293 0,-1286 871,-1286 870,0 870,1293 0,1286 -864,1286 z"
               transform="scale(0.015625)" />
            <path
               id="FiraSans-Regular-73"
               d="m 1523,3450 q 346,0 621,-96 275,-96 525,-288 l -250,-372 q -230,148 -438,218 -208,70 -439,70 -288,0 -454,-118 -166,-118 -166,-323 0,-205 156,-320 157,-115 567,-224 563,-141 841,-384 279,-243 279,-666 0,-499 -388,-762 Q 1990,-77 1434,-77 666,-77 160,365 l 314,358 q 428,-326 947,-326 333,0 528,137 195,138 195,375 0,173 -71,278 -70,106 -243,186 -172,80 -505,169 -538,141 -778,378 -240,237 -240,602 0,262 157,476 157,215 435,333 279,119 624,119 z"
               transform="scale(0.015625)" />
            <path
               id="FiraSans-Regular-69"
               d="M 1197,3373 V 0 H 608 V 3373 Z M 896,4992 q 186,0 301,-115 115,-115 115,-288 0,-173 -115,-285 -115,-112 -301,-112 -179,0 -295,112 -115,112 -115,285 0,173 115,288 116,115 295,115 z"
               transform="scale(0.015625)" />
            <path
               id="FiraSans-Regular-6c"
               d="M 1280,-77 Q 954,-77 765,118 576,314 576,666 v 4064 l 589,70 V 678 q 0,-140 48,-204 48,-64 163,-64 122,0 218,38 L 1747,38 Q 1536,-77 1280,-77 Z"
               transform="scale(0.015625)" />
          </defs>
          <use
             xlink:href="#FiraSans-Regular-46"
             id="use102" />
          <use
             xlink:href="#FiraSans-Regular-6f"
             x="49.099991"
             id="use103" />
          <use
             xlink:href="#FiraSans-Regular-73"
             x="107.49998"
             id="use104" />
          <use
             xlink:href="#FiraSans-Regular-73"
             x="154.19998"
             id="use105" />
          <use
             xlink:href="#FiraSans-Regular-69"
             x="200.89998"
             id="use106" />
          <use
             xlink:href="#FiraSans-Regular-6c"
             x="229.09998"
             id="use107" />
        </g>
      </g>
      <g
         id="line2d_15">
        <path
           d="m 67.381596,216.90678 h 8 8"
           style="fill:none;stroke:#000000;stroke-width:1.5;stroke-linecap:square;stroke-opacity:0"
           id="path107" />
        <defs
           id="defs107">
          <path
             id="m7cc0587249"
             d="M 0,3.535534 2.12132,0 0,-3.535534 -2.12132,0 Z"
             style="stroke:#52318e;stroke-linejoin:miter" />
        </defs>
        <g
           id="g108">
          <use
             xlink:href="#m7cc0587249"
             x="75.381599"
             y="216.90678"
             style="fill:#a78dd8;stroke:#52318e;stroke-linejoin:miter"
             id="use108" />
        </g>
      </g>
      <g
         id="text_13">
        <!-- Blue -->
        <g
           transform="matrix(0.08,0,0,-0.08,84.181596,219.70678)"
           id="g112">
          <defs
             id="defs108">
            <path
               id="FiraSans-Regular-42"
               d="m 2586,2330 q 454,-77 735,-321 282,-243 282,-755 Q 3603,0 1856,0 H 640 v 4410 h 1043 q 839,0 1283,-276 445,-275 445,-838 0,-384 -240,-640 -240,-256 -585,-326 z M 1248,3930 V 2541 h 666 q 384,0 630,185 246,186 246,525 0,384 -259,531 -259,148 -784,148 z M 1856,486 q 538,0 822,160 285,160 285,608 0,436 -275,628 -275,192 -717,192 H 1248 V 486 Z"
               transform="scale(0.015625)" />
            <path
               id="FiraSans-Regular-75"
               d="m 3117,0 h -506 l -45,525 Q 2374,211 2124,67 1875,-77 1517,-77 1075,-77 825,192 576,461 576,954 v 2419 h 589 V 1018 q 0,-346 121,-490 122,-144 397,-144 493,0 845,582 v 2407 h 589 z"
               transform="scale(0.015625)" />
            <path
               id="FiraSans-Regular-65"
               d="m 3155,1786 q 0,-148 -13,-301 H 992 q 38,-557 281,-820 244,-262 628,-262 243,0 448,70 205,71 429,225 L 3034,346 Q 2496,-77 1856,-77 1152,-77 758,384 365,845 365,1651 q 0,525 169,931 170,407 487,637 317,231 745,231 672,0 1030,-442 359,-442 359,-1222 z m -582,172 q 0,500 -199,762 -198,262 -595,262 -723,0 -787,-1062 h 1581 z"
               transform="scale(0.015625)" />
          </defs>
          <use
             xlink:href="#FiraSans-Regular-42"
             id="use109" />
          <use
             xlink:href="#FiraSans-Regular-6c"
             x="60.799988"
             id="use110" />
          <use
             xlink:href="#FiraSans-Regular-75"
             x="90.099976"
             id="use111" />
          <use
             xlink:href="#FiraSans-Regular-65"
             x="148.29997"
             id="use112" />
        </g>
      </g>
      <g
         id="line2d_16">
        <path
           d="m 116.40535,216.90678 h 8 8"
           style="fill:none;stroke:#000000;stroke-width:1.5;stroke-linecap:square;stroke-opacity:0"
           id="path112" />
        <defs
           id="defs112">
          <path
             id="m586db6a369"
             d="m 0,-2.5 -2.165064,1.25 v 2.5 L 0,2.5 2.165064,1.25 v -2.5 z"
             style="stroke:#b71205;stroke-linejoin:miter" />
        </defs>
        <g
           id="g113">
          <use
             xlink:href="#m586db6a369"
             x="124.40535"
             y="216.90678"
             style="fill:#fb7b71;stroke:#b71205;stroke-linejoin:miter"
             id="use113" />
        </g>
      </g>
      <g
         id="text_14">
        <!-- Solar -->
        <g
           transform="matrix(0.08,0,0,-0.08,133.20535,219.70678)"
           id="g118">
          <defs
             id="defs113">
            <path
               id="FiraSans-Regular-53"
               d="m 1728,4486 q 442,0 755,-125 314,-124 608,-387 l -333,-371 q -249,199 -489,291 -240,93 -515,93 -346,0 -570,-160 -224,-160 -224,-467 0,-192 77,-323 77,-131 285,-240 208,-109 604,-231 416,-128 691,-275 276,-147 445,-406 170,-259 170,-656 0,-384 -189,-679 Q 2854,256 2499,89 2144,-77 1658,-77 742,-77 160,493 l 333,371 q 269,-218 544,-330 275,-112 614,-112 410,0 678,202 269,202 269,586 0,217 -83,361 -83,144 -285,259 -201,116 -585,231 -679,205 -993,493 -313,288 -313,780 0,333 176,595 176,263 493,410 317,147 720,147 z"
               transform="scale(0.015625)" />
            <path
               id="FiraSans-Regular-61"
               d="m 2880,787 q 0,-205 70,-304 71,-99 212,-150 L 3027,-77 Q 2765,-45 2605,70 2445,186 2368,429 2029,-77 1363,-77 864,-77 576,204 288,486 288,941 q 0,537 387,825 387,288 1098,288 h 518 v 250 q 0,358 -173,512 -172,154 -531,154 -371,0 -909,-180 l -147,429 q 627,231 1165,231 595,0 889,-292 295,-291 295,-828 z M 1498,365 q 505,0 793,525 v 774 h -441 q -935,0 -935,-691 0,-301 147,-455 148,-153 436,-153 z"
               transform="scale(0.015625)" />
            <path
               id="FiraSans-Regular-72"
               d="m 2074,3450 q 179,0 332,-39 l -108,-576 q -154,39 -295,39 -313,0 -505,-231 -192,-230 -301,-717 V 0 H 608 v 3373 h 506 l 57,-685 q 135,378 365,570 230,192 538,192 z"
               transform="scale(0.015625)" />
          </defs>
          <use
             xlink:href="#FiraSans-Regular-53"
             id="use114" />
          <use
             xlink:href="#FiraSans-Regular-6f"
             x="54.499985"
             id="use115" />
          <use
             xlink:href="#FiraSans-Regular-6c"
             x="112.89998"
             id="use116" />
          <use
             xlink:href="#FiraSans-Regular-61"
             x="142.19997"
             id="use117" />
          <use
             xlink:href="#FiraSans-Regular-72"
             x="196.59996"
             id="use118" />
        </g>
      </g>
      <g
         id="line2d_17">
        <path
           d="m 168.0216,216.90678 h 8 8"
           style="fill:none;stroke:#000000;stroke-width:1.5;stroke-linecap:square;stroke-opacity:0"
           id="path118" />
        <defs
           id="defs118">
          <path
             id="m7740c593dd"
             d="m 0,-2.5 -2.5,5 h 5 z"
             style="stroke:#167f99;stroke-linejoin:miter" />
        </defs>
        <g
           id="g119">
          <use
             xlink:href="#m7740c593dd"
             x="176.02159"
             y="216.90678"
             style="fill:#6dd2ea;stroke:#167f99;stroke-linejoin:miter"
             id="use119" />
        </g>
      </g>
      <g
         id="text_15">
        <!-- Wind -->
        <g
           transform="matrix(0.08,0,0,-0.08,184.8216,219.70678)"
           id="g123">
          <defs
             id="defs119">
            <path
               id="FiraSans-Regular-57"
               d="M 5126,4410 4230,0 H 3450 L 2637,3693 1818,0 H 1056 L 160,4410 h 595 l 711,-3879 851,3879 h 646 l 871,-3879 736,3879 z"
               transform="scale(0.015625)" />
            <path
               id="FiraSans-Regular-6e"
               d="m 2195,3450 q 461,0 720,-276 259,-275 259,-755 V 0 h -588 v 2336 q 0,358 -135,505 -134,148 -397,148 -268,0 -473,-154 -205,-153 -384,-441 V 0 H 608 v 3373 h 506 l 51,-499 q 179,268 444,422 266,154 586,154 z"
               transform="scale(0.015625)" />
            <path
               id="FiraSans-Regular-64"
               d="M 3219,4730 V 0 h -518 l -58,467 Q 2477,211 2227,67 1978,-77 1670,-77 1069,-77 733,396 397,870 397,1670 q 0,519 160,922 160,403 460,630 301,228 705,228 518,0 908,-416 V 4800 Z M 1798,390 q 269,0 461,125 192,125 371,375 v 1651 q -166,217 -355,329 -189,112 -425,112 -391,0 -606,-326 -214,-326 -214,-973 0,-653 198,-973 199,-320 570,-320 z"
               transform="scale(0.015625)" />
          </defs>
          <use
             xlink:href="#FiraSans-Regular-57"
             id="use120" />
          <use
             xlink:href="#FiraSans-Regular-69"
             x="82.599991"
             id="use121" />
          <use
             xlink:href="#FiraSans-Regular-6e"
             x="110.79999"
             id="use122" />
          <use
             xlink:href="#FiraSans-Regular-64"
             x="169.39998"
             id="use123" />
        </g>
      </g>
    </g>
  </g>
  <defs
     id="defs123">
    <clipPath
       id="pfe92d9a84c">
      <rect
         x="37.720001"
         y="16.200001"
         width="158.27365"
         height="169.06351"
         id="rect123" />
    </clipPath>
  </defs>
</svg>
