<?xml version="1.0" encoding="utf-8" standalone="no"?>
<!DOCTYPE svg PUBLIC "-//W3C//DTD SVG 1.1//EN"
  "http://www.w3.org/Graphics/SVG/1.1/DTD/svg11.dtd">
<svg xmlns:xlink="http://www.w3.org/1999/xlink" width="371.52pt" height="280.512pt" viewBox="0 0 371.52 280.512" xmlns="http://www.w3.org/2000/svg" version="1.1">
 <metadata>
  <rdf:RDF xmlns:dc="http://purl.org/dc/elements/1.1/" xmlns:cc="http://creativecommons.org/ns#" xmlns:rdf="http://www.w3.org/1999/02/22-rdf-syntax-ns#">
   <cc:Work>
    <dc:type rdf:resource="http://purl.org/dc/dcmitype/StillImage"/>
    <dc:date>2024-06-08T22:11:05.194937</dc:date>
    <dc:format>image/svg+xml</dc:format>
    <dc:creator>
     <cc:Agent>
      <dc:title>Matplotlib v3.8.2, https://matplotlib.org/</dc:title>
     </cc:Agent>
    </dc:creator>
   </cc:Work>
  </rdf:RDF>
 </metadata>
 <defs>
  <style type="text/css">*{stroke-linejoin: round; stroke-linecap: butt}</style>
 </defs>
 <g id="figure_1">
  <g id="patch_1">
   <path d="M 0 280.512 
L 371.52 280.512 
L 371.52 0 
L 0 0 
L 0 280.512 
z
" style="fill: none"/>
  </g>
  <g id="axes_1">
   <g id="patch_2">
    <path d="M 185.760016 41.209874 
C 171.895822 41.209874 158.155785 43.830927 145.265184 48.934677 
C 132.374582 54.038427 120.564292 61.533464 110.45773 71.024158 
C 100.351167 80.514852 92.129345 91.831219 86.226258 104.375916 
C 80.323171 116.920614 76.844546 130.468961 75.974006 144.305797 
C 75.103465 158.142633 76.856601 172.020134 81.140872 185.205766 
C 85.425143 198.391398 92.163816 210.649001 101.001185 221.331546 
C 109.838555 232.014092 120.616339 240.930251 132.765624 247.609378 
C 144.914909 254.288505 158.218097 258.610974 171.972967 260.348619 
C 185.727838 262.086264 199.688036 261.207964 213.116661 257.76008 
C 226.545286 254.312197 239.201825 248.356482 250.418195 240.207314 
C 261.634564 232.058147 271.209872 221.861481 278.63868 210.155555 
C 286.067487 198.44963 291.216741 185.444103 293.814633 171.825483 
C 296.412526 158.206862 296.412527 144.219063 293.814638 130.600442 
C 291.216748 116.98182 286.067497 103.976293 278.638692 92.270366 
C 271.209887 80.564439 261.634581 70.367771 250.418213 62.218601 
C 239.201846 54.069431 226.545307 48.113714 213.116683 44.665827 
L 185.760016 151.212951 
z
" style="fill: #d2555a"/>
   </g>
   <g id="patch_3">
    <path d="M 215.874094 22.838694 
C 211.40959 21.692403 206.87745 20.827851 202.304483 20.25015 
C 197.731515 19.672449 193.126755 19.382742 188.517442 19.382741 
L 188.517427 129.385817 
z
" style="fill: #a5d76e"/>
   </g>
   <g id="patch_4">
    <path d="M 187.138738 19.296 
C 187.138738 19.296 187.138738 19.296 187.138738 19.296 
L 187.138722 129.299076 
z
" style="fill: #ffc36e"/>
   </g>
   <g id="matplotlib.axis_1"/>
   <g id="matplotlib.axis_2"/>
  </g>
 </g>
</svg>
