<?xml version="1.0" encoding="utf-8" standalone="no"?>
<!DOCTYPE svg PUBLIC "-//W3C//DTD SVG 1.1//EN"
  "http://www.w3.org/Graphics/SVG/1.1/DTD/svg11.dtd">
<svg xmlns:xlink="http://www.w3.org/1999/xlink" width="204.615936pt" height="207.167256pt" viewBox="0 0 204.615936 207.167256" xmlns="http://www.w3.org/2000/svg" version="1.1">
 <metadata>
  <rdf:RDF xmlns:dc="http://purl.org/dc/elements/1.1/" xmlns:cc="http://creativecommons.org/ns#" xmlns:rdf="http://www.w3.org/1999/02/22-rdf-syntax-ns#">
   <cc:Work>
    <dc:type rdf:resource="http://purl.org/dc/dcmitype/StillImage"/>
    <dc:date>2024-06-09T15:12:09.636106</dc:date>
    <dc:format>image/svg+xml</dc:format>
    <dc:creator>
     <cc:Agent>
      <dc:title>Matplotlib v3.8.2, https://matplotlib.org/</dc:title>
     </cc:Agent>
    </dc:creator>
   </cc:Work>
  </rdf:RDF>
 </metadata>
 <defs>
  <style type="text/css">*{stroke-linejoin: round; stroke-linecap: butt}</style>
 </defs>
 <g id="figure_1">
  <g id="patch_1">
   <path d="M 0 207.167256 
L 204.615936 207.167256 
L 204.615936 0 
L 0 0 
z
" style="fill: #ffffff"/>
  </g>
  <g id="axes_1">
   <g id="patch_2">
    <path d="M 25.32 39.771576 
L 194.915936 39.771576 
L 194.915936 7.2 
L 25.32 7.2 
z
" style="fill: #ffffff"/>
   </g>
   <g id="patch_3">
    <path d="M 33.028906 18.847064 
L 84.421614 30.927704 
L 84.421614 20.328875 
z
" clip-path="url(#p66a95cea2c)" style="fill: #808080; opacity: 0.3"/>
   </g>
   <g id="patch_4">
    <path d="M 84.421614 30.927704 
L 135.814322 34.08912 
L 135.814322 21.207926 
L 84.421614 20.328875 
z
" clip-path="url(#p66a95cea2c)" style="fill: #808080; opacity: 0.3"/>
   </g>
   <g id="patch_5">
    <path d="M 135.814322 34.08912 
L 187.20703 35.256932 
L 187.20703 22.083352 
L 135.814322 21.207926 
z
" clip-path="url(#p66a95cea2c)" style="fill: #808080; opacity: 0.3"/>
   </g>
   <g id="line2d_1">
    <path d="M 33.028906 18.847064 
L 84.421614 23.211228 
" clip-path="url(#p66a95cea2c)" style="fill: none; stroke: #000000; stroke-linecap: square"/>
   </g>
   <g id="line2d_2">
    <path d="M 84.421614 23.211228 
L 135.814322 29.083335 
L 187.20703 33.325681 
" clip-path="url(#p66a95cea2c)" style="fill: none; stroke: #000000; stroke-linecap: square"/>
   </g>
   <g id="line2d_3">
    <path d="M 33.028906 18.847064 
L 84.421614 20.328875 
" clip-path="url(#p66a95cea2c)" style="fill: none; stroke-dasharray: 6.4,1.6,1,1.6; stroke-dashoffset: 0; stroke: #000000"/>
   </g>
   <g id="line2d_4">
    <path d="M 84.421614 20.328875 
L 135.814322 21.207926 
L 187.20703 22.083352 
" clip-path="url(#p66a95cea2c)" style="fill: none; stroke-dasharray: 6.4,1.6,1,1.6; stroke-dashoffset: 0; stroke: #000000"/>
   </g>
   <g id="line2d_5">
    <path d="M 33.028906 18.847064 
L 84.421614 30.927704 
" clip-path="url(#p66a95cea2c)" style="fill: none; stroke-dasharray: 3.7,1.6; stroke-dashoffset: 0; stroke: #000000"/>
   </g>
   <g id="line2d_6">
    <path d="M 84.421614 30.927704 
L 135.814322 34.08912 
L 187.20703 35.256932 
" clip-path="url(#p66a95cea2c)" style="fill: none; stroke-dasharray: 3.7,1.6; stroke-dashoffset: 0; stroke: #000000"/>
   </g>
   <g id="matplotlib.axis_1">
    <g id="xtick_1"/>
    <g id="xtick_2"/>
    <g id="xtick_3"/>
    <g id="xtick_4"/>
   </g>
   <g id="matplotlib.axis_2">
    <g id="ytick_1">
     <g id="line2d_7">
      <defs>
       <path id="m60db7f27e4" d="M 0 0 
L -3.5 0 
" style="stroke: #000000; stroke-width: 0.8"/>
      </defs>
      <g>
       <use xlink:href="#m60db7f27e4" x="25.32" y="39.771576" style="stroke: #000000; stroke-width: 0.8"/>
      </g>
     </g>
     <g id="text_1">
      <!-- 2.6 -->
      <g transform="translate(7.2 42.634701) scale(0.08 -0.08)">
       <defs>
        <path id="ArialMT-32" d="M 3222 541 
L 3222 0 
L 194 0 
Q 188 203 259 391 
Q 375 700 629 1000 
Q 884 1300 1366 1694 
Q 2113 2306 2375 2664 
Q 2638 3022 2638 3341 
Q 2638 3675 2398 3904 
Q 2159 4134 1775 4134 
Q 1369 4134 1125 3890 
Q 881 3647 878 3216 
L 300 3275 
Q 359 3922 746 4261 
Q 1134 4600 1788 4600 
Q 2447 4600 2831 4234 
Q 3216 3869 3216 3328 
Q 3216 3053 3103 2787 
Q 2991 2522 2730 2228 
Q 2469 1934 1863 1422 
Q 1356 997 1212 845 
Q 1069 694 975 541 
L 3222 541 
z
" transform="scale(0.015625)"/>
        <path id="ArialMT-2e" d="M 581 0 
L 581 641 
L 1222 641 
L 1222 0 
L 581 0 
z
" transform="scale(0.015625)"/>
        <path id="ArialMT-36" d="M 3184 3459 
L 2625 3416 
Q 2550 3747 2413 3897 
Q 2184 4138 1850 4138 
Q 1581 4138 1378 3988 
Q 1113 3794 959 3422 
Q 806 3050 800 2363 
Q 1003 2672 1297 2822 
Q 1591 2972 1913 2972 
Q 2475 2972 2870 2558 
Q 3266 2144 3266 1488 
Q 3266 1056 3080 686 
Q 2894 316 2569 119 
Q 2244 -78 1831 -78 
Q 1128 -78 684 439 
Q 241 956 241 2144 
Q 241 3472 731 4075 
Q 1159 4600 1884 4600 
Q 2425 4600 2770 4297 
Q 3116 3994 3184 3459 
z
M 888 1484 
Q 888 1194 1011 928 
Q 1134 663 1356 523 
Q 1578 384 1822 384 
Q 2178 384 2434 671 
Q 2691 959 2691 1453 
Q 2691 1928 2437 2201 
Q 2184 2475 1800 2475 
Q 1419 2475 1153 2201 
Q 888 1928 888 1484 
z
" transform="scale(0.015625)"/>
       </defs>
       <use xlink:href="#ArialMT-32"/>
       <use xlink:href="#ArialMT-2e" x="55.615234"/>
       <use xlink:href="#ArialMT-36" x="83.398438"/>
      </g>
     </g>
    </g>
    <g id="ytick_2">
     <g id="line2d_8">
      <g>
       <use xlink:href="#m60db7f27e4" x="25.32" y="18.529244" style="stroke: #000000; stroke-width: 0.8"/>
      </g>
     </g>
     <g id="text_2">
      <!-- 2.7 -->
      <g transform="translate(7.2 21.392369) scale(0.08 -0.08)">
       <defs>
        <path id="ArialMT-37" d="M 303 3981 
L 303 4522 
L 3269 4522 
L 3269 4084 
Q 2831 3619 2401 2847 
Q 1972 2075 1738 1259 
Q 1569 684 1522 0 
L 944 0 
Q 953 541 1156 1306 
Q 1359 2072 1739 2783 
Q 2119 3494 2547 3981 
L 303 3981 
z
" transform="scale(0.015625)"/>
       </defs>
       <use xlink:href="#ArialMT-32"/>
       <use xlink:href="#ArialMT-2e" x="55.615234"/>
       <use xlink:href="#ArialMT-37" x="83.398438"/>
      </g>
     </g>
    </g>
   </g>
   <g id="PathCollection_1">
    <defs>
     <path id="m0c6e5d0d5c" d="M 0 2.236068 
C 0.593012 2.236068 1.161816 2.000462 1.581139 1.581139 
C 2.000462 1.161816 2.236068 0.593012 2.236068 0 
C 2.236068 -0.593012 2.000462 -1.161816 1.581139 -1.581139 
C 1.161816 -2.000462 0.593012 -2.236068 0 -2.236068 
C -0.593012 -2.236068 -1.161816 -2.000462 -1.581139 -1.581139 
C -2.000462 -1.161816 -2.236068 -0.593012 -2.236068 0 
C -2.236068 0.593012 -2.000462 1.161816 -1.581139 1.581139 
C -1.161816 2.000462 -0.593012 2.236068 0 2.236068 
z
" style="stroke: #000000"/>
    </defs>
    <g clip-path="url(#p66a95cea2c)">
     <use xlink:href="#m0c6e5d0d5c" x="33.028906" y="18.847064" style="fill: #d8d8d8; stroke: #000000"/>
    </g>
   </g>
   <g id="line2d_9">
    <defs>
     <path id="m111cc4eebf" d="M -2.5 0 
L 2.5 0 
" style="stroke: #000000"/>
    </defs>
    <g>
     <use xlink:href="#m111cc4eebf" x="25.32" y="39.771576" style="stroke: #000000"/>
     <use xlink:href="#m111cc4eebf" x="194.915936" y="39.771576" style="stroke: #000000"/>
    </g>
   </g>
   <g id="patch_6">
    <path d="M 25.32 39.771576 
L 25.32 7.2 
" style="fill: none; stroke: #000000; stroke-width: 0.8; stroke-linejoin: miter; stroke-linecap: square"/>
   </g>
   <g id="patch_7">
    <path d="M 194.915936 39.771576 
L 194.915936 7.2 
" style="fill: none; stroke: #000000; stroke-width: 0.8; stroke-linejoin: miter; stroke-linecap: square"/>
   </g>
   <g id="patch_8">
    <path d="M 25.32 7.2 
L 194.915936 7.2 
" style="fill: none; stroke: #000000; stroke-width: 0.8; stroke-linejoin: miter; stroke-linecap: square"/>
   </g>
  </g>
  <g id="axes_2">
   <g id="patch_9">
    <path d="M 25.32 185.651006 
L 194.915936 185.651006 
L 194.915936 55.364701 
L 25.32 55.364701 
z
" style="fill: #ffffff"/>
   </g>
   <g id="patch_10">
    <path d="M 33.028906 100.747693 
L 84.421614 125.593001 
L 84.421614 102.806303 
z
" clip-path="url(#pc4d580bfae)" style="fill: #a78dd8; opacity: 0.3"/>
   </g>
   <g id="patch_11">
    <path d="M 84.421614 125.593001 
L 135.814322 132.126719 
L 135.814322 104.578695 
L 84.421614 102.806303 
z
" clip-path="url(#pc4d580bfae)" style="fill: #a78dd8; opacity: 0.3"/>
   </g>
   <g id="patch_12">
    <path d="M 135.814322 132.126719 
L 187.20703 134.12967 
L 187.20703 106.806897 
L 135.814322 104.578695 
z
" clip-path="url(#pc4d580bfae)" style="fill: #a78dd8; opacity: 0.3"/>
   </g>
   <g id="patch_13">
    <path d="M 33.028906 99.658925 
L 84.421614 158.535347 
L 84.421614 107.67082 
z
" clip-path="url(#pc4d580bfae)" style="fill: #6dd2ea; opacity: 0.3"/>
   </g>
   <g id="patch_14">
    <path d="M 84.421614 158.535347 
L 135.814322 175.214082 
L 135.814322 115.104237 
L 84.421614 107.67082 
z
" clip-path="url(#pc4d580bfae)" style="fill: #6dd2ea; opacity: 0.3"/>
   </g>
   <g id="patch_15">
    <path d="M 135.814322 175.214082 
L 187.20703 179.728901 
L 187.20703 120.106925 
L 135.814322 115.104237 
z
" clip-path="url(#pc4d580bfae)" style="fill: #6dd2ea; opacity: 0.3"/>
   </g>
   <g id="patch_16">
    <path d="M 33.028906 61.286806 
L 84.421614 141.087938 
L 84.421614 79.82181 
z
" clip-path="url(#pc4d580bfae)" style="fill: #fb7b71; opacity: 0.3"/>
   </g>
   <g id="patch_17">
    <path d="M 84.421614 141.087938 
L 135.814322 161.370337 
L 135.814322 92.504112 
L 84.421614 79.82181 
z
" clip-path="url(#pc4d580bfae)" style="fill: #fb7b71; opacity: 0.3"/>
   </g>
   <g id="patch_18">
    <path d="M 135.814322 161.370337 
L 187.20703 167.661408 
L 187.20703 100.703705 
L 135.814322 92.504112 
z
" clip-path="url(#pc4d580bfae)" style="fill: #fb7b71; opacity: 0.3"/>
   </g>
   <g id="line2d_10">
    <path d="M 33.028906 100.747693 
L 84.421614 108.939042 
" clip-path="url(#pc4d580bfae)" style="fill: none; stroke: #52318e; stroke-linecap: square"/>
   </g>
   <g id="line2d_11">
    <path d="M 84.421614 108.939042 
L 135.814322 122.981643 
L 187.20703 131.738866 
" clip-path="url(#pc4d580bfae)" style="fill: none; stroke: #52318e; stroke-linecap: square"/>
   </g>
   <g id="line2d_12">
    <path d="M 33.028906 100.747693 
L 84.421614 102.806303 
" clip-path="url(#pc4d580bfae)" style="fill: none; stroke-dasharray: 6.4,1.6,1,1.6; stroke-dashoffset: 0; stroke: #52318e"/>
   </g>
   <g id="line2d_13">
    <path d="M 84.421614 102.806303 
L 135.814322 104.578695 
L 187.20703 106.806897 
" clip-path="url(#pc4d580bfae)" style="fill: none; stroke-dasharray: 6.4,1.6,1,1.6; stroke-dashoffset: 0; stroke: #52318e"/>
   </g>
   <g id="line2d_14">
    <path d="M 33.028906 100.747693 
L 84.421614 125.593001 
" clip-path="url(#pc4d580bfae)" style="fill: none; stroke-dasharray: 3.7,1.6; stroke-dashoffset: 0; stroke: #52318e"/>
   </g>
   <g id="line2d_15">
    <path d="M 84.421614 125.593001 
L 135.814322 132.126719 
L 187.20703 134.12967 
" clip-path="url(#pc4d580bfae)" style="fill: none; stroke-dasharray: 3.7,1.6; stroke-dashoffset: 0; stroke: #52318e"/>
   </g>
   <g id="line2d_16">
    <path d="M 33.028906 99.658925 
L 84.421614 121.659355 
" clip-path="url(#pc4d580bfae)" style="fill: none; stroke: #167f99; stroke-linecap: square"/>
   </g>
   <g id="line2d_17">
    <path d="M 84.421614 121.659355 
L 135.814322 154.938119 
L 187.20703 174.040118 
" clip-path="url(#pc4d580bfae)" style="fill: none; stroke: #167f99; stroke-linecap: square"/>
   </g>
   <g id="line2d_18">
    <path d="M 33.028906 99.658925 
L 84.421614 107.67082 
" clip-path="url(#pc4d580bfae)" style="fill: none; stroke-dasharray: 6.4,1.6,1,1.6; stroke-dashoffset: 0; stroke: #167f99"/>
   </g>
   <g id="line2d_19">
    <path d="M 84.421614 107.67082 
L 135.814322 115.104237 
L 187.20703 120.106925 
" clip-path="url(#pc4d580bfae)" style="fill: none; stroke-dasharray: 6.4,1.6,1,1.6; stroke-dashoffset: 0; stroke: #167f99"/>
   </g>
   <g id="line2d_20">
    <path d="M 33.028906 99.658925 
L 84.421614 158.535347 
" clip-path="url(#pc4d580bfae)" style="fill: none; stroke-dasharray: 3.7,1.6; stroke-dashoffset: 0; stroke: #167f99"/>
   </g>
   <g id="line2d_21">
    <path d="M 84.421614 158.535347 
L 135.814322 175.214082 
L 187.20703 179.728901 
" clip-path="url(#pc4d580bfae)" style="fill: none; stroke-dasharray: 3.7,1.6; stroke-dashoffset: 0; stroke: #167f99"/>
   </g>
   <g id="line2d_22">
    <path d="M 33.028906 61.286806 
L 84.421614 94.948229 
" clip-path="url(#pc4d580bfae)" style="fill: none; stroke: #b71205; stroke-linecap: square"/>
   </g>
   <g id="line2d_23">
    <path d="M 84.421614 94.948229 
L 135.814322 135.145597 
L 187.20703 161.867092 
" clip-path="url(#pc4d580bfae)" style="fill: none; stroke: #b71205; stroke-linecap: square"/>
   </g>
   <g id="line2d_24">
    <path d="M 33.028906 61.286806 
L 84.421614 79.82181 
" clip-path="url(#pc4d580bfae)" style="fill: none; stroke-dasharray: 6.4,1.6,1,1.6; stroke-dashoffset: 0; stroke: #b71205"/>
   </g>
   <g id="line2d_25">
    <path d="M 84.421614 79.82181 
L 135.814322 92.504112 
L 187.20703 100.703705 
" clip-path="url(#pc4d580bfae)" style="fill: none; stroke-dasharray: 6.4,1.6,1,1.6; stroke-dashoffset: 0; stroke: #b71205"/>
   </g>
   <g id="line2d_26">
    <path d="M 33.028906 61.286806 
L 84.421614 141.087938 
" clip-path="url(#pc4d580bfae)" style="fill: none; stroke-dasharray: 3.7,1.6; stroke-dashoffset: 0; stroke: #b71205"/>
   </g>
   <g id="line2d_27">
    <path d="M 84.421614 141.087938 
L 135.814322 161.370337 
L 187.20703 167.661408 
" clip-path="url(#pc4d580bfae)" style="fill: none; stroke-dasharray: 3.7,1.6; stroke-dashoffset: 0; stroke: #b71205"/>
   </g>
   <g id="matplotlib.axis_3">
    <g id="xtick_5">
     <g id="line2d_28">
      <defs>
       <path id="m1f5c77fdd1" d="M 0 0 
L 0 3.5 
" style="stroke: #000000; stroke-width: 0.8"/>
      </defs>
      <g>
       <use xlink:href="#m1f5c77fdd1" x="33.028906" y="185.651006" style="stroke: #000000; stroke-width: 0.8"/>
      </g>
     </g>
     <g id="text_3">
      <!-- 2020 -->
      <g transform="translate(24.131406 198.377256) scale(0.08 -0.08)">
       <defs>
        <path id="ArialMT-30" d="M 266 2259 
Q 266 3072 433 3567 
Q 600 4063 929 4331 
Q 1259 4600 1759 4600 
Q 2128 4600 2406 4451 
Q 2684 4303 2865 4023 
Q 3047 3744 3150 3342 
Q 3253 2941 3253 2259 
Q 3253 1453 3087 958 
Q 2922 463 2592 192 
Q 2263 -78 1759 -78 
Q 1097 -78 719 397 
Q 266 969 266 2259 
z
M 844 2259 
Q 844 1131 1108 757 
Q 1372 384 1759 384 
Q 2147 384 2411 759 
Q 2675 1134 2675 2259 
Q 2675 3391 2411 3762 
Q 2147 4134 1753 4134 
Q 1366 4134 1134 3806 
Q 844 3388 844 2259 
z
" transform="scale(0.015625)"/>
       </defs>
       <use xlink:href="#ArialMT-32"/>
       <use xlink:href="#ArialMT-30" x="55.615234"/>
       <use xlink:href="#ArialMT-32" x="111.230469"/>
       <use xlink:href="#ArialMT-30" x="166.845703"/>
      </g>
     </g>
    </g>
    <g id="xtick_6">
     <g id="line2d_29">
      <g>
       <use xlink:href="#m1f5c77fdd1" x="84.421614" y="185.651006" style="stroke: #000000; stroke-width: 0.8"/>
      </g>
     </g>
     <g id="text_4">
      <!-- 2030 -->
      <g transform="translate(75.524114 198.377256) scale(0.08 -0.08)">
       <defs>
        <path id="ArialMT-33" d="M 269 1209 
L 831 1284 
Q 928 806 1161 595 
Q 1394 384 1728 384 
Q 2125 384 2398 659 
Q 2672 934 2672 1341 
Q 2672 1728 2419 1979 
Q 2166 2231 1775 2231 
Q 1616 2231 1378 2169 
L 1441 2663 
Q 1497 2656 1531 2656 
Q 1891 2656 2178 2843 
Q 2466 3031 2466 3422 
Q 2466 3731 2256 3934 
Q 2047 4138 1716 4138 
Q 1388 4138 1169 3931 
Q 950 3725 888 3313 
L 325 3413 
Q 428 3978 793 4289 
Q 1159 4600 1703 4600 
Q 2078 4600 2393 4439 
Q 2709 4278 2876 4000 
Q 3044 3722 3044 3409 
Q 3044 3113 2884 2869 
Q 2725 2625 2413 2481 
Q 2819 2388 3044 2092 
Q 3269 1797 3269 1353 
Q 3269 753 2831 336 
Q 2394 -81 1725 -81 
Q 1122 -81 723 278 
Q 325 638 269 1209 
z
" transform="scale(0.015625)"/>
       </defs>
       <use xlink:href="#ArialMT-32"/>
       <use xlink:href="#ArialMT-30" x="55.615234"/>
       <use xlink:href="#ArialMT-33" x="111.230469"/>
       <use xlink:href="#ArialMT-30" x="166.845703"/>
      </g>
     </g>
    </g>
    <g id="xtick_7">
     <g id="line2d_30">
      <g>
       <use xlink:href="#m1f5c77fdd1" x="135.814322" y="185.651006" style="stroke: #000000; stroke-width: 0.8"/>
      </g>
     </g>
     <g id="text_5">
      <!-- 2040 -->
      <g transform="translate(126.916822 198.377256) scale(0.08 -0.08)">
       <defs>
        <path id="ArialMT-34" d="M 2069 0 
L 2069 1097 
L 81 1097 
L 81 1613 
L 2172 4581 
L 2631 4581 
L 2631 1613 
L 3250 1613 
L 3250 1097 
L 2631 1097 
L 2631 0 
L 2069 0 
z
M 2069 1613 
L 2069 3678 
L 634 1613 
L 2069 1613 
z
" transform="scale(0.015625)"/>
       </defs>
       <use xlink:href="#ArialMT-32"/>
       <use xlink:href="#ArialMT-30" x="55.615234"/>
       <use xlink:href="#ArialMT-34" x="111.230469"/>
       <use xlink:href="#ArialMT-30" x="166.845703"/>
      </g>
     </g>
    </g>
    <g id="xtick_8">
     <g id="line2d_31">
      <g>
       <use xlink:href="#m1f5c77fdd1" x="187.20703" y="185.651006" style="stroke: #000000; stroke-width: 0.8"/>
      </g>
     </g>
     <g id="text_6">
      <!-- 2050 -->
      <g transform="translate(178.30953 198.377256) scale(0.08 -0.08)">
       <defs>
        <path id="ArialMT-35" d="M 266 1200 
L 856 1250 
Q 922 819 1161 601 
Q 1400 384 1738 384 
Q 2144 384 2425 690 
Q 2706 997 2706 1503 
Q 2706 1984 2436 2262 
Q 2166 2541 1728 2541 
Q 1456 2541 1237 2417 
Q 1019 2294 894 2097 
L 366 2166 
L 809 4519 
L 3088 4519 
L 3088 3981 
L 1259 3981 
L 1013 2750 
Q 1425 3038 1878 3038 
Q 2478 3038 2890 2622 
Q 3303 2206 3303 1553 
Q 3303 931 2941 478 
Q 2500 -78 1738 -78 
Q 1113 -78 717 272 
Q 322 622 266 1200 
z
" transform="scale(0.015625)"/>
       </defs>
       <use xlink:href="#ArialMT-32"/>
       <use xlink:href="#ArialMT-30" x="55.615234"/>
       <use xlink:href="#ArialMT-35" x="111.230469"/>
       <use xlink:href="#ArialMT-30" x="166.845703"/>
      </g>
     </g>
    </g>
   </g>
   <g id="matplotlib.axis_4">
    <g id="ytick_3">
     <g id="line2d_32">
      <g>
       <use xlink:href="#m60db7f27e4" x="25.32" y="178.742247" style="stroke: #000000; stroke-width: 0.8"/>
      </g>
     </g>
     <g id="text_7">
      <!-- 0.2 -->
      <g transform="translate(7.2 181.605372) scale(0.08 -0.08)">
       <use xlink:href="#ArialMT-30"/>
       <use xlink:href="#ArialMT-2e" x="55.615234"/>
       <use xlink:href="#ArialMT-32" x="83.398438"/>
      </g>
     </g>
    </g>
    <g id="ytick_4">
     <g id="line2d_33">
      <g>
       <use xlink:href="#m60db7f27e4" x="25.32" y="145.995836" style="stroke: #000000; stroke-width: 0.8"/>
      </g>
     </g>
     <g id="text_8">
      <!-- 0.5 -->
      <g transform="translate(7.2 148.858961) scale(0.08 -0.08)">
       <use xlink:href="#ArialMT-30"/>
       <use xlink:href="#ArialMT-2e" x="55.615234"/>
       <use xlink:href="#ArialMT-35" x="83.398438"/>
      </g>
     </g>
    </g>
    <g id="ytick_5">
     <g id="line2d_34">
      <g>
       <use xlink:href="#m60db7f27e4" x="25.32" y="113.249425" style="stroke: #000000; stroke-width: 0.8"/>
      </g>
     </g>
     <g id="text_9">
      <!-- 0.8 -->
      <g transform="translate(7.2 116.11255) scale(0.08 -0.08)">
       <defs>
        <path id="ArialMT-38" d="M 1131 2484 
Q 781 2613 612 2850 
Q 444 3088 444 3419 
Q 444 3919 803 4259 
Q 1163 4600 1759 4600 
Q 2359 4600 2725 4251 
Q 3091 3903 3091 3403 
Q 3091 3084 2923 2848 
Q 2756 2613 2416 2484 
Q 2838 2347 3058 2040 
Q 3278 1734 3278 1309 
Q 3278 722 2862 322 
Q 2447 -78 1769 -78 
Q 1091 -78 675 323 
Q 259 725 259 1325 
Q 259 1772 486 2073 
Q 713 2375 1131 2484 
z
M 1019 3438 
Q 1019 3113 1228 2906 
Q 1438 2700 1772 2700 
Q 2097 2700 2305 2904 
Q 2513 3109 2513 3406 
Q 2513 3716 2298 3927 
Q 2084 4138 1766 4138 
Q 1444 4138 1231 3931 
Q 1019 3725 1019 3438 
z
M 838 1322 
Q 838 1081 952 856 
Q 1066 631 1291 507 
Q 1516 384 1775 384 
Q 2178 384 2440 643 
Q 2703 903 2703 1303 
Q 2703 1709 2433 1975 
Q 2163 2241 1756 2241 
Q 1359 2241 1098 1978 
Q 838 1716 838 1322 
z
" transform="scale(0.015625)"/>
       </defs>
       <use xlink:href="#ArialMT-30"/>
       <use xlink:href="#ArialMT-2e" x="55.615234"/>
       <use xlink:href="#ArialMT-38" x="83.398438"/>
      </g>
     </g>
    </g>
    <g id="ytick_6">
     <g id="line2d_35">
      <g>
       <use xlink:href="#m60db7f27e4" x="25.32" y="80.503015" style="stroke: #000000; stroke-width: 0.8"/>
      </g>
     </g>
     <g id="text_10">
      <!-- 1.0 -->
      <g transform="translate(7.2 83.36614) scale(0.08 -0.08)">
       <defs>
        <path id="ArialMT-31" d="M 2384 0 
L 1822 0 
L 1822 3584 
Q 1619 3391 1289 3197 
Q 959 3003 697 2906 
L 697 3450 
Q 1169 3672 1522 3987 
Q 1875 4303 2022 4600 
L 2384 4600 
L 2384 0 
z
" transform="scale(0.015625)"/>
       </defs>
       <use xlink:href="#ArialMT-31"/>
       <use xlink:href="#ArialMT-2e" x="55.615234"/>
       <use xlink:href="#ArialMT-30" x="83.398438"/>
      </g>
     </g>
    </g>
   </g>
   <g id="PathCollection_2">
    <defs>
     <path id="m7c7fb25ed6" d="M 0 3.162278 
L 1.897367 0 
L 0 -3.162278 
L -1.897367 0 
z
" style="stroke: #52318e"/>
    </defs>
    <g clip-path="url(#pc4d580bfae)">
     <use xlink:href="#m7c7fb25ed6" x="33.028906" y="100.747693" style="fill: #a78dd8; stroke: #52318e"/>
    </g>
   </g>
   <g id="PathCollection_3">
    <defs>
     <path id="m16e46ddc6a" d="M 0 -2.236068 
L -2.236068 2.236068 
L 2.236068 2.236068 
z
" style="stroke: #167f99"/>
    </defs>
    <g clip-path="url(#pc4d580bfae)">
     <use xlink:href="#m16e46ddc6a" x="33.028906" y="99.658925" style="fill: #6dd2ea; stroke: #167f99"/>
    </g>
   </g>
   <g id="PathCollection_4">
    <defs>
     <path id="m1bc6838166" d="M 0 -2.236068 
L -1.936492 -1.118034 
L -1.936492 1.118034 
L -0 2.236068 
L 1.936492 1.118034 
L 1.936492 -1.118034 
z
" style="stroke: #b71205"/>
    </defs>
    <g clip-path="url(#pc4d580bfae)">
     <use xlink:href="#m1bc6838166" x="33.028906" y="61.286806" style="fill: #fb7b71; stroke: #b71205"/>
    </g>
   </g>
   <g id="line2d_36">
    <g>
     <use xlink:href="#m111cc4eebf" x="25.32" y="55.364701" style="stroke: #000000"/>
     <use xlink:href="#m111cc4eebf" x="194.915936" y="55.364701" style="stroke: #000000"/>
    </g>
   </g>
   <g id="patch_19">
    <path d="M 25.32 185.651006 
L 25.32 55.364701 
" style="fill: none; stroke: #000000; stroke-width: 0.8; stroke-linejoin: miter; stroke-linecap: square"/>
   </g>
   <g id="patch_20">
    <path d="M 194.915936 185.651006 
L 194.915936 55.364701 
" style="fill: none; stroke: #000000; stroke-width: 0.8; stroke-linejoin: miter; stroke-linecap: square"/>
   </g>
   <g id="patch_21">
    <path d="M 25.32 185.651006 
L 194.915936 185.651006 
" style="fill: none; stroke: #000000; stroke-width: 0.8; stroke-linejoin: miter; stroke-linecap: square"/>
   </g>
  </g>
 </g>
 <defs>
  <clipPath id="p66a95cea2c">
   <rect x="25.32" y="7.2" width="169.595936" height="32.571576"/>
  </clipPath>
  <clipPath id="pc4d580bfae">
   <rect x="25.32" y="55.364701" width="169.595936" height="130.286305"/>
  </clipPath>
 </defs>
</svg>
