<?xml version="1.0" encoding="utf-8" standalone="no"?>
<!DOCTYPE svg PUBLIC "-//W3C//DTD SVG 1.1//EN"
  "http://www.w3.org/Graphics/SVG/1.1/DTD/svg11.dtd">
<svg xmlns:xlink="http://www.w3.org/1999/xlink" width="213.556596pt" height="229.710061pt" viewBox="0 0 213.556596 229.710061" xmlns="http://www.w3.org/2000/svg" version="1.1">
 <metadata>
  <rdf:RDF xmlns:dc="http://purl.org/dc/elements/1.1/" xmlns:cc="http://creativecommons.org/ns#" xmlns:rdf="http://www.w3.org/1999/02/22-rdf-syntax-ns#">
   <cc:Work>
    <dc:type rdf:resource="http://purl.org/dc/dcmitype/StillImage"/>
    <dc:date>2024-05-29T11:07:04.457684</dc:date>
    <dc:format>image/svg+xml</dc:format>
    <dc:creator>
     <cc:Agent>
      <dc:title>Matplotlib v3.8.2, https://matplotlib.org/</dc:title>
     </cc:Agent>
    </dc:creator>
   </cc:Work>
  </rdf:RDF>
 </metadata>
 <defs>
  <style type="text/css">*{stroke-linejoin: round; stroke-linecap: butt}</style>
 </defs>
 <g id="figure_1">
  <g id="patch_1">
   <path d="M 0 229.710061 
L 213.556596 229.710061 
L 213.556596 0 
L 0 0 
z
" style="fill: #ffffff"/>
  </g>
  <g id="axes_1">
   <g id="patch_2">
    <path d="M 37.71125 39.643951 
L 194.915936 39.643951 
L 194.915936 7.2 
L 37.71125 7.2 
z
" style="fill: #ffffff"/>
   </g>
   <g id="patch_3">
    <path d="M 44.856918 18.801428 
L 92.494701 30.834732 
L 92.494701 20.277432 
z
" clip-path="url(#p012cda1ced)" style="fill: #808080; opacity: 0.3"/>
   </g>
   <g id="patch_4">
    <path d="M 92.494701 30.834732 
L 140.132485 33.983761 
L 140.132485 21.153039 
L 92.494701 20.277432 
z
" clip-path="url(#p012cda1ced)" style="fill: #808080; opacity: 0.3"/>
   </g>
   <g id="patch_5">
    <path d="M 140.132485 33.983761 
L 187.770268 35.146997 
L 187.770268 22.025034 
L 140.132485 21.153039 
z
" clip-path="url(#p012cda1ced)" style="fill: #808080; opacity: 0.3"/>
   </g>
   <g id="line2d_1">
    <path d="M 44.856918 18.801428 
L 92.494701 23.148492 
" clip-path="url(#p012cda1ced)" style="fill: none; stroke: #000000; stroke-linecap: square"/>
   </g>
   <g id="line2d_2">
    <path d="M 92.494701 23.148492 
L 140.132485 28.997589 
L 187.770268 33.223312 
" clip-path="url(#p012cda1ced)" style="fill: none; stroke: #000000; stroke-linecap: square"/>
   </g>
   <g id="line2d_3">
    <path d="M 44.856918 18.801428 
L 92.494701 20.277432 
" clip-path="url(#p012cda1ced)" style="fill: none; stroke-dasharray: 6.4,1.6,1,1.6; stroke-dashoffset: 0; stroke: #000000"/>
   </g>
   <g id="line2d_4">
    <path d="M 92.494701 20.277432 
L 140.132485 21.153039 
L 187.770268 22.025034 
" clip-path="url(#p012cda1ced)" style="fill: none; stroke-dasharray: 6.4,1.6,1,1.6; stroke-dashoffset: 0; stroke: #000000"/>
   </g>
   <g id="line2d_5">
    <path d="M 44.856918 18.801428 
L 92.494701 30.834732 
" clip-path="url(#p012cda1ced)" style="fill: none; stroke-dasharray: 3.7,1.6; stroke-dashoffset: 0; stroke: #000000"/>
   </g>
   <g id="line2d_6">
    <path d="M 92.494701 30.834732 
L 140.132485 33.983761 
L 187.770268 35.146997 
" clip-path="url(#p012cda1ced)" style="fill: none; stroke-dasharray: 3.7,1.6; stroke-dashoffset: 0; stroke: #000000"/>
   </g>
   <g id="matplotlib.axis_1">
    <g id="xtick_1"/>
    <g id="xtick_2"/>
    <g id="xtick_3"/>
    <g id="xtick_4"/>
   </g>
   <g id="matplotlib.axis_2">
    <g id="ytick_1">
     <g id="line2d_7">
      <defs>
       <path id="m28daa456a1" d="M 0 0 
L -3.5 0 
" style="stroke: #000000; stroke-width: 0.8"/>
      </defs>
      <g>
       <use xlink:href="#m28daa456a1" x="37.71125" y="39.643951" style="stroke: #000000; stroke-width: 0.8"/>
      </g>
     </g>
     <g id="text_1">
      <!-- 2.6 -->
      <g transform="translate(20.5675 42.643951) scale(0.08 -0.08)">
       <defs>
        <path id="FiraSans-Regular-32" d="M 1459 4346 
Q 1843 4346 2134 4192 
Q 2426 4038 2586 3772 
Q 2746 3507 2746 3174 
Q 2746 2784 2570 2425 
Q 2394 2067 2029 1651 
Q 1664 1235 922 493 
L 2848 493 
L 2778 0 
L 250 0 
L 250 467 
Q 1107 1357 1465 1769 
Q 1824 2182 1977 2489 
Q 2131 2797 2131 3149 
Q 2131 3482 1939 3670 
Q 1747 3859 1427 3859 
Q 1165 3859 966 3750 
Q 768 3642 544 3392 
L 160 3699 
Q 422 4026 742 4186 
Q 1062 4346 1459 4346 
z
" transform="scale(0.015625)"/>
        <path id="FiraSans-Regular-2e" d="M 762 813 
Q 954 813 1082 685 
Q 1210 557 1210 371 
Q 1210 186 1082 54 
Q 954 -77 762 -77 
Q 576 -77 448 54 
Q 320 186 320 371 
Q 320 557 448 685 
Q 576 813 762 813 
z
" transform="scale(0.015625)"/>
        <path id="FiraSans-Regular-36" d="M 1971 2816 
Q 2298 2816 2566 2662 
Q 2835 2509 2995 2201 
Q 3155 1894 3155 1453 
Q 3155 998 2972 649 
Q 2790 301 2480 112 
Q 2170 -77 1792 -77 
Q 1043 -77 697 476 
Q 352 1030 352 2010 
Q 352 2707 547 3235 
Q 742 3763 1107 4054 
Q 1472 4346 1971 4346 
Q 2458 4346 2854 4083 
L 2624 3693 
Q 2323 3878 1965 3878 
Q 1504 3878 1235 3436 
Q 966 2995 941 2253 
Q 1338 2816 1971 2816 
z
M 1792 390 
Q 2163 390 2361 672 
Q 2560 954 2560 1434 
Q 2560 2349 1869 2349 
Q 1587 2349 1350 2192 
Q 1114 2035 947 1760 
Q 966 1056 1168 723 
Q 1370 390 1792 390 
z
" transform="scale(0.015625)"/>
       </defs>
       <use xlink:href="#FiraSans-Regular-32"/>
       <use xlink:href="#FiraSans-Regular-2e" x="49.499985"/>
       <use xlink:href="#FiraSans-Regular-36" x="73.499969"/>
      </g>
     </g>
    </g>
    <g id="ytick_2">
     <g id="line2d_8">
      <g>
       <use xlink:href="#m28daa456a1" x="37.71125" y="18.484853" style="stroke: #000000; stroke-width: 0.8"/>
      </g>
     </g>
     <g id="text_2">
      <!-- 2.7 -->
      <g transform="translate(21.27875 21.484853) scale(0.08 -0.08)">
       <defs>
        <path id="FiraSans-Regular-37" d="M 2650 4282 
L 2650 3840 
L 1050 -64 
L 512 115 
L 2054 3802 
L 160 3802 
L 160 4282 
L 2650 4282 
z
" transform="scale(0.015625)"/>
       </defs>
       <use xlink:href="#FiraSans-Regular-32"/>
       <use xlink:href="#FiraSans-Regular-2e" x="49.499985"/>
       <use xlink:href="#FiraSans-Regular-37" x="73.499969"/>
      </g>
     </g>
    </g>
   </g>
   <g id="PathCollection_1">
    <defs>
     <path id="md0dcc8a710" d="M 0 2.236068 
C 0.593012 2.236068 1.161816 2.000462 1.581139 1.581139 
C 2.000462 1.161816 2.236068 0.593012 2.236068 0 
C 2.236068 -0.593012 2.000462 -1.161816 1.581139 -1.581139 
C 1.161816 -2.000462 0.593012 -2.236068 0 -2.236068 
C -0.593012 -2.236068 -1.161816 -2.000462 -1.581139 -1.581139 
C -2.000462 -1.161816 -2.236068 -0.593012 -2.236068 0 
C -2.236068 0.593012 -2.000462 1.161816 -1.581139 1.581139 
C -1.161816 2.000462 -0.593012 2.236068 0 2.236068 
z
" style="stroke: #000000"/>
    </defs>
    <g clip-path="url(#p012cda1ced)">
     <use xlink:href="#md0dcc8a710" x="44.856918" y="18.801428" style="fill: #d8d8d8; stroke: #000000"/>
    </g>
   </g>
   <g id="line2d_9">
    <defs>
     <path id="m469408b56f" d="M -2.5 0 
L 2.5 0 
" style="stroke: #000000"/>
    </defs>
    <g>
     <use xlink:href="#m469408b56f" x="37.71125" y="39.643951" style="stroke: #000000"/>
     <use xlink:href="#m469408b56f" x="194.915936" y="39.643951" style="stroke: #000000"/>
    </g>
   </g>
   <g id="patch_6">
    <path d="M 37.71125 39.643951 
L 37.71125 7.2 
" style="fill: none; stroke: #000000; stroke-width: 0.8; stroke-linejoin: miter; stroke-linecap: square"/>
   </g>
   <g id="patch_7">
    <path d="M 194.915936 39.643951 
L 194.915936 7.2 
" style="fill: none; stroke: #000000; stroke-width: 0.8; stroke-linejoin: miter; stroke-linecap: square"/>
   </g>
   <g id="patch_8">
    <path d="M 37.71125 7.2 
L 194.915936 7.2 
" style="fill: none; stroke: #000000; stroke-width: 0.8; stroke-linejoin: miter; stroke-linecap: square"/>
   </g>
  </g>
  <g id="axes_2">
   <g id="patch_9">
    <path d="M 37.71125 185.263506 
L 194.915936 185.263506 
L 194.915936 55.487701 
L 37.71125 55.487701 
z
" style="fill: #ffffff"/>
   </g>
   <g id="patch_10">
    <path d="M 44.856918 100.692869 
L 92.494701 125.440826 
L 92.494701 102.743413 
z
" clip-path="url(#p6b17cbd47f)" style="fill: #a78dd8; opacity: 0.3"/>
   </g>
   <g id="patch_11">
    <path d="M 92.494701 125.440826 
L 140.132485 131.948943 
L 140.132485 104.508861 
L 92.494701 102.743413 
z
" clip-path="url(#p6b17cbd47f)" style="fill: #a78dd8; opacity: 0.3"/>
   </g>
   <g id="patch_12">
    <path d="M 140.132485 131.948943 
L 187.770268 133.944046 
L 187.770268 106.728332 
L 140.132485 104.508861 
z
" clip-path="url(#p6b17cbd47f)" style="fill: #a78dd8; opacity: 0.3"/>
   </g>
   <g id="patch_13">
    <path d="M 44.856918 99.608367 
L 92.494701 158.254094 
L 92.494701 107.58887 
z
" clip-path="url(#p6b17cbd47f)" style="fill: #6dd2ea; opacity: 0.3"/>
   </g>
   <g id="patch_14">
    <path d="M 92.494701 158.254094 
L 140.132485 174.867476 
L 140.132485 114.99316 
L 92.494701 107.58887 
z
" clip-path="url(#p6b17cbd47f)" style="fill: #6dd2ea; opacity: 0.3"/>
   </g>
   <g id="patch_15">
    <path d="M 140.132485 174.867476 
L 187.770268 179.364606 
L 187.770268 119.976246 
L 140.132485 114.99316 
z
" clip-path="url(#p6b17cbd47f)" style="fill: #6dd2ea; opacity: 0.3"/>
   </g>
   <g id="patch_16">
    <path d="M 44.856918 61.386601 
L 92.494701 140.87505 
L 92.494701 79.848979 
z
" clip-path="url(#p6b17cbd47f)" style="fill: #fb7b71; opacity: 0.3"/>
   </g>
   <g id="patch_17">
    <path d="M 92.494701 140.87505 
L 140.132485 161.077976 
L 140.132485 92.481589 
L 92.494701 79.848979 
z
" clip-path="url(#p6b17cbd47f)" style="fill: #fb7b71; opacity: 0.3"/>
   </g>
   <g id="patch_18">
    <path d="M 140.132485 161.077976 
L 187.770268 167.344396 
L 187.770268 100.649054 
L 140.132485 92.481589 
z
" clip-path="url(#p6b17cbd47f)" style="fill: #fb7b71; opacity: 0.3"/>
   </g>
   <g id="line2d_10">
    <path d="M 44.856918 100.692869 
L 92.494701 108.852122 
" clip-path="url(#p6b17cbd47f)" style="fill: none; stroke: #52318e; stroke-linecap: square"/>
   </g>
   <g id="line2d_11">
    <path d="M 92.494701 108.852122 
L 140.132485 122.8397 
L 187.770268 131.56261 
" clip-path="url(#p6b17cbd47f)" style="fill: none; stroke: #52318e; stroke-linecap: square"/>
   </g>
   <g id="line2d_12">
    <path d="M 44.856918 100.692869 
L 92.494701 102.743413 
" clip-path="url(#p6b17cbd47f)" style="fill: none; stroke-dasharray: 6.4,1.6,1,1.6; stroke-dashoffset: 0; stroke: #52318e"/>
   </g>
   <g id="line2d_13">
    <path d="M 92.494701 102.743413 
L 140.132485 104.508861 
L 187.770268 106.728332 
" clip-path="url(#p6b17cbd47f)" style="fill: none; stroke-dasharray: 6.4,1.6,1,1.6; stroke-dashoffset: 0; stroke: #52318e"/>
   </g>
   <g id="line2d_14">
    <path d="M 44.856918 100.692869 
L 92.494701 125.440826 
" clip-path="url(#p6b17cbd47f)" style="fill: none; stroke-dasharray: 3.7,1.6; stroke-dashoffset: 0; stroke: #52318e"/>
   </g>
   <g id="line2d_15">
    <path d="M 92.494701 125.440826 
L 140.132485 131.948943 
L 187.770268 133.944046 
" clip-path="url(#p6b17cbd47f)" style="fill: none; stroke-dasharray: 3.7,1.6; stroke-dashoffset: 0; stroke: #52318e"/>
   </g>
   <g id="line2d_16">
    <path d="M 44.856918 99.608367 
L 92.494701 121.522593 
" clip-path="url(#p6b17cbd47f)" style="fill: none; stroke: #167f99; stroke-linecap: square"/>
   </g>
   <g id="line2d_17">
    <path d="M 92.494701 121.522593 
L 140.132485 154.670961 
L 187.770268 173.698112 
" clip-path="url(#p6b17cbd47f)" style="fill: none; stroke: #167f99; stroke-linecap: square"/>
   </g>
   <g id="line2d_18">
    <path d="M 44.856918 99.608367 
L 92.494701 107.58887 
" clip-path="url(#p6b17cbd47f)" style="fill: none; stroke-dasharray: 6.4,1.6,1,1.6; stroke-dashoffset: 0; stroke: #167f99"/>
   </g>
   <g id="line2d_19">
    <path d="M 92.494701 107.58887 
L 140.132485 114.99316 
L 187.770268 119.976246 
" clip-path="url(#p6b17cbd47f)" style="fill: none; stroke-dasharray: 6.4,1.6,1,1.6; stroke-dashoffset: 0; stroke: #167f99"/>
   </g>
   <g id="line2d_20">
    <path d="M 44.856918 99.608367 
L 92.494701 158.254094 
" clip-path="url(#p6b17cbd47f)" style="fill: none; stroke-dasharray: 3.7,1.6; stroke-dashoffset: 0; stroke: #167f99"/>
   </g>
   <g id="line2d_21">
    <path d="M 92.494701 158.254094 
L 140.132485 174.867476 
L 187.770268 179.364606 
" clip-path="url(#p6b17cbd47f)" style="fill: none; stroke-dasharray: 3.7,1.6; stroke-dashoffset: 0; stroke: #167f99"/>
   </g>
   <g id="line2d_22">
    <path d="M 44.856918 61.386601 
L 92.494701 94.91613 
" clip-path="url(#p6b17cbd47f)" style="fill: none; stroke: #b71205; stroke-linecap: square"/>
   </g>
   <g id="line2d_23">
    <path d="M 92.494701 94.91613 
L 140.132485 134.955992 
L 187.770268 161.572784 
" clip-path="url(#p6b17cbd47f)" style="fill: none; stroke: #b71205; stroke-linecap: square"/>
   </g>
   <g id="line2d_24">
    <path d="M 44.856918 61.386601 
L 92.494701 79.848979 
" clip-path="url(#p6b17cbd47f)" style="fill: none; stroke-dasharray: 6.4,1.6,1,1.6; stroke-dashoffset: 0; stroke: #b71205"/>
   </g>
   <g id="line2d_25">
    <path d="M 92.494701 79.848979 
L 140.132485 92.481589 
L 187.770268 100.649054 
" clip-path="url(#p6b17cbd47f)" style="fill: none; stroke-dasharray: 6.4,1.6,1,1.6; stroke-dashoffset: 0; stroke: #b71205"/>
   </g>
   <g id="line2d_26">
    <path d="M 44.856918 61.386601 
L 92.494701 140.87505 
" clip-path="url(#p6b17cbd47f)" style="fill: none; stroke-dasharray: 3.7,1.6; stroke-dashoffset: 0; stroke: #b71205"/>
   </g>
   <g id="line2d_27">
    <path d="M 92.494701 140.87505 
L 140.132485 161.077976 
L 187.770268 167.344396 
" clip-path="url(#p6b17cbd47f)" style="fill: none; stroke-dasharray: 3.7,1.6; stroke-dashoffset: 0; stroke: #b71205"/>
   </g>
   <g id="matplotlib.axis_3">
    <g id="xtick_5">
     <g id="line2d_28">
      <defs>
       <path id="me63296b0bb" d="M 0 0 
L 0 3.5 
" style="stroke: #000000; stroke-width: 0.8"/>
      </defs>
      <g>
       <use xlink:href="#me63296b0bb" x="44.856918" y="185.263506" style="stroke: #000000; stroke-width: 0.8"/>
      </g>
     </g>
     <g id="text_3">
      <!-- 2020 -->
      <g transform="translate(36.433168 198.263506) scale(0.08 -0.08)">
       <defs>
        <path id="FiraSans-Regular-30" d="M 1786 4346 
Q 2496 4346 2857 3779 
Q 3219 3213 3219 2138 
Q 3219 1062 2857 492 
Q 2496 -77 1786 -77 
Q 1075 -77 713 492 
Q 352 1062 352 2138 
Q 352 3213 713 3779 
Q 1075 4346 1786 4346 
z
M 1786 3878 
Q 1370 3878 1168 3468 
Q 966 3059 966 2138 
Q 966 1216 1168 803 
Q 1370 390 1786 390 
Q 2195 390 2400 803 
Q 2605 1216 2605 2138 
Q 2605 3053 2400 3465 
Q 2195 3878 1786 3878 
z
" transform="scale(0.015625)"/>
       </defs>
       <use xlink:href="#FiraSans-Regular-32"/>
       <use xlink:href="#FiraSans-Regular-30" x="49.499985"/>
       <use xlink:href="#FiraSans-Regular-32" x="105.299973"/>
       <use xlink:href="#FiraSans-Regular-30" x="154.799957"/>
      </g>
     </g>
    </g>
    <g id="xtick_6">
     <g id="line2d_29">
      <g>
       <use xlink:href="#me63296b0bb" x="92.494701" y="185.263506" style="stroke: #000000; stroke-width: 0.8"/>
      </g>
     </g>
     <g id="text_4">
      <!-- 2030 -->
      <g transform="translate(84.054701 198.263506) scale(0.08 -0.08)">
       <defs>
        <path id="FiraSans-Regular-33" d="M 1440 4346 
Q 1837 4346 2121 4198 
Q 2406 4051 2556 3801 
Q 2707 3552 2707 3258 
Q 2707 2867 2480 2614 
Q 2253 2362 1875 2272 
Q 2304 2234 2573 1965 
Q 2842 1696 2842 1235 
Q 2842 864 2662 563 
Q 2483 262 2150 92 
Q 1818 -77 1382 -77 
Q 992 -77 665 67 
Q 339 211 96 499 
L 448 826 
Q 659 608 880 505 
Q 1101 403 1363 403 
Q 1766 403 1996 630 
Q 2227 858 2227 1242 
Q 2227 1664 2009 1837 
Q 1792 2010 1376 2010 
L 1056 2010 
L 1126 2464 
L 1344 2464 
Q 1677 2464 1897 2662 
Q 2118 2861 2118 3219 
Q 2118 3520 1926 3696 
Q 1734 3872 1408 3872 
Q 1158 3872 950 3782 
Q 742 3693 525 3488 
L 218 3840 
Q 762 4346 1440 4346 
z
" transform="scale(0.015625)"/>
       </defs>
       <use xlink:href="#FiraSans-Regular-32"/>
       <use xlink:href="#FiraSans-Regular-30" x="49.499985"/>
       <use xlink:href="#FiraSans-Regular-33" x="105.299973"/>
       <use xlink:href="#FiraSans-Regular-30" x="155.199966"/>
      </g>
     </g>
    </g>
    <g id="xtick_7">
     <g id="line2d_30">
      <g>
       <use xlink:href="#me63296b0bb" x="140.132485" y="185.263506" style="stroke: #000000; stroke-width: 0.8"/>
      </g>
     </g>
     <g id="text_5">
      <!-- 2040 -->
      <g transform="translate(131.56061 198.263506) scale(0.08 -0.08)">
       <defs>
        <path id="FiraSans-Regular-34" d="M 3213 1523 
L 3213 1056 
L 2656 1056 
L 2656 0 
L 2086 0 
L 2086 1056 
L 256 1056 
L 256 1478 
L 1542 4346 
L 2035 4141 
L 877 1523 
L 2093 1523 
L 2144 2675 
L 2656 2675 
L 2656 1523 
L 3213 1523 
z
" transform="scale(0.015625)"/>
       </defs>
       <use xlink:href="#FiraSans-Regular-32"/>
       <use xlink:href="#FiraSans-Regular-30" x="49.499985"/>
       <use xlink:href="#FiraSans-Regular-34" x="105.299973"/>
       <use xlink:href="#FiraSans-Regular-30" x="158.499969"/>
      </g>
     </g>
    </g>
    <g id="xtick_8">
     <g id="line2d_31">
      <g>
       <use xlink:href="#me63296b0bb" x="187.770268" y="185.263506" style="stroke: #000000; stroke-width: 0.8"/>
      </g>
     </g>
     <g id="text_6">
      <!-- 2050 -->
      <g transform="translate(179.322768 198.263506) scale(0.08 -0.08)">
       <defs>
        <path id="FiraSans-Regular-35" d="M 2688 3821 
L 1018 3821 
L 1018 2560 
Q 1344 2726 1702 2726 
Q 2253 2726 2585 2364 
Q 2918 2003 2918 1370 
Q 2918 947 2732 617 
Q 2547 288 2211 105 
Q 1875 -77 1434 -77 
Q 1043 -77 736 60 
Q 429 198 166 467 
L 512 806 
Q 717 602 934 502 
Q 1152 403 1427 403 
Q 1837 403 2070 659 
Q 2304 915 2304 1382 
Q 2304 1850 2093 2061 
Q 1882 2272 1523 2272 
Q 1357 2272 1216 2237 
Q 1075 2202 915 2125 
L 454 2125 
L 454 4282 
L 2771 4282 
L 2688 3821 
z
" transform="scale(0.015625)"/>
       </defs>
       <use xlink:href="#FiraSans-Regular-32"/>
       <use xlink:href="#FiraSans-Regular-30" x="49.499985"/>
       <use xlink:href="#FiraSans-Regular-35" x="105.299973"/>
       <use xlink:href="#FiraSans-Regular-30" x="155.399963"/>
      </g>
     </g>
    </g>
   </g>
   <g id="matplotlib.axis_4">
    <g id="ytick_3">
     <g id="line2d_32">
      <g>
       <use xlink:href="#m28daa456a1" x="37.71125" y="178.381817" style="stroke: #000000; stroke-width: 0.8"/>
      </g>
     </g>
     <g id="text_7">
      <!-- 0.2 -->
      <g transform="translate(20.3675 181.381817) scale(0.08 -0.08)">
       <use xlink:href="#FiraSans-Regular-30"/>
       <use xlink:href="#FiraSans-Regular-2e" x="55.799988"/>
       <use xlink:href="#FiraSans-Regular-32" x="79.799973"/>
      </g>
     </g>
    </g>
    <g id="ytick_4">
     <g id="line2d_33">
      <g>
       <use xlink:href="#m28daa456a1" x="37.71125" y="145.763717" style="stroke: #000000; stroke-width: 0.8"/>
      </g>
     </g>
     <g id="text_8">
      <!-- 0.5 -->
      <g transform="translate(20.32 148.763717) scale(0.08 -0.08)">
       <use xlink:href="#FiraSans-Regular-30"/>
       <use xlink:href="#FiraSans-Regular-2e" x="55.799988"/>
       <use xlink:href="#FiraSans-Regular-35" x="79.799973"/>
      </g>
     </g>
    </g>
    <g id="ytick_5">
     <g id="line2d_34">
      <g>
       <use xlink:href="#m28daa456a1" x="37.71125" y="113.145616" style="stroke: #000000; stroke-width: 0.8"/>
      </g>
     </g>
     <g id="text_9">
      <!-- 0.8 -->
      <g transform="translate(19.92 116.145616) scale(0.08 -0.08)">
       <defs>
        <path id="FiraSans-Regular-38" d="M 2336 2298 
Q 3238 1933 3238 1146 
Q 3238 794 3049 515 
Q 2861 237 2521 80 
Q 2182 -77 1754 -77 
Q 1318 -77 985 76 
Q 653 230 470 505 
Q 288 781 288 1133 
Q 288 1530 502 1798 
Q 717 2067 1133 2246 
Q 794 2419 630 2665 
Q 467 2912 467 3245 
Q 467 3590 649 3840 
Q 832 4090 1129 4218 
Q 1427 4346 1766 4346 
Q 2099 4346 2396 4224 
Q 2694 4102 2880 3856 
Q 3066 3610 3066 3264 
Q 3066 2944 2886 2713 
Q 2707 2483 2336 2298 
z
M 1766 3904 
Q 1434 3904 1238 3731 
Q 1043 3558 1043 3238 
Q 1043 2931 1232 2771 
Q 1421 2611 1837 2477 
L 1946 2438 
Q 2234 2605 2362 2790 
Q 2490 2976 2490 3245 
Q 2490 3546 2301 3725 
Q 2112 3904 1766 3904 
z
M 1760 390 
Q 2157 390 2390 595 
Q 2624 800 2624 1139 
Q 2624 1370 2534 1526 
Q 2445 1683 2246 1801 
Q 2048 1920 1690 2042 
L 1530 2099 
Q 1210 1946 1056 1712 
Q 902 1478 902 1133 
Q 902 781 1132 585 
Q 1363 390 1760 390 
z
" transform="scale(0.015625)"/>
       </defs>
       <use xlink:href="#FiraSans-Regular-30"/>
       <use xlink:href="#FiraSans-Regular-2e" x="55.799988"/>
       <use xlink:href="#FiraSans-Regular-38" x="79.799973"/>
      </g>
     </g>
    </g>
    <g id="ytick_6">
     <g id="line2d_35">
      <g>
       <use xlink:href="#m28daa456a1" x="37.71125" y="80.527515" style="stroke: #000000; stroke-width: 0.8"/>
      </g>
     </g>
     <g id="text_10">
      <!-- 1.0 -->
      <g transform="translate(20.86375 83.527515) scale(0.08 -0.08)">
       <defs>
        <path id="FiraSans-Regular-31" d="M 2067 4282 
L 2067 0 
L 1478 0 
L 1478 3654 
L 480 3046 
L 224 3462 
L 1549 4282 
L 2067 4282 
z
" transform="scale(0.015625)"/>
       </defs>
       <use xlink:href="#FiraSans-Regular-31"/>
       <use xlink:href="#FiraSans-Regular-2e" x="43.299988"/>
       <use xlink:href="#FiraSans-Regular-30" x="67.299973"/>
      </g>
     </g>
    </g>
    <g id="text_11">
     <!-- Climate change impact [kg CO$_\mathdefault{2}$-eq kg$^\mathdefault{-1}$] -->
     <g transform="translate(14.08 191.975604) rotate(-90) scale(0.08 -0.08)">
      <defs>
       <path id="FiraSans-Bold-43" d="M 2227 4544 
Q 2643 4544 2966 4422 
Q 3290 4301 3578 4058 
L 3078 3462 
Q 2880 3616 2688 3693 
Q 2496 3770 2278 3770 
Q 1830 3770 1571 3392 
Q 1312 3014 1312 2227 
Q 1312 1453 1571 1078 
Q 1830 704 2291 704 
Q 2534 704 2732 797 
Q 2931 890 3162 1062 
L 3629 461 
Q 3379 211 3024 51 
Q 2669 -109 2240 -109 
Q 1626 -109 1171 160 
Q 717 429 464 957 
Q 211 1485 211 2227 
Q 211 2950 470 3475 
Q 730 4000 1187 4272 
Q 1645 4544 2227 4544 
z
" transform="scale(0.015625)"/>
       <path id="FiraSans-Bold-6c" d="M 1299 -109 
Q 858 -109 611 144 
Q 365 397 365 864 
L 365 4749 
L 1376 4858 
L 1376 902 
Q 1376 691 1549 691 
Q 1638 691 1715 723 
L 1914 6 
Q 1638 -109 1299 -109 
z
" transform="scale(0.015625)"/>
       <path id="FiraSans-Bold-69" d="M 1408 3398 
L 1408 0 
L 397 0 
L 397 3398 
L 1408 3398 
z
M 896 5190 
Q 1158 5190 1328 5027 
Q 1498 4864 1498 4614 
Q 1498 4365 1328 4201 
Q 1158 4038 896 4038 
Q 634 4038 467 4201 
Q 301 4365 301 4614 
Q 301 4864 467 5027 
Q 634 5190 896 5190 
z
" transform="scale(0.015625)"/>
       <path id="FiraSans-Bold-6d" d="M 4154 3507 
Q 4557 3507 4800 3235 
Q 5043 2963 5043 2483 
L 5043 0 
L 4032 0 
L 4032 2310 
Q 4032 2765 3744 2765 
Q 3584 2765 3462 2656 
Q 3341 2547 3226 2323 
L 3226 0 
L 2214 0 
L 2214 2310 
Q 2214 2765 1926 2765 
Q 1773 2765 1648 2653 
Q 1523 2541 1408 2323 
L 1408 0 
L 397 0 
L 397 3398 
L 1280 3398 
L 1350 3002 
Q 1549 3258 1789 3382 
Q 2029 3507 2336 3507 
Q 2624 3507 2832 3366 
Q 3040 3226 3136 2970 
Q 3341 3245 3587 3376 
Q 3834 3507 4154 3507 
z
" transform="scale(0.015625)"/>
       <path id="FiraSans-Bold-61" d="M 3098 986 
Q 3098 794 3152 704 
Q 3206 614 3328 570 
L 3117 -90 
Q 2803 -64 2604 48 
Q 2406 160 2298 403 
Q 1965 -109 1274 -109 
Q 768 -109 467 185 
Q 166 480 166 954 
Q 166 1510 576 1804 
Q 986 2099 1760 2099 
L 2106 2099 
L 2106 2246 
Q 2106 2547 1978 2659 
Q 1850 2771 1530 2771 
Q 1363 2771 1126 2723 
Q 890 2675 640 2592 
L 410 3258 
Q 730 3379 1066 3443 
Q 1402 3507 1690 3507 
Q 2419 3507 2758 3206 
Q 3098 2906 3098 2304 
L 3098 986 
z
M 1568 614 
Q 1914 614 2106 941 
L 2106 1542 
L 1856 1542 
Q 1510 1542 1340 1420 
Q 1171 1299 1171 1043 
Q 1171 838 1276 726 
Q 1382 614 1568 614 
z
" transform="scale(0.015625)"/>
       <path id="FiraSans-Bold-74" d="M 2528 160 
Q 2342 32 2096 -38 
Q 1850 -109 1606 -109 
Q 493 -102 493 1120 
L 493 2694 
L 13 2694 
L 13 3398 
L 493 3398 
L 493 4134 
L 1504 4250 
L 1504 3398 
L 2285 3398 
L 2176 2694 
L 1504 2694 
L 1504 1133 
Q 1504 896 1581 793 
Q 1658 691 1824 691 
Q 1997 691 2189 800 
L 2528 160 
z
" transform="scale(0.015625)"/>
       <path id="FiraSans-Bold-65" d="M 3360 1766 
Q 3360 1555 3341 1402 
L 1235 1402 
Q 1286 973 1478 800 
Q 1670 627 2010 627 
Q 2214 627 2406 700 
Q 2598 774 2822 928 
L 3238 365 
Q 2643 -109 1914 -109 
Q 1088 -109 646 377 
Q 205 864 205 1683 
Q 205 2202 390 2614 
Q 576 3027 934 3267 
Q 1293 3507 1792 3507 
Q 2528 3507 2944 3046 
Q 3360 2586 3360 1766 
z
M 2368 2054 
Q 2355 2835 1818 2835 
Q 1555 2835 1411 2643 
Q 1267 2451 1235 2010 
L 2368 2010 
L 2368 2054 
z
" transform="scale(0.015625)"/>
       <path id="FiraSans-Bold-20" transform="scale(0.015625)"/>
       <path id="FiraSans-Bold-63" d="M 1869 3507 
Q 2221 3507 2502 3404 
Q 2784 3302 3034 3091 
L 2598 2490 
Q 2278 2733 1952 2733 
Q 1613 2733 1440 2483 
Q 1267 2234 1267 1677 
Q 1267 1139 1440 915 
Q 1613 691 1939 691 
Q 2112 691 2253 745 
Q 2394 800 2592 922 
L 3034 294 
Q 2528 -109 1888 -109 
Q 1370 -109 992 112 
Q 614 333 409 733 
Q 205 1133 205 1670 
Q 205 2208 409 2624 
Q 614 3040 992 3273 
Q 1370 3507 1869 3507 
z
" transform="scale(0.015625)"/>
       <path id="FiraSans-Bold-68" d="M 2387 3507 
Q 2829 3507 3078 3238 
Q 3328 2970 3328 2483 
L 3328 0 
L 2317 0 
L 2317 2310 
Q 2317 2566 2233 2665 
Q 2150 2765 1997 2765 
Q 1690 2765 1408 2330 
L 1408 0 
L 397 0 
L 397 4749 
L 1408 4851 
L 1408 3034 
Q 1619 3270 1856 3388 
Q 2093 3507 2387 3507 
z
" transform="scale(0.015625)"/>
       <path id="FiraSans-Bold-6e" d="M 2387 3507 
Q 2829 3507 3078 3238 
Q 3328 2970 3328 2483 
L 3328 0 
L 2317 0 
L 2317 2310 
Q 2317 2566 2237 2665 
Q 2157 2765 1997 2765 
Q 1690 2765 1408 2323 
L 1408 0 
L 397 0 
L 397 3398 
L 1280 3398 
L 1350 2995 
Q 1568 3251 1821 3379 
Q 2074 3507 2387 3507 
z
" transform="scale(0.015625)"/>
       <path id="FiraSans-Bold-67" d="M 3526 3200 
Q 3194 3066 2547 3066 
Q 2880 2925 3033 2720 
Q 3187 2515 3187 2189 
Q 3187 1862 3014 1603 
Q 2842 1344 2518 1197 
Q 2195 1050 1760 1050 
Q 1555 1050 1370 1088 
Q 1318 1062 1289 1008 
Q 1261 954 1261 896 
Q 1261 800 1334 745 
Q 1408 691 1632 691 
L 2144 691 
Q 2534 691 2828 563 
Q 3123 435 3283 211 
Q 3443 -13 3443 -294 
Q 3443 -826 2985 -1123 
Q 2528 -1421 1664 -1421 
Q 1043 -1421 684 -1289 
Q 326 -1158 182 -921 
Q 38 -685 38 -326 
L 947 -326 
Q 947 -480 1008 -569 
Q 1069 -659 1229 -704 
Q 1389 -749 1690 -749 
Q 2106 -749 2266 -649 
Q 2426 -550 2426 -365 
Q 2426 -211 2304 -121 
Q 2182 -32 1939 -32 
L 1446 -32 
Q 922 -32 662 157 
Q 403 346 403 640 
Q 403 826 512 1002 
Q 621 1178 806 1293 
Q 486 1466 342 1699 
Q 198 1933 198 2266 
Q 198 2835 608 3171 
Q 1018 3507 1690 3507 
Q 2202 3494 2557 3609 
Q 2912 3725 3290 3949 
L 3526 3200 
z
M 1715 2842 
Q 1478 2842 1340 2691 
Q 1203 2541 1203 2278 
Q 1203 2003 1340 1852 
Q 1478 1702 1715 1702 
Q 1965 1702 2096 1849 
Q 2227 1997 2227 2291 
Q 2227 2842 1715 2842 
z
" transform="scale(0.015625)"/>
       <path id="FiraSans-Bold-70" d="M 2317 3507 
Q 2957 3507 3270 3033 
Q 3584 2560 3584 1709 
Q 3584 1184 3421 771 
Q 3258 358 2950 124 
Q 2643 -109 2234 -109 
Q 1722 -109 1408 243 
L 1408 -1312 
L 397 -1421 
L 397 3398 
L 1286 3398 
L 1338 3021 
Q 1536 3270 1792 3388 
Q 2048 3507 2317 3507 
z
M 1926 634 
Q 2534 634 2534 1696 
Q 2534 2298 2400 2531 
Q 2266 2765 1997 2765 
Q 1824 2765 1673 2662 
Q 1523 2560 1408 2368 
L 1408 934 
Q 1613 634 1926 634 
z
" transform="scale(0.015625)"/>
       <path id="FiraSans-Bold-5b" d="M 1914 5267 
L 1914 4512 
L 1178 4512 
L 1178 -38 
L 1914 -38 
L 1914 -787 
L 218 -787 
L 218 5267 
L 1914 5267 
z
" transform="scale(0.015625)"/>
       <path id="FiraSans-Bold-6b" d="M 1408 4858 
L 1408 0 
L 397 0 
L 397 4749 
L 1408 4858 
z
M 3507 3398 
L 2477 1907 
L 3590 0 
L 2451 0 
L 1440 1856 
L 2477 3398 
L 3507 3398 
z
" transform="scale(0.015625)"/>
       <path id="FiraSans-Bold-4f" d="M 2208 4544 
Q 3155 4544 3683 3936 
Q 4211 3328 4211 2221 
Q 4211 1498 3971 973 
Q 3731 448 3280 169 
Q 2829 -109 2208 -109 
Q 1587 -109 1139 166 
Q 691 442 451 963 
Q 211 1485 211 2221 
Q 211 2938 451 3462 
Q 691 3987 1139 4265 
Q 1587 4544 2208 4544 
z
M 2208 3776 
Q 1754 3776 1533 3408 
Q 1312 3040 1312 2221 
Q 1312 1402 1536 1030 
Q 1760 659 2208 659 
Q 2669 659 2889 1027 
Q 3110 1395 3110 2221 
Q 3110 3046 2886 3411 
Q 2662 3776 2208 3776 
z
" transform="scale(0.015625)"/>
       <path id="FiraSans-Bold-32" d="M 1523 4416 
Q 1990 4416 2326 4249 
Q 2662 4083 2838 3801 
Q 3014 3520 3014 3181 
Q 3014 2835 2873 2521 
Q 2733 2208 2374 1801 
Q 2016 1395 1331 774 
L 3104 774 
L 3002 0 
L 186 0 
L 186 717 
Q 973 1491 1331 1884 
Q 1690 2278 1834 2540 
Q 1978 2803 1978 3078 
Q 1978 3341 1827 3491 
Q 1677 3642 1421 3642 
Q 1190 3642 1011 3536 
Q 832 3430 634 3194 
L 38 3667 
Q 307 4019 681 4217 
Q 1056 4416 1523 4416 
z
" transform="scale(0.015625)"/>
       <path id="FiraSans-Bold-2d" d="M 282 1613 
L 282 2394 
L 2323 2394 
L 2323 1613 
L 282 1613 
z
" transform="scale(0.015625)"/>
       <path id="FiraSans-Bold-71" d="M 3443 3398 
L 3443 -1421 
L 2432 -1312 
L 2432 326 
Q 2093 -109 1530 -109 
Q 896 -109 566 377 
Q 237 864 237 1709 
Q 237 2234 409 2640 
Q 582 3046 899 3276 
Q 1216 3507 1632 3507 
Q 2150 3507 2509 3104 
L 2560 3398 
L 3443 3398 
z
M 1843 634 
Q 2195 634 2432 1018 
L 2432 2483 
Q 2310 2630 2188 2700 
Q 2067 2771 1907 2771 
Q 1619 2771 1452 2512 
Q 1286 2253 1286 1702 
Q 1286 1107 1430 870 
Q 1574 634 1843 634 
z
" transform="scale(0.015625)"/>
       <path id="FiraSans-Bold-2212" d="M 307 1734 
L 307 2515 
L 3008 2515 
L 3008 1734 
L 307 1734 
z
" transform="scale(0.015625)"/>
       <path id="FiraSans-Bold-31" d="M 2445 4326 
L 2445 0 
L 1453 0 
L 1453 3341 
L 525 2771 
L 83 3443 
L 1542 4326 
L 2445 4326 
z
" transform="scale(0.015625)"/>
       <path id="FiraSans-Bold-5d" d="M 1856 5267 
L 1856 -787 
L 160 -787 
L 160 -32 
L 896 -32 
L 896 4512 
L 160 4512 
L 160 5267 
L 1856 5267 
z
" transform="scale(0.015625)"/>
      </defs>
      <use xlink:href="#FiraSans-Bold-43" transform="translate(0 0.403125)"/>
      <use xlink:href="#FiraSans-Bold-6c" transform="translate(57.499985 0.403125)"/>
      <use xlink:href="#FiraSans-Bold-69" transform="translate(87.199982 0.403125)"/>
      <use xlink:href="#FiraSans-Bold-6d" transform="translate(115.399979 0.403125)"/>
      <use xlink:href="#FiraSans-Bold-61" transform="translate(199.899963 0.403125)"/>
      <use xlink:href="#FiraSans-Bold-74" transform="translate(254.699951 0.403125)"/>
      <use xlink:href="#FiraSans-Bold-65" transform="translate(293.299942 0.403125)"/>
      <use xlink:href="#FiraSans-Bold-20" transform="translate(348.499939 0.403125)"/>
      <use xlink:href="#FiraSans-Bold-63" transform="translate(372.199936 0.403125)"/>
      <use xlink:href="#FiraSans-Bold-68" transform="translate(420.09993 0.403125)"/>
      <use xlink:href="#FiraSans-Bold-61" transform="translate(477.799927 0.403125)"/>
      <use xlink:href="#FiraSans-Bold-6e" transform="translate(532.599915 0.403125)"/>
      <use xlink:href="#FiraSans-Bold-67" transform="translate(590.299911 0.403125)"/>
      <use xlink:href="#FiraSans-Bold-65" transform="translate(645.399902 0.403125)"/>
      <use xlink:href="#FiraSans-Bold-20" transform="translate(700.599899 0.403125)"/>
      <use xlink:href="#FiraSans-Bold-69" transform="translate(724.299896 0.403125)"/>
      <use xlink:href="#FiraSans-Bold-6d" transform="translate(752.499893 0.403125)"/>
      <use xlink:href="#FiraSans-Bold-70" transform="translate(836.999878 0.403125)"/>
      <use xlink:href="#FiraSans-Bold-61" transform="translate(896.699875 0.403125)"/>
      <use xlink:href="#FiraSans-Bold-63" transform="translate(951.499863 0.403125)"/>
      <use xlink:href="#FiraSans-Bold-74" transform="translate(999.399857 0.403125)"/>
      <use xlink:href="#FiraSans-Bold-20" transform="translate(1037.999847 0.403125)"/>
      <use xlink:href="#FiraSans-Bold-5b" transform="translate(1061.699844 0.403125)"/>
      <use xlink:href="#FiraSans-Bold-6b" transform="translate(1094.099838 0.403125)"/>
      <use xlink:href="#FiraSans-Bold-67" transform="translate(1149.299835 0.403125)"/>
      <use xlink:href="#FiraSans-Bold-20" transform="translate(1204.399826 0.403125)"/>
      <use xlink:href="#FiraSans-Bold-43" transform="translate(1228.099823 0.403125)"/>
      <use xlink:href="#FiraSans-Bold-4f" transform="translate(1285.599808 0.403125)"/>
      <use xlink:href="#FiraSans-Bold-32" transform="translate(1355.65683 -16.003125) scale(0.7)"/>
      <use xlink:href="#FiraSans-Bold-2d" transform="translate(1394.581203 0.403125)"/>
      <use xlink:href="#FiraSans-Bold-65" transform="translate(1435.2812 0.403125)"/>
      <use xlink:href="#FiraSans-Bold-71" transform="translate(1490.481197 0.403125)"/>
      <use xlink:href="#FiraSans-Bold-20" transform="translate(1550.481181 0.403125)"/>
      <use xlink:href="#FiraSans-Bold-6b" transform="translate(1574.181178 0.403125)"/>
      <use xlink:href="#FiraSans-Bold-67" transform="translate(1629.381175 0.403125)"/>
      <use xlink:href="#FiraSans-Bold-2212" transform="translate(1685.438197 38.684375) scale(0.7)"/>
      <use xlink:href="#FiraSans-Bold-31" transform="translate(1721.768193 38.684375) scale(0.7)"/>
      <use xlink:href="#FiraSans-Bold-5d" transform="translate(1756.982564 0.403125)"/>
     </g>
    </g>
   </g>
   <g id="PathCollection_2">
    <defs>
     <path id="m4e38bfd382" d="M 0 3.162278 
L 1.897367 0 
L 0 -3.162278 
L -1.897367 0 
z
" style="stroke: #52318e"/>
    </defs>
    <g clip-path="url(#p6b17cbd47f)">
     <use xlink:href="#m4e38bfd382" x="44.856918" y="100.692869" style="fill: #a78dd8; stroke: #52318e"/>
    </g>
   </g>
   <g id="PathCollection_3">
    <defs>
     <path id="m8241fc7149" d="M 0 -2.236068 
L -2.236068 2.236068 
L 2.236068 2.236068 
z
" style="stroke: #167f99"/>
    </defs>
    <g clip-path="url(#p6b17cbd47f)">
     <use xlink:href="#m8241fc7149" x="44.856918" y="99.608367" style="fill: #6dd2ea; stroke: #167f99"/>
    </g>
   </g>
   <g id="PathCollection_4">
    <defs>
     <path id="m0172947942" d="M 0 -2.236068 
L -1.936492 -1.118034 
L -1.936492 1.118034 
L -0 2.236068 
L 1.936492 1.118034 
L 1.936492 -1.118034 
z
" style="stroke: #b71205"/>
    </defs>
    <g clip-path="url(#p6b17cbd47f)">
     <use xlink:href="#m0172947942" x="44.856918" y="61.386601" style="fill: #fb7b71; stroke: #b71205"/>
    </g>
   </g>
   <g id="line2d_36">
    <g>
     <use xlink:href="#m469408b56f" x="37.71125" y="55.487701" style="stroke: #000000"/>
     <use xlink:href="#m469408b56f" x="194.915936" y="55.487701" style="stroke: #000000"/>
    </g>
   </g>
   <g id="patch_19">
    <path d="M 37.71125 185.263506 
L 37.71125 55.487701 
" style="fill: none; stroke: #000000; stroke-width: 0.8; stroke-linejoin: miter; stroke-linecap: square"/>
   </g>
   <g id="patch_20">
    <path d="M 194.915936 185.263506 
L 194.915936 55.487701 
" style="fill: none; stroke: #000000; stroke-width: 0.8; stroke-linejoin: miter; stroke-linecap: square"/>
   </g>
   <g id="patch_21">
    <path d="M 37.71125 185.263506 
L 194.915936 185.263506 
" style="fill: none; stroke: #000000; stroke-width: 0.8; stroke-linejoin: miter; stroke-linecap: square"/>
   </g>
  </g>
  <g id="legend_1">
   <g id="line2d_37">
    <path d="M 13.909096 214.806311 
L 21.909096 214.806311 
L 29.909096 214.806311 
" style="fill: none; stroke: #000000; stroke-opacity: 0; stroke-width: 1.5; stroke-linecap: square"/>
    <defs>
     <path id="md10805932c" d="M 0 2.5 
C 0.663008 2.5 1.29895 2.236584 1.767767 1.767767 
C 2.236584 1.29895 2.5 0.663008 2.5 0 
C 2.5 -0.663008 2.236584 -1.29895 1.767767 -1.767767 
C 1.29895 -2.236584 0.663008 -2.5 0 -2.5 
C -0.663008 -2.5 -1.29895 -2.236584 -1.767767 -1.767767 
C -2.236584 -1.29895 -2.5 -0.663008 -2.5 0 
C -2.5 0.663008 -2.236584 1.29895 -1.767767 1.767767 
C -1.29895 2.236584 -0.663008 2.5 0 2.5 
z
" style="stroke: #000000"/>
    </defs>
    <g>
     <use xlink:href="#md10805932c" x="21.909096" y="214.806311" style="fill: #d8d8d8; stroke: #000000"/>
    </g>
   </g>
   <g id="text_12">
    <!-- Fossil -->
    <g transform="translate(30.709096 217.606311) scale(0.08 -0.08)">
     <defs>
      <path id="FiraSans-Regular-46" d="M 640 0 
L 640 4410 
L 2982 4410 
L 2912 3923 
L 1248 3923 
L 1248 2419 
L 2688 2419 
L 2688 1939 
L 1248 1939 
L 1248 0 
L 640 0 
z
" transform="scale(0.015625)"/>
      <path id="FiraSans-Regular-6f" d="M 1875 3450 
Q 2586 3450 2979 2976 
Q 3373 2502 3373 1690 
Q 3373 1165 3193 765 
Q 3014 365 2675 144 
Q 2336 -77 1869 -77 
Q 1158 -77 761 396 
Q 365 870 365 1683 
Q 365 2208 544 2608 
Q 723 3008 1062 3229 
Q 1402 3450 1875 3450 
z
M 1875 2976 
Q 998 2976 998 1683 
Q 998 397 1869 397 
Q 2739 397 2739 1690 
Q 2739 2976 1875 2976 
z
" transform="scale(0.015625)"/>
      <path id="FiraSans-Regular-73" d="M 1523 3450 
Q 1869 3450 2144 3354 
Q 2419 3258 2669 3066 
L 2419 2694 
Q 2189 2842 1981 2912 
Q 1773 2982 1542 2982 
Q 1254 2982 1088 2864 
Q 922 2746 922 2541 
Q 922 2336 1078 2221 
Q 1235 2106 1645 1997 
Q 2208 1856 2486 1613 
Q 2765 1370 2765 947 
Q 2765 448 2377 185 
Q 1990 -77 1434 -77 
Q 666 -77 160 365 
L 474 723 
Q 902 397 1421 397 
Q 1754 397 1949 534 
Q 2144 672 2144 909 
Q 2144 1082 2073 1187 
Q 2003 1293 1830 1373 
Q 1658 1453 1325 1542 
Q 787 1683 547 1920 
Q 307 2157 307 2522 
Q 307 2784 464 2998 
Q 621 3213 899 3331 
Q 1178 3450 1523 3450 
z
" transform="scale(0.015625)"/>
      <path id="FiraSans-Regular-69" d="M 1197 3373 
L 1197 0 
L 608 0 
L 608 3373 
L 1197 3373 
z
M 896 4992 
Q 1082 4992 1197 4877 
Q 1312 4762 1312 4589 
Q 1312 4416 1197 4304 
Q 1082 4192 896 4192 
Q 717 4192 601 4304 
Q 486 4416 486 4589 
Q 486 4762 601 4877 
Q 717 4992 896 4992 
z
" transform="scale(0.015625)"/>
      <path id="FiraSans-Regular-6c" d="M 1280 -77 
Q 954 -77 765 118 
Q 576 314 576 666 
L 576 4730 
L 1165 4800 
L 1165 678 
Q 1165 538 1213 474 
Q 1261 410 1376 410 
Q 1498 410 1594 448 
L 1747 38 
Q 1536 -77 1280 -77 
z
" transform="scale(0.015625)"/>
     </defs>
     <use xlink:href="#FiraSans-Regular-46"/>
     <use xlink:href="#FiraSans-Regular-6f" x="49.099991"/>
     <use xlink:href="#FiraSans-Regular-73" x="107.499985"/>
     <use xlink:href="#FiraSans-Regular-73" x="154.199982"/>
     <use xlink:href="#FiraSans-Regular-69" x="200.899979"/>
     <use xlink:href="#FiraSans-Regular-6c" x="229.099976"/>
    </g>
   </g>
   <g id="line2d_38">
    <path d="M 67.381596 214.806311 
L 75.381596 214.806311 
L 83.381596 214.806311 
" style="fill: none; stroke: #000000; stroke-opacity: 0; stroke-width: 1.5; stroke-linecap: square"/>
    <defs>
     <path id="m36b9431070" d="M 0 3.535534 
L 2.12132 0 
L 0 -3.535534 
L -2.12132 0 
z
" style="stroke: #52318e; stroke-linejoin: miter"/>
    </defs>
    <g>
     <use xlink:href="#m36b9431070" x="75.381596" y="214.806311" style="fill: #a78dd8; stroke: #52318e; stroke-linejoin: miter"/>
    </g>
   </g>
   <g id="text_13">
    <!-- Blue -->
    <g transform="translate(84.181596 217.606311) scale(0.08 -0.08)">
     <defs>
      <path id="FiraSans-Regular-42" d="M 2586 2330 
Q 3040 2253 3321 2009 
Q 3603 1766 3603 1254 
Q 3603 0 1856 0 
L 640 0 
L 640 4410 
L 1683 4410 
Q 2522 4410 2966 4134 
Q 3411 3859 3411 3296 
Q 3411 2912 3171 2656 
Q 2931 2400 2586 2330 
z
M 1248 3930 
L 1248 2541 
L 1914 2541 
Q 2298 2541 2544 2726 
Q 2790 2912 2790 3251 
Q 2790 3635 2531 3782 
Q 2272 3930 1747 3930 
L 1248 3930 
z
M 1856 486 
Q 2394 486 2678 646 
Q 2963 806 2963 1254 
Q 2963 1690 2688 1882 
Q 2413 2074 1971 2074 
L 1248 2074 
L 1248 486 
L 1856 486 
z
" transform="scale(0.015625)"/>
      <path id="FiraSans-Regular-75" d="M 3117 0 
L 2611 0 
L 2566 525 
Q 2374 211 2124 67 
Q 1875 -77 1517 -77 
Q 1075 -77 825 192 
Q 576 461 576 954 
L 576 3373 
L 1165 3373 
L 1165 1018 
Q 1165 672 1286 528 
Q 1408 384 1683 384 
Q 2176 384 2528 966 
L 2528 3373 
L 3117 3373 
L 3117 0 
z
" transform="scale(0.015625)"/>
      <path id="FiraSans-Regular-65" d="M 3155 1786 
Q 3155 1638 3142 1485 
L 992 1485 
Q 1030 928 1273 665 
Q 1517 403 1901 403 
Q 2144 403 2349 473 
Q 2554 544 2778 698 
L 3034 346 
Q 2496 -77 1856 -77 
Q 1152 -77 758 384 
Q 365 845 365 1651 
Q 365 2176 534 2582 
Q 704 2989 1021 3219 
Q 1338 3450 1766 3450 
Q 2438 3450 2796 3008 
Q 3155 2566 3155 1786 
z
M 2573 1958 
Q 2573 2458 2374 2720 
Q 2176 2982 1779 2982 
Q 1056 2982 992 1920 
L 2573 1920 
L 2573 1958 
z
" transform="scale(0.015625)"/>
     </defs>
     <use xlink:href="#FiraSans-Regular-42"/>
     <use xlink:href="#FiraSans-Regular-6c" x="60.799988"/>
     <use xlink:href="#FiraSans-Regular-75" x="90.099976"/>
     <use xlink:href="#FiraSans-Regular-65" x="148.299973"/>
    </g>
   </g>
   <g id="line2d_39">
    <path d="M 116.405346 214.806311 
L 124.405346 214.806311 
L 132.405346 214.806311 
" style="fill: none; stroke: #000000; stroke-opacity: 0; stroke-width: 1.5; stroke-linecap: square"/>
    <defs>
     <path id="m2d667cfa9f" d="M 0 -2.5 
L -2.165064 -1.25 
L -2.165064 1.25 
L -0 2.5 
L 2.165064 1.25 
L 2.165064 -1.25 
z
" style="stroke: #b71205; stroke-linejoin: miter"/>
    </defs>
    <g>
     <use xlink:href="#m2d667cfa9f" x="124.405346" y="214.806311" style="fill: #fb7b71; stroke: #b71205; stroke-linejoin: miter"/>
    </g>
   </g>
   <g id="text_14">
    <!-- Solar -->
    <g transform="translate(133.205346 217.606311) scale(0.08 -0.08)">
     <defs>
      <path id="FiraSans-Regular-53" d="M 1728 4486 
Q 2170 4486 2483 4361 
Q 2797 4237 3091 3974 
L 2758 3603 
Q 2509 3802 2269 3894 
Q 2029 3987 1754 3987 
Q 1408 3987 1184 3827 
Q 960 3667 960 3360 
Q 960 3168 1037 3037 
Q 1114 2906 1322 2797 
Q 1530 2688 1926 2566 
Q 2342 2438 2617 2291 
Q 2893 2144 3062 1885 
Q 3232 1626 3232 1229 
Q 3232 845 3043 550 
Q 2854 256 2499 89 
Q 2144 -77 1658 -77 
Q 742 -77 160 493 
L 493 864 
Q 762 646 1037 534 
Q 1312 422 1651 422 
Q 2061 422 2329 624 
Q 2598 826 2598 1210 
Q 2598 1427 2515 1571 
Q 2432 1715 2230 1830 
Q 2029 1946 1645 2061 
Q 966 2266 652 2554 
Q 339 2842 339 3334 
Q 339 3667 515 3929 
Q 691 4192 1008 4339 
Q 1325 4486 1728 4486 
z
" transform="scale(0.015625)"/>
      <path id="FiraSans-Regular-61" d="M 2880 787 
Q 2880 582 2950 483 
Q 3021 384 3162 333 
L 3027 -77 
Q 2765 -45 2605 70 
Q 2445 186 2368 429 
Q 2029 -77 1363 -77 
Q 864 -77 576 204 
Q 288 486 288 941 
Q 288 1478 675 1766 
Q 1062 2054 1773 2054 
L 2291 2054 
L 2291 2304 
Q 2291 2662 2118 2816 
Q 1946 2970 1587 2970 
Q 1216 2970 678 2790 
L 531 3219 
Q 1158 3450 1696 3450 
Q 2291 3450 2585 3158 
Q 2880 2867 2880 2330 
L 2880 787 
z
M 1498 365 
Q 2003 365 2291 890 
L 2291 1664 
L 1850 1664 
Q 915 1664 915 973 
Q 915 672 1062 518 
Q 1210 365 1498 365 
z
" transform="scale(0.015625)"/>
      <path id="FiraSans-Regular-72" d="M 2074 3450 
Q 2253 3450 2406 3411 
L 2298 2835 
Q 2144 2874 2003 2874 
Q 1690 2874 1498 2643 
Q 1306 2413 1197 1926 
L 1197 0 
L 608 0 
L 608 3373 
L 1114 3373 
L 1171 2688 
Q 1306 3066 1536 3258 
Q 1766 3450 2074 3450 
z
" transform="scale(0.015625)"/>
     </defs>
     <use xlink:href="#FiraSans-Regular-53"/>
     <use xlink:href="#FiraSans-Regular-6f" x="54.499985"/>
     <use xlink:href="#FiraSans-Regular-6c" x="112.899979"/>
     <use xlink:href="#FiraSans-Regular-61" x="142.199966"/>
     <use xlink:href="#FiraSans-Regular-72" x="196.59996"/>
    </g>
   </g>
   <g id="line2d_40">
    <path d="M 168.021596 214.806311 
L 176.021596 214.806311 
L 184.021596 214.806311 
" style="fill: none; stroke: #000000; stroke-opacity: 0; stroke-width: 1.5; stroke-linecap: square"/>
    <defs>
     <path id="m792e5fec7d" d="M 0 -2.5 
L -2.5 2.5 
L 2.5 2.5 
z
" style="stroke: #167f99; stroke-linejoin: miter"/>
    </defs>
    <g>
     <use xlink:href="#m792e5fec7d" x="176.021596" y="214.806311" style="fill: #6dd2ea; stroke: #167f99; stroke-linejoin: miter"/>
    </g>
   </g>
   <g id="text_15">
    <!-- Wind -->
    <g transform="translate(184.821596 217.606311) scale(0.08 -0.08)">
     <defs>
      <path id="FiraSans-Regular-57" d="M 5126 4410 
L 4230 0 
L 3450 0 
L 2637 3693 
L 1818 0 
L 1056 0 
L 160 4410 
L 755 4410 
L 1466 531 
L 2317 4410 
L 2963 4410 
L 3834 531 
L 4570 4410 
L 5126 4410 
z
" transform="scale(0.015625)"/>
      <path id="FiraSans-Regular-6e" d="M 2195 3450 
Q 2656 3450 2915 3174 
Q 3174 2899 3174 2419 
L 3174 0 
L 2586 0 
L 2586 2336 
Q 2586 2694 2451 2841 
Q 2317 2989 2054 2989 
Q 1786 2989 1581 2835 
Q 1376 2682 1197 2394 
L 1197 0 
L 608 0 
L 608 3373 
L 1114 3373 
L 1165 2874 
Q 1344 3142 1609 3296 
Q 1875 3450 2195 3450 
z
" transform="scale(0.015625)"/>
      <path id="FiraSans-Regular-64" d="M 3219 4730 
L 3219 0 
L 2701 0 
L 2643 467 
Q 2477 211 2227 67 
Q 1978 -77 1670 -77 
Q 1069 -77 733 396 
Q 397 870 397 1670 
Q 397 2189 557 2592 
Q 717 2995 1017 3222 
Q 1318 3450 1722 3450 
Q 2240 3450 2630 3034 
L 2630 4800 
L 3219 4730 
z
M 1798 390 
Q 2067 390 2259 515 
Q 2451 640 2630 890 
L 2630 2541 
Q 2464 2758 2275 2870 
Q 2086 2982 1850 2982 
Q 1459 2982 1244 2656 
Q 1030 2330 1030 1683 
Q 1030 1030 1228 710 
Q 1427 390 1798 390 
z
" transform="scale(0.015625)"/>
     </defs>
     <use xlink:href="#FiraSans-Regular-57"/>
     <use xlink:href="#FiraSans-Regular-69" x="82.599991"/>
     <use xlink:href="#FiraSans-Regular-6e" x="110.799988"/>
     <use xlink:href="#FiraSans-Regular-64" x="169.399979"/>
    </g>
   </g>
  </g>
  <g id="legend_2">
   <g id="line2d_41">
    <path d="M 30.659512 154.24218 
L 34.659512 154.24218 
L 44.659512 154.24218 
" style="fill: none; stroke-dasharray: 9.6,2.4,1.5,2.4; stroke-dashoffset: 0; stroke: #000000; stroke-width: 1.5"/>
   </g>
   <g id="text_16">
    <!-- 3.5 °C -->
    <g transform="translate(47.459512 157.04218) scale(0.08 -0.08)">
     <defs>
      <path id="FiraSans-Regular-20" transform="scale(0.015625)"/>
      <path id="FiraSans-Regular-b0" d="M 1402 2438 
Q 1126 2438 886 2560 
Q 646 2682 499 2915 
Q 352 3149 352 3462 
Q 352 3776 499 4009 
Q 646 4243 886 4364 
Q 1126 4486 1402 4486 
Q 1677 4486 1917 4364 
Q 2157 4243 2304 4006 
Q 2451 3770 2451 3456 
Q 2451 3142 2304 2908 
Q 2157 2675 1917 2556 
Q 1677 2438 1402 2438 
z
M 1402 2835 
Q 1638 2835 1798 2995 
Q 1958 3155 1958 3456 
Q 1958 3757 1798 3920 
Q 1638 4083 1402 4083 
Q 1165 4083 1005 3923 
Q 845 3763 845 3462 
Q 845 3162 1008 2998 
Q 1171 2835 1402 2835 
z
" transform="scale(0.015625)"/>
      <path id="FiraSans-Regular-43" d="M 2182 4486 
Q 2579 4486 2851 4384 
Q 3123 4282 3405 4051 
L 3072 3661 
Q 2669 3987 2221 3987 
Q 1670 3987 1334 3564 
Q 998 3142 998 2208 
Q 998 1299 1331 867 
Q 1664 435 2214 435 
Q 2496 435 2707 531 
Q 2918 627 3155 800 
L 3456 416 
Q 3251 205 2931 64 
Q 2611 -77 2195 -77 
Q 1658 -77 1238 188 
Q 819 454 585 969 
Q 352 1485 352 2208 
Q 352 2931 595 3446 
Q 838 3962 1254 4224 
Q 1670 4486 2182 4486 
z
" transform="scale(0.015625)"/>
     </defs>
     <use xlink:href="#FiraSans-Regular-33"/>
     <use xlink:href="#FiraSans-Regular-2e" x="49.899994"/>
     <use xlink:href="#FiraSans-Regular-35" x="73.899979"/>
     <use xlink:href="#FiraSans-Regular-20" x="123.999969"/>
     <use xlink:href="#FiraSans-Regular-b0" x="150.499954"/>
     <use xlink:href="#FiraSans-Regular-43" x="202.799942"/>
    </g>
   </g>
   <g id="line2d_42">
    <path d="M 30.659512 165.94593 
L 34.659512 165.94593 
L 44.659512 165.94593 
" style="fill: none; stroke: #000000; stroke-width: 1.5; stroke-linecap: square"/>
   </g>
   <g id="text_17">
    <!-- 2.0 °C -->
    <g transform="translate(47.459512 168.74593) scale(0.08 -0.08)">
     <use xlink:href="#FiraSans-Regular-32"/>
     <use xlink:href="#FiraSans-Regular-2e" x="49.499985"/>
     <use xlink:href="#FiraSans-Regular-30" x="73.499969"/>
     <use xlink:href="#FiraSans-Regular-20" x="129.299957"/>
     <use xlink:href="#FiraSans-Regular-b0" x="155.799942"/>
     <use xlink:href="#FiraSans-Regular-43" x="208.09993"/>
    </g>
   </g>
   <g id="line2d_43">
    <path d="M 30.659512 177.64968 
L 34.659512 177.64968 
L 44.659512 177.64968 
" style="fill: none; stroke-dasharray: 5.55,2.4; stroke-dashoffset: 0; stroke: #000000; stroke-width: 1.5"/>
   </g>
   <g id="text_18">
    <!-- 1.5 °C -->
    <g transform="translate(47.459512 180.44968) scale(0.08 -0.08)">
     <use xlink:href="#FiraSans-Regular-31"/>
     <use xlink:href="#FiraSans-Regular-2e" x="43.299988"/>
     <use xlink:href="#FiraSans-Regular-35" x="67.299973"/>
     <use xlink:href="#FiraSans-Regular-20" x="117.399963"/>
     <use xlink:href="#FiraSans-Regular-b0" x="143.899948"/>
     <use xlink:href="#FiraSans-Regular-43" x="196.199936"/>
    </g>
   </g>
  </g>
 </g>
 <defs>
  <clipPath id="p012cda1ced">
   <rect x="37.71125" y="7.2" width="157.204686" height="32.443951"/>
  </clipPath>
  <clipPath id="p6b17cbd47f">
   <rect x="37.71125" y="55.487701" width="157.204686" height="129.775805"/>
  </clipPath>
 </defs>
</svg>
