<?xml version="1.0" encoding="UTF-8" standalone="no"?>
<svg
   width="170.038732pt"
   height="207.167256pt"
   viewBox="0 0 170.038732 207.167256"
   version="1.1"
   id="svg101"
   sodipodi:docname="Ammonia image SSP2 GLO.svg"
   inkscape:version="1.3.2 (091e20e, 2023-11-25, custom)"
   xmlns:inkscape="http://www.inkscape.org/namespaces/inkscape"
   xmlns:sodipodi="http://sodipodi.sourceforge.net/DTD/sodipodi-0.dtd"
   xmlns:xlink="http://www.w3.org/1999/xlink"
   xmlns="http://www.w3.org/2000/svg"
   xmlns:svg="http://www.w3.org/2000/svg"
   xmlns:rdf="http://www.w3.org/1999/02/22-rdf-syntax-ns#"
   xmlns:cc="http://creativecommons.org/ns#"
   xmlns:dc="http://purl.org/dc/elements/1.1/">
  <sodipodi:namedview
     id="namedview101"
     pagecolor="#ffffff"
     bordercolor="#000000"
     borderopacity="0.25"
     inkscape:showpageshadow="2"
     inkscape:pageopacity="0.0"
     inkscape:pagecheckerboard="0"
     inkscape:deskcolor="#d1d1d1"
     inkscape:document-units="pt"
     inkscape:zoom="4.1886446"
     inkscape:cx="113.28247"
     inkscape:cy="138.1115"
     inkscape:window-width="2560"
     inkscape:window-height="1377"
     inkscape:window-x="1912"
     inkscape:window-y="-8"
     inkscape:window-maximized="1"
     inkscape:current-layer="axes_1" />
  <metadata
     id="metadata1">
    <rdf:RDF>
      <cc:Work>
        <dc:type
           rdf:resource="http://purl.org/dc/dcmitype/StillImage" />
        <dc:date>2024-06-09T15:13:51.216883</dc:date>
        <dc:format>image/svg+xml</dc:format>
        <dc:creator>
          <cc:Agent>
            <dc:title>Matplotlib v3.8.2, https://matplotlib.org/</dc:title>
          </cc:Agent>
        </dc:creator>
      </cc:Work>
    </rdf:RDF>
  </metadata>
  <defs
     id="defs1">
    <style
       type="text/css"
       id="style1">*{stroke-linejoin: round; stroke-linecap: butt}</style>
  </defs>
  <g
     id="figure_1">
    <g
       id="patch_1">
      <path
         d="M 0 207.167256  L 170.038732 207.167256  L 170.038732 0  L 0 0  z "
         style="fill: #ffffff"
         id="path1" />
    </g>
    <g
       id="axes_1">
      <g
         id="patch_2">
        <path
           d="M 25.32 49.725201  L 160.066052 49.725201  L 160.066052 19.642031  L 25.32 19.642031  z "
           style="fill: #ffffff"
           id="path2" />
      </g>
      <g
         id="patch_3">
        <path
           d="M 31.444821 30.399282  L 72.276958 31.237674  L 72.276958 30.548995  z "
           clip-path="url(#p3e2ad5a903)"
           style="fill: #808080; opacity: 0.3"
           id="path3" />
      </g>
      <g
         id="patch_4">
        <path
           d="M 72.276958 31.237674  L 113.109095 31.883735  L 113.109095 30.810537  L 72.276958 30.548995  z "
           clip-path="url(#p3e2ad5a903)"
           style="fill: #808080; opacity: 0.3"
           id="path4" />
      </g>
      <g
         id="patch_5">
        <path
           d="M 113.109095 31.883735  L 153.941232 32.259954  L 153.941232 31.000001  L 113.109095 30.810537  z "
           clip-path="url(#p3e2ad5a903)"
           style="fill: #808080; opacity: 0.3"
           id="path5" />
      </g>
      <g
         id="line2d_1">
        <path
           d="M 31.444821 30.399282  L 72.276958 30.768604  "
           clip-path="url(#p3e2ad5a903)"
           style="fill: none; stroke: #000000; stroke-linecap: square"
           id="path6" />
      </g>
      <g
         id="line2d_2">
        <path
           d="M 72.276958 30.768604  L 113.109095 31.293215  L 153.941232 31.600697  "
           clip-path="url(#p3e2ad5a903)"
           style="fill: none; stroke: #000000; stroke-linecap: square"
           id="path7" />
      </g>
      <g
         id="line2d_3">
        <path
           d="M 31.444821 30.399282  L 72.276958 30.548995  "
           clip-path="url(#p3e2ad5a903)"
           style="fill: none; stroke-dasharray: 6.4,1.6,1,1.6; stroke-dashoffset: 0; stroke: #000000"
           id="path8" />
      </g>
      <g
         id="line2d_4">
        <path
           d="M 72.276958 30.548995  L 113.109095 30.810537  L 153.941232 31.000001  "
           clip-path="url(#p3e2ad5a903)"
           style="fill: none; stroke-dasharray: 6.4,1.6,1,1.6; stroke-dashoffset: 0; stroke: #000000"
           id="path9" />
      </g>
      <g
         id="line2d_5">
        <path
           d="M 31.444821 30.399282  L 72.276958 31.237674  "
           clip-path="url(#p3e2ad5a903)"
           style="fill: none; stroke-dasharray: 3.7,1.6; stroke-dashoffset: 0; stroke: #000000"
           id="path10" />
      </g>
      <g
         id="line2d_6">
        <path
           d="M 72.276958 31.237674  L 113.109095 31.883735  L 153.941232 32.259954  "
           clip-path="url(#p3e2ad5a903)"
           style="fill: none; stroke-dasharray: 3.7,1.6; stroke-dashoffset: 0; stroke: #000000"
           id="path11" />
      </g>
      <g
         id="matplotlib.axis_1">
        <g
           id="xtick_1" />
        <g
           id="xtick_2" />
        <g
           id="xtick_3" />
        <g
           id="xtick_4" />
      </g>
      <g
         id="PathCollection_1">
        <defs
           id="defs18">
          <path
             id="mac8fa71d42"
             d="M 0 2.236068  C 0.593012 2.236068 1.161816 2.000462 1.581139 1.581139  C 2.000462 1.161816 2.236068 0.593012 2.236068 0  C 2.236068 -0.593012 2.000462 -1.161816 1.581139 -1.581139  C 1.161816 -2.000462 0.593012 -2.236068 0 -2.236068  C -0.593012 -2.236068 -1.161816 -2.000462 -1.581139 -1.581139  C -2.000462 -1.161816 -2.236068 -0.593012 -2.236068 0  C -2.236068 0.593012 -2.000462 1.161816 -1.581139 1.581139  C -1.161816 2.000462 -0.593012 2.236068 0 2.236068  z "
             style="stroke: #000000" />
        </defs>
        <g
           clip-path="url(#p3e2ad5a903)"
           id="g19">
          <use
             xlink:href="#mac8fa71d42"
             x="31.444821"
             y="30.399282"
             style="fill: #d8d8d8; stroke: #000000"
             id="use19" />
        </g>
      </g>
      <g
         id="line2d_9">
        <defs
           id="defs19">
          <path
             id="mb4ba385890"
             d="M -2.5 0  L 2.5 0  "
             style="stroke: #000000" />
        </defs>
        <g
           id="g21">
          <use
             xlink:href="#mb4ba385890"
             x="25.32"
             y="49.725201"
             style="stroke: #000000"
             id="use20" />
          <use
             xlink:href="#mb4ba385890"
             x="160.066052"
             y="49.725201"
             style="stroke: #000000"
             id="use21" />
        </g>
      </g>
      <g
         id="patch_6">
        <path
           d="M 25.32 49.725201  L 25.32 19.642031  "
           style="fill: none; stroke: #000000; stroke-width: 0.8; stroke-linejoin: miter; stroke-linecap: square"
           id="path21" />
      </g>
      <g
         id="patch_7">
        <path
           d="M 160.066052 49.725201  L 160.066052 19.642031  "
           style="fill: none; stroke: #000000; stroke-width: 0.8; stroke-linejoin: miter; stroke-linecap: square"
           id="path22" />
      </g>
      <g
         id="patch_8">
        <path
           d="M 25.32 19.642031  L 160.066052 19.642031  "
           style="fill: none; stroke: #000000; stroke-width: 0.8; stroke-linejoin: miter; stroke-linecap: square"
           id="path23" />
      </g>
    </g>
    <g
       id="axes_2">
      <g
         id="patch_9">
        <path
           d="M 25.32 185.651006  L 160.066052 185.651006  L 160.066052 65.318326  L 25.32 65.318326  z "
           style="fill: #ffffff"
           id="path31" />
      </g>
      <g
         id="patch_10">
        <path
           d="M 31.444821 107.234144  L 72.276958 108.215801  L 72.276958 107.417795  z "
           clip-path="url(#p9d6b35b03f)"
           style="fill: #a78dd8; opacity: 0.3"
           id="path32" />
      </g>
      <g
         id="patch_11">
        <path
           d="M 72.276958 108.215801  L 113.109095 108.949227  L 113.109095 107.710142  L 72.276958 107.417795  z "
           clip-path="url(#p9d6b35b03f)"
           style="fill: #a78dd8; opacity: 0.3"
           id="path33" />
      </g>
      <g
         id="patch_12">
        <path
           d="M 113.109095 108.949227  L 153.941232 109.388308  L 153.941232 107.941868  L 113.109095 107.710142  z "
           clip-path="url(#p9d6b35b03f)"
           style="fill: #a78dd8; opacity: 0.3"
           id="path34" />
      </g>
      <g
         id="patch_13">
        <path
           d="M 31.444821 106.228556  L 72.276958 110.076992  L 72.276958 106.808065  z "
           clip-path="url(#p9d6b35b03f)"
           style="fill: #6dd2ea; opacity: 0.3"
           id="path35" />
      </g>
      <g
         id="patch_14">
        <path
           d="M 72.276958 110.076992  L 113.109095 112.889931  L 113.109095 108.010358  L 72.276958 106.808065  z "
           clip-path="url(#p9d6b35b03f)"
           style="fill: #6dd2ea; opacity: 0.3"
           id="path36" />
      </g>
      <g
         id="patch_15">
        <path
           d="M 113.109095 112.889931  L 153.941232 114.503793  L 153.941232 108.958326  L 113.109095 108.010358  z "
           clip-path="url(#p9d6b35b03f)"
           style="fill: #6dd2ea; opacity: 0.3"
           id="path37" />
      </g>
      <g
         id="patch_16">
        <path
           d="M 31.444821 70.787993  L 72.276958 73.891509  L 72.276958 71.305094  z "
           clip-path="url(#p9d6b35b03f)"
           style="fill: #fb7b71; opacity: 0.3"
           id="path38" />
      </g>
      <g
         id="patch_17">
        <path
           d="M 72.276958 73.891509  L 113.109095 76.064145  L 113.109095 72.242343  L 72.276958 71.305094  z "
           clip-path="url(#p9d6b35b03f)"
           style="fill: #fb7b71; opacity: 0.3"
           id="path39" />
      </g>
      <g
         id="patch_18">
        <path
           d="M 113.109095 76.064145  L 153.941232 77.340948  L 153.941232 73.023531  L 113.109095 72.242343  z "
           clip-path="url(#p9d6b35b03f)"
           style="fill: #fb7b71; opacity: 0.3"
           id="path40" />
      </g>
      <g
         id="line2d_10">
        <path
           d="M 31.444821 107.234144  L 72.276958 107.677256  "
           clip-path="url(#p9d6b35b03f)"
           style="fill: none; stroke: #52318e; stroke-linecap: square"
           id="path41" />
      </g>
      <g
         id="line2d_11">
        <path
           d="M 72.276958 107.677256  L 113.109095 108.263394  L 153.941232 108.629776  "
           clip-path="url(#p9d6b35b03f)"
           style="fill: none; stroke: #52318e; stroke-linecap: square"
           id="path42" />
      </g>
      <g
         id="line2d_12">
        <path
           d="M 31.444821 107.234144  L 72.276958 107.417795  "
           clip-path="url(#p9d6b35b03f)"
           style="fill: none; stroke-dasharray: 6.4,1.6,1,1.6; stroke-dashoffset: 0; stroke: #52318e"
           id="path43" />
      </g>
      <g
         id="line2d_13">
        <path
           d="M 72.276958 107.417795  L 113.109095 107.710142  L 153.941232 107.941868  "
           clip-path="url(#p9d6b35b03f)"
           style="fill: none; stroke-dasharray: 6.4,1.6,1,1.6; stroke-dashoffset: 0; stroke: #52318e"
           id="path44" />
      </g>
      <g
         id="line2d_14">
        <path
           d="M 31.444821 107.234144  L 72.276958 108.215801  "
           clip-path="url(#p9d6b35b03f)"
           style="fill: none; stroke-dasharray: 3.7,1.6; stroke-dashoffset: 0; stroke: #52318e"
           id="path45" />
      </g>
      <g
         id="line2d_15">
        <path
           d="M 72.276958 108.215801  L 113.109095 108.949227  L 153.941232 109.388308  "
           clip-path="url(#p9d6b35b03f)"
           style="fill: none; stroke-dasharray: 3.7,1.6; stroke-dashoffset: 0; stroke: #52318e"
           id="path46" />
      </g>
      <g
         id="line2d_16">
        <path
           d="M 31.444821 106.228556  L 72.276958 107.757928  "
           clip-path="url(#p9d6b35b03f)"
           style="fill: none; stroke: #167f99; stroke-linecap: square"
           id="path47" />
      </g>
      <g
         id="line2d_17">
        <path
           d="M 72.276958 107.757928  L 113.109095 110.161459  L 153.941232 111.591028  "
           clip-path="url(#p9d6b35b03f)"
           style="fill: none; stroke: #167f99; stroke-linecap: square"
           id="path48" />
      </g>
      <g
         id="line2d_18">
        <path
           d="M 31.444821 106.228556  L 72.276958 106.808065  "
           clip-path="url(#p9d6b35b03f)"
           style="fill: none; stroke-dasharray: 6.4,1.6,1,1.6; stroke-dashoffset: 0; stroke: #167f99"
           id="path49" />
      </g>
      <g
         id="line2d_19">
        <path
           d="M 72.276958 106.808065  L 113.109095 108.010358  L 153.941232 108.958326  "
           clip-path="url(#p9d6b35b03f)"
           style="fill: none; stroke-dasharray: 6.4,1.6,1,1.6; stroke-dashoffset: 0; stroke: #167f99"
           id="path50" />
      </g>
      <g
         id="line2d_20">
        <path
           d="M 31.444821 106.228556  L 72.276958 110.076992  "
           clip-path="url(#p9d6b35b03f)"
           style="fill: none; stroke-dasharray: 3.7,1.6; stroke-dashoffset: 0; stroke: #167f99"
           id="path51" />
      </g>
      <g
         id="line2d_21">
        <path
           d="M 72.276958 110.076992  L 113.109095 112.889931  L 153.941232 114.503793  "
           clip-path="url(#p9d6b35b03f)"
           style="fill: none; stroke-dasharray: 3.7,1.6; stroke-dashoffset: 0; stroke: #167f99"
           id="path52" />
      </g>
      <g
         id="line2d_22">
        <path
           d="M 31.444821 70.787993  L 72.276958 72.104209  "
           clip-path="url(#p9d6b35b03f)"
           style="fill: none; stroke: #b71205; stroke-linecap: square"
           id="path53" />
      </g>
      <g
         id="line2d_23">
        <path
           d="M 72.276958 72.104209  L 113.109095 73.909462  L 153.941232 75.055444  "
           clip-path="url(#p9d6b35b03f)"
           style="fill: none; stroke: #b71205; stroke-linecap: square"
           id="path54" />
      </g>
      <g
         id="line2d_24">
        <path
           d="M 31.444821 70.787993  L 72.276958 71.305094  "
           clip-path="url(#p9d6b35b03f)"
           style="fill: none; stroke-dasharray: 6.4,1.6,1,1.6; stroke-dashoffset: 0; stroke: #b71205"
           id="path55" />
      </g>
      <g
         id="line2d_25">
        <path
           d="M 72.276958 71.305094  L 113.109095 72.242343  L 153.941232 73.023531  "
           clip-path="url(#p9d6b35b03f)"
           style="fill: none; stroke-dasharray: 6.4,1.6,1,1.6; stroke-dashoffset: 0; stroke: #b71205"
           id="path56" />
      </g>
      <g
         id="line2d_26">
        <path
           d="M 31.444821 70.787993  L 72.276958 73.891509  "
           clip-path="url(#p9d6b35b03f)"
           style="fill: none; stroke-dasharray: 3.7,1.6; stroke-dashoffset: 0; stroke: #b71205"
           id="path57" />
      </g>
      <g
         id="line2d_27">
        <path
           d="M 72.276958 73.891509  L 113.109095 76.064145  L 153.941232 77.340948  "
           clip-path="url(#p9d6b35b03f)"
           style="fill: none; stroke-dasharray: 3.7,1.6; stroke-dashoffset: 0; stroke: #b71205"
           id="path58" />
      </g>
      <g
         id="matplotlib.axis_3">
        <g
           id="xtick_5">
          <g
             id="line2d_28">
            <defs
               id="defs58">
              <path
                 id="m842713fede"
                 d="M 0 0  L 0 3.5  "
                 style="stroke: #000000; stroke-width: 0.8" />
            </defs>
            <g
               id="g58">
              <use
                 xlink:href="#m842713fede"
                 x="31.444821"
                 y="185.651006"
                 style="stroke: #000000; stroke-width: 0.8"
                 id="use58" />
            </g>
          </g>
          <g
             id="text_4">
            <!-- 2020 -->
            <g
               transform="translate(22.547321 198.377256) scale(0.08 -0.08)"
               id="g62">
              <defs
                 id="defs59">
                <path
                   id="ArialMT-30"
                   d="M 266 2259  Q 266 3072 433 3567  Q 600 4063 929 4331  Q 1259 4600 1759 4600  Q 2128 4600 2406 4451  Q 2684 4303 2865 4023  Q 3047 3744 3150 3342  Q 3253 2941 3253 2259  Q 3253 1453 3087 958  Q 2922 463 2592 192  Q 2263 -78 1759 -78  Q 1097 -78 719 397  Q 266 969 266 2259  z M 844 2259  Q 844 1131 1108 757  Q 1372 384 1759 384  Q 2147 384 2411 759  Q 2675 1134 2675 2259  Q 2675 3391 2411 3762  Q 2147 4134 1753 4134  Q 1366 4134 1134 3806  Q 844 3388 844 2259  z "
                   transform="scale(0.015625)" />
              </defs>
              <path
                 id="use59"
                 d="M 50.34375,8.453125 V 0 H 3.03125 Q 2.9375,3.171875 4.046875,6.109375 5.859375,10.9375 9.828125,15.625 13.8125,20.3125 21.34375,26.46875 q 11.671875,9.5625 15.765625,15.15625 4.109375,5.59375 4.109375,10.578125 0,5.21875 -3.75,8.796875 -3.734375,3.59375 -9.734375,3.59375 -6.34375,0 -10.15625,-3.8125 Q 13.765625,56.984375 13.71875,50.25 L 4.6875,51.171875 q 0.921875,10.109375 6.96875,15.40625 6.0625,5.296875 16.28125,5.296875 10.296875,0 16.296875,-5.71875 Q 50.25,60.453125 50.25,52 50.25,47.703125 48.484375,43.546875 46.734375,39.40625 42.65625,34.8125 38.578125,30.21875 29.109375,22.21875 21.1875,15.578125 18.9375,13.203125 q -2.234375,-2.359375 -3.703125,-4.75 z"
                 style="stroke-width:0.015625" />
              <use
                 xlink:href="#ArialMT-30"
                 x="55.615234"
                 id="use60" />
              <path
                 id="use61"
                 d="M 161.57422,8.453125 V 0 h -47.3125 q -0.0937,3.171875 1.01562,6.109375 1.8125,4.828125 5.78125,9.515625 3.98438,4.6875 11.51563,10.84375 11.67187,9.5625 15.76562,15.15625 4.10938,5.59375 4.10938,10.578125 0,5.21875 -3.75,8.796875 -3.73438,3.59375 -9.73438,3.59375 -6.34375,0 -10.15625,-3.8125 -3.8125,-3.796875 -3.85937,-10.53125 l -9.03125,0.921875 q 0.92187,10.109375 6.96875,15.40625 6.0625,5.296875 16.28125,5.296875 10.29687,0 16.29687,-5.71875 6.01563,-5.703125 6.01563,-14.15625 0,-4.296875 -1.76563,-8.453125 -1.75,-4.140625 -5.82812,-8.734375 -4.07813,-4.59375 -13.54688,-12.59375 -7.92187,-6.640625 -10.17187,-9.015625 -2.23438,-2.359375 -3.70313,-4.75 z"
                 style="stroke-width:0.015625" />
              <use
                 xlink:href="#ArialMT-30"
                 x="166.845703"
                 id="use62" />
            </g>
          </g>
        </g>
        <g
           id="xtick_6">
          <g
             id="line2d_29">
            <g
               id="g63">
              <use
                 xlink:href="#m842713fede"
                 x="72.276958"
                 y="185.651006"
                 style="stroke: #000000; stroke-width: 0.8"
                 id="use63" />
            </g>
          </g>
          <g
             id="text_5">
            <!-- 2030 -->
            <g
               transform="translate(63.379458 198.377256) scale(0.08 -0.08)"
               id="g67">
              <defs
                 id="defs63">
                <path
                   id="ArialMT-33"
                   d="M 269 1209  L 831 1284  Q 928 806 1161 595  Q 1394 384 1728 384  Q 2125 384 2398 659  Q 2672 934 2672 1341  Q 2672 1728 2419 1979  Q 2166 2231 1775 2231  Q 1616 2231 1378 2169  L 1441 2663  Q 1497 2656 1531 2656  Q 1891 2656 2178 2843  Q 2466 3031 2466 3422  Q 2466 3731 2256 3934  Q 2047 4138 1716 4138  Q 1388 4138 1169 3931  Q 950 3725 888 3313  L 325 3413  Q 428 3978 793 4289  Q 1159 4600 1703 4600  Q 2078 4600 2393 4439  Q 2709 4278 2876 4000  Q 3044 3722 3044 3409  Q 3044 3113 2884 2869  Q 2725 2625 2413 2481  Q 2819 2388 3044 2092  Q 3269 1797 3269 1353  Q 3269 753 2831 336  Q 2394 -81 1725 -81  Q 1122 -81 723 278  Q 325 638 269 1209  z "
                   transform="scale(0.015625)" />
              </defs>
              <path
                 id="use64"
                 d="M 50.34375,8.453125 V 0 H 3.03125 Q 2.9375,3.171875 4.046875,6.109375 5.859375,10.9375 9.828125,15.625 13.8125,20.3125 21.34375,26.46875 q 11.671875,9.5625 15.765625,15.15625 4.109375,5.59375 4.109375,10.578125 0,5.21875 -3.75,8.796875 -3.734375,3.59375 -9.734375,3.59375 -6.34375,0 -10.15625,-3.8125 Q 13.765625,56.984375 13.71875,50.25 L 4.6875,51.171875 q 0.921875,10.109375 6.96875,15.40625 6.0625,5.296875 16.28125,5.296875 10.296875,0 16.296875,-5.71875 Q 50.25,60.453125 50.25,52 50.25,47.703125 48.484375,43.546875 46.734375,39.40625 42.65625,34.8125 38.578125,30.21875 29.109375,22.21875 21.1875,15.578125 18.9375,13.203125 q -2.234375,-2.359375 -3.703125,-4.75 z"
                 style="stroke-width:0.015625" />
              <use
                 xlink:href="#ArialMT-30"
                 x="55.615234"
                 id="use65" />
              <use
                 xlink:href="#ArialMT-33"
                 x="111.230469"
                 id="use66" />
              <use
                 xlink:href="#ArialMT-30"
                 x="166.845703"
                 id="use67" />
            </g>
          </g>
        </g>
        <g
           id="xtick_7">
          <g
             id="line2d_30">
            <g
               id="g68">
              <use
                 xlink:href="#m842713fede"
                 x="113.109095"
                 y="185.651006"
                 style="stroke: #000000; stroke-width: 0.8"
                 id="use68" />
            </g>
          </g>
          <g
             id="text_6">
            <!-- 2040 -->
            <g
               transform="translate(104.211595 198.377256) scale(0.08 -0.08)"
               id="g72">
              <defs
                 id="defs68">
                <path
                   id="ArialMT-34"
                   d="M 2069 0  L 2069 1097  L 81 1097  L 81 1613  L 2172 4581  L 2631 4581  L 2631 1613  L 3250 1613  L 3250 1097  L 2631 1097  L 2631 0  L 2069 0  z M 2069 1613  L 2069 3678  L 634 1613  L 2069 1613  z "
                   transform="scale(0.015625)" />
              </defs>
              <path
                 id="use69"
                 d="M 50.34375,8.453125 V 0 H 3.03125 Q 2.9375,3.171875 4.046875,6.109375 5.859375,10.9375 9.828125,15.625 13.8125,20.3125 21.34375,26.46875 q 11.671875,9.5625 15.765625,15.15625 4.109375,5.59375 4.109375,10.578125 0,5.21875 -3.75,8.796875 -3.734375,3.59375 -9.734375,3.59375 -6.34375,0 -10.15625,-3.8125 Q 13.765625,56.984375 13.71875,50.25 L 4.6875,51.171875 q 0.921875,10.109375 6.96875,15.40625 6.0625,5.296875 16.28125,5.296875 10.296875,0 16.296875,-5.71875 Q 50.25,60.453125 50.25,52 50.25,47.703125 48.484375,43.546875 46.734375,39.40625 42.65625,34.8125 38.578125,30.21875 29.109375,22.21875 21.1875,15.578125 18.9375,13.203125 q -2.234375,-2.359375 -3.703125,-4.75 z"
                 style="stroke-width:0.015625" />
              <use
                 xlink:href="#ArialMT-30"
                 x="55.615234"
                 id="use70" />
              <use
                 xlink:href="#ArialMT-34"
                 x="111.230469"
                 id="use71" />
              <use
                 xlink:href="#ArialMT-30"
                 x="166.845703"
                 id="use72" />
            </g>
          </g>
        </g>
        <g
           id="xtick_8">
          <g
             id="line2d_31">
            <g
               id="g73">
              <use
                 xlink:href="#m842713fede"
                 x="153.941232"
                 y="185.651006"
                 style="stroke: #000000; stroke-width: 0.8"
                 id="use73" />
            </g>
          </g>
          <g
             id="text_7">
            <!-- 2050 -->
            <g
               transform="translate(145.043732 198.377256) scale(0.08 -0.08)"
               id="g77">
              <defs
                 id="defs73">
                <path
                   id="ArialMT-35"
                   d="M 266 1200  L 856 1250  Q 922 819 1161 601  Q 1400 384 1738 384  Q 2144 384 2425 690  Q 2706 997 2706 1503  Q 2706 1984 2436 2262  Q 2166 2541 1728 2541  Q 1456 2541 1237 2417  Q 1019 2294 894 2097  L 366 2166  L 809 4519  L 3088 4519  L 3088 3981  L 1259 3981  L 1013 2750  Q 1425 3038 1878 3038  Q 2478 3038 2890 2622  Q 3303 2206 3303 1553  Q 3303 931 2941 478  Q 2500 -78 1738 -78  Q 1113 -78 717 272  Q 322 622 266 1200  z "
                   transform="scale(0.015625)" />
              </defs>
              <path
                 id="use74"
                 d="M 50.34375,8.453125 V 0 H 3.03125 Q 2.9375,3.171875 4.046875,6.109375 5.859375,10.9375 9.828125,15.625 13.8125,20.3125 21.34375,26.46875 q 11.671875,9.5625 15.765625,15.15625 4.109375,5.59375 4.109375,10.578125 0,5.21875 -3.75,8.796875 -3.734375,3.59375 -9.734375,3.59375 -6.34375,0 -10.15625,-3.8125 Q 13.765625,56.984375 13.71875,50.25 L 4.6875,51.171875 q 0.921875,10.109375 6.96875,15.40625 6.0625,5.296875 16.28125,5.296875 10.296875,0 16.296875,-5.71875 Q 50.25,60.453125 50.25,52 50.25,47.703125 48.484375,43.546875 46.734375,39.40625 42.65625,34.8125 38.578125,30.21875 29.109375,22.21875 21.1875,15.578125 18.9375,13.203125 q -2.234375,-2.359375 -3.703125,-4.75 z"
                 style="stroke-width:0.015625" />
              <use
                 xlink:href="#ArialMT-30"
                 x="55.615234"
                 id="use75" />
              <use
                 xlink:href="#ArialMT-35"
                 x="111.230469"
                 id="use76" />
              <use
                 xlink:href="#ArialMT-30"
                 x="166.845703"
                 id="use77" />
            </g>
          </g>
        </g>
      </g>
      <g
         id="PathCollection_2">
        <defs
           id="defs93">
          <path
             id="mb26f083032"
             d="M 0 3.162278  L 1.897367 0  L 0 -3.162278  L -1.897367 0  z "
             style="stroke: #52318e" />
        </defs>
        <g
           clip-path="url(#p9d6b35b03f)"
           id="g94">
          <use
             xlink:href="#mb26f083032"
             x="31.444821"
             y="107.234144"
             style="fill: #a78dd8; stroke: #52318e"
             id="use94" />
        </g>
      </g>
      <g
         id="PathCollection_3">
        <defs
           id="defs94">
          <path
             id="m1b0a0a1eef"
             d="M 0 -2.236068  L -2.236068 2.236068  L 2.236068 2.236068  z "
             style="stroke: #167f99" />
        </defs>
        <g
           clip-path="url(#p9d6b35b03f)"
           id="g95">
          <use
             xlink:href="#m1b0a0a1eef"
             x="31.444821"
             y="106.228556"
             style="fill: #6dd2ea; stroke: #167f99"
             id="use95" />
        </g>
      </g>
      <g
         id="PathCollection_4">
        <defs
           id="defs95">
          <path
             id="mbe7b55738b"
             d="M 0 -2.236068  L -1.936492 -1.118034  L -1.936492 1.118034  L -0 2.236068  L 1.936492 1.118034  L 1.936492 -1.118034  z "
             style="stroke: #b71205" />
        </defs>
        <g
           clip-path="url(#p9d6b35b03f)"
           id="g96">
          <use
             xlink:href="#mbe7b55738b"
             x="31.444821"
             y="70.787993"
             style="fill: #fb7b71; stroke: #b71205"
             id="use96" />
        </g>
      </g>
      <g
         id="line2d_36">
        <g
           id="g98">
          <use
             xlink:href="#mb4ba385890"
             x="25.32"
             y="65.318326"
             style="stroke: #000000"
             id="use97" />
          <use
             xlink:href="#mb4ba385890"
             x="160.066052"
             y="65.318326"
             style="stroke: #000000"
             id="use98" />
        </g>
      </g>
      <g
         id="patch_19">
        <path
           d="M 25.32 185.651006  L 25.32 65.318326  "
           style="fill: none; stroke: #000000; stroke-width: 0.8; stroke-linejoin: miter; stroke-linecap: square"
           id="path98" />
      </g>
      <g
         id="patch_20">
        <path
           d="M 160.066052 185.651006  L 160.066052 65.318326  "
           style="fill: none; stroke: #000000; stroke-width: 0.8; stroke-linejoin: miter; stroke-linecap: square"
           id="path99" />
      </g>
      <g
         id="patch_21">
        <path
           d="M 25.32 185.651006  L 160.066052 185.651006  "
           style="fill: none; stroke: #000000; stroke-width: 0.8; stroke-linejoin: miter; stroke-linecap: square"
           id="path100" />
      </g>
    </g>
  </g>
  <defs
     id="defs101">
    <clipPath
       id="p3e2ad5a903">
      <rect
         x="25.32"
         y="19.642031"
         width="134.746052"
         height="30.08317"
         id="rect100" />
    </clipPath>
    <clipPath
       id="p9d6b35b03f">
      <rect
         x="25.32"
         y="65.318326"
         width="134.746052"
         height="120.33268"
         id="rect101" />
    </clipPath>
  </defs>
</svg>
