<?xml version="1.0" encoding="utf-8" standalone="no"?>
<!DOCTYPE svg PUBLIC "-//W3C//DTD SVG 1.1//EN"
  "http://www.w3.org/Graphics/SVG/1.1/DTD/svg11.dtd">
<svg xmlns:xlink="http://www.w3.org/1999/xlink" width="515.85984pt" height="557.246016pt" viewBox="0 0 515.85984 557.246016" xmlns="http://www.w3.org/2000/svg" version="1.1">
 <metadata>
  <rdf:RDF xmlns:dc="http://purl.org/dc/elements/1.1/" xmlns:cc="http://creativecommons.org/ns#" xmlns:rdf="http://www.w3.org/1999/02/22-rdf-syntax-ns#">
   <cc:Work>
    <dc:type rdf:resource="http://purl.org/dc/dcmitype/StillImage"/>
    <dc:date>2023-10-12T18:25:19.880491</dc:date>
    <dc:format>image/svg+xml</dc:format>
    <dc:creator>
     <cc:Agent>
      <dc:title>Matplotlib v3.7.1, https://matplotlib.org/</dc:title>
     </cc:Agent>
    </dc:creator>
   </cc:Work>
  </rdf:RDF>
 </metadata>
 <defs>
  <style type="text/css">*{stroke-linejoin: round; stroke-linecap: butt}</style>
 </defs>
 <g id="figure_1">
  <g id="patch_1">
   <path d="M 0 557.246016 
L 515.85984 557.246016 
L 515.85984 0 
L 0 0 
z
" style="fill: #ffffff"/>
  </g>
  <g id="axes_1">
   <g id="patch_2">
    <path d="M 29.76875 535.729766 
L 508.65984 535.729766 
L 508.65984 7.2 
L 29.76875 7.2 
z
" style="fill: #ffffff"/>
   </g>
   <g id="patch_3">
    <path d="M 51.536527 31.22408 
L 196.655039 38.429858 
L 196.655039 32.494444 
z
" clip-path="url(#p3781a8e6ed)" style="fill: #808080; opacity: 0.3"/>
   </g>
   <g id="patch_4">
    <path d="M 196.655039 38.429858 
L 341.773551 41.0283 
L 341.773551 33.295336 
L 196.655039 32.494444 
z
" clip-path="url(#p3781a8e6ed)" style="fill: #808080; opacity: 0.3"/>
   </g>
   <g id="patch_5">
    <path d="M 341.773551 41.0283 
L 486.892063 42.200967 
L 486.892063 33.698298 
L 341.773551 33.295336 
z
" clip-path="url(#p3781a8e6ed)" style="fill: #808080; opacity: 0.3"/>
   </g>
   <g id="patch_6">
    <path d="M 51.536527 354.685971 
L 196.655039 357.977921 
L 196.655039 355.089761 
z
" clip-path="url(#p3781a8e6ed)" style="fill: #808080; opacity: 0.3"/>
   </g>
   <g id="patch_7">
    <path d="M 196.655039 357.977921 
L 341.773551 358.8394 
L 341.773551 355.329301 
L 196.655039 355.089761 
z
" clip-path="url(#p3781a8e6ed)" style="fill: #808080; opacity: 0.3"/>
   </g>
   <g id="patch_8">
    <path d="M 341.773551 358.8394 
L 486.892063 359.157627 
L 486.892063 355.567852 
L 341.773551 355.329301 
z
" clip-path="url(#p3781a8e6ed)" style="fill: #808080; opacity: 0.3"/>
   </g>
   <g id="patch_9">
    <path d="M 51.536527 429.459386 
L 196.655039 431.823301 
L 196.655039 429.661495 
z
" clip-path="url(#p3781a8e6ed)" style="fill: #808080; opacity: 0.3"/>
   </g>
   <g id="patch_10">
    <path d="M 196.655039 431.823301 
L 341.773551 432.470788 
L 341.773551 429.852081 
L 196.655039 429.661495 
z
" clip-path="url(#p3781a8e6ed)" style="fill: #808080; opacity: 0.3"/>
   </g>
   <g id="patch_11">
    <path d="M 341.773551 432.470788 
L 486.892063 432.690383 
L 486.892063 430.101332 
L 341.773551 429.852081 
z
" clip-path="url(#p3781a8e6ed)" style="fill: #808080; opacity: 0.3"/>
   </g>
   <g id="patch_12">
    <path d="M 51.536527 270.544011 
L 196.655039 281.689918 
L 196.655039 272.00295 
z
" clip-path="url(#p3781a8e6ed)" style="fill: #a78dd8; opacity: 0.3"/>
   </g>
   <g id="patch_13">
    <path d="M 196.655039 281.689918 
L 341.773551 285.267377 
L 341.773551 273.063315 
L 196.655039 272.00295 
z
" clip-path="url(#p3781a8e6ed)" style="fill: #a78dd8; opacity: 0.3"/>
   </g>
   <g id="patch_14">
    <path d="M 341.773551 285.267377 
L 486.892063 286.697095 
L 486.892063 273.903391 
L 341.773551 273.063315 
z
" clip-path="url(#p3781a8e6ed)" style="fill: #a78dd8; opacity: 0.3"/>
   </g>
   <g id="patch_15">
    <path d="M 51.536527 366.21204 
L 196.655039 399.430434 
L 196.655039 375.749697 
z
" clip-path="url(#p3781a8e6ed)" style="fill: #6dd2ea; opacity: 0.3"/>
   </g>
   <g id="patch_16">
    <path d="M 196.655039 399.430434 
L 341.773551 411.133195 
L 341.773551 383.904082 
L 196.655039 375.749697 
z
" clip-path="url(#p3781a8e6ed)" style="fill: #6dd2ea; opacity: 0.3"/>
   </g>
   <g id="patch_17">
    <path d="M 341.773551 411.133195 
L 486.892063 414.257069 
L 486.892063 385.582919 
L 341.773551 383.904082 
z
" clip-path="url(#p3781a8e6ed)" style="fill: #6dd2ea; opacity: 0.3"/>
   </g>
   <g id="patch_18">
    <path d="M 51.536527 301.979707 
L 196.655039 370.224652 
L 196.655039 329.132336 
z
" clip-path="url(#p3781a8e6ed)" style="fill: #fb7b71; opacity: 0.3"/>
   </g>
   <g id="patch_19">
    <path d="M 196.655039 370.224652 
L 341.773551 387.959704 
L 341.773551 346.073 
L 196.655039 329.132336 
z
" clip-path="url(#p3781a8e6ed)" style="fill: #fb7b71; opacity: 0.3"/>
   </g>
   <g id="patch_20">
    <path d="M 341.773551 387.959704 
L 486.892063 394.056901 
L 486.892063 353.10324 
L 341.773551 346.073 
z
" clip-path="url(#p3781a8e6ed)" style="fill: #fb7b71; opacity: 0.3"/>
   </g>
   <g id="patch_21">
    <path d="M 51.536527 426.69005 
L 196.655039 435.49159 
L 196.655039 427.331858 
z
" clip-path="url(#p3781a8e6ed)" style="fill: #a78dd8; opacity: 0.3"/>
   </g>
   <g id="patch_22">
    <path d="M 196.655039 435.49159 
L 341.773551 437.736518 
L 341.773551 427.931143 
L 196.655039 427.331858 
z
" clip-path="url(#p3781a8e6ed)" style="fill: #a78dd8; opacity: 0.3"/>
   </g>
   <g id="patch_23">
    <path d="M 341.773551 437.736518 
L 486.892063 438.381471 
L 486.892063 428.759754 
L 341.773551 427.931143 
z
" clip-path="url(#p3781a8e6ed)" style="fill: #a78dd8; opacity: 0.3"/>
   </g>
   <g id="patch_24">
    <path d="M 51.536527 425.845851 
L 196.655039 443.191557 
L 196.655039 428.206253 
z
" clip-path="url(#p3781a8e6ed)" style="fill: #6dd2ea; opacity: 0.3"/>
   </g>
   <g id="patch_25">
    <path d="M 196.655039 443.191557 
L 341.773551 448.105314 
L 341.773551 430.396227 
L 196.655039 428.206253 
z
" clip-path="url(#p3781a8e6ed)" style="fill: #6dd2ea; opacity: 0.3"/>
   </g>
   <g id="patch_26">
    <path d="M 341.773551 448.105314 
L 486.892063 449.435435 
L 486.892063 431.87008 
L 341.773551 430.396227 
z
" clip-path="url(#p3781a8e6ed)" style="fill: #6dd2ea; opacity: 0.3"/>
   </g>
   <g id="patch_27">
    <path d="M 51.536527 414.540961 
L 196.655039 438.05134 
L 196.655039 420.001597 
z
" clip-path="url(#p3781a8e6ed)" style="fill: #fb7b71; opacity: 0.3"/>
   </g>
   <g id="patch_28">
    <path d="M 196.655039 438.05134 
L 341.773551 444.02678 
L 341.773551 423.737957 
L 196.655039 420.001597 
z
" clip-path="url(#p3781a8e6ed)" style="fill: #fb7b71; opacity: 0.3"/>
   </g>
   <g id="patch_29">
    <path d="M 341.773551 444.02678 
L 486.892063 445.880205 
L 486.892063 426.153656 
L 341.773551 423.737957 
z
" clip-path="url(#p3781a8e6ed)" style="fill: #fb7b71; opacity: 0.3"/>
   </g>
   <g id="patch_30">
    <path d="M 51.536527 440.683241 
L 196.655039 445.663418 
L 196.655039 440.997349 
z
" clip-path="url(#p3781a8e6ed)" style="fill: #a78dd8; opacity: 0.3"/>
   </g>
   <g id="patch_31">
    <path d="M 196.655039 445.663418 
L 341.773551 446.967449 
L 341.773551 441.358273 
L 196.655039 440.997349 
z
" clip-path="url(#p3781a8e6ed)" style="fill: #a78dd8; opacity: 0.3"/>
   </g>
   <g id="patch_32">
    <path d="M 341.773551 446.967449 
L 486.892063 447.340783 
L 486.892063 441.887177 
L 341.773551 441.358273 
z
" clip-path="url(#p3781a8e6ed)" style="fill: #a78dd8; opacity: 0.3"/>
   </g>
   <g id="patch_33">
    <path d="M 51.536527 491.576672 
L 196.655039 506.370558 
L 196.655039 493.852987 
z
" clip-path="url(#p3781a8e6ed)" style="fill: #6dd2ea; opacity: 0.3"/>
   </g>
   <g id="patch_34">
    <path d="M 196.655039 506.370558 
L 341.773551 510.490542 
L 341.773551 495.772919 
L 196.655039 493.852987 
z
" clip-path="url(#p3781a8e6ed)" style="fill: #6dd2ea; opacity: 0.3"/>
   </g>
   <g id="patch_35">
    <path d="M 341.773551 510.490542 
L 486.892063 511.705686 
L 486.892063 497.088083 
L 341.773551 495.772919 
z
" clip-path="url(#p3781a8e6ed)" style="fill: #6dd2ea; opacity: 0.3"/>
   </g>
   <g id="patch_36">
    <path d="M 51.536527 482.649951 
L 196.655039 502.31167 
L 196.655039 487.374316 
z
" clip-path="url(#p3781a8e6ed)" style="fill: #fb7b71; opacity: 0.3"/>
   </g>
   <g id="patch_37">
    <path d="M 196.655039 502.31167 
L 341.773551 507.269994 
L 341.773551 490.515325 
L 196.655039 487.374316 
z
" clip-path="url(#p3781a8e6ed)" style="fill: #fb7b71; opacity: 0.3"/>
   </g>
   <g id="patch_38">
    <path d="M 341.773551 507.269994 
L 486.892063 508.898357 
L 486.892063 492.574204 
L 341.773551 490.515325 
z
" clip-path="url(#p3781a8e6ed)" style="fill: #fb7b71; opacity: 0.3"/>
   </g>
   <g id="line2d_1">
    <path d="M 51.536527 31.22408 
L 196.655039 34.434428 
" clip-path="url(#p3781a8e6ed)" style="fill: none; stroke: #000000; stroke-linecap: square"/>
   </g>
   <g id="line2d_2">
    <path d="M 196.655039 34.434428 
L 341.773551 37.842273 
L 486.892063 39.628337 
" clip-path="url(#p3781a8e6ed)" style="fill: none; stroke: #000000; stroke-linecap: square"/>
   </g>
   <g id="line2d_3">
    <path d="M 51.536527 31.22408 
L 196.655039 38.429858 
" clip-path="url(#p3781a8e6ed)" style="fill: none; stroke-dasharray: 3.7,1.6; stroke-dashoffset: 0; stroke: #000000"/>
   </g>
   <g id="line2d_4">
    <path d="M 196.655039 38.429858 
L 341.773551 41.0283 
L 486.892063 42.200967 
" clip-path="url(#p3781a8e6ed)" style="fill: none; stroke-dasharray: 3.7,1.6; stroke-dashoffset: 0; stroke: #000000"/>
   </g>
   <g id="line2d_5">
    <path d="M 51.536527 31.22408 
L 196.655039 32.494444 
" clip-path="url(#p3781a8e6ed)" style="fill: none; stroke-dasharray: 6.4,1.6,1,1.6; stroke-dashoffset: 0; stroke: #000000"/>
   </g>
   <g id="line2d_6">
    <path d="M 196.655039 32.494444 
L 341.773551 33.295336 
L 486.892063 33.698298 
" clip-path="url(#p3781a8e6ed)" style="fill: none; stroke-dasharray: 6.4,1.6,1,1.6; stroke-dashoffset: 0; stroke: #000000"/>
   </g>
   <g id="line2d_7">
    <path d="M 51.536527 354.685971 
L 196.655039 355.875197 
" clip-path="url(#p3781a8e6ed)" style="fill: none; stroke: #000000; stroke-linecap: square"/>
   </g>
   <g id="line2d_8">
    <path d="M 196.655039 355.875197 
L 341.773551 357.475334 
L 486.892063 358.631365 
" clip-path="url(#p3781a8e6ed)" style="fill: none; stroke: #000000; stroke-linecap: square"/>
   </g>
   <g id="line2d_9">
    <path d="M 51.536527 354.685971 
L 196.655039 357.977921 
" clip-path="url(#p3781a8e6ed)" style="fill: none; stroke-dasharray: 3.7,1.6; stroke-dashoffset: 0; stroke: #000000"/>
   </g>
   <g id="line2d_10">
    <path d="M 196.655039 357.977921 
L 341.773551 358.8394 
L 486.892063 359.157627 
" clip-path="url(#p3781a8e6ed)" style="fill: none; stroke-dasharray: 3.7,1.6; stroke-dashoffset: 0; stroke: #000000"/>
   </g>
   <g id="line2d_11">
    <path d="M 51.536527 354.685971 
L 196.655039 355.089761 
" clip-path="url(#p3781a8e6ed)" style="fill: none; stroke-dasharray: 6.4,1.6,1,1.6; stroke-dashoffset: 0; stroke: #000000"/>
   </g>
   <g id="line2d_12">
    <path d="M 196.655039 355.089761 
L 341.773551 355.329301 
L 486.892063 355.567852 
" clip-path="url(#p3781a8e6ed)" style="fill: none; stroke-dasharray: 6.4,1.6,1,1.6; stroke-dashoffset: 0; stroke: #000000"/>
   </g>
   <g id="line2d_13">
    <path d="M 51.536527 429.459386 
L 196.655039 430.250491 
" clip-path="url(#p3781a8e6ed)" style="fill: none; stroke: #000000; stroke-linecap: square"/>
   </g>
   <g id="line2d_14">
    <path d="M 196.655039 430.250491 
L 341.773551 431.556319 
L 486.892063 432.41928 
" clip-path="url(#p3781a8e6ed)" style="fill: none; stroke: #000000; stroke-linecap: square"/>
   </g>
   <g id="line2d_15">
    <path d="M 51.536527 429.459386 
L 196.655039 431.823301 
" clip-path="url(#p3781a8e6ed)" style="fill: none; stroke-dasharray: 3.7,1.6; stroke-dashoffset: 0; stroke: #000000"/>
   </g>
   <g id="line2d_16">
    <path d="M 196.655039 431.823301 
L 341.773551 432.470788 
L 486.892063 432.690383 
" clip-path="url(#p3781a8e6ed)" style="fill: none; stroke-dasharray: 3.7,1.6; stroke-dashoffset: 0; stroke: #000000"/>
   </g>
   <g id="line2d_17">
    <path d="M 51.536527 429.459386 
L 196.655039 429.661495 
" clip-path="url(#p3781a8e6ed)" style="fill: none; stroke-dasharray: 6.4,1.6,1,1.6; stroke-dashoffset: 0; stroke: #000000"/>
   </g>
   <g id="line2d_18">
    <path d="M 196.655039 429.661495 
L 341.773551 429.852081 
L 486.892063 430.101332 
" clip-path="url(#p3781a8e6ed)" style="fill: none; stroke-dasharray: 6.4,1.6,1,1.6; stroke-dashoffset: 0; stroke: #000000"/>
   </g>
   <g id="line2d_19">
    <path d="M 51.536527 270.544011 
L 196.655039 274.913215 
" clip-path="url(#p3781a8e6ed)" style="fill: none; stroke: #52318e; stroke-linecap: square"/>
   </g>
   <g id="line2d_20">
    <path d="M 196.655039 274.913215 
L 341.773551 280.731753 
L 486.892063 284.003723 
" clip-path="url(#p3781a8e6ed)" style="fill: none; stroke: #52318e; stroke-linecap: square"/>
   </g>
   <g id="line2d_21">
    <path d="M 51.536527 270.544011 
L 196.655039 281.689918 
" clip-path="url(#p3781a8e6ed)" style="fill: none; stroke-dasharray: 3.7,1.6; stroke-dashoffset: 0; stroke: #52318e"/>
   </g>
   <g id="line2d_22">
    <path d="M 196.655039 281.689918 
L 341.773551 285.267377 
L 486.892063 286.697095 
" clip-path="url(#p3781a8e6ed)" style="fill: none; stroke-dasharray: 3.7,1.6; stroke-dashoffset: 0; stroke: #52318e"/>
   </g>
   <g id="line2d_23">
    <path d="M 51.536527 270.544011 
L 196.655039 272.00295 
" clip-path="url(#p3781a8e6ed)" style="fill: none; stroke-dasharray: 6.4,1.6,1,1.6; stroke-dashoffset: 0; stroke: #52318e"/>
   </g>
   <g id="line2d_24">
    <path d="M 196.655039 272.00295 
L 341.773551 273.063315 
L 486.892063 273.903391 
" clip-path="url(#p3781a8e6ed)" style="fill: none; stroke-dasharray: 6.4,1.6,1,1.6; stroke-dashoffset: 0; stroke: #52318e"/>
   </g>
   <g id="line2d_25">
    <path d="M 51.536527 366.21204 
L 196.655039 383.227165 
" clip-path="url(#p3781a8e6ed)" style="fill: none; stroke: #167f99; stroke-linecap: square"/>
   </g>
   <g id="line2d_26">
    <path d="M 196.655039 383.227165 
L 341.773551 400.095336 
L 486.892063 407.764822 
" clip-path="url(#p3781a8e6ed)" style="fill: none; stroke: #167f99; stroke-linecap: square"/>
   </g>
   <g id="line2d_27">
    <path d="M 51.536527 366.21204 
L 196.655039 399.430434 
" clip-path="url(#p3781a8e6ed)" style="fill: none; stroke-dasharray: 3.7,1.6; stroke-dashoffset: 0; stroke: #167f99"/>
   </g>
   <g id="line2d_28">
    <path d="M 196.655039 399.430434 
L 341.773551 411.133195 
L 486.892063 414.257069 
" clip-path="url(#p3781a8e6ed)" style="fill: none; stroke-dasharray: 3.7,1.6; stroke-dashoffset: 0; stroke: #167f99"/>
   </g>
   <g id="line2d_29">
    <path d="M 51.536527 366.21204 
L 196.655039 375.749697 
" clip-path="url(#p3781a8e6ed)" style="fill: none; stroke-dasharray: 6.4,1.6,1,1.6; stroke-dashoffset: 0; stroke: #167f99"/>
   </g>
   <g id="line2d_30">
    <path d="M 196.655039 375.749697 
L 341.773551 383.904082 
L 486.892063 385.582919 
" clip-path="url(#p3781a8e6ed)" style="fill: none; stroke-dasharray: 6.4,1.6,1,1.6; stroke-dashoffset: 0; stroke: #167f99"/>
   </g>
   <g id="line2d_31">
    <path d="M 51.536527 301.979707 
L 196.655039 338.514548 
" clip-path="url(#p3781a8e6ed)" style="fill: none; stroke: #b71205; stroke-linecap: square"/>
   </g>
   <g id="line2d_32">
    <path d="M 196.655039 338.514548 
L 341.773551 366.963993 
L 486.892063 387.387999 
" clip-path="url(#p3781a8e6ed)" style="fill: none; stroke: #b71205; stroke-linecap: square"/>
   </g>
   <g id="line2d_33">
    <path d="M 51.536527 301.979707 
L 196.655039 370.224652 
" clip-path="url(#p3781a8e6ed)" style="fill: none; stroke-dasharray: 3.7,1.6; stroke-dashoffset: 0; stroke: #b71205"/>
   </g>
   <g id="line2d_34">
    <path d="M 196.655039 370.224652 
L 341.773551 387.959704 
L 486.892063 394.056901 
" clip-path="url(#p3781a8e6ed)" style="fill: none; stroke-dasharray: 3.7,1.6; stroke-dashoffset: 0; stroke: #b71205"/>
   </g>
   <g id="line2d_35">
    <path d="M 51.536527 301.979707 
L 196.655039 329.132336 
" clip-path="url(#p3781a8e6ed)" style="fill: none; stroke-dasharray: 6.4,1.6,1,1.6; stroke-dashoffset: 0; stroke: #b71205"/>
   </g>
   <g id="line2d_36">
    <path d="M 196.655039 329.132336 
L 341.773551 346.073 
L 486.892063 353.10324 
" clip-path="url(#p3781a8e6ed)" style="fill: none; stroke-dasharray: 6.4,1.6,1,1.6; stroke-dashoffset: 0; stroke: #b71205"/>
   </g>
   <g id="line2d_37">
    <path d="M 51.536527 426.69005 
L 196.655039 429.484967 
" clip-path="url(#p3781a8e6ed)" style="fill: none; stroke: #52318e; stroke-linecap: square"/>
   </g>
   <g id="line2d_38">
    <path d="M 196.655039 429.484967 
L 341.773551 434.554116 
L 486.892063 437.759716 
" clip-path="url(#p3781a8e6ed)" style="fill: none; stroke: #52318e; stroke-linecap: square"/>
   </g>
   <g id="line2d_39">
    <path d="M 51.536527 426.69005 
L 196.655039 435.49159 
" clip-path="url(#p3781a8e6ed)" style="fill: none; stroke-dasharray: 3.7,1.6; stroke-dashoffset: 0; stroke: #52318e"/>
   </g>
   <g id="line2d_40">
    <path d="M 196.655039 435.49159 
L 341.773551 437.736518 
L 486.892063 438.381471 
" clip-path="url(#p3781a8e6ed)" style="fill: none; stroke-dasharray: 3.7,1.6; stroke-dashoffset: 0; stroke: #52318e"/>
   </g>
   <g id="line2d_41">
    <path d="M 51.536527 426.69005 
L 196.655039 427.331858 
" clip-path="url(#p3781a8e6ed)" style="fill: none; stroke-dasharray: 6.4,1.6,1,1.6; stroke-dashoffset: 0; stroke: #52318e"/>
   </g>
   <g id="line2d_42">
    <path d="M 196.655039 427.331858 
L 341.773551 427.931143 
L 486.892063 428.759754 
" clip-path="url(#p3781a8e6ed)" style="fill: none; stroke-dasharray: 6.4,1.6,1,1.6; stroke-dashoffset: 0; stroke: #52318e"/>
   </g>
   <g id="line2d_43">
    <path d="M 51.536527 425.845851 
L 196.655039 432.327444 
" clip-path="url(#p3781a8e6ed)" style="fill: none; stroke: #167f99; stroke-linecap: square"/>
   </g>
   <g id="line2d_44">
    <path d="M 196.655039 432.327444 
L 341.773551 442.131771 
L 486.892063 447.75945 
" clip-path="url(#p3781a8e6ed)" style="fill: none; stroke: #167f99; stroke-linecap: square"/>
   </g>
   <g id="line2d_45">
    <path d="M 51.536527 425.845851 
L 196.655039 443.191557 
" clip-path="url(#p3781a8e6ed)" style="fill: none; stroke-dasharray: 3.7,1.6; stroke-dashoffset: 0; stroke: #167f99"/>
   </g>
   <g id="line2d_46">
    <path d="M 196.655039 443.191557 
L 341.773551 448.105314 
L 486.892063 449.435435 
" clip-path="url(#p3781a8e6ed)" style="fill: none; stroke-dasharray: 3.7,1.6; stroke-dashoffset: 0; stroke: #167f99"/>
   </g>
   <g id="line2d_47">
    <path d="M 51.536527 425.845851 
L 196.655039 428.206253 
" clip-path="url(#p3781a8e6ed)" style="fill: none; stroke-dasharray: 6.4,1.6,1,1.6; stroke-dashoffset: 0; stroke: #167f99"/>
   </g>
   <g id="line2d_48">
    <path d="M 196.655039 428.206253 
L 341.773551 430.396227 
L 486.892063 431.87008 
" clip-path="url(#p3781a8e6ed)" style="fill: none; stroke-dasharray: 6.4,1.6,1,1.6; stroke-dashoffset: 0; stroke: #167f99"/>
   </g>
   <g id="line2d_49">
    <path d="M 51.536527 414.540961 
L 196.655039 424.458024 
" clip-path="url(#p3781a8e6ed)" style="fill: none; stroke: #b71205; stroke-linecap: square"/>
   </g>
   <g id="line2d_50">
    <path d="M 196.655039 424.458024 
L 341.773551 436.300654 
L 486.892063 444.17313 
" clip-path="url(#p3781a8e6ed)" style="fill: none; stroke: #b71205; stroke-linecap: square"/>
   </g>
   <g id="line2d_51">
    <path d="M 51.536527 414.540961 
L 196.655039 438.05134 
" clip-path="url(#p3781a8e6ed)" style="fill: none; stroke-dasharray: 3.7,1.6; stroke-dashoffset: 0; stroke: #b71205"/>
   </g>
   <g id="line2d_52">
    <path d="M 196.655039 438.05134 
L 341.773551 444.02678 
L 486.892063 445.880205 
" clip-path="url(#p3781a8e6ed)" style="fill: none; stroke-dasharray: 3.7,1.6; stroke-dashoffset: 0; stroke: #b71205"/>
   </g>
   <g id="line2d_53">
    <path d="M 51.536527 414.540961 
L 196.655039 420.001597 
" clip-path="url(#p3781a8e6ed)" style="fill: none; stroke-dasharray: 6.4,1.6,1,1.6; stroke-dashoffset: 0; stroke: #b71205"/>
   </g>
   <g id="line2d_54">
    <path d="M 196.655039 420.001597 
L 341.773551 423.737957 
L 486.892063 426.153656 
" clip-path="url(#p3781a8e6ed)" style="fill: none; stroke-dasharray: 6.4,1.6,1,1.6; stroke-dashoffset: 0; stroke: #b71205"/>
   </g>
   <g id="line2d_55">
    <path d="M 51.536527 440.683241 
L 196.655039 442.235913 
" clip-path="url(#p3781a8e6ed)" style="fill: none; stroke: #52318e; stroke-linecap: square"/>
   </g>
   <g id="line2d_56">
    <path d="M 196.655039 442.235913 
L 341.773551 445.191754 
L 486.892063 447.027865 
" clip-path="url(#p3781a8e6ed)" style="fill: none; stroke: #52318e; stroke-linecap: square"/>
   </g>
   <g id="line2d_57">
    <path d="M 51.536527 440.683241 
L 196.655039 445.663418 
" clip-path="url(#p3781a8e6ed)" style="fill: none; stroke-dasharray: 3.7,1.6; stroke-dashoffset: 0; stroke: #52318e"/>
   </g>
   <g id="line2d_58">
    <path d="M 196.655039 445.663418 
L 341.773551 446.967449 
L 486.892063 447.340783 
" clip-path="url(#p3781a8e6ed)" style="fill: none; stroke-dasharray: 3.7,1.6; stroke-dashoffset: 0; stroke: #52318e"/>
   </g>
   <g id="line2d_59">
    <path d="M 51.536527 440.683241 
L 196.655039 440.997349 
" clip-path="url(#p3781a8e6ed)" style="fill: none; stroke-dasharray: 6.4,1.6,1,1.6; stroke-dashoffset: 0; stroke: #52318e"/>
   </g>
   <g id="line2d_60">
    <path d="M 196.655039 440.997349 
L 341.773551 441.358273 
L 486.892063 441.887177 
" clip-path="url(#p3781a8e6ed)" style="fill: none; stroke-dasharray: 6.4,1.6,1,1.6; stroke-dashoffset: 0; stroke: #52318e"/>
   </g>
   <g id="line2d_61">
    <path d="M 51.536527 491.576672 
L 196.655039 497.639616 
" clip-path="url(#p3781a8e6ed)" style="fill: none; stroke: #167f99; stroke-linecap: square"/>
   </g>
   <g id="line2d_62">
    <path d="M 196.655039 497.639616 
L 341.773551 505.453806 
L 486.892063 509.765797 
" clip-path="url(#p3781a8e6ed)" style="fill: none; stroke: #167f99; stroke-linecap: square"/>
   </g>
   <g id="line2d_63">
    <path d="M 51.536527 491.576672 
L 196.655039 506.370558 
" clip-path="url(#p3781a8e6ed)" style="fill: none; stroke-dasharray: 3.7,1.6; stroke-dashoffset: 0; stroke: #167f99"/>
   </g>
   <g id="line2d_64">
    <path d="M 196.655039 506.370558 
L 341.773551 510.490542 
L 486.892063 511.705686 
" clip-path="url(#p3781a8e6ed)" style="fill: none; stroke-dasharray: 3.7,1.6; stroke-dashoffset: 0; stroke: #167f99"/>
   </g>
   <g id="line2d_65">
    <path d="M 51.536527 491.576672 
L 196.655039 493.852987 
" clip-path="url(#p3781a8e6ed)" style="fill: none; stroke-dasharray: 6.4,1.6,1,1.6; stroke-dashoffset: 0; stroke: #167f99"/>
   </g>
   <g id="line2d_66">
    <path d="M 196.655039 493.852987 
L 341.773551 495.772919 
L 486.892063 497.088083 
" clip-path="url(#p3781a8e6ed)" style="fill: none; stroke-dasharray: 6.4,1.6,1,1.6; stroke-dashoffset: 0; stroke: #167f99"/>
   </g>
   <g id="line2d_67">
    <path d="M 51.536527 482.649951 
L 196.655039 491.425657 
" clip-path="url(#p3781a8e6ed)" style="fill: none; stroke: #b71205; stroke-linecap: square"/>
   </g>
   <g id="line2d_68">
    <path d="M 196.655039 491.425657 
L 341.773551 500.849361 
L 486.892063 506.933918 
" clip-path="url(#p3781a8e6ed)" style="fill: none; stroke: #b71205; stroke-linecap: square"/>
   </g>
   <g id="line2d_69">
    <path d="M 51.536527 482.649951 
L 196.655039 502.31167 
" clip-path="url(#p3781a8e6ed)" style="fill: none; stroke-dasharray: 3.7,1.6; stroke-dashoffset: 0; stroke: #b71205"/>
   </g>
   <g id="line2d_70">
    <path d="M 196.655039 502.31167 
L 341.773551 507.269994 
L 486.892063 508.898357 
" clip-path="url(#p3781a8e6ed)" style="fill: none; stroke-dasharray: 3.7,1.6; stroke-dashoffset: 0; stroke: #b71205"/>
   </g>
   <g id="line2d_71">
    <path d="M 51.536527 482.649951 
L 196.655039 487.374316 
" clip-path="url(#p3781a8e6ed)" style="fill: none; stroke-dasharray: 6.4,1.6,1,1.6; stroke-dashoffset: 0; stroke: #b71205"/>
   </g>
   <g id="line2d_72">
    <path d="M 196.655039 487.374316 
L 341.773551 490.515325 
L 486.892063 492.574204 
" clip-path="url(#p3781a8e6ed)" style="fill: none; stroke-dasharray: 6.4,1.6,1,1.6; stroke-dashoffset: 0; stroke: #b71205"/>
   </g>
   <g id="matplotlib.axis_1">
    <g id="xtick_1">
     <g id="line2d_73">
      <defs>
       <path id="meb9dd1e01e" d="M 0 0 
L 0 3.5 
" style="stroke: #000000; stroke-width: 0.8"/>
      </defs>
      <g>
       <use xlink:href="#meb9dd1e01e" x="51.536527" y="535.729766" style="stroke: #000000; stroke-width: 0.8"/>
      </g>
     </g>
     <g id="text_1">
      <!-- 2020 -->
      <g transform="translate(42.639027 548.456016) scale(0.08 -0.08)">
       <defs>
        <path id="ArialMT-32" d="M 3222 541 
L 3222 0 
L 194 0 
Q 188 203 259 391 
Q 375 700 629 1000 
Q 884 1300 1366 1694 
Q 2113 2306 2375 2664 
Q 2638 3022 2638 3341 
Q 2638 3675 2398 3904 
Q 2159 4134 1775 4134 
Q 1369 4134 1125 3890 
Q 881 3647 878 3216 
L 300 3275 
Q 359 3922 746 4261 
Q 1134 4600 1788 4600 
Q 2447 4600 2831 4234 
Q 3216 3869 3216 3328 
Q 3216 3053 3103 2787 
Q 2991 2522 2730 2228 
Q 2469 1934 1863 1422 
Q 1356 997 1212 845 
Q 1069 694 975 541 
L 3222 541 
z
" transform="scale(0.015625)"/>
        <path id="ArialMT-30" d="M 266 2259 
Q 266 3072 433 3567 
Q 600 4063 929 4331 
Q 1259 4600 1759 4600 
Q 2128 4600 2406 4451 
Q 2684 4303 2865 4023 
Q 3047 3744 3150 3342 
Q 3253 2941 3253 2259 
Q 3253 1453 3087 958 
Q 2922 463 2592 192 
Q 2263 -78 1759 -78 
Q 1097 -78 719 397 
Q 266 969 266 2259 
z
M 844 2259 
Q 844 1131 1108 757 
Q 1372 384 1759 384 
Q 2147 384 2411 759 
Q 2675 1134 2675 2259 
Q 2675 3391 2411 3762 
Q 2147 4134 1753 4134 
Q 1366 4134 1134 3806 
Q 844 3388 844 2259 
z
" transform="scale(0.015625)"/>
       </defs>
       <use xlink:href="#ArialMT-32"/>
       <use xlink:href="#ArialMT-30" x="55.615234"/>
       <use xlink:href="#ArialMT-32" x="111.230469"/>
       <use xlink:href="#ArialMT-30" x="166.845703"/>
      </g>
     </g>
    </g>
    <g id="xtick_2">
     <g id="line2d_74">
      <g>
       <use xlink:href="#meb9dd1e01e" x="196.655039" y="535.729766" style="stroke: #000000; stroke-width: 0.8"/>
      </g>
     </g>
     <g id="text_2">
      <!-- 2030 -->
      <g transform="translate(187.757539 548.456016) scale(0.08 -0.08)">
       <defs>
        <path id="ArialMT-33" d="M 269 1209 
L 831 1284 
Q 928 806 1161 595 
Q 1394 384 1728 384 
Q 2125 384 2398 659 
Q 2672 934 2672 1341 
Q 2672 1728 2419 1979 
Q 2166 2231 1775 2231 
Q 1616 2231 1378 2169 
L 1441 2663 
Q 1497 2656 1531 2656 
Q 1891 2656 2178 2843 
Q 2466 3031 2466 3422 
Q 2466 3731 2256 3934 
Q 2047 4138 1716 4138 
Q 1388 4138 1169 3931 
Q 950 3725 888 3313 
L 325 3413 
Q 428 3978 793 4289 
Q 1159 4600 1703 4600 
Q 2078 4600 2393 4439 
Q 2709 4278 2876 4000 
Q 3044 3722 3044 3409 
Q 3044 3113 2884 2869 
Q 2725 2625 2413 2481 
Q 2819 2388 3044 2092 
Q 3269 1797 3269 1353 
Q 3269 753 2831 336 
Q 2394 -81 1725 -81 
Q 1122 -81 723 278 
Q 325 638 269 1209 
z
" transform="scale(0.015625)"/>
       </defs>
       <use xlink:href="#ArialMT-32"/>
       <use xlink:href="#ArialMT-30" x="55.615234"/>
       <use xlink:href="#ArialMT-33" x="111.230469"/>
       <use xlink:href="#ArialMT-30" x="166.845703"/>
      </g>
     </g>
    </g>
    <g id="xtick_3">
     <g id="line2d_75">
      <g>
       <use xlink:href="#meb9dd1e01e" x="341.773551" y="535.729766" style="stroke: #000000; stroke-width: 0.8"/>
      </g>
     </g>
     <g id="text_3">
      <!-- 2040 -->
      <g transform="translate(332.876051 548.456016) scale(0.08 -0.08)">
       <defs>
        <path id="ArialMT-34" d="M 2069 0 
L 2069 1097 
L 81 1097 
L 81 1613 
L 2172 4581 
L 2631 4581 
L 2631 1613 
L 3250 1613 
L 3250 1097 
L 2631 1097 
L 2631 0 
L 2069 0 
z
M 2069 1613 
L 2069 3678 
L 634 1613 
L 2069 1613 
z
" transform="scale(0.015625)"/>
       </defs>
       <use xlink:href="#ArialMT-32"/>
       <use xlink:href="#ArialMT-30" x="55.615234"/>
       <use xlink:href="#ArialMT-34" x="111.230469"/>
       <use xlink:href="#ArialMT-30" x="166.845703"/>
      </g>
     </g>
    </g>
    <g id="xtick_4">
     <g id="line2d_76">
      <g>
       <use xlink:href="#meb9dd1e01e" x="486.892063" y="535.729766" style="stroke: #000000; stroke-width: 0.8"/>
      </g>
     </g>
     <g id="text_4">
      <!-- 2050 -->
      <g transform="translate(477.994563 548.456016) scale(0.08 -0.08)">
       <defs>
        <path id="ArialMT-35" d="M 266 1200 
L 856 1250 
Q 922 819 1161 601 
Q 1400 384 1738 384 
Q 2144 384 2425 690 
Q 2706 997 2706 1503 
Q 2706 1984 2436 2262 
Q 2166 2541 1728 2541 
Q 1456 2541 1237 2417 
Q 1019 2294 894 2097 
L 366 2166 
L 809 4519 
L 3088 4519 
L 3088 3981 
L 1259 3981 
L 1013 2750 
Q 1425 3038 1878 3038 
Q 2478 3038 2890 2622 
Q 3303 2206 3303 1553 
Q 3303 931 2941 478 
Q 2500 -78 1738 -78 
Q 1113 -78 717 272 
Q 322 622 266 1200 
z
" transform="scale(0.015625)"/>
       </defs>
       <use xlink:href="#ArialMT-32"/>
       <use xlink:href="#ArialMT-30" x="55.615234"/>
       <use xlink:href="#ArialMT-35" x="111.230469"/>
       <use xlink:href="#ArialMT-30" x="166.845703"/>
      </g>
     </g>
    </g>
   </g>
   <g id="matplotlib.axis_2">
    <g id="ytick_1">
     <g id="line2d_77">
      <defs>
       <path id="me3480e6273" d="M 0 0 
L -3.5 0 
" style="stroke: #000000; stroke-width: 0.8"/>
      </defs>
      <g>
       <use xlink:href="#me3480e6273" x="29.76875" y="458.792243" style="stroke: #000000; stroke-width: 0.8"/>
      </g>
     </g>
     <g id="text_5">
      <!-- 0.0 -->
      <g transform="translate(11.64875 461.655368) scale(0.08 -0.08)">
       <defs>
        <path id="ArialMT-2e" d="M 581 0 
L 581 641 
L 1222 641 
L 1222 0 
L 581 0 
z
" transform="scale(0.015625)"/>
       </defs>
       <use xlink:href="#ArialMT-30"/>
       <use xlink:href="#ArialMT-2e" x="55.615234"/>
       <use xlink:href="#ArialMT-30" x="83.398438"/>
      </g>
     </g>
    </g>
    <g id="ytick_2">
     <g id="line2d_78">
      <g>
       <use xlink:href="#me3480e6273" x="29.76875" y="381.612334" style="stroke: #000000; stroke-width: 0.8"/>
      </g>
     </g>
     <g id="text_6">
      <!-- 2.0 -->
      <g transform="translate(11.64875 384.475459) scale(0.08 -0.08)">
       <use xlink:href="#ArialMT-32"/>
       <use xlink:href="#ArialMT-2e" x="55.615234"/>
       <use xlink:href="#ArialMT-30" x="83.398438"/>
      </g>
     </g>
    </g>
    <g id="ytick_3">
     <g id="line2d_79">
      <g>
       <use xlink:href="#me3480e6273" x="29.76875" y="304.432424" style="stroke: #000000; stroke-width: 0.8"/>
      </g>
     </g>
     <g id="text_7">
      <!-- 4.0 -->
      <g transform="translate(11.64875 307.295549) scale(0.08 -0.08)">
       <use xlink:href="#ArialMT-34"/>
       <use xlink:href="#ArialMT-2e" x="55.615234"/>
       <use xlink:href="#ArialMT-30" x="83.398438"/>
      </g>
     </g>
    </g>
    <g id="ytick_4">
     <g id="line2d_80">
      <g>
       <use xlink:href="#me3480e6273" x="29.76875" y="227.252514" style="stroke: #000000; stroke-width: 0.8"/>
      </g>
     </g>
     <g id="text_8">
      <!-- 6.0 -->
      <g transform="translate(11.64875 230.115639) scale(0.08 -0.08)">
       <defs>
        <path id="ArialMT-36" d="M 3184 3459 
L 2625 3416 
Q 2550 3747 2413 3897 
Q 2184 4138 1850 4138 
Q 1581 4138 1378 3988 
Q 1113 3794 959 3422 
Q 806 3050 800 2363 
Q 1003 2672 1297 2822 
Q 1591 2972 1913 2972 
Q 2475 2972 2870 2558 
Q 3266 2144 3266 1488 
Q 3266 1056 3080 686 
Q 2894 316 2569 119 
Q 2244 -78 1831 -78 
Q 1128 -78 684 439 
Q 241 956 241 2144 
Q 241 3472 731 4075 
Q 1159 4600 1884 4600 
Q 2425 4600 2770 4297 
Q 3116 3994 3184 3459 
z
M 888 1484 
Q 888 1194 1011 928 
Q 1134 663 1356 523 
Q 1578 384 1822 384 
Q 2178 384 2434 671 
Q 2691 959 2691 1453 
Q 2691 1928 2437 2201 
Q 2184 2475 1800 2475 
Q 1419 2475 1153 2201 
Q 888 1928 888 1484 
z
" transform="scale(0.015625)"/>
       </defs>
       <use xlink:href="#ArialMT-36"/>
       <use xlink:href="#ArialMT-2e" x="55.615234"/>
       <use xlink:href="#ArialMT-30" x="83.398438"/>
      </g>
     </g>
    </g>
    <g id="ytick_5">
     <g id="line2d_81">
      <g>
       <use xlink:href="#me3480e6273" x="29.76875" y="150.072605" style="stroke: #000000; stroke-width: 0.8"/>
      </g>
     </g>
     <g id="text_9">
      <!-- 8.0 -->
      <g transform="translate(11.64875 152.93573) scale(0.08 -0.08)">
       <defs>
        <path id="ArialMT-38" d="M 1131 2484 
Q 781 2613 612 2850 
Q 444 3088 444 3419 
Q 444 3919 803 4259 
Q 1163 4600 1759 4600 
Q 2359 4600 2725 4251 
Q 3091 3903 3091 3403 
Q 3091 3084 2923 2848 
Q 2756 2613 2416 2484 
Q 2838 2347 3058 2040 
Q 3278 1734 3278 1309 
Q 3278 722 2862 322 
Q 2447 -78 1769 -78 
Q 1091 -78 675 323 
Q 259 725 259 1325 
Q 259 1772 486 2073 
Q 713 2375 1131 2484 
z
M 1019 3438 
Q 1019 3113 1228 2906 
Q 1438 2700 1772 2700 
Q 2097 2700 2305 2904 
Q 2513 3109 2513 3406 
Q 2513 3716 2298 3927 
Q 2084 4138 1766 4138 
Q 1444 4138 1231 3931 
Q 1019 3725 1019 3438 
z
M 838 1322 
Q 838 1081 952 856 
Q 1066 631 1291 507 
Q 1516 384 1775 384 
Q 2178 384 2440 643 
Q 2703 903 2703 1303 
Q 2703 1709 2433 1975 
Q 2163 2241 1756 2241 
Q 1359 2241 1098 1978 
Q 838 1716 838 1322 
z
" transform="scale(0.015625)"/>
       </defs>
       <use xlink:href="#ArialMT-38"/>
       <use xlink:href="#ArialMT-2e" x="55.615234"/>
       <use xlink:href="#ArialMT-30" x="83.398438"/>
      </g>
     </g>
    </g>
    <g id="ytick_6">
     <g id="line2d_82">
      <g>
       <use xlink:href="#me3480e6273" x="29.76875" y="72.892695" style="stroke: #000000; stroke-width: 0.8"/>
      </g>
     </g>
     <g id="text_10">
      <!-- 10.0 -->
      <g transform="translate(7.2 75.75582) scale(0.08 -0.08)">
       <defs>
        <path id="ArialMT-31" d="M 2384 0 
L 1822 0 
L 1822 3584 
Q 1619 3391 1289 3197 
Q 959 3003 697 2906 
L 697 3450 
Q 1169 3672 1522 3987 
Q 1875 4303 2022 4600 
L 2384 4600 
L 2384 0 
z
" transform="scale(0.015625)"/>
       </defs>
       <use xlink:href="#ArialMT-31"/>
       <use xlink:href="#ArialMT-30" x="55.615234"/>
       <use xlink:href="#ArialMT-2e" x="111.230469"/>
       <use xlink:href="#ArialMT-30" x="139.013672"/>
      </g>
     </g>
    </g>
   </g>
   <g id="PathCollection_1">
    <defs>
     <path id="m9ed6fcdd0f" d="M 0 2.236068 
C 0.593012 2.236068 1.161816 2.000462 1.581139 1.581139 
C 2.000462 1.161816 2.236068 0.593012 2.236068 0 
C 2.236068 -0.593012 2.000462 -1.161816 1.581139 -1.581139 
C 1.161816 -2.000462 0.593012 -2.236068 0 -2.236068 
C -0.593012 -2.236068 -1.161816 -2.000462 -1.581139 -1.581139 
C -2.000462 -1.161816 -2.236068 -0.593012 -2.236068 0 
C -2.236068 0.593012 -2.000462 1.161816 -1.581139 1.581139 
C -1.161816 2.000462 -0.593012 2.236068 0 2.236068 
z
" style="stroke: #000000"/>
    </defs>
    <g clip-path="url(#p3781a8e6ed)">
     <use xlink:href="#m9ed6fcdd0f" x="51.536527" y="31.22408" style="fill: #d8d8d8; stroke: #000000"/>
    </g>
   </g>
   <g id="PathCollection_2">
    <g clip-path="url(#p3781a8e6ed)">
     <use xlink:href="#m9ed6fcdd0f" x="51.536527" y="354.685971" style="fill: #d8d8d8; stroke: #000000"/>
    </g>
   </g>
   <g id="PathCollection_3">
    <g clip-path="url(#p3781a8e6ed)">
     <use xlink:href="#m9ed6fcdd0f" x="51.536527" y="429.459386" style="fill: #d8d8d8; stroke: #000000"/>
    </g>
   </g>
   <g id="PathCollection_4">
    <defs>
     <path id="mdb872b9201" d="M -0 3.162278 
L 1.897367 0 
L 0 -3.162278 
L -1.897367 -0 
z
" style="stroke: #52318e"/>
    </defs>
    <g clip-path="url(#p3781a8e6ed)">
     <use xlink:href="#mdb872b9201" x="51.536527" y="270.544011" style="fill: #a78dd8; stroke: #52318e"/>
    </g>
   </g>
   <g id="PathCollection_5">
    <defs>
     <path id="m9b04c25401" d="M 0 -2.236068 
L -2.236068 2.236068 
L 2.236068 2.236068 
z
" style="stroke: #167f99"/>
    </defs>
    <g clip-path="url(#p3781a8e6ed)">
     <use xlink:href="#m9b04c25401" x="51.536527" y="366.21204" style="fill: #6dd2ea; stroke: #167f99"/>
    </g>
   </g>
   <g id="PathCollection_6">
    <defs>
     <path id="ma76f1fcecd" d="M 0 -2.236068 
L -1.936492 -1.118034 
L -1.936492 1.118034 
L -0 2.236068 
L 1.936492 1.118034 
L 1.936492 -1.118034 
z
" style="stroke: #b71205"/>
    </defs>
    <g clip-path="url(#p3781a8e6ed)">
     <use xlink:href="#ma76f1fcecd" x="51.536527" y="301.979707" style="fill: #fb7b71; stroke: #b71205"/>
    </g>
   </g>
   <g id="PathCollection_7">
    <g clip-path="url(#p3781a8e6ed)">
     <use xlink:href="#mdb872b9201" x="51.536527" y="426.69005" style="fill: #a78dd8; stroke: #52318e"/>
    </g>
   </g>
   <g id="PathCollection_8">
    <g clip-path="url(#p3781a8e6ed)">
     <use xlink:href="#m9b04c25401" x="51.536527" y="425.845851" style="fill: #6dd2ea; stroke: #167f99"/>
    </g>
   </g>
   <g id="PathCollection_9">
    <g clip-path="url(#p3781a8e6ed)">
     <use xlink:href="#ma76f1fcecd" x="51.536527" y="414.540961" style="fill: #fb7b71; stroke: #b71205"/>
    </g>
   </g>
   <g id="PathCollection_10">
    <g clip-path="url(#p3781a8e6ed)">
     <use xlink:href="#mdb872b9201" x="51.536527" y="440.683241" style="fill: #a78dd8; stroke: #52318e"/>
    </g>
   </g>
   <g id="PathCollection_11">
    <g clip-path="url(#p3781a8e6ed)">
     <use xlink:href="#m9b04c25401" x="51.536527" y="491.576672" style="fill: #6dd2ea; stroke: #167f99"/>
    </g>
   </g>
   <g id="PathCollection_12">
    <g clip-path="url(#p3781a8e6ed)">
     <use xlink:href="#ma76f1fcecd" x="51.536527" y="482.649951" style="fill: #fb7b71; stroke: #b71205"/>
    </g>
   </g>
   <g id="patch_39">
    <path d="M 29.76875 535.729766 
L 29.76875 7.2 
" style="fill: none; stroke: #000000; stroke-width: 0.8; stroke-linejoin: miter; stroke-linecap: square"/>
   </g>
   <g id="patch_40">
    <path d="M 508.65984 535.729766 
L 508.65984 7.2 
" style="fill: none; stroke: #000000; stroke-width: 0.8; stroke-linejoin: miter; stroke-linecap: square"/>
   </g>
   <g id="patch_41">
    <path d="M 29.76875 535.729766 
L 508.65984 535.729766 
" style="fill: none; stroke: #000000; stroke-width: 0.8; stroke-linejoin: miter; stroke-linecap: square"/>
   </g>
   <g id="patch_42">
    <path d="M 29.76875 7.2 
L 508.65984 7.2 
" style="fill: none; stroke: #000000; stroke-width: 0.8; stroke-linejoin: miter; stroke-linecap: square"/>
   </g>
  </g>
 </g>
 <defs>
  <clipPath id="p3781a8e6ed">
   <rect x="29.76875" y="7.2" width="478.89109" height="528.529766"/>
  </clipPath>
 </defs>
</svg>
