<?xml version="1.0" encoding="UTF-8" standalone="no"?>
<svg
   width="249.40368pt"
   height="280.221748pt"
   viewBox="0 0 249.40368 280.221748"
   version="1.1"
   id="svg447"
   sodipodi:docname="Ammonia image SSP2 GLO.svg"
   inkscape:version="1.2.2 (732a01da63, 2022-12-09)"
   inkscape:export-filename="Ammonia image SSP2 GLO.png"
   inkscape:export-xdpi="1200"
   inkscape:export-ydpi="1200"
   xmlns:inkscape="http://www.inkscape.org/namespaces/inkscape"
   xmlns:sodipodi="http://sodipodi.sourceforge.net/DTD/sodipodi-0.dtd"
   xmlns:xlink="http://www.w3.org/1999/xlink"
   xmlns="http://www.w3.org/2000/svg"
   xmlns:svg="http://www.w3.org/2000/svg"
   xmlns:rdf="http://www.w3.org/1999/02/22-rdf-syntax-ns#"
   xmlns:cc="http://creativecommons.org/ns#"
   xmlns:dc="http://purl.org/dc/elements/1.1/">
  <sodipodi:namedview
     id="namedview449"
     pagecolor="#ffffff"
     bordercolor="#000000"
     borderopacity="0.25"
     inkscape:showpageshadow="2"
     inkscape:pageopacity="0.0"
     inkscape:pagecheckerboard="0"
     inkscape:deskcolor="#d1d1d1"
     inkscape:document-units="pt"
     showgrid="false"
     inkscape:zoom="2.7487161"
     inkscape:cx="138.06446"
     inkscape:cy="186.81449"
     inkscape:window-width="2560"
     inkscape:window-height="1361"
     inkscape:window-x="-9"
     inkscape:window-y="-9"
     inkscape:window-maximized="1"
     inkscape:current-layer="g435" />
  <metadata
     id="metadata2">
    <rdf:RDF>
      <cc:Work>
        <dc:type
           rdf:resource="http://purl.org/dc/dcmitype/StillImage" />
        <dc:date>2023-09-29T15:33:35.690624</dc:date>
        <dc:format>image/svg+xml</dc:format>
        <dc:creator>
          <cc:Agent>
            <dc:title>Matplotlib v3.7.1, https://matplotlib.org/</dc:title>
          </cc:Agent>
        </dc:creator>
      </cc:Work>
    </rdf:RDF>
  </metadata>
  <defs
     id="defs6">
    <style
       type="text/css"
       id="style4">*{stroke-linejoin: round; stroke-linecap: butt}</style>
  </defs>
  <g
     id="figure_1">
    <g
       id="patch_1">
      <path
         d="M 0 280.221748  L 249.40368 280.221748  L 249.40368 0  L 0 0  z "
         style="fill: #ffffff"
         id="path8" />
    </g>
    <g
       id="axes_1">
      <g
         id="patch_2">
        <path
           d="M 25.32 70.690591  L 239.70368 70.690591  L 239.70368 27.096865  L 25.32 27.096865  z "
           style="fill: #ffffff"
           id="path11" />
      </g>
      <g
         id="patch_3">
        <path
           d="M 35.064713 42.68527  L 100.029464 58.853973  L 100.029464 44.668522  z "
           clip-path="url(#pd709c29dae)"
           style="fill: #808080; opacity: 0.3"
           id="path14" />
      </g>
      <g
         id="patch_4">
        <path
           d="M 100.029464 58.853973  L 164.994216 63.085204  L 164.994216 45.845043  L 100.029464 44.668522  z "
           clip-path="url(#pd709c29dae)"
           style="fill: #808080; opacity: 0.3"
           id="path17" />
      </g>
      <g
         id="patch_5">
        <path
           d="M 164.994216 63.085204  L 229.958967 64.648202  L 229.958967 47.01671  L 164.994216 45.845043  z "
           clip-path="url(#pd709c29dae)"
           style="fill: #808080; opacity: 0.3"
           id="path20" />
      </g>
      <g
         id="line2d_1">
        <path
           d="M 35.064713 42.68527  L 100.029464 48.526258  "
           clip-path="url(#pd709c29dae)"
           style="fill: none; stroke-dasharray: 9.6,2.4,1.5,2.4; stroke-dashoffset: 0; stroke: #000000; stroke-width: 1.5"
           id="path23" />
      </g>
      <g
         id="line2d_2">
        <path
           d="M 100.029464 48.526258  L 164.994216 56.385472  L 229.958967 62.063419  "
           clip-path="url(#pd709c29dae)"
           style="fill: none; stroke-dasharray: 9.6,2.4,1.5,2.4; stroke-dashoffset: 0; stroke: #000000; stroke-width: 1.5"
           id="path26" />
      </g>
      <g
         id="line2d_3">
        <path
           d="M 35.064713 42.68527  L 100.029464 58.853973  "
           clip-path="url(#pd709c29dae)"
           style="fill: none; stroke-dasharray: 5.55,2.4; stroke-dashoffset: 0; stroke: #000000; stroke-width: 1.5"
           id="path29" />
      </g>
      <g
         id="line2d_4">
        <path
           d="M 100.029464 58.853973  L 164.994216 63.085204  L 229.958967 64.648202  "
           clip-path="url(#pd709c29dae)"
           style="fill: none; stroke-dasharray: 5.55,2.4; stroke-dashoffset: 0; stroke: #000000; stroke-width: 1.5"
           id="path32" />
      </g>
      <g
         id="line2d_5">
        <path
           d="M 35.064713 42.68527  L 100.029464 44.668522  "
           clip-path="url(#pd709c29dae)"
           style="fill: none; stroke: #000000; stroke-width: 1.5; stroke-linecap: square"
           id="path35" />
      </g>
      <g
         id="line2d_6">
        <path
           d="M 100.029464 44.668522  L 164.994216 45.845043  L 229.958967 47.01671  "
           clip-path="url(#pd709c29dae)"
           style="fill: none; stroke: #000000; stroke-width: 1.5; stroke-linecap: square"
           id="path38" />
      </g>
      <g
         id="matplotlib.axis_1">
        <g
           id="xtick_1" />
        <g
           id="xtick_2" />
        <g
           id="xtick_3" />
        <g
           id="xtick_4" />
      </g>
      <g
         id="matplotlib.axis_2">
        <g
           id="ytick_1">
          <g
             id="line2d_7">
            <defs
               id="defs47">
              <path
                 id="m022f79ae40"
                 d="M 0 0  L -3.5 0  "
                 style="stroke: #000000; stroke-width: 0.8" />
            </defs>
            <g
               id="g51">
              <use
                 xlink:href="#m022f79ae40"
                 x="25.32"
                 y="61.213694"
                 style="stroke: #000000; stroke-width: 0.8"
                 id="use49" />
            </g>
          </g>
          <g
             id="text_1">
            <!-- 2.6 -->
            <g
               transform="translate(7.2 64.076819) scale(0.08 -0.08)"
               id="g65">
              <defs
                 id="defs57">
                <path
                   id="ArialMT-32"
                   d="M 3222 541  L 3222 0  L 194 0  Q 188 203 259 391  Q 375 700 629 1000  Q 884 1300 1366 1694  Q 2113 2306 2375 2664  Q 2638 3022 2638 3341  Q 2638 3675 2398 3904  Q 2159 4134 1775 4134  Q 1369 4134 1125 3890  Q 881 3647 878 3216  L 300 3275  Q 359 3922 746 4261  Q 1134 4600 1788 4600  Q 2447 4600 2831 4234  Q 3216 3869 3216 3328  Q 3216 3053 3103 2787  Q 2991 2522 2730 2228  Q 2469 1934 1863 1422  Q 1356 997 1212 845  Q 1069 694 975 541  L 3222 541  z "
                   transform="scale(0.015625)" />
                <path
                   id="ArialMT-2e"
                   d="M 581 0  L 581 641  L 1222 641  L 1222 0  L 581 0  z "
                   transform="scale(0.015625)" />
                <path
                   id="ArialMT-36"
                   d="M 3184 3459  L 2625 3416  Q 2550 3747 2413 3897  Q 2184 4138 1850 4138  Q 1581 4138 1378 3988  Q 1113 3794 959 3422  Q 806 3050 800 2363  Q 1003 2672 1297 2822  Q 1591 2972 1913 2972  Q 2475 2972 2870 2558  Q 3266 2144 3266 1488  Q 3266 1056 3080 686  Q 2894 316 2569 119  Q 2244 -78 1831 -78  Q 1128 -78 684 439  Q 241 956 241 2144  Q 241 3472 731 4075  Q 1159 4600 1884 4600  Q 2425 4600 2770 4297  Q 3116 3994 3184 3459  z M 888 1484  Q 888 1194 1011 928  Q 1134 663 1356 523  Q 1578 384 1822 384  Q 2178 384 2434 671  Q 2691 959 2691 1453  Q 2691 1928 2437 2201  Q 2184 2475 1800 2475  Q 1419 2475 1153 2201  Q 888 1928 888 1484  z "
                   transform="scale(0.015625)" />
              </defs>
              <use
                 xlink:href="#ArialMT-32"
                 id="use59" />
              <use
                 xlink:href="#ArialMT-2e"
                 x="55.615234"
                 id="use61" />
              <use
                 xlink:href="#ArialMT-36"
                 x="83.398438"
                 id="use63" />
            </g>
          </g>
        </g>
        <g
           id="ytick_2">
          <g
             id="line2d_8">
            <g
               id="g71">
              <use
                 xlink:href="#m022f79ae40"
                 x="25.32"
                 y="42.2599"
                 style="stroke: #000000; stroke-width: 0.8"
                 id="use69" />
            </g>
          </g>
          <g
             id="text_2">
            <!-- 2.7 -->
            <g
               transform="translate(7.2 45.123025) scale(0.08 -0.08)"
               id="g83">
              <defs
                 id="defs75">
                <path
                   id="ArialMT-37"
                   d="M 303 3981  L 303 4522  L 3269 4522  L 3269 4084  Q 2831 3619 2401 2847  Q 1972 2075 1738 1259  Q 1569 684 1522 0  L 944 0  Q 953 541 1156 1306  Q 1359 2072 1739 2783  Q 2119 3494 2547 3981  L 303 3981  z "
                   transform="scale(0.015625)" />
              </defs>
              <use
                 xlink:href="#ArialMT-32"
                 id="use77" />
              <use
                 xlink:href="#ArialMT-2e"
                 x="55.615234"
                 id="use79" />
              <use
                 xlink:href="#ArialMT-37"
                 x="83.398438"
                 id="use81" />
            </g>
          </g>
        </g>
      </g>
      <g
         id="PathCollection_1">
        <defs
           id="defs89">
          <path
             id="mddbc6559ab"
             d="M 0 2.738613  C 0.726289 2.738613 1.422928 2.450055 1.936492 1.936492  C 2.450055 1.422928 2.738613 0.726289 2.738613 0  C 2.738613 -0.726289 2.450055 -1.422928 1.936492 -1.936492  C 1.422928 -2.450055 0.726289 -2.738613 0 -2.738613  C -0.726289 -2.738613 -1.422928 -2.450055 -1.936492 -1.936492  C -2.450055 -1.422928 -2.738613 -0.726289 -2.738613 0  C -2.738613 0.726289 -2.450055 1.422928 -1.936492 1.936492  C -1.422928 2.450055 -0.726289 2.738613 0 2.738613  z "
             style="stroke: #000000" />
        </defs>
        <g
           clip-path="url(#pd709c29dae)"
           id="g93">
          <use
             xlink:href="#mddbc6559ab"
             x="35.064713"
             y="42.68527"
             style="fill: #d8d8d8; stroke: #000000"
             id="use91" />
        </g>
      </g>
      <g
         id="line2d_9">
        <defs
           id="defs97">
          <path
             id="me15bdacd21"
             d="M -2.5 0  L 2.5 0  "
             style="stroke: #000000" />
        </defs>
        <g
           id="g103">
          <use
             xlink:href="#me15bdacd21"
             x="25.32"
             y="70.690591"
             style="stroke: #000000"
             id="use99" />
          <use
             xlink:href="#me15bdacd21"
             x="239.70368"
             y="70.690591"
             style="stroke: #000000"
             id="use101" />
        </g>
      </g>
      <g
         id="patch_6">
        <path
           d="M 25.32 70.690591  L 25.32 27.096865  "
           style="fill: none; stroke: #000000; stroke-width: 0.8; stroke-linejoin: miter; stroke-linecap: square"
           id="path106" />
      </g>
      <g
         id="patch_7">
        <path
           d="M 239.70368 70.690591  L 239.70368 27.096865  "
           style="fill: none; stroke: #000000; stroke-width: 0.8; stroke-linejoin: miter; stroke-linecap: square"
           id="path109" />
      </g>
      <g
         id="patch_8">
        <path
           d="M 25.32 27.096865  L 239.70368 27.096865  "
           style="fill: none; stroke: #000000; stroke-width: 0.8; stroke-linejoin: miter; stroke-linecap: square"
           id="path112" />
      </g>
    </g>
    <g
       id="axes_2">
      <g
         id="patch_9">
        <path
           d="M 25.32 258.705498  L 239.70368 258.705498  L 239.70368 84.330591  L 25.32 84.330591  z "
           style="fill: #ffffff"
           id="path116" />
      </g>
      <g
         id="patch_10">
        <path
           d="M 35.064713 147.449004  L 100.029464 187.433658  L 100.029464 150.364687  z "
           clip-path="url(#p9a88fb4728)"
           style="fill: #a78dd8; opacity: 0.3"
           id="path119" />
      </g>
      <g
         id="patch_11">
        <path
           d="M 100.029464 187.433658  L 164.994216 197.632176  L 164.994216 153.087187  L 100.029464 150.364687  z "
           clip-path="url(#p9a88fb4728)"
           style="fill: #a78dd8; opacity: 0.3"
           id="path122" />
      </g>
      <g
         id="patch_12">
        <path
           d="M 164.994216 197.632176  L 229.958967 200.562141  L 229.958967 156.851497  L 164.994216 153.087187  z "
           clip-path="url(#p9a88fb4728)"
           style="fill: #a78dd8; opacity: 0.3"
           id="path125" />
      </g>
      <g
         id="patch_13">
        <path
           d="M 35.064713 143.613884  L 100.029464 222.413959  L 100.029464 154.336987  z "
           clip-path="url(#p9a88fb4728)"
           style="fill: #6dd2ea; opacity: 0.3"
           id="path128" />
      </g>
      <g
         id="patch_14">
        <path
           d="M 100.029464 222.413959  L 164.994216 244.736741  L 164.994216 164.285856  L 100.029464 154.336987  z "
           clip-path="url(#p9a88fb4728)"
           style="fill: #6dd2ea; opacity: 0.3"
           id="path131" />
      </g>
      <g
         id="patch_15">
        <path
           d="M 164.994216 244.736741  L 229.958967 250.779366  L 229.958967 170.981443  L 164.994216 164.285856  z "
           clip-path="url(#p9a88fb4728)"
           style="fill: #6dd2ea; opacity: 0.3"
           id="path134" />
      </g>
      <g
         id="patch_16">
        <path
           d="M 35.064713 92.256724  L 100.029464 199.062385  L 100.029464 117.063932  z "
           clip-path="url(#p9a88fb4728)"
           style="fill: #fb7b71; opacity: 0.3"
           id="path137" />
      </g>
      <g
         id="patch_17">
        <path
           d="M 100.029464 199.062385  L 164.994216 226.208304  L 164.994216 134.037898  L 100.029464 117.063932  z "
           clip-path="url(#p9a88fb4728)"
           style="fill: #fb7b71; opacity: 0.3"
           id="path140" />
      </g>
      <g
         id="patch_18">
        <path
           d="M 164.994216 226.208304  L 229.958967 234.628258  L 229.958967 145.012215  L 164.994216 134.037898  z "
           clip-path="url(#p9a88fb4728)"
           style="fill: #fb7b71; opacity: 0.3"
           id="path143" />
      </g>
      <g
         id="line2d_10">
        <path
           d="M 35.064713 147.449004  L 100.029464 160.146078  "
           clip-path="url(#p9a88fb4728)"
           style="fill: none; stroke-dasharray: 9.6,2.4,1.5,2.4; stroke-dashoffset: 0; stroke: #52318e; stroke-width: 1.5"
           id="path146" />
      </g>
      <g
         id="line2d_11">
        <path
           d="M 100.029464 160.146078  L 164.994216 183.174792  L 229.958967 197.737564  "
           clip-path="url(#p9a88fb4728)"
           style="fill: none; stroke-dasharray: 9.6,2.4,1.5,2.4; stroke-dashoffset: 0; stroke: #52318e; stroke-width: 1.5"
           id="path149" />
      </g>
      <g
         id="line2d_12">
        <path
           d="M 35.064713 147.449004  L 100.029464 187.433658  "
           clip-path="url(#p9a88fb4728)"
           style="fill: none; stroke-dasharray: 5.55,2.4; stroke-dashoffset: 0; stroke: #52318e; stroke-width: 1.5"
           id="path152" />
      </g>
      <g
         id="line2d_13">
        <path
           d="M 100.029464 187.433658  L 164.994216 197.632176  L 229.958967 200.562141  "
           clip-path="url(#p9a88fb4728)"
           style="fill: none; stroke-dasharray: 5.55,2.4; stroke-dashoffset: 0; stroke: #52318e; stroke-width: 1.5"
           id="path155" />
      </g>
      <g
         id="line2d_14">
        <path
           d="M 35.064713 147.449004  L 100.029464 150.364687  "
           clip-path="url(#p9a88fb4728)"
           style="fill: none; stroke: #52318e; stroke-width: 1.5; stroke-linecap: square"
           id="path158" />
      </g>
      <g
         id="line2d_15">
        <path
           d="M 100.029464 150.364687  L 164.994216 153.087187  L 229.958967 156.851497  "
           clip-path="url(#p9a88fb4728)"
           style="fill: none; stroke: #52318e; stroke-width: 1.5; stroke-linecap: square"
           id="path161" />
      </g>
      <g
         id="line2d_16">
        <path
           d="M 35.064713 143.613884  L 100.029464 173.059211  "
           clip-path="url(#p9a88fb4728)"
           style="fill: none; stroke-dasharray: 9.6,2.4,1.5,2.4; stroke-dashoffset: 0; stroke: #167f99; stroke-width: 1.5"
           id="path164" />
      </g>
      <g
         id="line2d_17">
        <path
           d="M 100.029464 173.059211  L 164.994216 217.599437  L 229.958967 243.16551  "
           clip-path="url(#p9a88fb4728)"
           style="fill: none; stroke-dasharray: 9.6,2.4,1.5,2.4; stroke-dashoffset: 0; stroke: #167f99; stroke-width: 1.5"
           id="path167" />
      </g>
      <g
         id="line2d_18">
        <path
           d="M 35.064713 143.613884  L 100.029464 222.413959  "
           clip-path="url(#p9a88fb4728)"
           style="fill: none; stroke-dasharray: 5.55,2.4; stroke-dashoffset: 0; stroke: #167f99; stroke-width: 1.5"
           id="path170" />
      </g>
      <g
         id="line2d_19">
        <path
           d="M 100.029464 222.413959  L 164.994216 244.736741  L 229.958967 250.779366  "
           clip-path="url(#p9a88fb4728)"
           style="fill: none; stroke-dasharray: 5.55,2.4; stroke-dashoffset: 0; stroke: #167f99; stroke-width: 1.5"
           id="path173" />
      </g>
      <g
         id="line2d_20">
        <path
           d="M 35.064713 143.613884  L 100.029464 154.336987  "
           clip-path="url(#p9a88fb4728)"
           style="fill: none; stroke: #167f99; stroke-width: 1.5; stroke-linecap: square"
           id="path176" />
      </g>
      <g
         id="line2d_21">
        <path
           d="M 100.029464 154.336987  L 164.994216 164.285856  L 229.958967 170.981443  "
           clip-path="url(#p9a88fb4728)"
           style="fill: none; stroke: #167f99; stroke-width: 1.5; stroke-linecap: square"
           id="path179" />
      </g>
      <g
         id="line2d_22">
        <path
           d="M 35.064713 92.256724  L 100.029464 137.309099  "
           clip-path="url(#p9a88fb4728)"
           style="fill: none; stroke-dasharray: 9.6,2.4,1.5,2.4; stroke-dashoffset: 0; stroke: #b71205; stroke-width: 1.5"
           id="path182" />
      </g>
      <g
         id="line2d_23">
        <path
           d="M 100.029464 137.309099  L 164.994216 191.109168  L 229.958967 226.873159  "
           clip-path="url(#p9a88fb4728)"
           style="fill: none; stroke-dasharray: 9.6,2.4,1.5,2.4; stroke-dashoffset: 0; stroke: #b71205; stroke-width: 1.5"
           id="path185" />
      </g>
      <g
         id="line2d_24">
        <path
           d="M 35.064713 92.256724  L 100.029464 199.062385  "
           clip-path="url(#p9a88fb4728)"
           style="fill: none; stroke-dasharray: 5.55,2.4; stroke-dashoffset: 0; stroke: #b71205; stroke-width: 1.5"
           id="path188" />
      </g>
      <g
         id="line2d_25">
        <path
           d="M 100.029464 199.062385  L 164.994216 226.208304  L 229.958967 234.628258  "
           clip-path="url(#p9a88fb4728)"
           style="fill: none; stroke-dasharray: 5.55,2.4; stroke-dashoffset: 0; stroke: #b71205; stroke-width: 1.5"
           id="path191" />
      </g>
      <g
         id="line2d_26">
        <path
           d="M 35.064713 92.256724  L 100.029464 117.063932  "
           clip-path="url(#p9a88fb4728)"
           style="fill: none; stroke: #b71205; stroke-width: 1.5; stroke-linecap: square"
           id="path194" />
      </g>
      <g
         id="line2d_27">
        <path
           d="M 100.029464 117.063932  L 164.994216 134.037898  L 229.958967 145.012215  "
           clip-path="url(#p9a88fb4728)"
           style="fill: none; stroke: #b71205; stroke-width: 1.5; stroke-linecap: square"
           id="path197" />
      </g>
      <g
         id="matplotlib.axis_3">
        <g
           id="xtick_5">
          <g
             id="line2d_28">
            <defs
               id="defs201">
              <path
                 id="ma43cad82fb"
                 d="M 0 0  L 0 3.5  "
                 style="stroke: #000000; stroke-width: 0.8" />
            </defs>
            <g
               id="g205">
              <use
                 xlink:href="#ma43cad82fb"
                 x="35.064713"
                 y="258.705498"
                 style="stroke: #000000; stroke-width: 0.8"
                 id="use203" />
            </g>
          </g>
          <g
             id="text_3">
            <!-- 2020 -->
            <g
               transform="translate(26.167213 271.431748) scale(0.08 -0.08)"
               id="g219">
              <defs
                 id="defs209">
                <path
                   id="ArialMT-30"
                   d="M 266 2259  Q 266 3072 433 3567  Q 600 4063 929 4331  Q 1259 4600 1759 4600  Q 2128 4600 2406 4451  Q 2684 4303 2865 4023  Q 3047 3744 3150 3342  Q 3253 2941 3253 2259  Q 3253 1453 3087 958  Q 2922 463 2592 192  Q 2263 -78 1759 -78  Q 1097 -78 719 397  Q 266 969 266 2259  z M 844 2259  Q 844 1131 1108 757  Q 1372 384 1759 384  Q 2147 384 2411 759  Q 2675 1134 2675 2259  Q 2675 3391 2411 3762  Q 2147 4134 1753 4134  Q 1366 4134 1134 3806  Q 844 3388 844 2259  z "
                   transform="scale(0.015625)" />
              </defs>
              <use
                 xlink:href="#ArialMT-32"
                 id="use211" />
              <use
                 xlink:href="#ArialMT-30"
                 x="55.615234"
                 id="use213" />
              <use
                 xlink:href="#ArialMT-32"
                 x="111.230469"
                 id="use215" />
              <use
                 xlink:href="#ArialMT-30"
                 x="166.845703"
                 id="use217" />
            </g>
          </g>
        </g>
        <g
           id="xtick_6">
          <g
             id="line2d_29">
            <g
               id="g225">
              <use
                 xlink:href="#ma43cad82fb"
                 x="100.029464"
                 y="258.705498"
                 style="stroke: #000000; stroke-width: 0.8"
                 id="use223" />
            </g>
          </g>
          <g
             id="text_4">
            <!-- 2030 -->
            <g
               transform="translate(91.131964 271.431748) scale(0.08 -0.08)"
               id="g239">
              <defs
                 id="defs229">
                <path
                   id="ArialMT-33"
                   d="M 269 1209  L 831 1284  Q 928 806 1161 595  Q 1394 384 1728 384  Q 2125 384 2398 659  Q 2672 934 2672 1341  Q 2672 1728 2419 1979  Q 2166 2231 1775 2231  Q 1616 2231 1378 2169  L 1441 2663  Q 1497 2656 1531 2656  Q 1891 2656 2178 2843  Q 2466 3031 2466 3422  Q 2466 3731 2256 3934  Q 2047 4138 1716 4138  Q 1388 4138 1169 3931  Q 950 3725 888 3313  L 325 3413  Q 428 3978 793 4289  Q 1159 4600 1703 4600  Q 2078 4600 2393 4439  Q 2709 4278 2876 4000  Q 3044 3722 3044 3409  Q 3044 3113 2884 2869  Q 2725 2625 2413 2481  Q 2819 2388 3044 2092  Q 3269 1797 3269 1353  Q 3269 753 2831 336  Q 2394 -81 1725 -81  Q 1122 -81 723 278  Q 325 638 269 1209  z "
                   transform="scale(0.015625)" />
              </defs>
              <use
                 xlink:href="#ArialMT-32"
                 id="use231" />
              <use
                 xlink:href="#ArialMT-30"
                 x="55.615234"
                 id="use233" />
              <use
                 xlink:href="#ArialMT-33"
                 x="111.230469"
                 id="use235" />
              <use
                 xlink:href="#ArialMT-30"
                 x="166.845703"
                 id="use237" />
            </g>
          </g>
        </g>
        <g
           id="xtick_7">
          <g
             id="line2d_30">
            <g
               id="g245">
              <use
                 xlink:href="#ma43cad82fb"
                 x="164.994216"
                 y="258.705498"
                 style="stroke: #000000; stroke-width: 0.8"
                 id="use243" />
            </g>
          </g>
          <g
             id="text_5">
            <!-- 2040 -->
            <g
               transform="translate(156.096716 271.431748) scale(0.08 -0.08)"
               id="g259">
              <defs
                 id="defs249">
                <path
                   id="ArialMT-34"
                   d="M 2069 0  L 2069 1097  L 81 1097  L 81 1613  L 2172 4581  L 2631 4581  L 2631 1613  L 3250 1613  L 3250 1097  L 2631 1097  L 2631 0  L 2069 0  z M 2069 1613  L 2069 3678  L 634 1613  L 2069 1613  z "
                   transform="scale(0.015625)" />
              </defs>
              <use
                 xlink:href="#ArialMT-32"
                 id="use251" />
              <use
                 xlink:href="#ArialMT-30"
                 x="55.615234"
                 id="use253" />
              <use
                 xlink:href="#ArialMT-34"
                 x="111.230469"
                 id="use255" />
              <use
                 xlink:href="#ArialMT-30"
                 x="166.845703"
                 id="use257" />
            </g>
          </g>
        </g>
        <g
           id="xtick_8">
          <g
             id="line2d_31">
            <g
               id="g265">
              <use
                 xlink:href="#ma43cad82fb"
                 x="229.958967"
                 y="258.705498"
                 style="stroke: #000000; stroke-width: 0.8"
                 id="use263" />
            </g>
          </g>
          <g
             id="text_6">
            <!-- 2050 -->
            <g
               transform="translate(221.061467 271.431748) scale(0.08 -0.08)"
               id="g279">
              <defs
                 id="defs269">
                <path
                   id="ArialMT-35"
                   d="M 266 1200  L 856 1250  Q 922 819 1161 601  Q 1400 384 1738 384  Q 2144 384 2425 690  Q 2706 997 2706 1503  Q 2706 1984 2436 2262  Q 2166 2541 1728 2541  Q 1456 2541 1237 2417  Q 1019 2294 894 2097  L 366 2166  L 809 4519  L 3088 4519  L 3088 3981  L 1259 3981  L 1013 2750  Q 1425 3038 1878 3038  Q 2478 3038 2890 2622  Q 3303 2206 3303 1553  Q 3303 931 2941 478  Q 2500 -78 1738 -78  Q 1113 -78 717 272  Q 322 622 266 1200  z "
                   transform="scale(0.015625)" />
              </defs>
              <use
                 xlink:href="#ArialMT-32"
                 id="use271" />
              <use
                 xlink:href="#ArialMT-30"
                 x="55.615234"
                 id="use273" />
              <use
                 xlink:href="#ArialMT-35"
                 x="111.230469"
                 id="use275" />
              <use
                 xlink:href="#ArialMT-30"
                 x="166.845703"
                 id="use277" />
            </g>
          </g>
        </g>
      </g>
      <g
         id="matplotlib.axis_4">
        <g
           id="ytick_3">
          <g
             id="line2d_32">
            <g
               id="g286">
              <use
                 xlink:href="#m022f79ae40"
                 x="25.32"
                 y="258.224375"
                 style="stroke: #000000; stroke-width: 0.8"
                 id="use284" />
            </g>
          </g>
          <g
             id="text_7">
            <!-- 0.2 -->
            <g
               transform="translate(7.2 261.0875) scale(0.08 -0.08)"
               id="g295">
              <use
                 xlink:href="#ArialMT-30"
                 id="use289" />
              <use
                 xlink:href="#ArialMT-2e"
                 x="55.615234"
                 id="use291" />
              <use
                 xlink:href="#ArialMT-32"
                 x="83.398438"
                 id="use293" />
            </g>
          </g>
        </g>
        <g
           id="ytick_4">
          <g
             id="line2d_33">
            <g
               id="g301">
              <use
                 xlink:href="#m022f79ae40"
                 x="25.32"
                 y="223.162195"
                 style="stroke: #000000; stroke-width: 0.8"
                 id="use299" />
            </g>
          </g>
          <g
             id="text_8">
            <!-- 0.4 -->
            <g
               transform="translate(7.2 226.02532) scale(0.08 -0.08)"
               id="g310">
              <use
                 xlink:href="#ArialMT-30"
                 id="use304" />
              <use
                 xlink:href="#ArialMT-2e"
                 x="55.615234"
                 id="use306" />
              <use
                 xlink:href="#ArialMT-34"
                 x="83.398438"
                 id="use308" />
            </g>
          </g>
        </g>
        <g
           id="ytick_5">
          <g
             id="line2d_34">
            <g
               id="g316">
              <use
                 xlink:href="#m022f79ae40"
                 x="25.32"
                 y="188.100015"
                 style="stroke: #000000; stroke-width: 0.8"
                 id="use314" />
            </g>
          </g>
          <g
             id="text_9">
            <!-- 0.6 -->
            <g
               transform="translate(7.2 190.96314) scale(0.08 -0.08)"
               id="g325">
              <use
                 xlink:href="#ArialMT-30"
                 id="use319" />
              <use
                 xlink:href="#ArialMT-2e"
                 x="55.615234"
                 id="use321" />
              <use
                 xlink:href="#ArialMT-36"
                 x="83.398438"
                 id="use323" />
            </g>
          </g>
        </g>
        <g
           id="ytick_6">
          <g
             id="line2d_35">
            <g
               id="g331">
              <use
                 xlink:href="#m022f79ae40"
                 x="25.32"
                 y="153.037835"
                 style="stroke: #000000; stroke-width: 0.8"
                 id="use329" />
            </g>
          </g>
          <g
             id="text_10">
            <!-- 0.8 -->
            <g
               transform="translate(7.2 155.90096) scale(0.08 -0.08)"
               id="g343">
              <defs
                 id="defs335">
                <path
                   id="ArialMT-38"
                   d="M 1131 2484  Q 781 2613 612 2850  Q 444 3088 444 3419  Q 444 3919 803 4259  Q 1163 4600 1759 4600  Q 2359 4600 2725 4251  Q 3091 3903 3091 3403  Q 3091 3084 2923 2848  Q 2756 2613 2416 2484  Q 2838 2347 3058 2040  Q 3278 1734 3278 1309  Q 3278 722 2862 322  Q 2447 -78 1769 -78  Q 1091 -78 675 323  Q 259 725 259 1325  Q 259 1772 486 2073  Q 713 2375 1131 2484  z M 1019 3438  Q 1019 3113 1228 2906  Q 1438 2700 1772 2700  Q 2097 2700 2305 2904  Q 2513 3109 2513 3406  Q 2513 3716 2298 3927  Q 2084 4138 1766 4138  Q 1444 4138 1231 3931  Q 1019 3725 1019 3438  z M 838 1322  Q 838 1081 952 856  Q 1066 631 1291 507  Q 1516 384 1775 384  Q 2178 384 2440 643  Q 2703 903 2703 1303  Q 2703 1709 2433 1975  Q 2163 2241 1756 2241  Q 1359 2241 1098 1978  Q 838 1716 838 1322  z "
                   transform="scale(0.015625)" />
              </defs>
              <use
                 xlink:href="#ArialMT-30"
                 id="use337" />
              <use
                 xlink:href="#ArialMT-2e"
                 x="55.615234"
                 id="use339" />
              <use
                 xlink:href="#ArialMT-38"
                 x="83.398438"
                 id="use341" />
            </g>
          </g>
        </g>
        <g
           id="ytick_7">
          <g
             id="line2d_36">
            <g
               id="g349">
              <use
                 xlink:href="#m022f79ae40"
                 x="25.32"
                 y="117.975655"
                 style="stroke: #000000; stroke-width: 0.8"
                 id="use347" />
            </g>
          </g>
          <g
             id="text_11">
            <!-- 1.0 -->
            <g
               transform="translate(7.2 120.83878) scale(0.08 -0.08)"
               id="g361">
              <defs
                 id="defs353">
                <path
                   id="ArialMT-31"
                   d="M 2384 0  L 1822 0  L 1822 3584  Q 1619 3391 1289 3197  Q 959 3003 697 2906  L 697 3450  Q 1169 3672 1522 3987  Q 1875 4303 2022 4600  L 2384 4600  L 2384 0  z "
                   transform="scale(0.015625)" />
              </defs>
              <use
                 xlink:href="#ArialMT-31"
                 id="use355" />
              <use
                 xlink:href="#ArialMT-2e"
                 x="55.615234"
                 id="use357" />
              <use
                 xlink:href="#ArialMT-30"
                 x="83.398438"
                 id="use359" />
            </g>
          </g>
        </g>
      </g>
      <g
         id="PathCollection_2">
        <defs
           id="defs367">
          <path
             id="m9bb9f80993"
             d="M -0 4.472136  L 2.683282 0  L 0 -4.472136  L -2.683282 -0  z "
             style="stroke: #52318e" />
        </defs>
        <g
           clip-path="url(#p9a88fb4728)"
           id="g371">
          <use
             xlink:href="#m9bb9f80993"
             x="35.064713"
             y="147.449004"
             style="fill: #a78dd8; stroke: #52318e"
             id="use369" />
        </g>
      </g>
      <g
         id="PathCollection_3">
        <defs
           id="defs375">
          <path
             id="m00e837906c"
             d="M 0 -3.162278  L -3.162278 3.162278  L 3.162278 3.162278  z "
             style="stroke: #167f99" />
        </defs>
        <g
           clip-path="url(#p9a88fb4728)"
           id="g379">
          <use
             xlink:href="#m00e837906c"
             x="35.064713"
             y="143.613884"
             style="fill: #6dd2ea; stroke: #167f99"
             id="use377" />
        </g>
      </g>
      <g
         id="PathCollection_4">
        <defs
           id="defs383">
          <path
             id="mbbd5572491"
             d="M 0 -3.162278  L -2.738613 -1.581139  L -2.738613 1.581139  L -0 3.162278  L 2.738613 1.581139  L 2.738613 -1.581139  z "
             style="stroke: #b71205" />
        </defs>
        <g
           clip-path="url(#p9a88fb4728)"
           id="g387">
          <use
             xlink:href="#mbbd5572491"
             x="35.064713"
             y="92.256724"
             style="fill: #fb7b71; stroke: #b71205"
             id="use385" />
        </g>
      </g>
      <g
         id="line2d_37">
        <g
           id="g394">
          <use
             xlink:href="#me15bdacd21"
             x="25.32"
             y="84.330591"
             style="stroke: #000000"
             id="use390" />
          <use
             xlink:href="#me15bdacd21"
             x="239.70368"
             y="84.330591"
             style="stroke: #000000"
             id="use392" />
        </g>
      </g>
      <g
         id="patch_19">
        <path
           d="M 25.32 258.705498  L 25.32 84.330591  "
           style="fill: none; stroke: #000000; stroke-width: 0.8; stroke-linejoin: miter; stroke-linecap: square"
           id="path397" />
      </g>
      <g
         id="patch_20">
        <path
           d="M 239.70368 258.705498  L 239.70368 84.330591  "
           style="fill: none; stroke: #000000; stroke-width: 0.8; stroke-linejoin: miter; stroke-linecap: square"
           id="path400" />
      </g>
      <g
         id="patch_21">
        <path
           d="M 25.32 258.705498  L 239.70368 258.705498  "
           style="fill: none; stroke: #000000; stroke-width: 0.8; stroke-linejoin: miter; stroke-linecap: square"
           id="path403" />
      </g>
    </g>
    <g
       id="text_12"
       transform="translate(-0.0249335)">
      <!-- b Ammonia -->
      <g
         transform="matrix(0.09,0,0,-0.09,100.3695,13.642031)"
         id="g435">
        <defs
           id="defs415">
          <path
             id="Arial-BoldMT-62"
             d="m 422,0 v 4581 h 878 V 2931 q 406,463 963,463 606,0 1003,-439 397,-439 397,-1261 0,-850 -405,-1310 -405,-459 -983,-459 -284,0 -561,142 -276,142 -476,421 V 0 Z m 872,1731 q 0,-515 162,-762 228,-350 607,-350 290,0 495,248 205,249 205,783 0,569 -207,820 -206,252 -528,252 -315,0 -525,-246 -209,-245 -209,-745 z"
             transform="scale(0.015625)" />
          <path
             id="Arial-BoldMT-20"
             transform="scale(0.015625)"
             d="" />
          <path
             id="Arial-BoldMT-41"
             d="M 4597,0 H 3591 L 3191,1041 H 1359 L 981,0 H 0 l 1784,4581 h 979 z M 2894,1813 2263,3513 1644,1813 Z"
             transform="scale(0.015625)" />
          <path
             id="Arial-BoldMT-6d"
             d="m 394,3319 h 809 v -453 q 435,528 1035,528 318,0 552,-132 235,-131 385,-396 219,265 472,396 253,132 541,132 365,0 618,-149 253,-148 378,-436 91,-212 91,-687 V 0 h -878 v 1897 q 0,494 -91,637 -122,188 -375,188 -184,0 -347,-113 -162,-112 -234,-329 -72,-217 -72,-686 V 0 h -878 v 1819 q 0,484 -47,624 -47,141 -146,210 -98,69 -266,69 -203,0 -366,-110 -162,-109 -233,-315 -70,-206 -70,-684 V 0 H 394 Z"
             transform="scale(0.015625)" />
          <path
             id="Arial-BoldMT-6f"
             d="m 256,1706 q 0,438 216,847 216,410 611,625 395,216 883,216 753,0 1234,-489 481,-489 481,-1236 Q 3681,916 3195,420 2709,-75 1972,-75 1516,-75 1102,131 688,338 472,736 256,1134 256,1706 Z m 900,-47 q 0,-493 234,-756 235,-262 579,-262 344,0 576,262 233,263 233,763 0,487 -233,749 -232,263 -576,263 -344,0 -579,-263 -234,-262 -234,-756 z"
             transform="scale(0.015625)" />
          <path
             id="Arial-BoldMT-6e"
             d="m 3478,0 h -878 v 1694 q 0,537 -56,695 -56,158 -183,245 -127,88 -305,88 -228,0 -409,-125 -181,-125 -249,-332 -67,-206 -67,-762 V 0 H 453 v 3319 h 816 v -488 q 434,563 1094,563 290,0 530,-105 241,-105 364,-268 124,-162 172,-368 49,-206 49,-590 z"
             transform="scale(0.015625)" />
          <path
             id="Arial-BoldMT-69"
             d="m 459,3769 v 812 h 879 V 3769 Z M 459,0 v 3319 h 879 V 0 Z"
             transform="scale(0.015625)" />
          <path
             id="Arial-BoldMT-61"
             d="m 1116,2306 -797,144 q 134,481 462,712 328,232 975,232 588,0 875,-139 288,-139 405,-353 117,-214 117,-786 l -9,-1025 q 0,-438 42,-646 42,-207 158,-445 h -869 q -34,88 -84,259 -22,79 -32,104 Q 2134,144 1878,34 1622,-75 1331,-75 819,-75 523,203 228,481 228,906 q 0,282 134,502 135,220 377,337 242,118 699,205 615,116 853,216 v 87 q 0,253 -125,361 -125,108 -472,108 -235,0 -366,-92 -131,-92 -212,-324 z m 1175,-712 q -169,-56 -535,-135 -365,-78 -478,-153 -172,-122 -172,-309 0,-184 137,-319 138,-134 351,-134 237,0 453,156 159,119 209,291 35,112 35,428 z"
             transform="scale(0.015625)" />
        </defs>
        <use
           xlink:href="#Arial-BoldMT-62"
           id="use417"
           transform="translate(-1041.5334)" />
        <use
           xlink:href="#Arial-BoldMT-20"
           x="61.083984"
           id="use419" />
        <use
           xlink:href="#Arial-BoldMT-41"
           x="85.117188"
           id="use421" />
        <use
           xlink:href="#Arial-BoldMT-6d"
           x="157.33398"
           id="use423" />
        <use
           xlink:href="#Arial-BoldMT-6d"
           x="246.25"
           id="use425" />
        <use
           xlink:href="#Arial-BoldMT-6f"
           x="335.16602"
           id="use427" />
        <use
           xlink:href="#Arial-BoldMT-6e"
           x="396.25"
           id="use429" />
        <use
           xlink:href="#Arial-BoldMT-69"
           x="457.33398"
           id="use431" />
        <use
           xlink:href="#Arial-BoldMT-61"
           x="485.11719"
           id="use433" />
      </g>
    </g>
  </g>
  <defs
     id="defs445">
    <clipPath
       id="pd709c29dae">
      <rect
         x="25.32"
         y="27.096865"
         width="214.38368"
         height="43.593727"
         id="rect439" />
    </clipPath>
    <clipPath
       id="p9a88fb4728">
      <rect
         x="25.32"
         y="84.330591"
         width="214.38368"
         height="174.374906"
         id="rect442" />
    </clipPath>
  </defs>
</svg>
