<?xml version="1.0" encoding="UTF-8" standalone="no"?>
<svg
   width="204.615936pt"
   height="207.167256pt"
   viewBox="0 0 204.615936 207.167256"
   version="1.1"
   id="svg449"
   sodipodi:docname="Demand and emissions.svg"
   inkscape:version="1.2.2 (732a01da63, 2022-12-09)"
   inkscape:export-filename="Demand and emissions.png"
   inkscape:export-xdpi="1200"
   inkscape:export-ydpi="1200"
   xmlns:inkscape="http://www.inkscape.org/namespaces/inkscape"
   xmlns:sodipodi="http://sodipodi.sourceforge.net/DTD/sodipodi-0.dtd"
   xmlns:xlink="http://www.w3.org/1999/xlink"
   xmlns="http://www.w3.org/2000/svg"
   xmlns:svg="http://www.w3.org/2000/svg"
   xmlns:rdf="http://www.w3.org/1999/02/22-rdf-syntax-ns#"
   xmlns:cc="http://creativecommons.org/ns#"
   xmlns:dc="http://purl.org/dc/elements/1.1/">
  <sodipodi:namedview
     id="namedview451"
     pagecolor="#ffffff"
     bordercolor="#000000"
     borderopacity="0.25"
     inkscape:showpageshadow="2"
     inkscape:pageopacity="0.0"
     inkscape:pagecheckerboard="0"
     inkscape:deskcolor="#d1d1d1"
     inkscape:document-units="pt"
     showgrid="false"
     inkscape:zoom="2.4165576"
     inkscape:cx="129.10927"
     inkscape:cy="125.79878"
     inkscape:window-width="1920"
     inkscape:window-height="1137"
     inkscape:window-x="-8"
     inkscape:window-y="224"
     inkscape:window-maximized="1"
     inkscape:current-layer="g385" />
  <metadata
     id="metadata2">
    <rdf:RDF>
      <cc:Work>
        <dc:type
           rdf:resource="http://purl.org/dc/dcmitype/StillImage" />
        <dc:date>2024-01-16T13:59:45.148956</dc:date>
        <dc:format>image/svg+xml</dc:format>
        <dc:creator>
          <cc:Agent>
            <dc:title>Matplotlib v3.7.1, https://matplotlib.org/</dc:title>
          </cc:Agent>
        </dc:creator>
      </cc:Work>
    </rdf:RDF>
  </metadata>
  <defs
     id="defs6">
    <style
       type="text/css"
       id="style4">*{stroke-linejoin: round; stroke-linecap: butt}</style>
  </defs>
  <g
     id="figure_1">
    <g
       id="patch_1">
      <path
         d="M 0 207.167256  L 204.615936 207.167256  L 204.615936 0  L 0 0  z "
         style="fill: #ffffff"
         id="path8" />
    </g>
    <g
       id="axes_1">
      <g
         id="patch_2">
        <path
           d="M 43.62875 185.651006  L 197.415936 185.651006  L 197.415936 19.642031  L 43.62875 19.642031  z "
           style="fill: #ffffff"
           id="path11" />
      </g>
      <g
         id="patch_3">
        <path
           d="M 50.882863 132.829969  L 74.096023 132.829969  L 74.096023 127.094235  L 50.882863 127.094235  z "
           clip-path="url(#p98b9ef036f)"
           style="fill: #fb7b71"
           id="path14" />
      </g>
      <g
         id="patch_4">
        <path
           d="M 79.899313 132.829969  L 103.112473 132.829969  L 103.112473 106.378116  L 79.899313 106.378116  z "
           clip-path="url(#p98b9ef036f)"
           style="fill: #fb7b71"
           id="path17" />
      </g>
      <g
         id="patch_5">
        <path
           d="M 108.915763 132.829969  L 132.128923 132.829969  L 132.128923 132.829969  L 108.915763 132.829969  z "
           clip-path="url(#p98b9ef036f)"
           style="fill: #fb7b71"
           id="path20" />
      </g>
      <g
         id="patch_6">
        <path
           d="M 137.932213 132.829969  L 161.145373 132.829969  L 161.145373 138.367858  L 137.932213 138.367858  z "
           clip-path="url(#p98b9ef036f)"
           style="fill: #fb7b71"
           id="path23" />
      </g>
      <g
         id="patch_7">
        <path
           d="M 166.948663 132.829969  L 190.161823 132.829969  L 190.161823 177.512807  L 166.948663 177.512807  z "
           clip-path="url(#p98b9ef036f)"
           style="fill: #fb7b71"
           id="path26" />
      </g>
      <g
         id="patch_8">
        <path
           d="M 50.882863 127.094235  L 74.096023 127.094235  L 74.096023 89.433981  L 50.882863 89.433981  z "
           clip-path="url(#p98b9ef036f)"
           style="fill: #a78dd8"
           id="path29" />
      </g>
      <g
         id="patch_9">
        <path
           d="M 79.899313 106.378116  L 103.112473 106.378116  L 103.112473 36.262808  L 79.899313 36.262808  z "
           clip-path="url(#p98b9ef036f)"
           style="fill: #a78dd8"
           id="path32" />
      </g>
      <g
         id="patch_10">
        <path
           d="M 108.915763 132.829969  L 132.128923 132.829969  L 132.128923 132.829969  L 108.915763 132.829969  z "
           clip-path="url(#p98b9ef036f)"
           style="fill: #a78dd8"
           id="path35" />
      </g>
      <g
         id="patch_11">
        <path
           d="M 137.932213 132.829969  L 161.145373 132.829969  L 161.145373 118.86691  L 137.932213 118.86691  z "
           clip-path="url(#p98b9ef036f)"
           style="fill: #a78dd8"
           id="path38" />
      </g>
      <g
         id="patch_12">
        <path
           d="M 166.948663 132.829969  L 190.161823 132.829969  L 190.161823 120.394978  L 166.948663 120.394978  z "
           clip-path="url(#p98b9ef036f)"
           style="fill: #a78dd8"
           id="path41" />
      </g>
      <g
         id="matplotlib.axis_1">
        <g
           id="xtick_1">
          <g
             id="line2d_1">
            <defs
               id="defs45">
              <path
                 id="m6057e8efbd"
                 d="M 0 0  L 0 3.5  "
                 style="stroke: #000000; stroke-width: 0.8" />
            </defs>
            <g
               id="g49">
              <use
                 xlink:href="#m6057e8efbd"
                 x="62.489443"
                 y="185.651006"
                 style="stroke: #000000; stroke-width: 0.8"
                 id="use47" />
            </g>
          </g>
          <g
             id="text_1">
            <!-- 2020 -->
            <g
               transform="translate(53.591943 198.377256) scale(0.08 -0.08)"
               id="g64">
              <defs
                 id="defs54">
                <path
                   id="ArialMT-32"
                   d="M 3222 541  L 3222 0  L 194 0  Q 188 203 259 391  Q 375 700 629 1000  Q 884 1300 1366 1694  Q 2113 2306 2375 2664  Q 2638 3022 2638 3341  Q 2638 3675 2398 3904  Q 2159 4134 1775 4134  Q 1369 4134 1125 3890  Q 881 3647 878 3216  L 300 3275  Q 359 3922 746 4261  Q 1134 4600 1788 4600  Q 2447 4600 2831 4234  Q 3216 3869 3216 3328  Q 3216 3053 3103 2787  Q 2991 2522 2730 2228  Q 2469 1934 1863 1422  Q 1356 997 1212 845  Q 1069 694 975 541  L 3222 541  z "
                   transform="scale(0.015625)" />
                <path
                   id="ArialMT-30"
                   d="M 266 2259  Q 266 3072 433 3567  Q 600 4063 929 4331  Q 1259 4600 1759 4600  Q 2128 4600 2406 4451  Q 2684 4303 2865 4023  Q 3047 3744 3150 3342  Q 3253 2941 3253 2259  Q 3253 1453 3087 958  Q 2922 463 2592 192  Q 2263 -78 1759 -78  Q 1097 -78 719 397  Q 266 969 266 2259  z M 844 2259  Q 844 1131 1108 757  Q 1372 384 1759 384  Q 2147 384 2411 759  Q 2675 1134 2675 2259  Q 2675 3391 2411 3762  Q 2147 4134 1753 4134  Q 1366 4134 1134 3806  Q 844 3388 844 2259  z "
                   transform="scale(0.015625)" />
              </defs>
              <use
                 xlink:href="#ArialMT-32"
                 id="use56" />
              <use
                 xlink:href="#ArialMT-30"
                 x="55.615234"
                 id="use58" />
              <use
                 xlink:href="#ArialMT-32"
                 x="111.230469"
                 id="use60" />
              <use
                 xlink:href="#ArialMT-30"
                 x="166.845703"
                 id="use62" />
            </g>
          </g>
        </g>
        <g
           id="xtick_2">
          <g
             id="line2d_2">
            <g
               id="g70">
              <use
                 xlink:href="#m6057e8efbd"
                 x="91.505893"
                 y="185.651006"
                 style="stroke: #000000; stroke-width: 0.8"
                 id="use68" />
            </g>
          </g>
          <g
             id="text_2">
            <!-- 2050 -->
            <g
               transform="translate(82.608393 198.377256) scale(0.08 -0.08)"
               id="g84">
              <defs
                 id="defs74">
                <path
                   id="ArialMT-35"
                   d="M 266 1200  L 856 1250  Q 922 819 1161 601  Q 1400 384 1738 384  Q 2144 384 2425 690  Q 2706 997 2706 1503  Q 2706 1984 2436 2262  Q 2166 2541 1728 2541  Q 1456 2541 1237 2417  Q 1019 2294 894 2097  L 366 2166  L 809 4519  L 3088 4519  L 3088 3981  L 1259 3981  L 1013 2750  Q 1425 3038 1878 3038  Q 2478 3038 2890 2622  Q 3303 2206 3303 1553  Q 3303 931 2941 478  Q 2500 -78 1738 -78  Q 1113 -78 717 272  Q 322 622 266 1200  z "
                   transform="scale(0.015625)" />
              </defs>
              <use
                 xlink:href="#ArialMT-32"
                 id="use76" />
              <use
                 xlink:href="#ArialMT-30"
                 x="55.615234"
                 id="use78" />
              <use
                 xlink:href="#ArialMT-35"
                 x="111.230469"
                 id="use80" />
              <use
                 xlink:href="#ArialMT-30"
                 x="166.845703"
                 id="use82" />
            </g>
          </g>
        </g>
        <g
           id="xtick_3">
          <g
             id="line2d_3">
            <g
               id="g90">
              <use
                 xlink:href="#m6057e8efbd"
                 x="120.522343"
                 y="185.651006"
                 style="stroke: #000000; stroke-width: 0.8"
                 id="use88" />
            </g>
          </g>
        </g>
        <g
           id="xtick_4">
          <g
             id="line2d_4">
            <g
               id="g96">
              <use
                 xlink:href="#m6057e8efbd"
                 x="149.538793"
                 y="185.651006"
                 style="stroke: #000000; stroke-width: 0.8"
                 id="use94" />
            </g>
          </g>
          <g
             id="text_3">
            <!-- 2020 -->
            <g
               transform="translate(140.641293 198.377256) scale(0.08 -0.08)"
               id="g107">
              <use
                 xlink:href="#ArialMT-32"
                 id="use99" />
              <use
                 xlink:href="#ArialMT-30"
                 x="55.615234"
                 id="use101" />
              <use
                 xlink:href="#ArialMT-32"
                 x="111.230469"
                 id="use103" />
              <use
                 xlink:href="#ArialMT-30"
                 x="166.845703"
                 id="use105" />
            </g>
          </g>
        </g>
        <g
           id="xtick_5">
          <g
             id="line2d_5">
            <g
               id="g113">
              <use
                 xlink:href="#m6057e8efbd"
                 x="178.555243"
                 y="185.651006"
                 style="stroke: #000000; stroke-width: 0.8"
                 id="use111" />
            </g>
          </g>
          <g
             id="text_4">
            <!-- 2050 -->
            <g
               transform="translate(169.657743 198.377256) scale(0.08 -0.08)"
               id="g124">
              <use
                 xlink:href="#ArialMT-32"
                 id="use116" />
              <use
                 xlink:href="#ArialMT-30"
                 x="55.615234"
                 id="use118" />
              <use
                 xlink:href="#ArialMT-35"
                 x="111.230469"
                 id="use120" />
              <use
                 xlink:href="#ArialMT-30"
                 x="166.845703"
                 id="use122" />
            </g>
          </g>
        </g>
      </g>
      <g
         id="matplotlib.axis_2">
        <g
           id="ytick_1">
          <g
             id="line2d_6">
            <defs
               id="defs130">
              <path
                 id="m24d775e423"
                 d="M 0 0  L -3.5 0  "
                 style="stroke: #000000; stroke-width: 0.8" />
            </defs>
            <g
               id="g134">
              <use
                 xlink:href="#m24d775e423"
                 x="43.62875"
                 y="170.559281"
                 style="stroke: #000000; stroke-width: 0.8"
                 id="use132" />
            </g>
          </g>
          <g
             id="text_5">
            <!-- −500 -->
            <g
               transform="translate(18.61 173.422406) scale(0.08 -0.08)"
               id="g148">
              <defs
                 id="defs138">
                <path
                   id="ArialMT-2212"
                   d="M 3381 1997  L 356 1997  L 356 2522  L 3381 2522  L 3381 1997  z "
                   transform="scale(0.015625)" />
              </defs>
              <use
                 xlink:href="#ArialMT-2212"
                 id="use140" />
              <use
                 xlink:href="#ArialMT-35"
                 x="58.398438"
                 id="use142" />
              <use
                 xlink:href="#ArialMT-30"
                 x="114.013672"
                 id="use144" />
              <use
                 xlink:href="#ArialMT-30"
                 x="169.628906"
                 id="use146" />
            </g>
          </g>
        </g>
        <g
           id="ytick_2">
          <g
             id="line2d_7">
            <g
               id="g154">
              <use
                 xlink:href="#m24d775e423"
                 x="43.62875"
                 y="132.829969"
                 style="stroke: #000000; stroke-width: 0.8"
                 id="use152" />
            </g>
          </g>
          <g
             id="text_6">
            <!-- 0 -->
            <g
               transform="translate(32.18 135.693094) scale(0.08 -0.08)"
               id="g159">
              <use
                 xlink:href="#ArialMT-30"
                 id="use157" />
            </g>
          </g>
        </g>
        <g
           id="ytick_3">
          <g
             id="line2d_8">
            <g
               id="g165">
              <use
                 xlink:href="#m24d775e423"
                 x="43.62875"
                 y="95.100656"
                 style="stroke: #000000; stroke-width: 0.8"
                 id="use163" />
            </g>
          </g>
          <g
             id="text_7">
            <!-- 500 -->
            <g
               transform="translate(23.2825 97.963781) scale(0.08 -0.08)"
               id="g174">
              <use
                 xlink:href="#ArialMT-35"
                 id="use168" />
              <use
                 xlink:href="#ArialMT-30"
                 x="55.615234"
                 id="use170" />
              <use
                 xlink:href="#ArialMT-30"
                 x="111.230469"
                 id="use172" />
            </g>
          </g>
        </g>
        <g
           id="ytick_4">
          <g
             id="line2d_9">
            <g
               id="g180">
              <use
                 xlink:href="#m24d775e423"
                 x="43.62875"
                 y="57.371344"
                 style="stroke: #000000; stroke-width: 0.8"
                 id="use178" />
            </g>
          </g>
          <g
             id="text_8">
            <!-- 1000 -->
            <g
               transform="translate(18.83375 60.234469) scale(0.08 -0.08)"
               id="g194">
              <defs
                 id="defs184">
                <path
                   id="ArialMT-31"
                   d="M 2384 0  L 1822 0  L 1822 3584  Q 1619 3391 1289 3197  Q 959 3003 697 2906  L 697 3450  Q 1169 3672 1522 3987  Q 1875 4303 2022 4600  L 2384 4600  L 2384 0  z "
                   transform="scale(0.015625)" />
              </defs>
              <use
                 xlink:href="#ArialMT-31"
                 id="use186" />
              <use
                 xlink:href="#ArialMT-30"
                 x="55.615234"
                 id="use188" />
              <use
                 xlink:href="#ArialMT-30"
                 x="111.230469"
                 id="use190" />
              <use
                 xlink:href="#ArialMT-30"
                 x="166.845703"
                 id="use192" />
            </g>
          </g>
        </g>
        <g
           id="ytick_5">
          <g
             id="line2d_10">
            <g
               id="g200">
              <use
                 xlink:href="#m24d775e423"
                 x="43.62875"
                 y="19.642031"
                 style="stroke: #000000; stroke-width: 0.8"
                 id="use198" />
            </g>
          </g>
          <g
             id="text_9">
            <!-- 1500 -->
            <g
               transform="translate(18.83375 22.505156) scale(0.08 -0.08)"
               id="g211">
              <use
                 xlink:href="#ArialMT-31"
                 id="use203" />
              <use
                 xlink:href="#ArialMT-35"
                 x="55.615234"
                 id="use205" />
              <use
                 xlink:href="#ArialMT-30"
                 x="111.230469"
                 id="use207" />
              <use
                 xlink:href="#ArialMT-30"
                 x="166.845703"
                 id="use209" />
            </g>
          </g>
        </g>
        <g
           id="text_10">
          <!-- [Mt per year] -->
          <g
             transform="translate(12.92625 125.095894) rotate(-90) scale(0.08 -0.08)"
             id="g253">
            <defs
               id="defs225">
              <path
                 id="ArialMT-5b"
                 d="M 434 -1272  L 434 4581  L 1675 4581  L 1675 4116  L 997 4116  L 997 -806  L 1675 -806  L 1675 -1272  L 434 -1272  z "
                 transform="scale(0.015625)" />
              <path
                 id="ArialMT-4d"
                 d="M 475 0  L 475 4581  L 1388 4581  L 2472 1338  Q 2622 884 2691 659  Q 2769 909 2934 1394  L 4031 4581  L 4847 4581  L 4847 0  L 4263 0  L 4263 3834  L 2931 0  L 2384 0  L 1059 3900  L 1059 0  L 475 0  z "
                 transform="scale(0.015625)" />
              <path
                 id="ArialMT-74"
                 d="M 1650 503  L 1731 6  Q 1494 -44 1306 -44  Q 1000 -44 831 53  Q 663 150 594 308  Q 525 466 525 972  L 525 2881  L 113 2881  L 113 3319  L 525 3319  L 525 4141  L 1084 4478  L 1084 3319  L 1650 3319  L 1650 2881  L 1084 2881  L 1084 941  Q 1084 700 1114 631  Q 1144 563 1211 522  Q 1278 481 1403 481  Q 1497 481 1650 503  z "
                 transform="scale(0.015625)" />
              <path
                 id="ArialMT-20"
                 transform="scale(0.015625)" />
              <path
                 id="ArialMT-70"
                 d="M 422 -1272  L 422 3319  L 934 3319  L 934 2888  Q 1116 3141 1344 3267  Q 1572 3394 1897 3394  Q 2322 3394 2647 3175  Q 2972 2956 3137 2557  Q 3303 2159 3303 1684  Q 3303 1175 3120 767  Q 2938 359 2589 142  Q 2241 -75 1856 -75  Q 1575 -75 1351 44  Q 1128 163 984 344  L 984 -1272  L 422 -1272  z M 931 1641  Q 931 1000 1190 694  Q 1450 388 1819 388  Q 2194 388 2461 705  Q 2728 1022 2728 1688  Q 2728 2322 2467 2637  Q 2206 2953 1844 2953  Q 1484 2953 1207 2617  Q 931 2281 931 1641  z "
                 transform="scale(0.015625)" />
              <path
                 id="ArialMT-65"
                 d="M 2694 1069  L 3275 997  Q 3138 488 2766 206  Q 2394 -75 1816 -75  Q 1088 -75 661 373  Q 234 822 234 1631  Q 234 2469 665 2931  Q 1097 3394 1784 3394  Q 2450 3394 2872 2941  Q 3294 2488 3294 1666  Q 3294 1616 3291 1516  L 816 1516  Q 847 969 1125 678  Q 1403 388 1819 388  Q 2128 388 2347 550  Q 2566 713 2694 1069  z M 847 1978  L 2700 1978  Q 2663 2397 2488 2606  Q 2219 2931 1791 2931  Q 1403 2931 1139 2672  Q 875 2413 847 1978  z "
                 transform="scale(0.015625)" />
              <path
                 id="ArialMT-72"
                 d="M 416 0  L 416 3319  L 922 3319  L 922 2816  Q 1116 3169 1280 3281  Q 1444 3394 1641 3394  Q 1925 3394 2219 3213  L 2025 2691  Q 1819 2813 1613 2813  Q 1428 2813 1281 2702  Q 1134 2591 1072 2394  Q 978 2094 978 1738  L 978 0  L 416 0  z "
                 transform="scale(0.015625)" />
              <path
                 id="ArialMT-79"
                 d="M 397 -1278  L 334 -750  Q 519 -800 656 -800  Q 844 -800 956 -737  Q 1069 -675 1141 -563  Q 1194 -478 1313 -144  Q 1328 -97 1363 -6  L 103 3319  L 709 3319  L 1400 1397  Q 1534 1031 1641 628  Q 1738 1016 1872 1384  L 2581 3319  L 3144 3319  L 1881 -56  Q 1678 -603 1566 -809  Q 1416 -1088 1222 -1217  Q 1028 -1347 759 -1347  Q 597 -1347 397 -1278  z "
                 transform="scale(0.015625)" />
              <path
                 id="ArialMT-61"
                 d="M 2588 409  Q 2275 144 1986 34  Q 1697 -75 1366 -75  Q 819 -75 525 192  Q 231 459 231 875  Q 231 1119 342 1320  Q 453 1522 633 1644  Q 813 1766 1038 1828  Q 1203 1872 1538 1913  Q 2219 1994 2541 2106  Q 2544 2222 2544 2253  Q 2544 2597 2384 2738  Q 2169 2928 1744 2928  Q 1347 2928 1158 2789  Q 969 2650 878 2297  L 328 2372  Q 403 2725 575 2942  Q 747 3159 1072 3276  Q 1397 3394 1825 3394  Q 2250 3394 2515 3294  Q 2781 3194 2906 3042  Q 3031 2891 3081 2659  Q 3109 2516 3109 2141  L 3109 1391  Q 3109 606 3145 398  Q 3181 191 3288 0  L 2700 0  Q 2613 175 2588 409  z M 2541 1666  Q 2234 1541 1622 1453  Q 1275 1403 1131 1340  Q 988 1278 909 1158  Q 831 1038 831 891  Q 831 666 1001 516  Q 1172 366 1500 366  Q 1825 366 2078 508  Q 2331 650 2450 897  Q 2541 1088 2541 1459  L 2541 1666  z "
                 transform="scale(0.015625)" />
              <path
                 id="ArialMT-5d"
                 d="M 1363 -1272  L 122 -1272  L 122 -806  L 800 -806  L 800 4116  L 122 4116  L 122 4581  L 1363 4581  L 1363 -1272  z "
                 transform="scale(0.015625)" />
            </defs>
            <use
               xlink:href="#ArialMT-5b"
               id="use227" />
            <use
               xlink:href="#ArialMT-4d"
               x="27.783203"
               id="use229" />
            <use
               xlink:href="#ArialMT-74"
               x="111.083984"
               id="use231" />
            <use
               xlink:href="#ArialMT-20"
               x="138.867188"
               id="use233" />
            <use
               xlink:href="#ArialMT-70"
               x="166.650391"
               id="use235" />
            <use
               xlink:href="#ArialMT-65"
               x="222.265625"
               id="use237" />
            <use
               xlink:href="#ArialMT-72"
               x="277.880859"
               id="use239" />
            <use
               xlink:href="#ArialMT-20"
               x="311.181641"
               id="use241" />
            <use
               xlink:href="#ArialMT-79"
               x="338.964844"
               id="use243" />
            <use
               xlink:href="#ArialMT-65"
               x="388.964844"
               id="use245" />
            <use
               xlink:href="#ArialMT-61"
               x="444.580078"
               id="use247" />
            <use
               xlink:href="#ArialMT-72"
               x="500.195312"
               id="use249" />
            <use
               xlink:href="#ArialMT-5d"
               x="533.496094"
               id="use251" />
          </g>
        </g>
      </g>
      <g
         id="line2d_11">
        <path
           d="M 43.62875 132.829969  L 197.415936 132.829969  "
           clip-path="url(#p98b9ef036f)"
           style="fill: none; stroke: #808080; stroke-width: 0.5; stroke-linecap: square"
           id="path257" />
      </g>
      <g
         id="line2d_12">
        <path
           d="M 120.522343 185.651006  L 120.522343 19.642031  "
           clip-path="url(#p98b9ef036f)"
           style="fill: none; stroke-dasharray: 1.85,0.8; stroke-dashoffset: 0; stroke: #808080; stroke-width: 0.5"
           id="path260" />
      </g>
      <g
         id="patch_13">
        <path
           d="M 43.62875 185.651006  L 43.62875 19.642031  "
           style="fill: none; stroke: #000000; stroke-width: 0.8; stroke-linejoin: miter; stroke-linecap: square"
           id="path263" />
      </g>
      <g
         id="patch_14">
        <path
           d="M 197.415936 185.651006  L 197.415936 19.642031  "
           style="fill: none; stroke: #000000; stroke-width: 0.8; stroke-linejoin: miter; stroke-linecap: square"
           id="path266" />
      </g>
      <g
         id="patch_15">
        <path
           d="M 43.62875 185.651006  L 197.415936 185.651006  "
           style="fill: none; stroke: #000000; stroke-width: 0.8; stroke-linejoin: miter; stroke-linecap: square"
           id="path269" />
      </g>
      <g
         id="patch_16">
        <path
           d="M 43.62875 19.642031  L 197.415936 19.642031  "
           style="fill: none; stroke: #000000; stroke-width: 0.8; stroke-linejoin: miter; stroke-linecap: square"
           id="path272" />
      </g>
      <g
         id="text_11">
        <!-- Fossil -->
        <g
           style="fill: #808080"
           transform="translate(66.884855 29.074359) scale(0.07 -0.07)"
           id="g294">
          <defs
             id="defs280">
            <path
               id="Arial-BoldMT-46"
               d="M 472 0  L 472 4581  L 3613 4581  L 3613 3806  L 1397 3806  L 1397 2722  L 3309 2722  L 3309 1947  L 1397 1947  L 1397 0  L 472 0  z "
               transform="scale(0.015625)" />
            <path
               id="Arial-BoldMT-6f"
               d="M 256 1706  Q 256 2144 472 2553  Q 688 2963 1083 3178  Q 1478 3394 1966 3394  Q 2719 3394 3200 2905  Q 3681 2416 3681 1669  Q 3681 916 3195 420  Q 2709 -75 1972 -75  Q 1516 -75 1102 131  Q 688 338 472 736  Q 256 1134 256 1706  z M 1156 1659  Q 1156 1166 1390 903  Q 1625 641 1969 641  Q 2313 641 2545 903  Q 2778 1166 2778 1666  Q 2778 2153 2545 2415  Q 2313 2678 1969 2678  Q 1625 2678 1390 2415  Q 1156 2153 1156 1659  z "
               transform="scale(0.015625)" />
            <path
               id="Arial-BoldMT-73"
               d="M 150 947  L 1031 1081  Q 1088 825 1259 692  Q 1431 559 1741 559  Q 2081 559 2253 684  Q 2369 772 2369 919  Q 2369 1019 2306 1084  Q 2241 1147 2013 1200  Q 950 1434 666 1628  Q 272 1897 272 2375  Q 272 2806 612 3100  Q 953 3394 1669 3394  Q 2350 3394 2681 3172  Q 3013 2950 3138 2516  L 2309 2363  Q 2256 2556 2107 2659  Q 1959 2763 1684 2763  Q 1338 2763 1188 2666  Q 1088 2597 1088 2488  Q 1088 2394 1175 2328  Q 1294 2241 1995 2081  Q 2697 1922 2975 1691  Q 3250 1456 3250 1038  Q 3250 581 2869 253  Q 2488 -75 1741 -75  Q 1063 -75 667 200  Q 272 475 150 947  z "
               transform="scale(0.015625)" />
            <path
               id="Arial-BoldMT-69"
               d="M 459 3769  L 459 4581  L 1338 4581  L 1338 3769  L 459 3769  z M 459 0  L 459 3319  L 1338 3319  L 1338 0  L 459 0  z "
               transform="scale(0.015625)" />
            <path
               id="Arial-BoldMT-6c"
               d="M 459 0  L 459 4581  L 1338 4581  L 1338 0  L 459 0  z "
               transform="scale(0.015625)" />
          </defs>
          <use
             xlink:href="#Arial-BoldMT-46"
             id="use282" />
          <use
             xlink:href="#Arial-BoldMT-6f"
             x="61.083984"
             id="use284" />
          <use
             xlink:href="#Arial-BoldMT-73"
             x="122.167969"
             id="use286" />
          <use
             xlink:href="#Arial-BoldMT-73"
             x="177.783203"
             id="use288" />
          <use
             xlink:href="#Arial-BoldMT-69"
             x="233.398438"
             id="use290" />
          <use
             xlink:href="#Arial-BoldMT-6c"
             x="261.181641"
             id="use292" />
        </g>
      </g>
      <g
         id="text_12">
        <!-- Green -->
        <g
           style="fill: #808080"
           transform="translate(153.932018 29.074359) scale(0.07 -0.07)"
           id="g313">
          <defs
             id="defs301">
            <path
               id="Arial-BoldMT-47"
               d="M 2597 1684  L 2597 2456  L 4591 2456  L 4591 631  Q 4300 350 3748 136  Q 3197 -78 2631 -78  Q 1913 -78 1378 223  Q 844 525 575 1086  Q 306 1647 306 2306  Q 306 3022 606 3578  Q 906 4134 1484 4431  Q 1925 4659 2581 4659  Q 3434 4659 3914 4301  Q 4394 3944 4531 3313  L 3613 3141  Q 3516 3478 3248 3673  Q 2981 3869 2581 3869  Q 1975 3869 1617 3484  Q 1259 3100 1259 2344  Q 1259 1528 1621 1120  Q 1984 713 2572 713  Q 2863 713 3155 827  Q 3447 941 3656 1103  L 3656 1684  L 2597 1684  z "
               transform="scale(0.015625)" />
            <path
               id="Arial-BoldMT-72"
               d="M 1300 0  L 422 0  L 422 3319  L 1238 3319  L 1238 2847  Q 1447 3181 1614 3287  Q 1781 3394 1994 3394  Q 2294 3394 2572 3228  L 2300 2463  Q 2078 2606 1888 2606  Q 1703 2606 1575 2504  Q 1447 2403 1373 2137  Q 1300 1872 1300 1025  L 1300 0  z "
               transform="scale(0.015625)" />
            <path
               id="Arial-BoldMT-65"
               d="M 2381 1056  L 3256 909  Q 3088 428 2723 176  Q 2359 -75 1813 -75  Q 947 -75 531 491  Q 203 944 203 1634  Q 203 2459 634 2926  Q 1066 3394 1725 3394  Q 2466 3394 2894 2905  Q 3322 2416 3303 1406  L 1103 1406  Q 1113 1016 1316 798  Q 1519 581 1822 581  Q 2028 581 2168 693  Q 2309 806 2381 1056  z M 2431 1944  Q 2422 2325 2234 2523  Q 2047 2722 1778 2722  Q 1491 2722 1303 2513  Q 1116 2303 1119 1944  L 2431 1944  z "
               transform="scale(0.015625)" />
            <path
               id="Arial-BoldMT-6e"
               d="M 3478 0  L 2600 0  L 2600 1694  Q 2600 2231 2544 2389  Q 2488 2547 2361 2634  Q 2234 2722 2056 2722  Q 1828 2722 1647 2597  Q 1466 2472 1398 2265  Q 1331 2059 1331 1503  L 1331 0  L 453 0  L 453 3319  L 1269 3319  L 1269 2831  Q 1703 3394 2363 3394  Q 2653 3394 2893 3289  Q 3134 3184 3257 3021  Q 3381 2859 3429 2653  Q 3478 2447 3478 2063  L 3478 0  z "
               transform="scale(0.015625)" />
          </defs>
          <use
             xlink:href="#Arial-BoldMT-47"
             id="use303" />
          <use
             xlink:href="#Arial-BoldMT-72"
             x="77.783203"
             id="use305" />
          <use
             xlink:href="#Arial-BoldMT-65"
             x="116.699219"
             id="use307" />
          <use
             xlink:href="#Arial-BoldMT-65"
             x="172.314453"
             id="use309" />
          <use
             xlink:href="#Arial-BoldMT-6e"
             x="227.929688"
             id="use311" />
        </g>
      </g>
      <g
         id="text_13">
        <!-- a Global CO$_\mathrm{2}$ emissions -->
        <g
           transform="translate(69.312343 13.642031) scale(0.09 -0.09)"
           id="g369">
          <defs
             id="defs323">
            <path
               id="Arial-BoldMT-61"
               d="M 1116 2306  L 319 2450  Q 453 2931 781 3162  Q 1109 3394 1756 3394  Q 2344 3394 2631 3255  Q 2919 3116 3036 2902  Q 3153 2688 3153 2116  L 3144 1091  Q 3144 653 3186 445  Q 3228 238 3344 0  L 2475 0  Q 2441 88 2391 259  Q 2369 338 2359 363  Q 2134 144 1878 34  Q 1622 -75 1331 -75  Q 819 -75 523 203  Q 228 481 228 906  Q 228 1188 362 1408  Q 497 1628 739 1745  Q 981 1863 1438 1950  Q 2053 2066 2291 2166  L 2291 2253  Q 2291 2506 2166 2614  Q 2041 2722 1694 2722  Q 1459 2722 1328 2630  Q 1197 2538 1116 2306  z M 2291 1594  Q 2122 1538 1756 1459  Q 1391 1381 1278 1306  Q 1106 1184 1106 997  Q 1106 813 1243 678  Q 1381 544 1594 544  Q 1831 544 2047 700  Q 2206 819 2256 991  Q 2291 1103 2291 1419  L 2291 1594  z "
               transform="scale(0.015625)" />
            <path
               id="Arial-BoldMT-20"
               transform="scale(0.015625)" />
            <path
               id="Arial-BoldMT-62"
               d="M 422 0  L 422 4581  L 1300 4581  L 1300 2931  Q 1706 3394 2263 3394  Q 2869 3394 3266 2955  Q 3663 2516 3663 1694  Q 3663 844 3258 384  Q 2853 -75 2275 -75  Q 1991 -75 1714 67  Q 1438 209 1238 488  L 1238 0  L 422 0  z M 1294 1731  Q 1294 1216 1456 969  Q 1684 619 2063 619  Q 2353 619 2558 867  Q 2763 1116 2763 1650  Q 2763 2219 2556 2470  Q 2350 2722 2028 2722  Q 1713 2722 1503 2476  Q 1294 2231 1294 1731  z "
               transform="scale(0.015625)" />
            <path
               id="Arial-BoldMT-43"
               d="M 3397 1684  L 4294 1400  Q 4088 650 3608 286  Q 3128 -78 2391 -78  Q 1478 -78 890 545  Q 303 1169 303 2250  Q 303 3394 893 4026  Q 1484 4659 2447 4659  Q 3288 4659 3813 4163  Q 4125 3869 4281 3319  L 3366 3100  Q 3284 3456 3026 3662  Q 2769 3869 2400 3869  Q 1891 3869 1573 3503  Q 1256 3138 1256 2319  Q 1256 1450 1568 1081  Q 1881 713 2381 713  Q 2750 713 3015 947  Q 3281 1181 3397 1684  z "
               transform="scale(0.015625)" />
            <path
               id="Arial-BoldMT-4f"
               d="M 278 2263  Q 278 2963 488 3438  Q 644 3788 914 4066  Q 1184 4344 1506 4478  Q 1934 4659 2494 4659  Q 3506 4659 4114 4031  Q 4722 3403 4722 2284  Q 4722 1175 4119 548  Q 3516 -78 2506 -78  Q 1484 -78 881 545  Q 278 1169 278 2263  z M 1231 2294  Q 1231 1516 1590 1114  Q 1950 713 2503 713  Q 3056 713 3411 1111  Q 3766 1509 3766 2306  Q 3766 3094 3420 3481  Q 3075 3869 2503 3869  Q 1931 3869 1581 3476  Q 1231 3084 1231 2294  z "
               transform="scale(0.015625)" />
            <path
               id="DejaVuSans-32"
               d="M 1228 531  L 3431 531  L 3431 0  L 469 0  L 469 531  Q 828 903 1448 1529  Q 2069 2156 2228 2338  Q 2531 2678 2651 2914  Q 2772 3150 2772 3378  Q 2772 3750 2511 3984  Q 2250 4219 1831 4219  Q 1534 4219 1204 4116  Q 875 4013 500 3803  L 500 4441  Q 881 4594 1212 4672  Q 1544 4750 1819 4750  Q 2544 4750 2975 4387  Q 3406 4025 3406 3419  Q 3406 3131 3298 2873  Q 3191 2616 2906 2266  Q 2828 2175 2409 1742  Q 1991 1309 1228 531  z "
               transform="scale(0.015625)" />
            <path
               id="Arial-BoldMT-6d"
               d="M 394 3319  L 1203 3319  L 1203 2866  Q 1638 3394 2238 3394  Q 2556 3394 2790 3262  Q 3025 3131 3175 2866  Q 3394 3131 3647 3262  Q 3900 3394 4188 3394  Q 4553 3394 4806 3245  Q 5059 3097 5184 2809  Q 5275 2597 5275 2122  L 5275 0  L 4397 0  L 4397 1897  Q 4397 2391 4306 2534  Q 4184 2722 3931 2722  Q 3747 2722 3584 2609  Q 3422 2497 3350 2280  Q 3278 2063 3278 1594  L 3278 0  L 2400 0  L 2400 1819  Q 2400 2303 2353 2443  Q 2306 2584 2207 2653  Q 2109 2722 1941 2722  Q 1738 2722 1575 2612  Q 1413 2503 1342 2297  Q 1272 2091 1272 1613  L 1272 0  L 394 0  L 394 3319  z "
               transform="scale(0.015625)" />
          </defs>
          <use
             xlink:href="#Arial-BoldMT-61"
             transform="translate(-693.69964,0.203125)"
             id="use325" />
          <use
             xlink:href="#Arial-BoldMT-20"
             transform="translate(55.615234 0.203125)"
             id="use327" />
          <use
             xlink:href="#Arial-BoldMT-47"
             transform="translate(83.398438 0.203125)"
             id="use329" />
          <use
             xlink:href="#Arial-BoldMT-6c"
             transform="translate(161.181641 0.203125)"
             id="use331" />
          <use
             xlink:href="#Arial-BoldMT-6f"
             transform="translate(188.964844 0.203125)"
             id="use333" />
          <use
             xlink:href="#Arial-BoldMT-62"
             transform="translate(250.048828 0.203125)"
             id="use335" />
          <use
             xlink:href="#Arial-BoldMT-61"
             transform="translate(311.132812 0.203125)"
             id="use337" />
          <use
             xlink:href="#Arial-BoldMT-6c"
             transform="translate(366.748047 0.203125)"
             id="use339" />
          <use
             xlink:href="#Arial-BoldMT-20"
             transform="translate(394.53125 0.203125)"
             id="use341" />
          <use
             xlink:href="#Arial-BoldMT-43"
             transform="translate(422.314453 0.203125)"
             id="use343" />
          <use
             xlink:href="#Arial-BoldMT-4f"
             transform="translate(494.53125 0.203125)"
             id="use345" />
          <use
             xlink:href="#DejaVuSans-32"
             transform="translate(573.271484 -16.203125) scale(0.7)"
             id="use347" />
          <use
             xlink:href="#Arial-BoldMT-20"
             transform="translate(620.541992 0.203125)"
             id="use349" />
          <use
             xlink:href="#Arial-BoldMT-65"
             transform="translate(648.325195 0.203125)"
             id="use351" />
          <use
             xlink:href="#Arial-BoldMT-6d"
             transform="translate(703.94043 0.203125)"
             id="use353" />
          <use
             xlink:href="#Arial-BoldMT-69"
             transform="translate(792.856445 0.203125)"
             id="use355" />
          <use
             xlink:href="#Arial-BoldMT-73"
             transform="translate(820.639648 0.203125)"
             id="use357" />
          <use
             xlink:href="#Arial-BoldMT-73"
             transform="translate(876.254883 0.203125)"
             id="use359" />
          <use
             xlink:href="#Arial-BoldMT-69"
             transform="translate(931.870117 0.203125)"
             id="use361" />
          <use
             xlink:href="#Arial-BoldMT-6f"
             transform="translate(959.65332 0.203125)"
             id="use363" />
          <use
             xlink:href="#Arial-BoldMT-6e"
             transform="translate(1020.737305 0.203125)"
             id="use365" />
          <use
             xlink:href="#Arial-BoldMT-73"
             transform="translate(1081.821289 0.203125)"
             id="use367" />
        </g>
      </g>
      <g
         id="PathCollection_1">
        <defs
           id="defs373">
          <path
             id="mf56b07f2b3"
             d="M 0 1.936492  C 0.513564 1.936492 1.006162 1.732451 1.369306 1.369306  C 1.732451 1.006162 1.936492 0.513564 1.936492 0  C 1.936492 -0.513564 1.732451 -1.006162 1.369306 -1.369306  C 1.006162 -1.732451 0.513564 -1.936492 0 -1.936492  C -0.513564 -1.936492 -1.006162 -1.732451 -1.369306 -1.369306  C -1.732451 -1.006162 -1.936492 -0.513564 -1.936492 0  C -1.936492 0.513564 -1.732451 1.006162 -1.369306 1.369306  C -1.006162 1.732451 -0.513564 1.936492 0 1.936492  z "
             style="stroke: #808080; stroke-width: 0.4" />
        </defs>
        <g
           clip-path="url(#p98b9ef036f)"
           id="g385">
          <use
             xlink:href="#mf56b07f2b3"
             x="62.489443"
             y="89.433981"
             style="fill: #ffff00; stroke: #808080; stroke-width: 0.4"
             id="use375" />
          <use
             xlink:href="#mf56b07f2b3"
             x="91.505893"
             y="36.262808"
             style="fill: #ffff00; stroke: #808080; stroke-width: 0.4"
             id="use377" />
          <use
             xlink:href="#mf56b07f2b3"
             x="149.538793"
             y="124.404799"
             style="fill: #ffff00; stroke: #808080; stroke-width: 0.4"
             id="use381" />
          <use
             xlink:href="#mf56b07f2b3"
             x="178.555243"
             y="165.077816"
             style="fill: #ffff00; stroke: #808080; stroke-width: 0.4"
             id="use383" />
        </g>
      </g>
      <g
         id="legend_1">
        <g
           id="patch_17">
          <path
             d="M 50.82875 165.544756  L 62.82875 165.544756  L 62.82875 159.944756  L 50.82875 159.944756  z "
             style="fill: #fb7b71"
             id="path388" />
        </g>
        <g
           id="text_14">
          <!-- Methanol -->
          <g
             transform="translate(73.22875 165.544756) scale(0.08 -0.08)"
             id="g413">
            <defs
               id="defs395">
              <path
                 id="ArialMT-68"
                 d="M 422 0  L 422 4581  L 984 4581  L 984 2938  Q 1378 3394 1978 3394  Q 2347 3394 2619 3248  Q 2891 3103 3008 2847  Q 3125 2591 3125 2103  L 3125 0  L 2563 0  L 2563 2103  Q 2563 2525 2380 2717  Q 2197 2909 1863 2909  Q 1613 2909 1392 2779  Q 1172 2650 1078 2428  Q 984 2206 984 1816  L 984 0  L 422 0  z "
                 transform="scale(0.015625)" />
              <path
                 id="ArialMT-6e"
                 d="M 422 0  L 422 3319  L 928 3319  L 928 2847  Q 1294 3394 1984 3394  Q 2284 3394 2536 3286  Q 2788 3178 2913 3003  Q 3038 2828 3088 2588  Q 3119 2431 3119 2041  L 3119 0  L 2556 0  L 2556 2019  Q 2556 2363 2490 2533  Q 2425 2703 2258 2804  Q 2091 2906 1866 2906  Q 1506 2906 1245 2678  Q 984 2450 984 1813  L 984 0  L 422 0  z "
                 transform="scale(0.015625)" />
              <path
                 id="ArialMT-6f"
                 d="M 213 1659  Q 213 2581 725 3025  Q 1153 3394 1769 3394  Q 2453 3394 2887 2945  Q 3322 2497 3322 1706  Q 3322 1066 3130 698  Q 2938 331 2570 128  Q 2203 -75 1769 -75  Q 1072 -75 642 372  Q 213 819 213 1659  z M 791 1659  Q 791 1022 1069 705  Q 1347 388 1769 388  Q 2188 388 2466 706  Q 2744 1025 2744 1678  Q 2744 2294 2464 2611  Q 2184 2928 1769 2928  Q 1347 2928 1069 2612  Q 791 2297 791 1659  z "
                 transform="scale(0.015625)" />
              <path
                 id="ArialMT-6c"
                 d="M 409 0  L 409 4581  L 972 4581  L 972 0  L 409 0  z "
                 transform="scale(0.015625)" />
            </defs>
            <use
               xlink:href="#ArialMT-4d"
               id="use397" />
            <use
               xlink:href="#ArialMT-65"
               x="83.300781"
               id="use399" />
            <use
               xlink:href="#ArialMT-74"
               x="138.916016"
               id="use401" />
            <use
               xlink:href="#ArialMT-68"
               x="166.699219"
               id="use403" />
            <use
               xlink:href="#ArialMT-61"
               x="222.314453"
               id="use405" />
            <use
               xlink:href="#ArialMT-6e"
               x="277.929688"
               id="use407" />
            <use
               xlink:href="#ArialMT-6f"
               x="333.544922"
               id="use409" />
            <use
               xlink:href="#ArialMT-6c"
               x="389.160156"
               id="use411" />
          </g>
        </g>
        <g
           id="patch_18">
          <path
             d="M 50.82875 176.861006  L 62.82875 176.861006  L 62.82875 171.261006  L 50.82875 171.261006  z "
             style="fill: #a78dd8"
             id="path416" />
        </g>
        <g
           id="text_15">
          <!-- Ammonia -->
          <g
             transform="translate(73.22875 176.861006) scale(0.08 -0.08)"
             id="g438">
            <defs
               id="defs422">
              <path
                 id="ArialMT-41"
                 d="M -9 0  L 1750 4581  L 2403 4581  L 4278 0  L 3588 0  L 3053 1388  L 1138 1388  L 634 0  L -9 0  z M 1313 1881  L 2866 1881  L 2388 3150  Q 2169 3728 2063 4100  Q 1975 3659 1816 3225  L 1313 1881  z "
                 transform="scale(0.015625)" />
              <path
                 id="ArialMT-6d"
                 d="M 422 0  L 422 3319  L 925 3319  L 925 2853  Q 1081 3097 1340 3245  Q 1600 3394 1931 3394  Q 2300 3394 2536 3241  Q 2772 3088 2869 2813  Q 3263 3394 3894 3394  Q 4388 3394 4653 3120  Q 4919 2847 4919 2278  L 4919 0  L 4359 0  L 4359 2091  Q 4359 2428 4304 2576  Q 4250 2725 4106 2815  Q 3963 2906 3769 2906  Q 3419 2906 3187 2673  Q 2956 2441 2956 1928  L 2956 0  L 2394 0  L 2394 2156  Q 2394 2531 2256 2718  Q 2119 2906 1806 2906  Q 1569 2906 1367 2781  Q 1166 2656 1075 2415  Q 984 2175 984 1722  L 984 0  L 422 0  z "
                 transform="scale(0.015625)" />
              <path
                 id="ArialMT-69"
                 d="M 425 3934  L 425 4581  L 988 4581  L 988 3934  L 425 3934  z M 425 0  L 425 3319  L 988 3319  L 988 0  L 425 0  z "
                 transform="scale(0.015625)" />
            </defs>
            <use
               xlink:href="#ArialMT-41"
               id="use424" />
            <use
               xlink:href="#ArialMT-6d"
               x="66.699219"
               id="use426" />
            <use
               xlink:href="#ArialMT-6d"
               x="150"
               id="use428" />
            <use
               xlink:href="#ArialMT-6f"
               x="233.300781"
               id="use430" />
            <use
               xlink:href="#ArialMT-6e"
               x="288.916016"
               id="use432" />
            <use
               xlink:href="#ArialMT-69"
               x="344.53125"
               id="use434" />
            <use
               xlink:href="#ArialMT-61"
               x="366.748047"
               id="use436" />
          </g>
        </g>
      </g>
    </g>
  </g>
  <defs
     id="defs447">
    <clipPath
       id="p98b9ef036f">
      <rect
         x="43.62875"
         y="19.642031"
         width="153.787186"
         height="166.008975"
         id="rect444" />
    </clipPath>
  </defs>
</svg>
