<?xml version="1.0" encoding="UTF-8" standalone="no"?>
<svg
   width="206.697343pt"
   height="207.167256pt"
   viewBox="0 0 206.697343 207.167256"
   version="1.1"
   id="svg3371"
   sodipodi:docname="Demand and emissions.svg"
   inkscape:version="1.2.2 (732a01da63, 2022-12-09)"
   inkscape:export-filename="Demand and emissions.png"
   inkscape:export-xdpi="1200"
   inkscape:export-ydpi="1200"
   xmlns:inkscape="http://www.inkscape.org/namespaces/inkscape"
   xmlns:sodipodi="http://sodipodi.sourceforge.net/DTD/sodipodi-0.dtd"
   xmlns:xlink="http://www.w3.org/1999/xlink"
   xmlns="http://www.w3.org/2000/svg"
   xmlns:svg="http://www.w3.org/2000/svg"
   xmlns:rdf="http://www.w3.org/1999/02/22-rdf-syntax-ns#"
   xmlns:cc="http://creativecommons.org/ns#"
   xmlns:dc="http://purl.org/dc/elements/1.1/">
  <sodipodi:namedview
     id="namedview3373"
     pagecolor="#ffffff"
     bordercolor="#000000"
     borderopacity="0.25"
     inkscape:showpageshadow="2"
     inkscape:pageopacity="0.0"
     inkscape:pagecheckerboard="0"
     inkscape:deskcolor="#d1d1d1"
     inkscape:document-units="pt"
     showgrid="false"
     inkscape:zoom="2.4165576"
     inkscape:cx="73.244684"
     inkscape:cy="113.38443"
     inkscape:window-width="1920"
     inkscape:window-height="1137"
     inkscape:window-x="-8"
     inkscape:window-y="224"
     inkscape:window-maximized="1"
     inkscape:current-layer="axes_1" />
  <metadata
     id="metadata2759">
    <rdf:RDF>
      <cc:Work>
        <dc:type
           rdf:resource="http://purl.org/dc/dcmitype/StillImage" />
        <dc:date>2023-12-19T15:44:44.832304</dc:date>
        <dc:format>image/svg+xml</dc:format>
        <dc:creator>
          <cc:Agent>
            <dc:title>Matplotlib v3.7.1, https://matplotlib.org/</dc:title>
          </cc:Agent>
        </dc:creator>
      </cc:Work>
    </rdf:RDF>
  </metadata>
  <defs
     id="defs2763">
    <style
       type="text/css"
       id="style2761">*{stroke-linejoin: round; stroke-linecap: butt}</style>
  </defs>
  <g
     id="figure_1">
    <g
       id="patch_1">
      <path
         d="M 0 207.167256  L 206.697343 207.167256  L 206.697343 0  L 0 0  z "
         style="fill: #ffffff"
         id="path2765" />
    </g>
    <g
       id="axes_1">
      <g
         id="patch_2">
        <path
           d="M 43.62875 185.651006  L 197.415936 185.651006  L 197.415936 19.77  L 43.62875 19.77  z "
           style="fill: #ffffff"
           id="path2768" />
      </g>
      <g
         id="patch_3">
        <path
           d="M 50.882863 132.870686  L 74.096023 132.870686  L 74.096023 125.33064  L 50.882863 125.33064  z "
           clip-path="url(#p0900047711)"
           style="fill: #fb7b71"
           id="path2771" />
      </g>
      <g
         id="patch_4">
        <path
           d="M 79.899313 132.870686  L 103.112473 132.870686  L 103.112473 119.147803  L 79.899313 119.147803  z "
           clip-path="url(#p0900047711)"
           style="fill: #fb7b71"
           id="path2774" />
      </g>
      <g
         id="patch_5">
        <path
           d="M 108.915763 132.870686  L 132.128923 132.870686  L 132.128923 132.870686  L 108.915763 132.870686  z "
           clip-path="url(#p0900047711)"
           style="fill: #fb7b71"
           id="path2777" />
      </g>
      <g
         id="patch_6">
        <path
           d="M 137.932213 132.870686  L 161.145373 132.870686  L 161.145373 95.170457  L 137.932213 95.170457  z "
           clip-path="url(#p0900047711)"
           style="fill: #fb7b71"
           id="path2780" />
      </g>
      <g
         id="patch_7">
        <path
           d="M 166.948663 132.870686  L 190.161823 132.870686  L 190.161823 177.51908  L 166.948663 177.51908  z "
           clip-path="url(#p0900047711)"
           style="fill: #fb7b71"
           id="path2783" />
      </g>
      <g
         id="patch_8">
        <path
           d="M 50.882863 125.33064  L 74.096023 125.33064  L 74.096023 118.619999  L 50.882863 118.619999  z "
           clip-path="url(#p0900047711)"
           style="fill: #6dd2ea"
           id="path2786" />
      </g>
      <g
         id="patch_9">
        <path
           d="M 79.899313 119.147803  L 103.112473 119.147803  L 103.112473 84.689794  L 79.899313 84.689794  z "
           clip-path="url(#p0900047711)"
           style="fill: #6dd2ea"
           id="path2789" />
      </g>
      <g
         id="patch_10">
        <path
           d="M 108.915763 132.870686  L 132.128923 132.870686  L 132.128923 132.870686  L 108.915763 132.870686  z "
           clip-path="url(#p0900047711)"
           style="fill: #6dd2ea"
           id="path2792" />
      </g>
      <g
         id="patch_11">
        <path
           d="M 137.932213 95.170457  L 161.145373 95.170457  L 161.145373 61.617254  L 137.932213 61.617254  z "
           clip-path="url(#p0900047711)"
           style="fill: #6dd2ea"
           id="path2795" />
      </g>
      <g
         id="patch_12">
        <path
           d="M 166.948663 132.870686  L 190.161823 132.870686  L 190.161823 73.36918  L 166.948663 73.36918  z "
           clip-path="url(#p0900047711)"
           style="fill: #6dd2ea"
           id="path2798" />
      </g>
      <g
         id="patch_13">
        <path
           d="M 50.882863 118.619999  L 74.096023 118.619999  L 74.096023 104.670915  L 50.882863 104.670915  z "
           clip-path="url(#p0900047711)"
           style="fill: #a78dd8"
           id="path2801" />
      </g>
      <g
         id="patch_14">
        <path
           d="M 79.899313 84.689794  L 103.112473 84.689794  L 103.112473 50.759588  L 79.899313 50.759588  z "
           clip-path="url(#p0900047711)"
           style="fill: #a78dd8"
           id="path2804" />
      </g>
      <g
         id="patch_15">
        <path
           d="M 108.915763 132.870686  L 132.128923 132.870686  L 132.128923 132.870686  L 108.915763 132.870686  z "
           clip-path="url(#p0900047711)"
           style="fill: #a78dd8"
           id="path2807" />
      </g>
      <g
         id="patch_16">
        <path
           d="M 137.932213 61.617254  L 161.145373 61.617254  L 161.145373 34.850091  L 137.932213 34.850091  z "
           clip-path="url(#p0900047711)"
           style="fill: #a78dd8"
           id="path2810" />
      </g>
      <g
         id="patch_17">
        <path
           d="M 166.948663 73.36918  L 190.161823 73.36918  L 190.161823 60.943776  L 166.948663 60.943776  z "
           clip-path="url(#p0900047711)"
           style="fill: #a78dd8"
           id="path2813" />
      </g>
      <g
         id="matplotlib.axis_1">
        <g
           id="xtick_1">
          <g
             id="line2d_1">
            <defs
               id="defs2817">
              <path
                 id="m5647f6cd6f"
                 d="M 0 0  L 0 3.5  "
                 style="stroke: #000000; stroke-width: 0.8" />
            </defs>
            <g
               id="g2821">
              <use
                 xlink:href="#m5647f6cd6f"
                 x="62.489443"
                 y="185.651006"
                 style="stroke: #000000; stroke-width: 0.8"
                 id="use2819" />
            </g>
          </g>
          <g
             id="text_1">
            <!-- D -->
            <g
               transform="translate(59.600693 198.377256) scale(0.08 -0.08)"
               id="g2829">
              <defs
                 id="defs2825">
                <path
                   id="ArialMT-44"
                   d="M 494 0  L 494 4581  L 2072 4581  Q 2606 4581 2888 4516  Q 3281 4425 3559 4188  Q 3922 3881 4101 3404  Q 4281 2928 4281 2316  Q 4281 1794 4159 1391  Q 4038 988 3847 723  Q 3656 459 3429 307  Q 3203 156 2883 78  Q 2563 0 2147 0  L 494 0  z M 1100 541  L 2078 541  Q 2531 541 2789 625  Q 3047 709 3200 863  Q 3416 1078 3536 1442  Q 3656 1806 3656 2325  Q 3656 3044 3420 3430  Q 3184 3816 2847 3947  Q 2603 4041 2063 4041  L 1100 4041  L 1100 541  z "
                   transform="scale(0.015625)" />
              </defs>
              <use
                 xlink:href="#ArialMT-44"
                 id="use2827" />
            </g>
          </g>
        </g>
        <g
           id="xtick_2">
          <g
             id="line2d_2">
            <g
               id="g2835">
              <use
                 xlink:href="#m5647f6cd6f"
                 x="91.505893"
                 y="185.651006"
                 style="stroke: #000000; stroke-width: 0.8"
                 id="use2833" />
            </g>
          </g>
          <g
             id="text_2">
            <!-- E -->
            <g
               transform="translate(88.837768 198.377256) scale(0.08 -0.08)"
               id="g2843">
              <defs
                 id="defs2839">
                <path
                   id="ArialMT-45"
                   d="M 506 0  L 506 4581  L 3819 4581  L 3819 4041  L 1113 4041  L 1113 2638  L 3647 2638  L 3647 2100  L 1113 2100  L 1113 541  L 3925 541  L 3925 0  L 506 0  z "
                   transform="scale(0.015625)" />
              </defs>
              <use
                 xlink:href="#ArialMT-45"
                 id="use2841" />
            </g>
          </g>
        </g>
        <g
           id="xtick_3">
          <g
             id="line2d_3">
            <g
               id="g2849">
              <use
                 xlink:href="#m5647f6cd6f"
                 x="120.522343"
                 y="185.651006"
                 style="stroke: #000000; stroke-width: 0.8"
                 id="use2847" />
            </g>
          </g>
        </g>
        <g
           id="xtick_4">
          <g
             id="line2d_4">
            <g
               id="g2855">
              <use
                 xlink:href="#m5647f6cd6f"
                 x="149.538793"
                 y="185.651006"
                 style="stroke: #000000; stroke-width: 0.8"
                 id="use2853" />
            </g>
          </g>
          <g
             id="text_3">
            <!-- D -->
            <g
               transform="translate(146.650043 198.377256) scale(0.08 -0.08)"
               id="g2860">
              <use
                 xlink:href="#ArialMT-44"
                 id="use2858" />
            </g>
          </g>
        </g>
        <g
           id="xtick_5">
          <g
             id="line2d_5">
            <g
               id="g2866">
              <use
                 xlink:href="#m5647f6cd6f"
                 x="178.555243"
                 y="185.651006"
                 style="stroke: #000000; stroke-width: 0.8"
                 id="use2864" />
            </g>
          </g>
          <g
             id="text_4">
            <!-- E -->
            <g
               transform="translate(175.887118 198.377256) scale(0.08 -0.08)"
               id="g2871">
              <use
                 xlink:href="#ArialMT-45"
                 id="use2869" />
            </g>
          </g>
        </g>
      </g>
      <g
         id="matplotlib.axis_2">
        <g
           id="ytick_1">
          <g
             id="line2d_6">
            <defs
               id="defs2877">
              <path
                 id="macd213a1e3"
                 d="M 0 0  L -3.5 0  "
                 style="stroke: #000000; stroke-width: 0.8" />
            </defs>
            <g
               id="g2881">
              <use
                 xlink:href="#macd213a1e3"
                 x="43.62875"
                 y="170.570915"
                 style="stroke: #000000; stroke-width: 0.8"
                 id="use2879" />
            </g>
          </g>
          <g
             id="text_5">
            <!-- −500 -->
            <g
               transform="translate(18.61 173.43404) scale(0.08 -0.08)"
               id="g2897">
              <defs
                 id="defs2887">
                <path
                   id="ArialMT-2212"
                   d="M 3381 1997  L 356 1997  L 356 2522  L 3381 2522  L 3381 1997  z "
                   transform="scale(0.015625)" />
                <path
                   id="ArialMT-35"
                   d="M 266 1200  L 856 1250  Q 922 819 1161 601  Q 1400 384 1738 384  Q 2144 384 2425 690  Q 2706 997 2706 1503  Q 2706 1984 2436 2262  Q 2166 2541 1728 2541  Q 1456 2541 1237 2417  Q 1019 2294 894 2097  L 366 2166  L 809 4519  L 3088 4519  L 3088 3981  L 1259 3981  L 1013 2750  Q 1425 3038 1878 3038  Q 2478 3038 2890 2622  Q 3303 2206 3303 1553  Q 3303 931 2941 478  Q 2500 -78 1738 -78  Q 1113 -78 717 272  Q 322 622 266 1200  z "
                   transform="scale(0.015625)" />
                <path
                   id="ArialMT-30"
                   d="M 266 2259  Q 266 3072 433 3567  Q 600 4063 929 4331  Q 1259 4600 1759 4600  Q 2128 4600 2406 4451  Q 2684 4303 2865 4023  Q 3047 3744 3150 3342  Q 3253 2941 3253 2259  Q 3253 1453 3087 958  Q 2922 463 2592 192  Q 2263 -78 1759 -78  Q 1097 -78 719 397  Q 266 969 266 2259  z M 844 2259  Q 844 1131 1108 757  Q 1372 384 1759 384  Q 2147 384 2411 759  Q 2675 1134 2675 2259  Q 2675 3391 2411 3762  Q 2147 4134 1753 4134  Q 1366 4134 1134 3806  Q 844 3388 844 2259  z "
                   transform="scale(0.015625)" />
              </defs>
              <use
                 xlink:href="#ArialMT-2212"
                 id="use2889" />
              <use
                 xlink:href="#ArialMT-35"
                 x="58.398438"
                 id="use2891" />
              <use
                 xlink:href="#ArialMT-30"
                 x="114.013672"
                 id="use2893" />
              <use
                 xlink:href="#ArialMT-30"
                 x="169.628906"
                 id="use2895" />
            </g>
          </g>
        </g>
        <g
           id="ytick_2">
          <g
             id="line2d_7">
            <g
               id="g2903">
              <use
                 xlink:href="#macd213a1e3"
                 x="43.62875"
                 y="132.870686"
                 style="stroke: #000000; stroke-width: 0.8"
                 id="use2901" />
            </g>
          </g>
          <g
             id="text_6">
            <!-- 0 -->
            <g
               transform="translate(32.18 135.733811) scale(0.08 -0.08)"
               id="g2908">
              <use
                 xlink:href="#ArialMT-30"
                 id="use2906" />
            </g>
          </g>
        </g>
        <g
           id="ytick_3">
          <g
             id="line2d_8">
            <g
               id="g2914">
              <use
                 xlink:href="#macd213a1e3"
                 x="43.62875"
                 y="95.170457"
                 style="stroke: #000000; stroke-width: 0.8"
                 id="use2912" />
            </g>
          </g>
          <g
             id="text_7">
            <!-- 500 -->
            <g
               transform="translate(23.2825 98.033582) scale(0.08 -0.08)"
               id="g2923">
              <use
                 xlink:href="#ArialMT-35"
                 id="use2917" />
              <use
                 xlink:href="#ArialMT-30"
                 x="55.615234"
                 id="use2919" />
              <use
                 xlink:href="#ArialMT-30"
                 x="111.230469"
                 id="use2921" />
            </g>
          </g>
        </g>
        <g
           id="ytick_4">
          <g
             id="line2d_9">
            <g
               id="g2929">
              <use
                 xlink:href="#macd213a1e3"
                 x="43.62875"
                 y="57.470229"
                 style="stroke: #000000; stroke-width: 0.8"
                 id="use2927" />
            </g>
          </g>
          <g
             id="text_8">
            <!-- 1000 -->
            <g
               transform="translate(18.83375 60.333354) scale(0.08 -0.08)"
               id="g2943">
              <defs
                 id="defs2933">
                <path
                   id="ArialMT-31"
                   d="M 2384 0  L 1822 0  L 1822 3584  Q 1619 3391 1289 3197  Q 959 3003 697 2906  L 697 3450  Q 1169 3672 1522 3987  Q 1875 4303 2022 4600  L 2384 4600  L 2384 0  z "
                   transform="scale(0.015625)" />
              </defs>
              <use
                 xlink:href="#ArialMT-31"
                 id="use2935" />
              <use
                 xlink:href="#ArialMT-30"
                 x="55.615234"
                 id="use2937" />
              <use
                 xlink:href="#ArialMT-30"
                 x="111.230469"
                 id="use2939" />
              <use
                 xlink:href="#ArialMT-30"
                 x="166.845703"
                 id="use2941" />
            </g>
          </g>
        </g>
        <g
           id="ytick_5">
          <g
             id="line2d_10">
            <g
               id="g2949">
              <use
                 xlink:href="#macd213a1e3"
                 x="43.62875"
                 y="19.77"
                 style="stroke: #000000; stroke-width: 0.8"
                 id="use2947" />
            </g>
          </g>
          <g
             id="text_9">
            <!-- 1500 -->
            <g
               transform="translate(18.83375 22.633125) scale(0.08 -0.08)"
               id="g2960">
              <use
                 xlink:href="#ArialMT-31"
                 id="use2952" />
              <use
                 xlink:href="#ArialMT-35"
                 x="55.615234"
                 id="use2954" />
              <use
                 xlink:href="#ArialMT-30"
                 x="111.230469"
                 id="use2956" />
              <use
                 xlink:href="#ArialMT-30"
                 x="166.845703"
                 id="use2958" />
            </g>
          </g>
        </g>
        <g
           id="text_10">
          <!-- [Mt per year] -->
          <g
             transform="translate(12.92625 125.159878) rotate(-90) scale(0.08 -0.08)"
             id="g3002">
            <defs
               id="defs2974">
              <path
                 id="ArialMT-5b"
                 d="M 434 -1272  L 434 4581  L 1675 4581  L 1675 4116  L 997 4116  L 997 -806  L 1675 -806  L 1675 -1272  L 434 -1272  z "
                 transform="scale(0.015625)" />
              <path
                 id="ArialMT-4d"
                 d="M 475 0  L 475 4581  L 1388 4581  L 2472 1338  Q 2622 884 2691 659  Q 2769 909 2934 1394  L 4031 4581  L 4847 4581  L 4847 0  L 4263 0  L 4263 3834  L 2931 0  L 2384 0  L 1059 3900  L 1059 0  L 475 0  z "
                 transform="scale(0.015625)" />
              <path
                 id="ArialMT-74"
                 d="M 1650 503  L 1731 6  Q 1494 -44 1306 -44  Q 1000 -44 831 53  Q 663 150 594 308  Q 525 466 525 972  L 525 2881  L 113 2881  L 113 3319  L 525 3319  L 525 4141  L 1084 4478  L 1084 3319  L 1650 3319  L 1650 2881  L 1084 2881  L 1084 941  Q 1084 700 1114 631  Q 1144 563 1211 522  Q 1278 481 1403 481  Q 1497 481 1650 503  z "
                 transform="scale(0.015625)" />
              <path
                 id="ArialMT-20"
                 transform="scale(0.015625)" />
              <path
                 id="ArialMT-70"
                 d="M 422 -1272  L 422 3319  L 934 3319  L 934 2888  Q 1116 3141 1344 3267  Q 1572 3394 1897 3394  Q 2322 3394 2647 3175  Q 2972 2956 3137 2557  Q 3303 2159 3303 1684  Q 3303 1175 3120 767  Q 2938 359 2589 142  Q 2241 -75 1856 -75  Q 1575 -75 1351 44  Q 1128 163 984 344  L 984 -1272  L 422 -1272  z M 931 1641  Q 931 1000 1190 694  Q 1450 388 1819 388  Q 2194 388 2461 705  Q 2728 1022 2728 1688  Q 2728 2322 2467 2637  Q 2206 2953 1844 2953  Q 1484 2953 1207 2617  Q 931 2281 931 1641  z "
                 transform="scale(0.015625)" />
              <path
                 id="ArialMT-65"
                 d="M 2694 1069  L 3275 997  Q 3138 488 2766 206  Q 2394 -75 1816 -75  Q 1088 -75 661 373  Q 234 822 234 1631  Q 234 2469 665 2931  Q 1097 3394 1784 3394  Q 2450 3394 2872 2941  Q 3294 2488 3294 1666  Q 3294 1616 3291 1516  L 816 1516  Q 847 969 1125 678  Q 1403 388 1819 388  Q 2128 388 2347 550  Q 2566 713 2694 1069  z M 847 1978  L 2700 1978  Q 2663 2397 2488 2606  Q 2219 2931 1791 2931  Q 1403 2931 1139 2672  Q 875 2413 847 1978  z "
                 transform="scale(0.015625)" />
              <path
                 id="ArialMT-72"
                 d="M 416 0  L 416 3319  L 922 3319  L 922 2816  Q 1116 3169 1280 3281  Q 1444 3394 1641 3394  Q 1925 3394 2219 3213  L 2025 2691  Q 1819 2813 1613 2813  Q 1428 2813 1281 2702  Q 1134 2591 1072 2394  Q 978 2094 978 1738  L 978 0  L 416 0  z "
                 transform="scale(0.015625)" />
              <path
                 id="ArialMT-79"
                 d="M 397 -1278  L 334 -750  Q 519 -800 656 -800  Q 844 -800 956 -737  Q 1069 -675 1141 -563  Q 1194 -478 1313 -144  Q 1328 -97 1363 -6  L 103 3319  L 709 3319  L 1400 1397  Q 1534 1031 1641 628  Q 1738 1016 1872 1384  L 2581 3319  L 3144 3319  L 1881 -56  Q 1678 -603 1566 -809  Q 1416 -1088 1222 -1217  Q 1028 -1347 759 -1347  Q 597 -1347 397 -1278  z "
                 transform="scale(0.015625)" />
              <path
                 id="ArialMT-61"
                 d="M 2588 409  Q 2275 144 1986 34  Q 1697 -75 1366 -75  Q 819 -75 525 192  Q 231 459 231 875  Q 231 1119 342 1320  Q 453 1522 633 1644  Q 813 1766 1038 1828  Q 1203 1872 1538 1913  Q 2219 1994 2541 2106  Q 2544 2222 2544 2253  Q 2544 2597 2384 2738  Q 2169 2928 1744 2928  Q 1347 2928 1158 2789  Q 969 2650 878 2297  L 328 2372  Q 403 2725 575 2942  Q 747 3159 1072 3276  Q 1397 3394 1825 3394  Q 2250 3394 2515 3294  Q 2781 3194 2906 3042  Q 3031 2891 3081 2659  Q 3109 2516 3109 2141  L 3109 1391  Q 3109 606 3145 398  Q 3181 191 3288 0  L 2700 0  Q 2613 175 2588 409  z M 2541 1666  Q 2234 1541 1622 1453  Q 1275 1403 1131 1340  Q 988 1278 909 1158  Q 831 1038 831 891  Q 831 666 1001 516  Q 1172 366 1500 366  Q 1825 366 2078 508  Q 2331 650 2450 897  Q 2541 1088 2541 1459  L 2541 1666  z "
                 transform="scale(0.015625)" />
              <path
                 id="ArialMT-5d"
                 d="M 1363 -1272  L 122 -1272  L 122 -806  L 800 -806  L 800 4116  L 122 4116  L 122 4581  L 1363 4581  L 1363 -1272  z "
                 transform="scale(0.015625)" />
            </defs>
            <use
               xlink:href="#ArialMT-5b"
               id="use2976" />
            <use
               xlink:href="#ArialMT-4d"
               x="27.783203"
               id="use2978" />
            <use
               xlink:href="#ArialMT-74"
               x="111.083984"
               id="use2980" />
            <use
               xlink:href="#ArialMT-20"
               x="138.867188"
               id="use2982" />
            <use
               xlink:href="#ArialMT-70"
               x="166.650391"
               id="use2984" />
            <use
               xlink:href="#ArialMT-65"
               x="222.265625"
               id="use2986" />
            <use
               xlink:href="#ArialMT-72"
               x="277.880859"
               id="use2988" />
            <use
               xlink:href="#ArialMT-20"
               x="311.181641"
               id="use2990" />
            <use
               xlink:href="#ArialMT-79"
               x="338.964844"
               id="use2992" />
            <use
               xlink:href="#ArialMT-65"
               x="388.964844"
               id="use2994" />
            <use
               xlink:href="#ArialMT-61"
               x="444.580078"
               id="use2996" />
            <use
               xlink:href="#ArialMT-72"
               x="500.195312"
               id="use2998" />
            <use
               xlink:href="#ArialMT-5d"
               x="533.496094"
               id="use3000" />
          </g>
        </g>
      </g>
      <g
         id="line2d_11">
        <path
           d="M 43.62875 132.870686  L 197.415936 132.870686  "
           clip-path="url(#p0900047711)"
           style="fill: none; stroke: #808080; stroke-width: 0.5; stroke-linecap: square"
           id="path3006" />
      </g>
      <g
         id="line2d_12">
        <path
           d="M 120.522343 185.651006  L 120.522343 19.77  "
           clip-path="url(#p0900047711)"
           style="fill: none; stroke-dasharray: 1.85,0.8; stroke-dashoffset: 0; stroke: #808080; stroke-width: 0.5"
           id="path3009" />
      </g>
      <g
         id="patch_18">
        <path
           d="M 43.62875 185.651006  L 43.62875 19.77  "
           style="fill: none; stroke: #000000; stroke-width: 0.8; stroke-linejoin: miter; stroke-linecap: square"
           id="path3012" />
      </g>
      <g
         id="patch_19">
        <path
           d="M 197.415936 185.651006  L 197.415936 19.77  "
           style="fill: none; stroke: #000000; stroke-width: 0.8; stroke-linejoin: miter; stroke-linecap: square"
           id="path3015" />
      </g>
      <g
         id="patch_20">
        <path
           d="M 43.62875 185.651006  L 197.415936 185.651006  "
           style="fill: none; stroke: #000000; stroke-width: 0.8; stroke-linejoin: miter; stroke-linecap: square"
           id="path3018" />
      </g>
      <g
         id="patch_21">
        <path
           d="M 43.62875 19.77  L 197.415936 19.77  "
           style="fill: none; stroke: #000000; stroke-width: 0.8; stroke-linejoin: miter; stroke-linecap: square"
           id="path3021" />
      </g>
      <g
         id="text_11">
        <!-- 100 -->
        <g
           transform="translate(57.484599 130.651757) scale(0.06 -0.06)"
           id="g3030">
          <use
             xlink:href="#ArialMT-31"
             id="use3024" />
          <use
             xlink:href="#ArialMT-30"
             x="55.615234"
             id="use3026" />
          <use
             xlink:href="#ArialMT-30"
             x="111.230469"
             id="use3028" />
        </g>
      </g>
      <g
         id="text_12">
        <!-- 182 -->
        <g
           transform="translate(86.501049 127.560338) scale(0.06 -0.06)"
           id="g3043">
          <defs
             id="defs3035">
            <path
               id="ArialMT-38"
               d="M 1131 2484  Q 781 2613 612 2850  Q 444 3088 444 3419  Q 444 3919 803 4259  Q 1163 4600 1759 4600  Q 2359 4600 2725 4251  Q 3091 3903 3091 3403  Q 3091 3084 2923 2848  Q 2756 2613 2416 2484  Q 2838 2347 3058 2040  Q 3278 1734 3278 1309  Q 3278 722 2862 322  Q 2447 -78 1769 -78  Q 1091 -78 675 323  Q 259 725 259 1325  Q 259 1772 486 2073  Q 713 2375 1131 2484  z M 1019 3438  Q 1019 3113 1228 2906  Q 1438 2700 1772 2700  Q 2097 2700 2305 2904  Q 2513 3109 2513 3406  Q 2513 3716 2298 3927  Q 2084 4138 1766 4138  Q 1444 4138 1231 3931  Q 1019 3725 1019 3438  z M 838 1322  Q 838 1081 952 856  Q 1066 631 1291 507  Q 1516 384 1775 384  Q 2178 384 2440 643  Q 2703 903 2703 1303  Q 2703 1709 2433 1975  Q 2163 2241 1756 2241  Q 1359 2241 1098 1978  Q 838 1716 838 1322  z "
               transform="scale(0.015625)" />
            <path
               id="ArialMT-32"
               d="M 3222 541  L 3222 0  L 194 0  Q 188 203 259 391  Q 375 700 629 1000  Q 884 1300 1366 1694  Q 2113 2306 2375 2664  Q 2638 3022 2638 3341  Q 2638 3675 2398 3904  Q 2159 4134 1775 4134  Q 1369 4134 1125 3890  Q 881 3647 878 3216  L 300 3275  Q 359 3922 746 4261  Q 1134 4600 1788 4600  Q 2447 4600 2831 4234  Q 3216 3869 3216 3328  Q 3216 3053 3103 2787  Q 2991 2522 2730 2228  Q 2469 1934 1863 1422  Q 1356 997 1212 845  Q 1069 694 975 541  L 3222 541  z "
               transform="scale(0.015625)" />
          </defs>
          <use
             xlink:href="#ArialMT-31"
             id="use3037" />
          <use
             xlink:href="#ArialMT-38"
             x="55.615234"
             id="use3039" />
          <use
             xlink:href="#ArialMT-32"
             x="111.230469"
             id="use3041" />
        </g>
      </g>
      <g
         id="text_14">
        <!-- 500 -->
        <g
           transform="translate(144.533949 115.571665) scale(0.06 -0.06)"
           id="g3057">
          <use
             xlink:href="#ArialMT-35"
             id="use3051" />
          <use
             xlink:href="#ArialMT-30"
             x="55.615234"
             id="use3053" />
          <use
             xlink:href="#ArialMT-30"
             x="111.230469"
             id="use3055" />
        </g>
      </g>
      <g
         id="text_15">
        <!-- -592 -->
        <g
           transform="translate(172.551493 156.745977) scale(0.06 -0.06)"
           id="g3072">
          <defs
             id="defs3062">
            <path
               id="ArialMT-2d"
               d="M 203 1375  L 203 1941  L 1931 1941  L 1931 1375  L 203 1375  z "
               transform="scale(0.015625)" />
            <path
               id="ArialMT-39"
               d="M 350 1059  L 891 1109  Q 959 728 1153 556  Q 1347 384 1650 384  Q 1909 384 2104 503  Q 2300 622 2425 820  Q 2550 1019 2634 1356  Q 2719 1694 2719 2044  Q 2719 2081 2716 2156  Q 2547 1888 2255 1720  Q 1963 1553 1622 1553  Q 1053 1553 659 1965  Q 266 2378 266 3053  Q 266 3750 677 4175  Q 1088 4600 1706 4600  Q 2153 4600 2523 4359  Q 2894 4119 3086 3673  Q 3278 3228 3278 2384  Q 3278 1506 3087 986  Q 2897 466 2520 194  Q 2144 -78 1638 -78  Q 1100 -78 759 220  Q 419 519 350 1059  z M 2653 3081  Q 2653 3566 2395 3850  Q 2138 4134 1775 4134  Q 1400 4134 1122 3828  Q 844 3522 844 3034  Q 844 2597 1108 2323  Q 1372 2050 1759 2050  Q 2150 2050 2401 2323  Q 2653 2597 2653 3081  z "
               transform="scale(0.015625)" />
          </defs>
          <use
             xlink:href="#ArialMT-2d"
             id="use3064" />
          <use
             xlink:href="#ArialMT-35"
             x="33.300781"
             id="use3066" />
          <use
             xlink:href="#ArialMT-39"
             x="88.916016"
             id="use3068" />
          <use
             xlink:href="#ArialMT-32"
             x="144.53125"
             id="use3070" />
        </g>
      </g>
      <g
         id="text_16">
        <!-- 89 -->
        <g
           transform="translate(59.15288 123.526414) scale(0.06 -0.06)"
           id="g3079">
          <use
             xlink:href="#ArialMT-38"
             id="use3075" />
          <use
             xlink:href="#ArialMT-39"
             x="55.615234"
             id="use3077" />
        </g>
      </g>
      <g
         id="text_17">
        <!-- 457 -->
        <g
           transform="translate(86.501049 103.469892) scale(0.06 -0.06)"
           id="g3092">
          <defs
             id="defs3084">
            <path
               id="ArialMT-34"
               d="M 2069 0  L 2069 1097  L 81 1097  L 81 1613  L 2172 4581  L 2631 4581  L 2631 1613  L 3250 1613  L 3250 1097  L 2631 1097  L 2631 0  L 2069 0  z M 2069 1613  L 2069 3678  L 634 1613  L 2069 1613  z "
               transform="scale(0.015625)" />
            <path
               id="ArialMT-37"
               d="M 303 3981  L 303 4522  L 3269 4522  L 3269 4084  Q 2831 3619 2401 2847  Q 1972 2075 1738 1259  Q 1569 684 1522 0  L 944 0  Q 953 541 1156 1306  Q 1359 2072 1739 2783  Q 2119 3494 2547 3981  L 303 3981  z "
               transform="scale(0.015625)" />
          </defs>
          <use
             xlink:href="#ArialMT-34"
             id="use3086" />
          <use
             xlink:href="#ArialMT-35"
             x="55.615234"
             id="use3088" />
          <use
             xlink:href="#ArialMT-37"
             x="111.230469"
             id="use3090" />
        </g>
      </g>
      <g
         id="text_19">
        <!-- 445 -->
        <g
           transform="translate(144.533949 79.944949) scale(0.06 -0.06)"
           id="g3106">
          <use
             xlink:href="#ArialMT-34"
             id="use3100" />
          <use
             xlink:href="#ArialMT-34"
             x="55.615234"
             id="use3102" />
          <use
             xlink:href="#ArialMT-35"
             x="111.230469"
             id="use3104" />
        </g>
      </g>
      <g
         id="text_20">
        <!-- 789 -->
        <g
           transform="translate(173.5504 104.671027) scale(0.06 -0.06)"
           id="g3115">
          <use
             xlink:href="#ArialMT-37"
             id="use3109" />
          <use
             xlink:href="#ArialMT-38"
             x="55.615234"
             id="use3111" />
          <use
             xlink:href="#ArialMT-39"
             x="111.230469"
             id="use3113" />
        </g>
      </g>
      <g
         id="text_21">
        <!-- 185 -->
        <g
           transform="translate(57.484599 113.196551) scale(0.06 -0.06)"
           id="g3124">
          <use
             xlink:href="#ArialMT-31"
             id="use3118" />
          <use
             xlink:href="#ArialMT-38"
             x="55.615234"
             id="use3120" />
          <use
             xlink:href="#ArialMT-35"
             x="111.230469"
             id="use3122" />
        </g>
      </g>
      <g
         id="text_22">
        <!-- 450 -->
        <g
           transform="translate(86.501049 69.275785) scale(0.06 -0.06)"
           id="g3133">
          <use
             xlink:href="#ArialMT-34"
             id="use3127" />
          <use
             xlink:href="#ArialMT-35"
             x="55.615234"
             id="use3129" />
          <use
             xlink:href="#ArialMT-30"
             x="111.230469"
             id="use3131" />
        </g>
      </g>
      <g
         id="text_24">
        <!-- 355 -->
        <g
           transform="translate(144.533949 49.784766) scale(0.06 -0.06)"
           id="g3150">
          <defs
             id="defs3142">
            <path
               id="ArialMT-33"
               d="M 269 1209  L 831 1284  Q 928 806 1161 595  Q 1394 384 1728 384  Q 2125 384 2398 659  Q 2672 934 2672 1341  Q 2672 1728 2419 1979  Q 2166 2231 1775 2231  Q 1616 2231 1378 2169  L 1441 2663  Q 1497 2656 1531 2656  Q 1891 2656 2178 2843  Q 2466 3031 2466 3422  Q 2466 3731 2256 3934  Q 2047 4138 1716 4138  Q 1388 4138 1169 3931  Q 950 3725 888 3313  L 325 3413  Q 428 3978 793 4289  Q 1159 4600 1703 4600  Q 2078 4600 2393 4439  Q 2709 4278 2876 4000  Q 3044 3722 3044 3409  Q 3044 3113 2884 2869  Q 2725 2625 2413 2481  Q 2819 2388 3044 2092  Q 3269 1797 3269 1353  Q 3269 753 2831 336  Q 2394 -81 1725 -81  Q 1122 -81 723 278  Q 325 638 269 1209  z "
               transform="scale(0.015625)" />
          </defs>
          <use
             xlink:href="#ArialMT-33"
             id="use3144" />
          <use
             xlink:href="#ArialMT-35"
             x="55.615234"
             id="use3146" />
          <use
             xlink:href="#ArialMT-35"
             x="111.230469"
             id="use3148" />
        </g>
      </g>
      <g
         id="text_25">
        <!-- 164 -->
        <g
           transform="translate(173.5504 68.707572) scale(0.06 -0.06)"
           id="g3162">
          <defs
             id="defs3154">
            <path
               id="ArialMT-36"
               d="M 3184 3459  L 2625 3416  Q 2550 3747 2413 3897  Q 2184 4138 1850 4138  Q 1581 4138 1378 3988  Q 1113 3794 959 3422  Q 806 3050 800 2363  Q 1003 2672 1297 2822  Q 1591 2972 1913 2972  Q 2475 2972 2870 2558  Q 3266 2144 3266 1488  Q 3266 1056 3080 686  Q 2894 316 2569 119  Q 2244 -78 1831 -78  Q 1128 -78 684 439  Q 241 956 241 2144  Q 241 3472 731 4075  Q 1159 4600 1884 4600  Q 2425 4600 2770 4297  Q 3116 3994 3184 3459  z M 888 1484  Q 888 1194 1011 928  Q 1134 663 1356 523  Q 1578 384 1822 384  Q 2178 384 2434 671  Q 2691 959 2691 1453  Q 2691 1928 2437 2201  Q 2184 2475 1800 2475  Q 1419 2475 1153 2201  Q 888 1928 888 1484  z "
               transform="scale(0.015625)" />
          </defs>
          <use
             xlink:href="#ArialMT-31"
             id="use3156" />
          <use
             xlink:href="#ArialMT-36"
             x="55.615234"
             id="use3158" />
          <use
             xlink:href="#ArialMT-34"
             x="111.230469"
             id="use3160" />
        </g>
      </g>
      <g
         id="text_26">
        <!-- 2020 -->
        <g
           style="fill: #808080"
           transform="translate(69.212355 29.195057) scale(0.07 -0.07)"
           id="g3177">
          <defs
             id="defs3167">
            <path
               id="Arial-BoldMT-32"
               d="M 3238 816  L 3238 0  L 159 0  Q 209 463 459 877  Q 709 1291 1447 1975  Q 2041 2528 2175 2725  Q 2356 2997 2356 3263  Q 2356 3556 2198 3714  Q 2041 3872 1763 3872  Q 1488 3872 1325 3706  Q 1163 3541 1138 3156  L 263 3244  Q 341 3969 753 4284  Q 1166 4600 1784 4600  Q 2463 4600 2850 4234  Q 3238 3869 3238 3325  Q 3238 3016 3127 2736  Q 3016 2456 2775 2150  Q 2616 1947 2200 1565  Q 1784 1184 1673 1059  Q 1563 934 1494 816  L 3238 816  z "
               transform="scale(0.015625)" />
            <path
               id="Arial-BoldMT-30"
               d="M 1756 4600  Q 2422 4600 2797 4125  Q 3244 3563 3244 2259  Q 3244 959 2794 391  Q 2422 -78 1756 -78  Q 1088 -78 678 436  Q 269 950 269 2269  Q 269 3563 719 4131  Q 1091 4600 1756 4600  z M 1756 3872  Q 1597 3872 1472 3770  Q 1347 3669 1278 3406  Q 1188 3066 1188 2259  Q 1188 1453 1269 1151  Q 1350 850 1473 750  Q 1597 650 1756 650  Q 1916 650 2041 751  Q 2166 853 2234 1116  Q 2325 1453 2325 2259  Q 2325 3066 2244 3367  Q 2163 3669 2039 3770  Q 1916 3872 1756 3872  z "
               transform="scale(0.015625)" />
          </defs>
          <use
             xlink:href="#Arial-BoldMT-32"
             id="use3169" />
          <use
             xlink:href="#Arial-BoldMT-30"
             x="55.615234"
             id="use3171" />
          <use
             xlink:href="#Arial-BoldMT-32"
             x="111.230469"
             id="use3173" />
          <use
             xlink:href="#Arial-BoldMT-30"
             x="166.845703"
             id="use3175" />
        </g>
      </g>
      <g
         id="text_27">
        <!-- 2050 -->
        <g
           style="fill: #808080"
           transform="translate(156.261706 29.195057) scale(0.07 -0.07)"
           id="g3191">
          <defs
             id="defs3181">
            <path
               id="Arial-BoldMT-35"
               d="M 284 1178  L 1159 1269  Q 1197 972 1381 798  Q 1566 625 1806 625  Q 2081 625 2272 848  Q 2463 1072 2463 1522  Q 2463 1944 2273 2155  Q 2084 2366 1781 2366  Q 1403 2366 1103 2031  L 391 2134  L 841 4519  L 3163 4519  L 3163 3697  L 1506 3697  L 1369 2919  Q 1663 3066 1969 3066  Q 2553 3066 2959 2641  Q 3366 2216 3366 1538  Q 3366 972 3038 528  Q 2591 -78 1797 -78  Q 1163 -78 763 262  Q 363 603 284 1178  z "
               transform="scale(0.015625)" />
          </defs>
          <use
             xlink:href="#Arial-BoldMT-32"
             id="use3183" />
          <use
             xlink:href="#Arial-BoldMT-30"
             x="55.615234"
             id="use3185" />
          <use
             xlink:href="#Arial-BoldMT-35"
             x="111.230469"
             id="use3187" />
          <use
             xlink:href="#Arial-BoldMT-30"
             x="166.845703"
             id="use3189" />
        </g>
      </g>
      <g
         id="text_28"
         transform="translate(-3)">
        <!-- a Demand (D) and CO$_\mathrm{2}$ emissions (E) -->
        <g
           transform="matrix(0.09,0,0,-0.09,41.547343,13.77)"
           id="g3280">
          <defs
             id="defs3210">
            <path
               id="Arial-BoldMT-61"
               d="m 1116,2306 -797,144 q 134,481 462,712 328,232 975,232 588,0 875,-139 288,-139 405,-353 117,-214 117,-786 l -9,-1025 q 0,-438 42,-646 42,-207 158,-445 h -869 q -34,88 -84,259 -22,79 -32,104 Q 2134,144 1878,34 1622,-75 1331,-75 819,-75 523,203 228,481 228,906 q 0,282 134,502 135,220 377,337 242,118 699,205 615,116 853,216 v 87 q 0,253 -125,361 -125,108 -472,108 -235,0 -366,-92 -131,-92 -212,-324 z m 1175,-712 q -169,-56 -535,-135 -365,-78 -478,-153 -172,-122 -172,-309 0,-184 137,-319 138,-134 351,-134 237,0 453,156 159,119 209,291 35,112 35,428 z"
               transform="scale(0.015625)" />
            <path
               id="Arial-BoldMT-20"
               transform="scale(0.015625)"
               d="" />
            <path
               id="Arial-BoldMT-44"
               d="m 463,4581 h 1690 q 572,0 872,-87 403,-119 690,-422 288,-303 438,-742 150,-439 150,-1083 0,-566 -140,-975 Q 3991,772 3672,463 3431,228 3022,97 2716,0 2203,0 H 463 Z m 925,-775 V 772 h 690 q 388,0 560,44 225,56 373,190 148,135 242,442 94,308 94,840 0,531 -94,815 -94,285 -263,444 -168,159 -427,216 -194,43 -760,43 z"
               transform="scale(0.015625)" />
            <path
               id="Arial-BoldMT-65"
               d="M 2381,1056 3256,909 Q 3088,428 2723,176 2359,-75 1813,-75 947,-75 531,491 203,944 203,1634 q 0,825 431,1292 432,468 1091,468 741,0 1169,-489 428,-489 409,-1499 H 1103 q 10,-390 213,-608 203,-217 506,-217 206,0 346,112 141,113 213,363 z m 50,888 q -9,381 -197,579 -187,199 -456,199 -287,0 -475,-209 -187,-210 -184,-569 z"
               transform="scale(0.015625)" />
            <path
               id="Arial-BoldMT-6d"
               d="m 394,3319 h 809 v -453 q 435,528 1035,528 318,0 552,-132 235,-131 385,-396 219,265 472,396 253,132 541,132 365,0 618,-149 253,-148 378,-436 91,-212 91,-687 V 0 h -878 v 1897 q 0,494 -91,637 -122,188 -375,188 -184,0 -347,-113 -162,-112 -234,-329 -72,-217 -72,-686 V 0 h -878 v 1819 q 0,484 -47,624 -47,141 -146,210 -98,69 -266,69 -203,0 -366,-110 -162,-109 -233,-315 -70,-206 -70,-684 V 0 H 394 Z"
               transform="scale(0.015625)" />
            <path
               id="Arial-BoldMT-6e"
               d="m 3478,0 h -878 v 1694 q 0,537 -56,695 -56,158 -183,245 -127,88 -305,88 -228,0 -409,-125 -181,-125 -249,-332 -67,-206 -67,-762 V 0 H 453 v 3319 h 816 v -488 q 434,563 1094,563 290,0 530,-105 241,-105 364,-268 124,-162 172,-368 49,-206 49,-590 z"
               transform="scale(0.015625)" />
            <path
               id="Arial-BoldMT-64"
               d="M 3503,0 H 2688 V 488 Q 2484,203 2207,64 1931,-75 1650,-75 1078,-75 670,386 263,847 263,1672 q 0,844 396,1283 397,439 1004,439 556,0 962,-463 v 1650 h 878 z M 1159,1731 q 0,-531 147,-768 213,-344 594,-344 303,0 515,257 213,258 213,771 0,572 -206,823 -206,252 -528,252 -313,0 -524,-249 -211,-248 -211,-742 z"
               transform="scale(0.015625)" />
            <path
               id="Arial-BoldMT-28"
               d="M 1916,-1347 H 1313 Q 834,-625 584,153 334,931 334,1659 q 0,904 310,1710 269,700 681,1290 h 600 q -428,-946 -589,-1611 -161,-664 -161,-1407 0,-513 95,-1051 96,-537 261,-1021 110,-319 385,-916 z"
               transform="scale(0.015625)" />
            <path
               id="Arial-BoldMT-29"
               d="m 216,-1347 q 259,556 365,853 107,297 197,684 91,388 134,736 44,349 44,715 0,743 -159,1407 -159,665 -588,1611 h 597 q 472,-671 733,-1425 261,-753 261,-1528 0,-653 -206,-1400 -235,-837 -772,-1653 z"
               transform="scale(0.015625)" />
            <path
               id="Arial-BoldMT-43"
               d="m 3397,1684 897,-284 Q 4088,650 3608,286 3128,-78 2391,-78 1478,-78 890,545 303,1169 303,2250 q 0,1144 590,1776 591,633 1554,633 841,0 1366,-496 312,-294 468,-844 l -915,-219 q -82,356 -340,562 -257,207 -626,207 -509,0 -827,-366 -317,-365 -317,-1184 0,-869 312,-1238 313,-368 813,-368 369,0 634,234 266,234 382,737 z"
               transform="scale(0.015625)" />
            <path
               id="Arial-BoldMT-4f"
               d="m 278,2263 q 0,700 210,1175 156,350 426,628 270,278 592,412 428,181 988,181 1012,0 1620,-628 608,-628 608,-1747 Q 4722,1175 4119,548 3516,-78 2506,-78 1484,-78 881,545 278,1169 278,2263 Z m 953,31 q 0,-778 359,-1180 360,-401 913,-401 553,0 908,398 355,398 355,1195 0,788 -346,1175 -345,388 -917,388 -572,0 -922,-393 -350,-392 -350,-1182 z"
               transform="scale(0.015625)" />
            <path
               id="DejaVuSans-32"
               d="M 1228,531 H 3431 V 0 H 469 v 531 q 359,372 979,998 621,627 780,809 303,340 423,576 121,236 121,464 0,372 -261,606 -261,235 -680,235 -297,0 -627,-103 -329,-103 -704,-313 v 638 q 381,153 712,231 332,78 607,78 725,0 1156,-363 431,-362 431,-968 0,-288 -108,-546 -107,-257 -392,-607 -78,-91 -497,-524 Q 1991,1309 1228,531 Z"
               transform="scale(0.015625)" />
            <path
               id="Arial-BoldMT-69"
               d="m 459,3769 v 812 h 879 V 3769 Z M 459,0 v 3319 h 879 V 0 Z"
               transform="scale(0.015625)" />
            <path
               id="Arial-BoldMT-73"
               d="m 150,947 881,134 q 57,-256 228,-389 172,-133 482,-133 340,0 512,125 116,88 116,235 0,100 -63,165 -65,63 -293,116 -1063,234 -1347,428 -394,269 -394,747 0,431 340,725 341,294 1057,294 681,0 1012,-222 332,-222 457,-656 l -829,-153 q -53,193 -202,296 -148,104 -423,104 -346,0 -496,-97 -100,-69 -100,-178 0,-94 87,-160 119,-87 820,-247 702,-159 980,-390 275,-235 275,-653 0,-457 -381,-785 Q 2488,-75 1741,-75 1063,-75 667,200 272,475 150,947 Z"
               transform="scale(0.015625)" />
            <path
               id="Arial-BoldMT-6f"
               d="m 256,1706 q 0,438 216,847 216,410 611,625 395,216 883,216 753,0 1234,-489 481,-489 481,-1236 Q 3681,916 3195,420 2709,-75 1972,-75 1516,-75 1102,131 688,338 472,736 256,1134 256,1706 Z m 900,-47 q 0,-493 234,-756 235,-262 579,-262 344,0 576,262 233,263 233,763 0,487 -233,749 -232,263 -576,263 -344,0 -579,-263 -234,-262 -234,-756 z"
               transform="scale(0.015625)" />
            <path
               id="Arial-BoldMT-45"
               d="M 466,0 V 4581 H 3863 V 3806 H 1391 V 2791 H 3691 V 2019 H 1391 V 772 H 3950 V 0 Z"
               transform="scale(0.015625)" />
          </defs>
          <use
             xlink:href="#Arial-BoldMT-61"
             transform="translate(-351.86631,0.203125)"
             id="use3212" />
          <use
             xlink:href="#Arial-BoldMT-20"
             transform="translate(55.615234,0.203125)"
             id="use3214" />
          <use
             xlink:href="#Arial-BoldMT-44"
             transform="translate(83.398438,0.203125)"
             id="use3216" />
          <use
             xlink:href="#Arial-BoldMT-65"
             transform="translate(155.61523,0.203125)"
             id="use3218" />
          <use
             xlink:href="#Arial-BoldMT-6d"
             transform="translate(211.23047,0.203125)"
             id="use3220" />
          <use
             xlink:href="#Arial-BoldMT-61"
             transform="translate(300.14648,0.203125)"
             id="use3222" />
          <use
             xlink:href="#Arial-BoldMT-6e"
             transform="translate(355.76172,0.203125)"
             id="use3224" />
          <use
             xlink:href="#Arial-BoldMT-64"
             transform="translate(416.8457,0.203125)"
             id="use3226" />
          <use
             xlink:href="#Arial-BoldMT-20"
             transform="translate(477.92969,0.203125)"
             id="use3228" />
          <use
             xlink:href="#Arial-BoldMT-28"
             transform="translate(505.71289,0.203125)"
             id="use3230" />
          <use
             xlink:href="#Arial-BoldMT-44"
             transform="translate(539.01367,0.203125)"
             id="use3232" />
          <use
             xlink:href="#Arial-BoldMT-29"
             transform="translate(611.23047,0.203125)"
             id="use3234" />
          <use
             xlink:href="#Arial-BoldMT-20"
             transform="translate(644.53125,0.203125)"
             id="use3236" />
          <use
             xlink:href="#Arial-BoldMT-61"
             transform="translate(672.31445,0.203125)"
             id="use3238" />
          <use
             xlink:href="#Arial-BoldMT-6e"
             transform="translate(727.92969,0.203125)"
             id="use3240" />
          <use
             xlink:href="#Arial-BoldMT-64"
             transform="translate(789.01367,0.203125)"
             id="use3242" />
          <use
             xlink:href="#Arial-BoldMT-20"
             transform="translate(850.09766,0.203125)"
             id="use3244" />
          <use
             xlink:href="#Arial-BoldMT-43"
             transform="translate(877.88086,0.203125)"
             id="use3246" />
          <use
             xlink:href="#Arial-BoldMT-4f"
             transform="translate(950.09766,0.203125)"
             id="use3248" />
          <use
             xlink:href="#DejaVuSans-32"
             transform="matrix(0.7,0,0,0.7,1028.8379,-16.203125)"
             id="use3250" />
          <use
             xlink:href="#Arial-BoldMT-20"
             transform="translate(1076.1084,0.203125)"
             id="use3252" />
          <use
             xlink:href="#Arial-BoldMT-65"
             transform="translate(1103.8916,0.203125)"
             id="use3254" />
          <use
             xlink:href="#Arial-BoldMT-6d"
             transform="translate(1159.5068,0.203125)"
             id="use3256" />
          <use
             xlink:href="#Arial-BoldMT-69"
             transform="translate(1248.4229,0.203125)"
             id="use3258" />
          <use
             xlink:href="#Arial-BoldMT-73"
             transform="translate(1276.2061,0.203125)"
             id="use3260" />
          <use
             xlink:href="#Arial-BoldMT-73"
             transform="translate(1331.8213,0.203125)"
             id="use3262" />
          <use
             xlink:href="#Arial-BoldMT-69"
             transform="translate(1387.4365,0.203125)"
             id="use3264" />
          <use
             xlink:href="#Arial-BoldMT-6f"
             transform="translate(1415.2197,0.203125)"
             id="use3266" />
          <use
             xlink:href="#Arial-BoldMT-6e"
             transform="translate(1476.3037,0.203125)"
             id="use3268" />
          <use
             xlink:href="#Arial-BoldMT-73"
             transform="translate(1537.3877,0.203125)"
             id="use3270" />
          <use
             xlink:href="#Arial-BoldMT-20"
             transform="translate(1593.0029,0.203125)"
             id="use3272" />
          <use
             xlink:href="#Arial-BoldMT-28"
             transform="translate(1620.7861,0.203125)"
             id="use3274" />
          <use
             xlink:href="#Arial-BoldMT-45"
             transform="translate(1654.0869,0.203125)"
             id="use3276" />
          <use
             xlink:href="#Arial-BoldMT-29"
             transform="translate(1720.7861,0.203125)"
             id="use3278" />
        </g>
      </g>
      <g
         id="legend_1">
        <g
           id="patch_22">
          <path
             d="M 50.82875 154.134756  L 62.82875 154.134756  L 62.82875 148.534756  L 50.82875 148.534756  z "
             style="fill: #fb7b71"
             id="path3283" />
        </g>
        <g
           id="text_29">
          <!-- Methanol -->
          <g
             transform="translate(67.62875 154.134756) scale(0.08 -0.08)"
             id="g3308">
            <defs
               id="defs3290">
              <path
                 id="ArialMT-68"
                 d="M 422 0  L 422 4581  L 984 4581  L 984 2938  Q 1378 3394 1978 3394  Q 2347 3394 2619 3248  Q 2891 3103 3008 2847  Q 3125 2591 3125 2103  L 3125 0  L 2563 0  L 2563 2103  Q 2563 2525 2380 2717  Q 2197 2909 1863 2909  Q 1613 2909 1392 2779  Q 1172 2650 1078 2428  Q 984 2206 984 1816  L 984 0  L 422 0  z "
                 transform="scale(0.015625)" />
              <path
                 id="ArialMT-6e"
                 d="M 422 0  L 422 3319  L 928 3319  L 928 2847  Q 1294 3394 1984 3394  Q 2284 3394 2536 3286  Q 2788 3178 2913 3003  Q 3038 2828 3088 2588  Q 3119 2431 3119 2041  L 3119 0  L 2556 0  L 2556 2019  Q 2556 2363 2490 2533  Q 2425 2703 2258 2804  Q 2091 2906 1866 2906  Q 1506 2906 1245 2678  Q 984 2450 984 1813  L 984 0  L 422 0  z "
                 transform="scale(0.015625)" />
              <path
                 id="ArialMT-6f"
                 d="M 213 1659  Q 213 2581 725 3025  Q 1153 3394 1769 3394  Q 2453 3394 2887 2945  Q 3322 2497 3322 1706  Q 3322 1066 3130 698  Q 2938 331 2570 128  Q 2203 -75 1769 -75  Q 1072 -75 642 372  Q 213 819 213 1659  z M 791 1659  Q 791 1022 1069 705  Q 1347 388 1769 388  Q 2188 388 2466 706  Q 2744 1025 2744 1678  Q 2744 2294 2464 2611  Q 2184 2928 1769 2928  Q 1347 2928 1069 2612  Q 791 2297 791 1659  z "
                 transform="scale(0.015625)" />
              <path
                 id="ArialMT-6c"
                 d="M 409 0  L 409 4581  L 972 4581  L 972 0  L 409 0  z "
                 transform="scale(0.015625)" />
            </defs>
            <use
               xlink:href="#ArialMT-4d"
               id="use3292" />
            <use
               xlink:href="#ArialMT-65"
               x="83.300781"
               id="use3294" />
            <use
               xlink:href="#ArialMT-74"
               x="138.916016"
               id="use3296" />
            <use
               xlink:href="#ArialMT-68"
               x="166.699219"
               id="use3298" />
            <use
               xlink:href="#ArialMT-61"
               x="222.314453"
               id="use3300" />
            <use
               xlink:href="#ArialMT-6e"
               x="277.929688"
               id="use3302" />
            <use
               xlink:href="#ArialMT-6f"
               x="333.544922"
               id="use3304" />
            <use
               xlink:href="#ArialMT-6c"
               x="389.160156"
               id="use3306" />
          </g>
        </g>
        <g
           id="patch_23">
          <path
             d="M 50.82875 165.451006  L 62.82875 165.451006  L 62.82875 159.851006  L 50.82875 159.851006  z "
             style="fill: #6dd2ea"
             id="path3311" />
        </g>
        <g
           id="text_30">
          <!-- Hydrogen -->
          <g
             transform="translate(67.62875 165.451006) scale(0.08 -0.08)"
             id="g3335">
            <defs
               id="defs3317">
              <path
                 id="ArialMT-48"
                 d="M 513 0  L 513 4581  L 1119 4581  L 1119 2700  L 3500 2700  L 3500 4581  L 4106 4581  L 4106 0  L 3500 0  L 3500 2159  L 1119 2159  L 1119 0  L 513 0  z "
                 transform="scale(0.015625)" />
              <path
                 id="ArialMT-64"
                 d="M 2575 0  L 2575 419  Q 2259 -75 1647 -75  Q 1250 -75 917 144  Q 584 363 401 755  Q 219 1147 219 1656  Q 219 2153 384 2558  Q 550 2963 881 3178  Q 1213 3394 1622 3394  Q 1922 3394 2156 3267  Q 2391 3141 2538 2938  L 2538 4581  L 3097 4581  L 3097 0  L 2575 0  z M 797 1656  Q 797 1019 1065 703  Q 1334 388 1700 388  Q 2069 388 2326 689  Q 2584 991 2584 1609  Q 2584 2291 2321 2609  Q 2059 2928 1675 2928  Q 1300 2928 1048 2622  Q 797 2316 797 1656  z "
                 transform="scale(0.015625)" />
              <path
                 id="ArialMT-67"
                 d="M 319 -275  L 866 -356  Q 900 -609 1056 -725  Q 1266 -881 1628 -881  Q 2019 -881 2231 -725  Q 2444 -569 2519 -288  Q 2563 -116 2559 434  Q 2191 0 1641 0  Q 956 0 581 494  Q 206 988 206 1678  Q 206 2153 378 2554  Q 550 2956 876 3175  Q 1203 3394 1644 3394  Q 2231 3394 2613 2919  L 2613 3319  L 3131 3319  L 3131 450  Q 3131 -325 2973 -648  Q 2816 -972 2473 -1159  Q 2131 -1347 1631 -1347  Q 1038 -1347 672 -1080  Q 306 -813 319 -275  z M 784 1719  Q 784 1066 1043 766  Q 1303 466 1694 466  Q 2081 466 2343 764  Q 2606 1063 2606 1700  Q 2606 2309 2336 2618  Q 2066 2928 1684 2928  Q 1309 2928 1046 2623  Q 784 2319 784 1719  z "
                 transform="scale(0.015625)" />
            </defs>
            <use
               xlink:href="#ArialMT-48"
               id="use3319" />
            <use
               xlink:href="#ArialMT-79"
               x="72.216797"
               id="use3321" />
            <use
               xlink:href="#ArialMT-64"
               x="122.216797"
               id="use3323" />
            <use
               xlink:href="#ArialMT-72"
               x="177.832031"
               id="use3325" />
            <use
               xlink:href="#ArialMT-6f"
               x="211.132812"
               id="use3327" />
            <use
               xlink:href="#ArialMT-67"
               x="266.748047"
               id="use3329" />
            <use
               xlink:href="#ArialMT-65"
               x="322.363281"
               id="use3331" />
            <use
               xlink:href="#ArialMT-6e"
               x="377.978516"
               id="use3333" />
          </g>
        </g>
        <g
           id="patch_24">
          <path
             d="M 50.82875 176.861006  L 62.82875 176.861006  L 62.82875 171.261006  L 50.82875 171.261006  z "
             style="fill: #a78dd8"
             id="path3338" />
        </g>
        <g
           id="text_31">
          <!-- Ammonia -->
          <g
             transform="translate(67.62875 176.861006) scale(0.08 -0.08)"
             id="g3360">
            <defs
               id="defs3344">
              <path
                 id="ArialMT-41"
                 d="M -9 0  L 1750 4581  L 2403 4581  L 4278 0  L 3588 0  L 3053 1388  L 1138 1388  L 634 0  L -9 0  z M 1313 1881  L 2866 1881  L 2388 3150  Q 2169 3728 2063 4100  Q 1975 3659 1816 3225  L 1313 1881  z "
                 transform="scale(0.015625)" />
              <path
                 id="ArialMT-6d"
                 d="M 422 0  L 422 3319  L 925 3319  L 925 2853  Q 1081 3097 1340 3245  Q 1600 3394 1931 3394  Q 2300 3394 2536 3241  Q 2772 3088 2869 2813  Q 3263 3394 3894 3394  Q 4388 3394 4653 3120  Q 4919 2847 4919 2278  L 4919 0  L 4359 0  L 4359 2091  Q 4359 2428 4304 2576  Q 4250 2725 4106 2815  Q 3963 2906 3769 2906  Q 3419 2906 3187 2673  Q 2956 2441 2956 1928  L 2956 0  L 2394 0  L 2394 2156  Q 2394 2531 2256 2718  Q 2119 2906 1806 2906  Q 1569 2906 1367 2781  Q 1166 2656 1075 2415  Q 984 2175 984 1722  L 984 0  L 422 0  z "
                 transform="scale(0.015625)" />
              <path
                 id="ArialMT-69"
                 d="M 425 3934  L 425 4581  L 988 4581  L 988 3934  L 425 3934  z M 425 0  L 425 3319  L 988 3319  L 988 0  L 425 0  z "
                 transform="scale(0.015625)" />
            </defs>
            <use
               xlink:href="#ArialMT-41"
               id="use3346" />
            <use
               xlink:href="#ArialMT-6d"
               x="66.699219"
               id="use3348" />
            <use
               xlink:href="#ArialMT-6d"
               x="150"
               id="use3350" />
            <use
               xlink:href="#ArialMT-6f"
               x="233.300781"
               id="use3352" />
            <use
               xlink:href="#ArialMT-6e"
               x="288.916016"
               id="use3354" />
            <use
               xlink:href="#ArialMT-69"
               x="344.53125"
               id="use3356" />
            <use
               xlink:href="#ArialMT-61"
               x="366.748047"
               id="use3358" />
          </g>
        </g>
      </g>
    </g>
  </g>
  <defs
     id="defs3369">
    <clipPath
       id="p0900047711">
      <rect
         x="43.62875"
         y="19.77"
         width="153.787186"
         height="165.881006"
         id="rect3366" />
    </clipPath>
  </defs>
</svg>
