<?xml version="1.0" encoding="UTF-8" standalone="no"?>
<svg
   width="249.40369pt"
   height="250pt"
   viewBox="0 0 249.40368 250.00001"
   version="1.1"
   id="svg1286"
   sodipodi:docname="Hydrogen image SSP2 GLO.svg"
   inkscape:version="1.2.2 (732a01da63, 2022-12-09)"
   inkscape:export-filename="RP temp.png"
   inkscape:export-xdpi="1200"
   inkscape:export-ydpi="1200"
   xmlns:inkscape="http://www.inkscape.org/namespaces/inkscape"
   xmlns:sodipodi="http://sodipodi.sourceforge.net/DTD/sodipodi-0.dtd"
   xmlns:xlink="http://www.w3.org/1999/xlink"
   xmlns="http://www.w3.org/2000/svg"
   xmlns:svg="http://www.w3.org/2000/svg"
   xmlns:rdf="http://www.w3.org/1999/02/22-rdf-syntax-ns#"
   xmlns:cc="http://creativecommons.org/ns#"
   xmlns:dc="http://purl.org/dc/elements/1.1/">
  <sodipodi:namedview
     id="namedview1288"
     pagecolor="#ffffff"
     bordercolor="#000000"
     borderopacity="0.25"
     inkscape:showpageshadow="2"
     inkscape:pageopacity="0.0"
     inkscape:pagecheckerboard="0"
     inkscape:deskcolor="#d1d1d1"
     inkscape:document-units="pt"
     showgrid="false"
     inkscape:zoom="2.7487161"
     inkscape:cx="110.05138"
     inkscape:cy="187.1783"
     inkscape:window-width="3200"
     inkscape:window-height="1721"
     inkscape:window-x="3191"
     inkscape:window-y="-9"
     inkscape:window-maximized="1"
     inkscape:current-layer="figure_1" />
  <metadata
     id="metadata691">
    <rdf:RDF>
      <cc:Work>
        <dc:type
           rdf:resource="http://purl.org/dc/dcmitype/StillImage" />
        <dc:date>2023-09-19T21:24:51.555830</dc:date>
        <dc:format>image/svg+xml</dc:format>
        <dc:creator>
          <cc:Agent>
            <dc:title>Matplotlib v3.7.1, https://matplotlib.org/</dc:title>
          </cc:Agent>
        </dc:creator>
      </cc:Work>
    </rdf:RDF>
  </metadata>
  <defs
     id="defs695">
    <style
       type="text/css"
       id="style693">*{stroke-linejoin: round; stroke-linecap: butt}</style>
  </defs>
  <g
     id="figure_1">
    <g
       id="patch_1"
       transform="matrix(1,0,0,0.8899708,0,2.0611233)">
      <path
         d="M 0,280.22175 H 249.40368 V 0 H 0 Z"
         style="fill:#ffffff"
         id="path697" />
    </g>
    <g
       id="axes_1"
       transform="translate(0,-24)">
      <g
         id="patch_2">
        <path
           d="M 38.28,70.785091 H 239.70368 V 27.21499 H 38.28 Z"
           style="fill:#ffffff"
           id="path700" />
      </g>
      <g
         id="patch_3">
        <path
           d="M 47.435622,36.810051 108.4731,44.945755 V 38.244358 Z"
           clip-path="url(#paa38605736)"
           style="opacity:0.3;fill:#808080"
           id="path703" />
      </g>
      <g
         id="patch_4">
        <path
           d="m 108.4731,44.945755 61.03748,2.933779 V 39.148607 L 108.4731,38.244358 Z"
           clip-path="url(#paa38605736)"
           style="opacity:0.3;fill:#808080"
           id="path706" />
      </g>
      <g
         id="patch_5">
        <path
           d="m 169.51058,47.879534 61.03748,1.324003 v -9.599964 l -61.03748,-0.454966 z"
           clip-path="url(#paa38605736)"
           style="opacity:0.3;fill:#808080"
           id="path709" />
      </g>
      <g
         id="line2d_1">
        <path
           d="M 47.435622,36.810051 108.4731,40.434704"
           clip-path="url(#paa38605736)"
           style="fill:none;stroke:#000000;stroke-width:1.5;stroke-dasharray:9.6, 2.4, 1.5, 2.4;stroke-dashoffset:0"
           id="path712" />
      </g>
      <g
         id="line2d_2">
        <path
           d="m 108.4731,40.434704 61.03748,3.847636 61.03748,2.016561"
           clip-path="url(#paa38605736)"
           style="fill:none;stroke:#000000;stroke-width:1.5;stroke-dasharray:9.6, 2.4, 1.5, 2.4;stroke-dashoffset:0"
           id="path715" />
      </g>
      <g
         id="line2d_3">
        <path
           d="M 47.435622,36.810051 108.4731,44.945755"
           clip-path="url(#paa38605736)"
           style="fill:none;stroke:#000000;stroke-width:1.5;stroke-dasharray:5.55, 2.4;stroke-dashoffset:0"
           id="path718" />
      </g>
      <g
         id="line2d_4">
        <path
           d="m 108.4731,44.945755 61.03748,2.933779 61.03748,1.324003"
           clip-path="url(#paa38605736)"
           style="fill:none;stroke:#000000;stroke-width:1.5;stroke-dasharray:5.55, 2.4;stroke-dashoffset:0"
           id="path721" />
      </g>
      <g
         id="line2d_5">
        <path
           d="M 47.435622,36.810051 108.4731,38.244358"
           clip-path="url(#paa38605736)"
           style="fill:none;stroke:#000000;stroke-width:1.5;stroke-linecap:square"
           id="path724" />
      </g>
      <g
         id="line2d_6">
        <path
           d="m 108.4731,38.244358 61.03748,0.904249 61.03748,0.454966"
           clip-path="url(#paa38605736)"
           style="fill:none;stroke:#000000;stroke-width:1.5;stroke-linecap:square"
           id="path727" />
      </g>
      <g
         id="matplotlib.axis_1">
        <g
           id="xtick_1" />
        <g
           id="xtick_2" />
        <g
           id="xtick_3" />
        <g
           id="xtick_4" />
      </g>
      <g
         id="matplotlib.axis_2">
        <g
           id="ytick_1">
          <g
             id="line2d_7">
            <defs
               id="defs736">
              <path
                 id="m9704bd0e4e"
                 d="M 0,0 H -3.5"
                 style="stroke:#000000;stroke-width:0.8" />
            </defs>
            <g
               id="g740">
              <use
                 xlink:href="#m9704bd0e4e"
                 x="38.279999"
                 y="62.071072"
                 style="stroke:#000000;stroke-width:0.8"
                 id="use738" />
            </g>
          </g>
          <g
             id="text_1">
            <!-- 10.5 -->
            <g
               transform="matrix(0.08,0,0,-0.08,15.71125,64.934196)"
               id="g757">
              <defs
                 id="defs747">
                <path
                   id="ArialMT-31"
                   d="M 2384,0 H 1822 V 3584 Q 1619,3391 1289,3197 959,3003 697,2906 v 544 q 472,222 825,537 353,316 500,613 h 362 z"
                   transform="scale(0.015625)" />
                <path
                   id="ArialMT-30"
                   d="m 266,2259 q 0,813 167,1308 167,496 496,764 330,269 830,269 369,0 647,-149 278,-148 459,-428 182,-279 285,-681 103,-401 103,-1083 0,-806 -166,-1301 Q 2922,463 2592,192 2263,-78 1759,-78 1097,-78 719,397 266,969 266,2259 Z m 578,0 q 0,-1128 264,-1502 264,-373 651,-373 388,0 652,375 264,375 264,1500 0,1132 -264,1503 -264,372 -658,372 -387,0 -619,-328 Q 844,3388 844,2259 Z"
                   transform="scale(0.015625)" />
                <path
                   id="ArialMT-2e"
                   d="m 581,0 v 641 h 641 V 0 Z"
                   transform="scale(0.015625)" />
                <path
                   id="ArialMT-35"
                   d="m 266,1200 590,50 q 66,-431 305,-649 239,-217 577,-217 406,0 687,306 281,307 281,813 0,481 -270,759 -270,279 -708,279 -272,0 -491,-124 -218,-123 -343,-320 l -528,69 443,2353 H 3088 V 3981 H 1259 L 1013,2750 q 412,288 865,288 600,0 1012,-416 413,-416 413,-1069 Q 3303,931 2941,478 2500,-78 1738,-78 1113,-78 717,272 322,622 266,1200 Z"
                   transform="scale(0.015625)" />
              </defs>
              <use
                 xlink:href="#ArialMT-31"
                 id="use749" />
              <use
                 xlink:href="#ArialMT-30"
                 x="55.615234"
                 id="use751" />
              <use
                 xlink:href="#ArialMT-2e"
                 x="111.23047"
                 id="use753" />
              <use
                 xlink:href="#ArialMT-35"
                 x="139.01367"
                 id="use755" />
            </g>
          </g>
        </g>
        <g
           id="ytick_2">
          <g
             id="line2d_8">
            <g
               id="g763">
              <use
                 xlink:href="#m9704bd0e4e"
                 x="38.279999"
                 y="40.286018"
                 style="stroke:#000000;stroke-width:0.8"
                 id="use761" />
            </g>
          </g>
          <g
             id="text_2">
            <!-- 11.0 -->
            <g
               transform="matrix(0.08,0,0,-0.08,16.30125,43.149145)"
               id="g774">
              <use
                 xlink:href="#ArialMT-31"
                 id="use766" />
              <use
                 xlink:href="#ArialMT-31"
                 x="48.240234"
                 id="use768" />
              <use
                 xlink:href="#ArialMT-2e"
                 x="103.85547"
                 id="use770" />
              <use
                 xlink:href="#ArialMT-30"
                 x="131.63867"
                 id="use772" />
            </g>
          </g>
        </g>
      </g>
      <g
         id="PathCollection_1">
        <defs
           id="defs780">
          <path
             id="m2edd2ce4c4"
             d="m 0,2.738613 c 0.726289,0 1.422928,-0.288558 1.936492,-0.802121 C 2.450055,1.422928 2.738613,0.726289 2.738613,0 c 0,-0.726289 -0.288558,-1.422928 -0.802121,-1.936492 C 1.422928,-2.450055 0.726289,-2.738613 0,-2.738613 c -0.726289,0 -1.422928,0.288558 -1.936492,0.802121 C -2.450055,-1.422928 -2.738613,-0.726289 -2.738613,0 c 0,0.726289 0.288558,1.422928 0.802121,1.936492 C -1.422928,2.450055 -0.726289,2.738613 0,2.738613 Z"
             style="stroke:#000000" />
        </defs>
        <g
           clip-path="url(#paa38605736)"
           id="g784">
          <use
             xlink:href="#m2edd2ce4c4"
             x="47.435623"
             y="36.810051"
             style="fill:#d8d8d8;stroke:#000000"
             id="use782" />
        </g>
      </g>
      <g
         id="line2d_9">
        <defs
           id="defs788">
          <path
             id="m8133d594d4"
             d="m -2.5,0 h 5"
             style="stroke:#000000" />
        </defs>
        <g
           id="g794">
          <use
             xlink:href="#m8133d594d4"
             x="38.279999"
             y="70.785088"
             style="stroke:#000000"
             id="use790" />
          <use
             xlink:href="#m8133d594d4"
             x="239.70367"
             y="70.785088"
             style="stroke:#000000"
             id="use792" />
        </g>
      </g>
      <g
         id="patch_6">
        <path
           d="M 38.28,70.785091 V 27.21499"
           style="fill:none;stroke:#000000;stroke-width:0.8;stroke-linecap:square;stroke-linejoin:miter"
           id="path797" />
      </g>
      <g
         id="patch_7">
        <path
           d="M 239.70368,70.785091 V 27.21499"
           style="fill:none;stroke:#000000;stroke-width:0.8;stroke-linecap:square;stroke-linejoin:miter"
           id="path800" />
      </g>
      <g
         id="patch_8">
        <path
           d="M 38.28,27.21499 H 239.70368"
           style="fill:none;stroke:#000000;stroke-width:0.8;stroke-linecap:square;stroke-linejoin:miter"
           id="path803" />
      </g>
    </g>
    <g
       id="axes_2"
       transform="translate(0,-24)">
      <g
         id="patch_9">
        <path
           d="M 38.28,258.7055 H 239.70368 V 84.425091 H 38.28 Z"
           style="fill:#ffffff"
           id="path807" />
      </g>
      <g
         id="patch_10">
        <path
           d="M 47.435622,92.346928 108.4731,104.63475 V 93.955338 Z"
           clip-path="url(#p5d4c8b861e)"
           style="opacity:0.3;fill:#a78dd8"
           id="path810" />
      </g>
      <g
         id="patch_11">
        <path
           d="m 108.4731,104.63475 61.03748,3.94398 V 95.124339 L 108.4731,93.955338 Z"
           clip-path="url(#p5d4c8b861e)"
           style="opacity:0.3;fill:#a78dd8"
           id="path813" />
      </g>
      <g
         id="patch_12">
        <path
           d="m 169.51058,108.57873 61.03748,1.5762 V 96.050483 l -61.03748,-0.926144 z"
           clip-path="url(#p5d4c8b861e)"
           style="opacity:0.3;fill:#a78dd8"
           id="path816" />
      </g>
      <g
         id="patch_13">
        <path
           d="M 47.435622,197.81633 108.4731,234.43801 V 208.33114 Z"
           clip-path="url(#p5d4c8b861e)"
           style="opacity:0.3;fill:#6dd2ea"
           id="path819" />
      </g>
      <g
         id="patch_14">
        <path
           d="m 108.4731,234.43801 61.03748,12.90173 v -30.01879 l -61.03748,-8.98981 z"
           clip-path="url(#p5d4c8b861e)"
           style="opacity:0.3;fill:#6dd2ea"
           id="path822" />
      </g>
      <g
         id="patch_15">
        <path
           d="m 169.51058,247.33974 61.03748,3.44392 v -31.61187 l -61.03748,-1.85084 z"
           clip-path="url(#p5d4c8b861e)"
           style="opacity:0.3;fill:#6dd2ea"
           id="path825" />
      </g>
      <g
         id="patch_16">
        <path
           d="m 47.435622,127.00327 61.037478,75.23677 v -45.3023 z"
           clip-path="url(#p5d4c8b861e)"
           style="opacity:0.3;fill:#fb7b71"
           id="path828" />
      </g>
      <g
         id="patch_17">
        <path
           d="m 108.4731,202.24004 61.03748,19.55204 V 175.614 L 108.4731,156.93774 Z"
           clip-path="url(#p5d4c8b861e)"
           style="opacity:0.3;fill:#fb7b71"
           id="path831" />
      </g>
      <g
         id="patch_18">
        <path
           d="m 169.51058,221.79208 61.03748,6.72187 V 183.36451 L 169.51058,175.614 Z"
           clip-path="url(#p5d4c8b861e)"
           style="opacity:0.3;fill:#fb7b71"
           id="path834" />
      </g>
      <g
         id="line2d_10">
        <path
           d="M 47.435622,92.346928 108.4731,97.163765"
           clip-path="url(#p5d4c8b861e)"
           style="fill:none;stroke:#52318e;stroke-width:1.5;stroke-dasharray:9.6, 2.4, 1.5, 2.4;stroke-dashoffset:0"
           id="path837" />
      </g>
      <g
         id="line2d_11">
        <path
           d="m 108.4731,97.163765 61.03748,6.414655 61.03748,3.60719"
           clip-path="url(#p5d4c8b861e)"
           style="fill:none;stroke:#52318e;stroke-width:1.5;stroke-dasharray:9.6, 2.4, 1.5, 2.4;stroke-dashoffset:0"
           id="path840" />
      </g>
      <g
         id="line2d_12">
        <path
           d="M 47.435622,92.346928 108.4731,104.63475"
           clip-path="url(#p5d4c8b861e)"
           style="fill:none;stroke:#52318e;stroke-width:1.5;stroke-dasharray:5.55, 2.4;stroke-dashoffset:0"
           id="path843" />
      </g>
      <g
         id="line2d_13">
        <path
           d="m 108.4731,104.63475 61.03748,3.94398 61.03748,1.5762"
           clip-path="url(#p5d4c8b861e)"
           style="fill:none;stroke:#52318e;stroke-width:1.5;stroke-dasharray:5.55, 2.4;stroke-dashoffset:0"
           id="path846" />
      </g>
      <g
         id="line2d_14">
        <path
           d="m 47.435622,92.346928 61.037478,1.60841"
           clip-path="url(#p5d4c8b861e)"
           style="fill:none;stroke:#52318e;stroke-width:1.5;stroke-linecap:square"
           id="path849" />
      </g>
      <g
         id="line2d_15">
        <path
           d="m 108.4731,93.955338 61.03748,1.169001 61.03748,0.926144"
           clip-path="url(#p5d4c8b861e)"
           style="fill:none;stroke:#52318e;stroke-width:1.5;stroke-linecap:square"
           id="path852" />
      </g>
      <g
         id="line2d_16">
        <path
           d="M 47.435622,197.81633 108.4731,216.57468"
           clip-path="url(#p5d4c8b861e)"
           style="fill:none;stroke:#167f99;stroke-width:1.5;stroke-dasharray:9.6, 2.4, 1.5, 2.4;stroke-dashoffset:0"
           id="path855" />
      </g>
      <g
         id="line2d_17">
        <path
           d="m 108.4731,216.57468 61.03748,18.59635 61.03748,8.45524"
           clip-path="url(#p5d4c8b861e)"
           style="fill:none;stroke:#167f99;stroke-width:1.5;stroke-dasharray:9.6, 2.4, 1.5, 2.4;stroke-dashoffset:0"
           id="path858" />
      </g>
      <g
         id="line2d_18">
        <path
           d="M 47.435622,197.81633 108.4731,234.43801"
           clip-path="url(#p5d4c8b861e)"
           style="fill:none;stroke:#167f99;stroke-width:1.5;stroke-dasharray:5.55, 2.4;stroke-dashoffset:0"
           id="path861" />
      </g>
      <g
         id="line2d_19">
        <path
           d="m 108.4731,234.43801 61.03748,12.90173 61.03748,3.44392"
           clip-path="url(#p5d4c8b861e)"
           style="fill:none;stroke:#167f99;stroke-width:1.5;stroke-dasharray:5.55, 2.4;stroke-dashoffset:0"
           id="path864" />
      </g>
      <g
         id="line2d_20">
        <path
           d="M 47.435622,197.81633 108.4731,208.33114"
           clip-path="url(#p5d4c8b861e)"
           style="fill:none;stroke:#167f99;stroke-width:1.5;stroke-linecap:square"
           id="path867" />
      </g>
      <g
         id="line2d_21">
        <path
           d="m 108.4731,208.33114 61.03748,8.98981 61.03748,1.85084"
           clip-path="url(#p5d4c8b861e)"
           style="fill:none;stroke:#167f99;stroke-width:1.5;stroke-linecap:square"
           id="path870" />
      </g>
      <g
         id="line2d_22">
        <path
           d="m 47.435622,127.00327 61.037478,40.2779"
           clip-path="url(#p5d4c8b861e)"
           style="fill:none;stroke:#b71205;stroke-width:1.5;stroke-dasharray:9.6, 2.4, 1.5, 2.4;stroke-dashoffset:0"
           id="path873" />
      </g>
      <g
         id="line2d_23">
        <path
           d="m 108.4731,167.28117 61.03748,31.36415 61.03748,22.51648"
           clip-path="url(#p5d4c8b861e)"
           style="fill:none;stroke:#b71205;stroke-width:1.5;stroke-dasharray:9.6, 2.4, 1.5, 2.4;stroke-dashoffset:0"
           id="path876" />
      </g>
      <g
         id="line2d_24">
        <path
           d="M 47.435622,127.00327 108.4731,202.24004"
           clip-path="url(#p5d4c8b861e)"
           style="fill:none;stroke:#b71205;stroke-width:1.5;stroke-dasharray:5.55, 2.4;stroke-dashoffset:0"
           id="path879" />
      </g>
      <g
         id="line2d_25">
        <path
           d="m 108.4731,202.24004 61.03748,19.55204 61.03748,6.72187"
           clip-path="url(#p5d4c8b861e)"
           style="fill:none;stroke:#b71205;stroke-width:1.5;stroke-dasharray:5.55, 2.4;stroke-dashoffset:0"
           id="path882" />
      </g>
      <g
         id="line2d_26">
        <path
           d="M 47.435622,127.00327 108.4731,156.93774"
           clip-path="url(#p5d4c8b861e)"
           style="fill:none;stroke:#b71205;stroke-width:1.5;stroke-linecap:square"
           id="path885" />
      </g>
      <g
         id="line2d_27">
        <path
           d="m 108.4731,156.93774 61.03748,18.67626 61.03748,7.75051"
           clip-path="url(#p5d4c8b861e)"
           style="fill:none;stroke:#b71205;stroke-width:1.5;stroke-linecap:square"
           id="path888" />
      </g>
      <g
         id="matplotlib.axis_3">
        <g
           id="xtick_5">
          <g
             id="line2d_28">
            <defs
               id="defs892">
              <path
                 id="m4738787a6e"
                 d="M 0,0 V 3.5"
                 style="stroke:#000000;stroke-width:0.8" />
            </defs>
            <g
               id="g896">
              <use
                 xlink:href="#m4738787a6e"
                 x="47.435623"
                 y="258.70551"
                 style="stroke:#000000;stroke-width:0.8"
                 id="use894" />
            </g>
          </g>
          <g
             id="text_3">
            <!-- 2020 -->
            <g
               transform="matrix(0.08,0,0,-0.08,38.538122,271.43175)"
               id="g910">
              <defs
                 id="defs900">
                <path
                   id="ArialMT-32"
                   d="M 3222,541 V 0 H 194 q -6,203 65,391 116,309 370,609 255,300 737,694 747,612 1009,970 263,358 263,677 0,334 -240,563 -239,230 -623,230 -406,0 -650,-244 -244,-243 -247,-674 l -578,59 q 59,647 446,986 388,339 1042,339 659,0 1043,-366 385,-365 385,-906 0,-275 -113,-541 Q 2991,2522 2730,2228 2469,1934 1863,1422 1356,997 1212,845 1069,694 975,541 Z"
                   transform="scale(0.015625)" />
              </defs>
              <use
                 xlink:href="#ArialMT-32"
                 id="use902" />
              <use
                 xlink:href="#ArialMT-30"
                 x="55.615234"
                 id="use904" />
              <use
                 xlink:href="#ArialMT-32"
                 x="111.23047"
                 id="use906" />
              <use
                 xlink:href="#ArialMT-30"
                 x="166.8457"
                 id="use908" />
            </g>
          </g>
        </g>
        <g
           id="xtick_6">
          <g
             id="line2d_29">
            <g
               id="g916">
              <use
                 xlink:href="#m4738787a6e"
                 x="108.4731"
                 y="258.70551"
                 style="stroke:#000000;stroke-width:0.8"
                 id="use914" />
            </g>
          </g>
          <g
             id="text_4">
            <!-- 2030 -->
            <g
               transform="matrix(0.08,0,0,-0.08,99.575601,271.43175)"
               id="g930">
              <defs
                 id="defs920">
                <path
                   id="ArialMT-33"
                   d="m 269,1209 562,75 q 97,-478 330,-689 233,-211 567,-211 397,0 670,275 274,275 274,682 0,387 -253,638 -253,252 -644,252 -159,0 -397,-62 l 63,494 q 56,-7 90,-7 360,0 647,187 288,188 288,579 0,309 -210,512 -209,204 -540,204 -328,0 -547,-207 -219,-206 -281,-618 l -563,100 q 103,565 468,876 366,311 910,311 375,0 690,-161 316,-161 483,-439 168,-278 168,-591 0,-296 -160,-540 -159,-244 -471,-388 406,-93 631,-389 225,-295 225,-739 Q 3269,753 2831,336 2394,-81 1725,-81 1122,-81 723,278 325,638 269,1209 Z"
                   transform="scale(0.015625)" />
              </defs>
              <use
                 xlink:href="#ArialMT-32"
                 id="use922" />
              <use
                 xlink:href="#ArialMT-30"
                 x="55.615234"
                 id="use924" />
              <use
                 xlink:href="#ArialMT-33"
                 x="111.23047"
                 id="use926" />
              <use
                 xlink:href="#ArialMT-30"
                 x="166.8457"
                 id="use928" />
            </g>
          </g>
        </g>
        <g
           id="xtick_7">
          <g
             id="line2d_30">
            <g
               id="g936">
              <use
                 xlink:href="#m4738787a6e"
                 x="169.51057"
                 y="258.70551"
                 style="stroke:#000000;stroke-width:0.8"
                 id="use934" />
            </g>
          </g>
          <g
             id="text_5">
            <!-- 2040 -->
            <g
               transform="matrix(0.08,0,0,-0.08,160.61308,271.43175)"
               id="g950">
              <defs
                 id="defs940">
                <path
                   id="ArialMT-34"
                   d="M 2069,0 V 1097 H 81 v 516 l 2091,2968 h 459 V 1613 h 619 V 1097 H 2631 V 0 Z m 0,1613 V 3678 L 634,1613 Z"
                   transform="scale(0.015625)" />
              </defs>
              <use
                 xlink:href="#ArialMT-32"
                 id="use942" />
              <use
                 xlink:href="#ArialMT-30"
                 x="55.615234"
                 id="use944" />
              <use
                 xlink:href="#ArialMT-34"
                 x="111.23047"
                 id="use946" />
              <use
                 xlink:href="#ArialMT-30"
                 x="166.8457"
                 id="use948" />
            </g>
          </g>
        </g>
        <g
           id="xtick_8">
          <g
             id="line2d_31">
            <g
               id="g956">
              <use
                 xlink:href="#m4738787a6e"
                 x="230.54807"
                 y="258.70551"
                 style="stroke:#000000;stroke-width:0.8"
                 id="use954" />
            </g>
          </g>
          <g
             id="text_6">
            <!-- 2050 -->
            <g
               transform="matrix(0.08,0,0,-0.08,221.65056,271.43175)"
               id="g967">
              <use
                 xlink:href="#ArialMT-32"
                 id="use959" />
              <use
                 xlink:href="#ArialMT-30"
                 x="55.615234"
                 id="use961" />
              <use
                 xlink:href="#ArialMT-35"
                 x="111.23047"
                 id="use963" />
              <use
                 xlink:href="#ArialMT-30"
                 x="166.8457"
                 id="use965" />
            </g>
          </g>
        </g>
      </g>
      <g
         id="matplotlib.axis_4">
        <g
           id="ytick_3">
          <g
             id="line2d_32">
            <g
               id="g974">
              <use
                 xlink:href="#m9704bd0e4e"
                 x="38.279999"
                 y="248.82927"
                 style="stroke:#000000;stroke-width:0.8"
                 id="use972" />
            </g>
          </g>
          <g
             id="text_7">
            <!-- 1.2 -->
            <g
               transform="matrix(0.08,0,0,-0.08,20.16,251.69239)"
               id="g983">
              <use
                 xlink:href="#ArialMT-31"
                 id="use977" />
              <use
                 xlink:href="#ArialMT-2e"
                 x="55.615234"
                 id="use979" />
              <use
                 xlink:href="#ArialMT-32"
                 x="83.398438"
                 id="use981" />
            </g>
          </g>
        </g>
        <g
           id="ytick_4">
          <g
             id="line2d_33">
            <g
               id="g989">
              <use
                 xlink:href="#m9704bd0e4e"
                 x="38.279999"
                 y="223.30313"
                 style="stroke:#000000;stroke-width:0.8"
                 id="use987" />
            </g>
          </g>
          <g
             id="text_8">
            <!-- 1.8 -->
            <g
               transform="matrix(0.08,0,0,-0.08,20.16,226.16625)"
               id="g1001">
              <defs
                 id="defs993">
                <path
                   id="ArialMT-38"
                   d="m 1131,2484 q -350,129 -519,366 -168,238 -168,569 0,500 359,840 360,341 956,341 600,0 966,-349 366,-348 366,-848 0,-319 -168,-555 -167,-235 -507,-364 422,-137 642,-444 220,-306 220,-731 0,-587 -416,-987 Q 2447,-78 1769,-78 1091,-78 675,323 259,725 259,1325 q 0,447 227,748 227,302 645,411 z m -112,954 q 0,-325 209,-532 210,-206 544,-206 325,0 533,204 208,205 208,502 0,310 -215,521 -214,211 -532,211 -322,0 -535,-207 -212,-206 -212,-493 z M 838,1322 q 0,-241 114,-466 114,-225 339,-349 225,-123 484,-123 403,0 665,259 263,260 263,660 0,406 -270,672 -270,266 -677,266 -397,0 -658,-263 -260,-262 -260,-656 z"
                   transform="scale(0.015625)" />
              </defs>
              <use
                 xlink:href="#ArialMT-31"
                 id="use995" />
              <use
                 xlink:href="#ArialMT-2e"
                 x="55.615234"
                 id="use997" />
              <use
                 xlink:href="#ArialMT-38"
                 x="83.398438"
                 id="use999" />
            </g>
          </g>
        </g>
        <g
           id="ytick_5">
          <g
             id="line2d_34">
            <g
               id="g1007">
              <use
                 xlink:href="#m9704bd0e4e"
                 x="38.279999"
                 y="197.77698"
                 style="stroke:#000000;stroke-width:0.8"
                 id="use1005" />
            </g>
          </g>
          <g
             id="text_9">
            <!-- 2.4 -->
            <g
               transform="matrix(0.08,0,0,-0.08,20.16,200.64011)"
               id="g1016">
              <use
                 xlink:href="#ArialMT-32"
                 id="use1010" />
              <use
                 xlink:href="#ArialMT-2e"
                 x="55.615234"
                 id="use1012" />
              <use
                 xlink:href="#ArialMT-34"
                 x="83.398438"
                 id="use1014" />
            </g>
          </g>
        </g>
        <g
           id="ytick_6">
          <g
             id="line2d_35">
            <g
               id="g1022">
              <use
                 xlink:href="#m9704bd0e4e"
                 x="38.279999"
                 y="172.25084"
                 style="stroke:#000000;stroke-width:0.8"
                 id="use1020" />
            </g>
          </g>
          <g
             id="text_10">
            <!-- 3.0 -->
            <g
               transform="matrix(0.08,0,0,-0.08,20.16,175.11397)"
               id="g1031">
              <use
                 xlink:href="#ArialMT-33"
                 id="use1025" />
              <use
                 xlink:href="#ArialMT-2e"
                 x="55.615234"
                 id="use1027" />
              <use
                 xlink:href="#ArialMT-30"
                 x="83.398438"
                 id="use1029" />
            </g>
          </g>
        </g>
        <g
           id="ytick_7">
          <g
             id="line2d_36">
            <g
               id="g1037">
              <use
                 xlink:href="#m9704bd0e4e"
                 x="38.279999"
                 y="146.7247"
                 style="stroke:#000000;stroke-width:0.8"
                 id="use1035" />
            </g>
          </g>
          <g
             id="text_11">
            <!-- 3.6 -->
            <g
               transform="matrix(0.08,0,0,-0.08,20.16,149.58783)"
               id="g1049">
              <defs
                 id="defs1041">
                <path
                   id="ArialMT-36"
                   d="m 3184,3459 -559,-43 q -75,331 -212,481 -229,241 -563,241 -269,0 -472,-150 -265,-194 -419,-566 -153,-372 -159,-1059 203,309 497,459 294,150 616,150 562,0 957,-414 396,-414 396,-1070 0,-432 -186,-802 Q 2894,316 2569,119 2244,-78 1831,-78 1128,-78 684,439 241,956 241,2144 q 0,1328 490,1931 428,525 1153,525 541,0 886,-303 346,-303 414,-838 z M 888,1484 q 0,-290 123,-556 123,-265 345,-405 222,-139 466,-139 356,0 612,287 257,288 257,782 0,475 -254,748 -253,274 -637,274 -381,0 -647,-274 -265,-273 -265,-717 z"
                   transform="scale(0.015625)" />
              </defs>
              <use
                 xlink:href="#ArialMT-33"
                 id="use1043" />
              <use
                 xlink:href="#ArialMT-2e"
                 x="55.615234"
                 id="use1045" />
              <use
                 xlink:href="#ArialMT-36"
                 x="83.398438"
                 id="use1047" />
            </g>
          </g>
        </g>
        <g
           id="ytick_8">
          <g
             id="line2d_37">
            <g
               id="g1055">
              <use
                 xlink:href="#m9704bd0e4e"
                 x="38.279999"
                 y="121.19856"
                 style="stroke:#000000;stroke-width:0.8"
                 id="use1053" />
            </g>
          </g>
          <g
             id="text_12">
            <!-- 4.2 -->
            <g
               transform="matrix(0.08,0,0,-0.08,20.16,124.06168)"
               id="g1064">
              <use
                 xlink:href="#ArialMT-34"
                 id="use1058" />
              <use
                 xlink:href="#ArialMT-2e"
                 x="55.615234"
                 id="use1060" />
              <use
                 xlink:href="#ArialMT-32"
                 x="83.398438"
                 id="use1062" />
            </g>
          </g>
        </g>
        <g
           id="ytick_9">
          <g
             id="line2d_38">
            <g
               id="g1070">
              <use
                 xlink:href="#m9704bd0e4e"
                 x="38.279999"
                 y="95.672417"
                 style="stroke:#000000;stroke-width:0.8"
                 id="use1068" />
            </g>
          </g>
          <g
             id="text_13">
            <!-- 4.8 -->
            <g
               transform="matrix(0.08,0,0,-0.08,20.16,98.535543)"
               id="g1079">
              <use
                 xlink:href="#ArialMT-34"
                 id="use1073" />
              <use
                 xlink:href="#ArialMT-2e"
                 x="55.615234"
                 id="use1075" />
              <use
                 xlink:href="#ArialMT-38"
                 x="83.398438"
                 id="use1077" />
            </g>
          </g>
        </g>
        <g
           id="text_14"
           transform="translate(0,-31.554425)">
          <!-- CCI [kg CO$_\mathrm{2}$-eq kg$^\mathrm{-1}$] -->
          <g
             transform="matrix(0,-0.08,-0.08,0,14.4,210.48529)"
             id="g1139">
            <defs
               id="defs1097">
              <path
                 id="ArialMT-43"
                 d="m 3763,1606 606,-153 Q 4178,706 3683,314 3188,-78 2472,-78 1731,-78 1267,223 803,525 561,1097 319,1669 319,2325 q 0,716 273,1248 274,533 778,809 505,277 1111,277 688,0 1156,-350 469,-350 654,-984 l -597,-141 q -160,500 -463,728 -303,229 -762,229 -528,0 -883,-254 -355,-253 -499,-680 -143,-426 -143,-879 0,-584 170,-1020 170,-436 529,-652 360,-215 779,-215 509,0 862,293 354,294 479,872 z"
                 transform="scale(0.015625)" />
              <path
                 id="ArialMT-49"
                 d="m 597,0 v 4581 h 606 V 0 Z"
                 transform="scale(0.015625)" />
              <path
                 id="ArialMT-20"
                 transform="scale(0.015625)"
                 d="" />
              <path
                 id="ArialMT-5b"
                 d="M 434,-1272 V 4581 H 1675 V 4116 H 997 V -806 h 678 v -466 z"
                 transform="scale(0.015625)" />
              <path
                 id="ArialMT-6b"
                 d="M 425,0 V 4581 H 988 V 1969 l 1331,1350 h 728 L 1778,2088 3175,0 H 2481 L 1384,1697 988,1316 V 0 Z"
                 transform="scale(0.015625)" />
              <path
                 id="ArialMT-67"
                 d="m 319,-275 547,-81 q 34,-253 190,-369 210,-156 572,-156 391,0 603,156 213,156 288,437 44,172 40,722 Q 2191,0 1641,0 956,0 581,494 206,988 206,1678 q 0,475 172,876 172,402 498,621 327,219 768,219 587,0 969,-475 v 400 h 518 V 450 q 0,-775 -158,-1098 -157,-324 -500,-511 -342,-188 -842,-188 -593,0 -959,267 -366,267 -353,805 z m 465,1994 q 0,-653 259,-953 260,-300 651,-300 387,0 649,298 263,299 263,936 0,609 -270,918 -270,310 -652,310 -375,0 -638,-305 -262,-304 -262,-904 z"
                 transform="scale(0.015625)" />
              <path
                 id="ArialMT-4f"
                 d="m 309,2231 q 0,1141 612,1786 613,646 1582,646 635,0 1144,-304 509,-303 776,-845 268,-542 268,-1230 0,-696 -282,-1246 Q 4128,488 3612,205 3097,-78 2500,-78 1853,-78 1343,234 834,547 571,1087 309,1628 309,2231 Z m 625,-9 q 0,-828 445,-1305 446,-476 1118,-476 684,0 1126,481 443,481 443,1366 0,559 -189,976 -189,417 -554,647 -364,230 -817,230 -643,0 -1108,-443 Q 934,3256 934,2222 Z"
                 transform="scale(0.015625)" />
              <path
                 id="DejaVuSans-32"
                 d="M 1228,531 H 3431 V 0 H 469 v 531 q 359,372 979,998 621,627 780,809 303,340 423,576 121,236 121,464 0,372 -261,606 -261,235 -680,235 -297,0 -627,-103 -329,-103 -704,-313 v 638 q 381,153 712,231 332,78 607,78 725,0 1156,-363 431,-362 431,-968 0,-288 -108,-546 -107,-257 -392,-607 -78,-91 -497,-524 Q 1991,1309 1228,531 Z"
                 transform="scale(0.015625)" />
              <path
                 id="ArialMT-2d"
                 d="m 203,1375 v 566 h 1728 v -566 z"
                 transform="scale(0.015625)" />
              <path
                 id="ArialMT-65"
                 d="m 2694,1069 581,-72 Q 3138,488 2766,206 2394,-75 1816,-75 1088,-75 661,373 234,822 234,1631 q 0,838 431,1300 432,463 1119,463 666,0 1088,-453 422,-453 422,-1275 0,-50 -3,-150 H 816 q 31,-547 309,-838 278,-290 694,-290 309,0 528,162 219,163 347,519 z M 847,1978 h 1853 q -37,419 -212,628 -269,325 -697,325 -388,0 -652,-259 -264,-259 -292,-694 z"
                 transform="scale(0.015625)" />
              <path
                 id="ArialMT-71"
                 d="M 2538,-1272 V 353 Q 2406,169 2170,47 1934,-75 1669,-75 1078,-75 651,397 225,869 225,1691 q 0,500 173,896 174,397 503,602 330,205 724,205 616,0 969,-519 v 444 h 506 V -1272 Z M 803,1669 q 0,-641 269,-961 269,-320 644,-320 359,0 618,304 260,305 260,927 0,662 -274,996 -273,335 -642,335 -365,0 -620,-311 -255,-311 -255,-970 z"
                 transform="scale(0.015625)" />
              <path
                 id="DejaVuSans-2212"
                 d="M 678,2272 H 4684 V 1741 H 678 Z"
                 transform="scale(0.015625)" />
              <path
                 id="DejaVuSans-31"
                 d="M 794,531 H 1825 V 4091 L 703,3866 v 575 l 1116,225 h 631 V 531 H 3481 V 0 H 794 Z"
                 transform="scale(0.015625)" />
              <path
                 id="ArialMT-5d"
                 d="M 1363,-1272 H 122 v 466 H 800 V 4116 H 122 v 465 h 1241 z"
                 transform="scale(0.015625)" />
            </defs>
            <use
               xlink:href="#ArialMT-43"
               transform="translate(0,0.684375)"
               id="use1099" />
            <use
               xlink:href="#ArialMT-43"
               transform="translate(72.216797,0.684375)"
               id="use1101" />
            <use
               xlink:href="#ArialMT-49"
               transform="translate(144.43359,0.684375)"
               id="use1103" />
            <use
               xlink:href="#ArialMT-20"
               transform="translate(172.2168,0.684375)"
               id="use1105" />
            <use
               xlink:href="#ArialMT-5b"
               transform="translate(200,0.684375)"
               id="use1107" />
            <use
               xlink:href="#ArialMT-6b"
               transform="translate(227.7832,0.684375)"
               id="use1109" />
            <use
               xlink:href="#ArialMT-67"
               transform="translate(277.7832,0.684375)"
               id="use1111" />
            <use
               xlink:href="#ArialMT-20"
               transform="translate(333.39844,0.684375)"
               id="use1113" />
            <use
               xlink:href="#ArialMT-43"
               transform="translate(361.18164,0.684375)"
               id="use1115" />
            <use
               xlink:href="#ArialMT-4f"
               transform="translate(433.39844,0.684375)"
               id="use1117" />
            <use
               xlink:href="#DejaVuSans-32"
               transform="matrix(0.7,0,0,0.7,512.13867,-15.721875)"
               id="use1119" />
            <use
               xlink:href="#ArialMT-2d"
               transform="translate(559.40918,0.684375)"
               id="use1121" />
            <use
               xlink:href="#ArialMT-65"
               transform="translate(592.70996,0.684375)"
               id="use1123" />
            <use
               xlink:href="#ArialMT-71"
               transform="translate(648.32519,0.684375)"
               id="use1125" />
            <use
               xlink:href="#ArialMT-20"
               transform="translate(703.94043,0.684375)"
               id="use1127" />
            <use
               xlink:href="#ArialMT-6b"
               transform="translate(731.72363,0.684375)"
               id="use1129" />
            <use
               xlink:href="#ArialMT-67"
               transform="translate(781.72363,0.684375)"
               id="use1131" />
            <use
               xlink:href="#DejaVuSans-2212"
               transform="matrix(0.7,0,0,0.7,838.2959,38.965625)"
               id="use1133" />
            <use
               xlink:href="#DejaVuSans-31"
               transform="matrix(0.7,0,0,0.7,896.94824,38.965625)"
               id="use1135" />
            <use
               xlink:href="#ArialMT-5d"
               transform="translate(944.21875,0.684375)"
               id="use1137" />
          </g>
        </g>
      </g>
      <g
         id="PathCollection_2">
        <defs
           id="defs1144">
          <path
             id="mabee2ab2fa"
             d="M 0,4.472136 2.683282,0 0,-4.472136 -2.683282,0 Z"
             style="stroke:#52318e" />
        </defs>
        <g
           clip-path="url(#p5d4c8b861e)"
           id="g1148">
          <use
             xlink:href="#mabee2ab2fa"
             x="47.435623"
             y="92.346931"
             style="fill:#a78dd8;stroke:#52318e"
             id="use1146" />
        </g>
      </g>
      <g
         id="PathCollection_3">
        <defs
           id="defs1152">
          <path
             id="m7dc5b28251"
             d="M 0,-3.162278 -3.162278,3.162278 H 3.162278 Z"
             style="stroke:#167f99" />
        </defs>
        <g
           clip-path="url(#p5d4c8b861e)"
           id="g1156">
          <use
             xlink:href="#m7dc5b28251"
             x="47.435623"
             y="197.81633"
             style="fill:#6dd2ea;stroke:#167f99"
             id="use1154" />
        </g>
      </g>
      <g
         id="PathCollection_4">
        <defs
           id="defs1160">
          <path
             id="m4509194943"
             d="m 0,-3.162278 -2.738613,1.581139 V 1.581139 L 0,3.162278 2.738613,1.581139 v -3.162278 z"
             style="stroke:#b71205" />
        </defs>
        <g
           clip-path="url(#p5d4c8b861e)"
           id="g1164">
          <use
             xlink:href="#m4509194943"
             x="47.435623"
             y="127.00327"
             style="fill:#fb7b71;stroke:#b71205"
             id="use1162" />
        </g>
      </g>
      <g
         id="line2d_39">
        <g
           id="g1171">
          <use
             xlink:href="#m8133d594d4"
             x="38.279999"
             y="84.425095"
             style="stroke:#000000"
             id="use1167" />
          <use
             xlink:href="#m8133d594d4"
             x="239.70367"
             y="84.425095"
             style="stroke:#000000"
             id="use1169" />
        </g>
      </g>
      <g
         id="patch_19">
        <path
           d="M 38.28,258.7055 V 84.425091"
           style="fill:none;stroke:#000000;stroke-width:0.8;stroke-linecap:square;stroke-linejoin:miter"
           id="path1174" />
      </g>
      <g
         id="patch_20">
        <path
           d="M 239.70368,258.7055 V 84.425091"
           style="fill:none;stroke:#000000;stroke-width:0.8;stroke-linecap:square;stroke-linejoin:miter"
           id="path1177" />
      </g>
      <g
         id="patch_21">
        <path
           d="M 38.28,258.7055 H 239.70368"
           style="fill:none;stroke:#000000;stroke-width:0.8;stroke-linecap:square;stroke-linejoin:miter"
           id="path1180" />
      </g>
    </g>
    <g
       id="legend_1"
       transform="translate(10.465958,-9.05327)">
      <g
         id="line2d_40">
        <path
           d="m 36.034042,213.60102 h 4 10"
           style="fill:none;stroke:#000000;stroke-width:1.5;stroke-linecap:square"
           id="path1219" />
      </g>
      <g
         id="text_16">
        <!-- 3.5 °C -->
        <g
           transform="matrix(0.08,0,0,-0.08,52.834042,216.40102)"
           id="g1237">
          <defs
             id="defs1223">
            <path
               id="ArialMT-b0"
               d="m 400,3794 q 0,359 254,612 255,253 612,253 362,0 615,-253 253,-253 253,-612 0,-360 -255,-615 -254,-254 -613,-254 -357,0 -612,253 -254,253 -254,616 z m 341,0 q 0,-219 154,-374 155,-154 374,-154 215,0 370,154 155,155 155,374 0,219 -155,373 -155,155 -370,155 -219,0 -374,-155 -154,-154 -154,-373 z"
               transform="scale(0.015625)" />
          </defs>
          <use
             xlink:href="#ArialMT-33"
             id="use1225" />
          <use
             xlink:href="#ArialMT-2e"
             x="55.615234"
             id="use1227" />
          <use
             xlink:href="#ArialMT-35"
             x="83.398438"
             id="use1229" />
          <use
             xlink:href="#ArialMT-20"
             x="139.01367"
             id="use1231" />
          <use
             xlink:href="#ArialMT-b0"
             x="166.79688"
             id="use1233" />
          <use
             xlink:href="#ArialMT-43"
             x="206.78711"
             id="use1235" />
        </g>
      </g>
      <g
         id="line2d_41">
        <path
           d="m 36.034042,224.91727 h 4 10"
           style="fill:none;stroke:#000000;stroke-width:1.5;stroke-dasharray:9.6, 2.4, 1.5, 2.4;stroke-dashoffset:0"
           id="path1240" />
      </g>
      <g
         id="text_17">
        <!-- 2.0 °C -->
        <g
           transform="matrix(0.08,0,0,-0.08,52.834042,227.71727)"
           id="g1255">
          <use
             xlink:href="#ArialMT-32"
             id="use1243" />
          <use
             xlink:href="#ArialMT-2e"
             x="55.615234"
             id="use1245" />
          <use
             xlink:href="#ArialMT-30"
             x="83.398438"
             id="use1247" />
          <use
             xlink:href="#ArialMT-20"
             x="139.01367"
             id="use1249" />
          <use
             xlink:href="#ArialMT-b0"
             x="166.79688"
             id="use1251" />
          <use
             xlink:href="#ArialMT-43"
             x="206.78711"
             id="use1253" />
        </g>
      </g>
      <g
         id="line2d_42">
        <path
           d="m 36.034042,236.23352 h 4 10"
           style="fill:none;stroke:#000000;stroke-width:1.5;stroke-dasharray:5.55, 2.4;stroke-dashoffset:0"
           id="path1258" />
      </g>
      <g
         id="text_18">
        <!-- 1.5 °C -->
        <g
           transform="matrix(0.08,0,0,-0.08,52.834042,239.03352)"
           id="g1273">
          <use
             xlink:href="#ArialMT-31"
             id="use1261" />
          <use
             xlink:href="#ArialMT-2e"
             x="55.615234"
             id="use1263" />
          <use
             xlink:href="#ArialMT-35"
             x="83.398438"
             id="use1265" />
          <use
             xlink:href="#ArialMT-20"
             x="139.01367"
             id="use1267" />
          <use
             xlink:href="#ArialMT-b0"
             x="166.79688"
             id="use1269" />
          <use
             xlink:href="#ArialMT-43"
             x="206.78711"
             id="use1271" />
        </g>
      </g>
    </g>
  </g>
  <defs
     id="defs1284">
    <clipPath
       id="paa38605736">
      <rect
         x="38.279999"
         y="27.214991"
         width="201.42368"
         height="43.570103"
         id="rect1278" />
    </clipPath>
    <clipPath
       id="p5d4c8b861e">
      <rect
         x="38.279999"
         y="84.425095"
         width="201.42368"
         height="174.28041"
         id="rect1281" />
    </clipPath>
  </defs>
</svg>
