<?xml version="1.0" encoding="UTF-8" standalone="no"?>
<svg
   width="170.025258pt"
   height="207.167256pt"
   viewBox="0 0 170.025258 207.167256"
   version="1.1"
   id="svg2487"
   sodipodi:docname="Hydrogen image SSP2 GLO.svg"
   inkscape:version="1.2.2 (732a01da63, 2022-12-09)"
   inkscape:export-filename="Hydrogen image SSP2 GLO.png"
   inkscape:export-xdpi="1200"
   inkscape:export-ydpi="1200"
   xmlns:inkscape="http://www.inkscape.org/namespaces/inkscape"
   xmlns:sodipodi="http://sodipodi.sourceforge.net/DTD/sodipodi-0.dtd"
   xmlns:xlink="http://www.w3.org/1999/xlink"
   xmlns="http://www.w3.org/2000/svg"
   xmlns:svg="http://www.w3.org/2000/svg"
   xmlns:rdf="http://www.w3.org/1999/02/22-rdf-syntax-ns#"
   xmlns:cc="http://creativecommons.org/ns#"
   xmlns:dc="http://purl.org/dc/elements/1.1/">
  <sodipodi:namedview
     id="namedview2489"
     pagecolor="#ffffff"
     bordercolor="#000000"
     borderopacity="0.25"
     inkscape:showpageshadow="2"
     inkscape:pageopacity="0.0"
     inkscape:pagecheckerboard="0"
     inkscape:deskcolor="#d1d1d1"
     inkscape:document-units="pt"
     showgrid="false"
     inkscape:zoom="2.4165576"
     inkscape:cx="49.450507"
     inkscape:cy="119.5916"
     inkscape:window-width="1920"
     inkscape:window-height="1137"
     inkscape:window-x="-8"
     inkscape:window-y="224"
     inkscape:window-maximized="1"
     inkscape:current-layer="g2222" />
  <metadata
     id="metadata2072">
    <rdf:RDF>
      <cc:Work>
        <dc:type
           rdf:resource="http://purl.org/dc/dcmitype/StillImage" />
        <dc:date>2023-10-12T18:50:04.938284</dc:date>
        <dc:format>image/svg+xml</dc:format>
        <dc:creator>
          <cc:Agent>
            <dc:title>Matplotlib v3.7.1, https://matplotlib.org/</dc:title>
          </cc:Agent>
        </dc:creator>
      </cc:Work>
    </rdf:RDF>
  </metadata>
  <defs
     id="defs2076">
    <style
       type="text/css"
       id="style2074">*{stroke-linejoin: round; stroke-linecap: butt}</style>
  </defs>
  <g
     id="figure_1">
    <g
       id="patch_1">
      <path
         d="M 0 207.167256  L 170.025258 207.167256  L 170.025258 0  L 0 0  z "
         style="fill: #ffffff"
         id="path2078" />
    </g>
    <g
       id="axes_1">
      <g
         id="patch_2">
        <path
           d="M 29.76875 50.115826  L 159.840091 50.115826  L 159.840091 19.642031  L 29.76875 19.642031  z "
           style="fill: #ffffff"
           id="path2081" />
      </g>
      <g
         id="patch_3">
        <path
           d="M 35.681084 30.826991  L 75.096642 40.31078  L 75.096642 32.498964  z "
           clip-path="url(#p975ba47684)"
           style="fill: #808080; opacity: 0.3"
           id="path2084" />
      </g>
      <g
         id="patch_4">
        <path
           d="M 75.096642 40.31078  L 114.5122 43.730686  L 114.5122 33.553047  L 75.096642 32.498964  z "
           clip-path="url(#p975ba47684)"
           style="fill: #808080; opacity: 0.3"
           id="path2087" />
      </g>
      <g
         id="patch_5">
        <path
           d="M 114.5122 43.730686  L 153.927758 45.274076  L 153.927758 34.0834  L 114.5122 33.553047  z "
           clip-path="url(#p975ba47684)"
           style="fill: #808080; opacity: 0.3"
           id="path2090" />
      </g>
      <g
         id="line2d_1">
        <path
           d="M 35.681084 30.826991  L 75.096642 35.052249  "
           clip-path="url(#p975ba47684)"
           style="fill: none; stroke: #000000; stroke-linecap: square"
           id="path2093" />
      </g>
      <g
         id="line2d_2">
        <path
           d="M 75.096642 35.052249  L 114.5122 39.537438  L 153.927758 41.888143  "
           clip-path="url(#p975ba47684)"
           style="fill: none; stroke: #000000; stroke-linecap: square"
           id="path2096" />
      </g>
      <g
         id="line2d_3">
        <path
           d="M 35.681084 30.826991  L 75.096642 40.31078  "
           clip-path="url(#p975ba47684)"
           style="fill: none; stroke-dasharray: 3.7,1.6; stroke-dashoffset: 0; stroke: #000000"
           id="path2099" />
      </g>
      <g
         id="line2d_4">
        <path
           d="M 75.096642 40.31078  L 114.5122 43.730686  L 153.927758 45.274076  "
           clip-path="url(#p975ba47684)"
           style="fill: none; stroke-dasharray: 3.7,1.6; stroke-dashoffset: 0; stroke: #000000"
           id="path2102" />
      </g>
      <g
         id="line2d_5">
        <path
           d="M 35.681084 30.826991  L 75.096642 32.498964  "
           clip-path="url(#p975ba47684)"
           style="fill: none; stroke-dasharray: 6.4,1.6,1,1.6; stroke-dashoffset: 0; stroke: #000000"
           id="path2105" />
      </g>
      <g
         id="line2d_6">
        <path
           d="M 75.096642 32.498964  L 114.5122 33.553047  L 153.927758 34.0834  "
           clip-path="url(#p975ba47684)"
           style="fill: none; stroke-dasharray: 6.4,1.6,1,1.6; stroke-dashoffset: 0; stroke: #000000"
           id="path2108" />
      </g>
      <g
         id="matplotlib.axis_1">
        <g
           id="xtick_1" />
        <g
           id="xtick_2" />
        <g
           id="xtick_3" />
        <g
           id="xtick_4" />
      </g>
      <g
         id="matplotlib.axis_2">
        <g
           id="ytick_1">
          <g
             id="line2d_7">
            <defs
               id="defs2117">
              <path
                 id="m3b22ae303a"
                 d="M 0 0  L -3.5 0  "
                 style="stroke: #000000; stroke-width: 0.8" />
            </defs>
            <g
               id="g2121">
              <use
                 xlink:href="#m3b22ae303a"
                 x="29.76875"
                 y="45.03686"
                 style="stroke: #000000; stroke-width: 0.8"
                 id="use2119" />
            </g>
          </g>
          <g
             id="text_1">
            <!-- 10.8 -->
            <g
               transform="translate(7.2 47.899985) scale(0.08 -0.08)"
               id="g2138">
              <defs
                 id="defs2128">
                <path
                   id="ArialMT-31"
                   d="M 2384 0  L 1822 0  L 1822 3584  Q 1619 3391 1289 3197  Q 959 3003 697 2906  L 697 3450  Q 1169 3672 1522 3987  Q 1875 4303 2022 4600  L 2384 4600  L 2384 0  z "
                   transform="scale(0.015625)" />
                <path
                   id="ArialMT-30"
                   d="M 266 2259  Q 266 3072 433 3567  Q 600 4063 929 4331  Q 1259 4600 1759 4600  Q 2128 4600 2406 4451  Q 2684 4303 2865 4023  Q 3047 3744 3150 3342  Q 3253 2941 3253 2259  Q 3253 1453 3087 958  Q 2922 463 2592 192  Q 2263 -78 1759 -78  Q 1097 -78 719 397  Q 266 969 266 2259  z M 844 2259  Q 844 1131 1108 757  Q 1372 384 1759 384  Q 2147 384 2411 759  Q 2675 1134 2675 2259  Q 2675 3391 2411 3762  Q 2147 4134 1753 4134  Q 1366 4134 1134 3806  Q 844 3388 844 2259  z "
                   transform="scale(0.015625)" />
                <path
                   id="ArialMT-2e"
                   d="M 581 0  L 581 641  L 1222 641  L 1222 0  L 581 0  z "
                   transform="scale(0.015625)" />
                <path
                   id="ArialMT-38"
                   d="M 1131 2484  Q 781 2613 612 2850  Q 444 3088 444 3419  Q 444 3919 803 4259  Q 1163 4600 1759 4600  Q 2359 4600 2725 4251  Q 3091 3903 3091 3403  Q 3091 3084 2923 2848  Q 2756 2613 2416 2484  Q 2838 2347 3058 2040  Q 3278 1734 3278 1309  Q 3278 722 2862 322  Q 2447 -78 1769 -78  Q 1091 -78 675 323  Q 259 725 259 1325  Q 259 1772 486 2073  Q 713 2375 1131 2484  z M 1019 3438  Q 1019 3113 1228 2906  Q 1438 2700 1772 2700  Q 2097 2700 2305 2904  Q 2513 3109 2513 3406  Q 2513 3716 2298 3927  Q 2084 4138 1766 4138  Q 1444 4138 1231 3931  Q 1019 3725 1019 3438  z M 838 1322  Q 838 1081 952 856  Q 1066 631 1291 507  Q 1516 384 1775 384  Q 2178 384 2440 643  Q 2703 903 2703 1303  Q 2703 1709 2433 1975  Q 2163 2241 1756 2241  Q 1359 2241 1098 1978  Q 838 1716 838 1322  z "
                   transform="scale(0.015625)" />
              </defs>
              <use
                 xlink:href="#ArialMT-31"
                 id="use2130" />
              <use
                 xlink:href="#ArialMT-30"
                 x="55.615234"
                 id="use2132" />
              <use
                 xlink:href="#ArialMT-2e"
                 x="111.230469"
                 id="use2134" />
              <use
                 xlink:href="#ArialMT-38"
                 x="139.013672"
                 id="use2136" />
            </g>
          </g>
        </g>
        <g
           id="ytick_2">
          <g
             id="line2d_8">
            <g
               id="g2144">
              <use
                 xlink:href="#m3b22ae303a"
                 x="29.76875"
                 y="24.720997"
                 style="stroke: #000000; stroke-width: 0.8"
                 id="use2142" />
            </g>
          </g>
          <g
             id="text_2">
            <!-- 11.2 -->
            <g
               transform="translate(7.79 27.584122) scale(0.08 -0.08)"
               id="g2158">
              <defs
                 id="defs2148">
                <path
                   id="ArialMT-32"
                   d="M 3222 541  L 3222 0  L 194 0  Q 188 203 259 391  Q 375 700 629 1000  Q 884 1300 1366 1694  Q 2113 2306 2375 2664  Q 2638 3022 2638 3341  Q 2638 3675 2398 3904  Q 2159 4134 1775 4134  Q 1369 4134 1125 3890  Q 881 3647 878 3216  L 300 3275  Q 359 3922 746 4261  Q 1134 4600 1788 4600  Q 2447 4600 2831 4234  Q 3216 3869 3216 3328  Q 3216 3053 3103 2787  Q 2991 2522 2730 2228  Q 2469 1934 1863 1422  Q 1356 997 1212 845  Q 1069 694 975 541  L 3222 541  z "
                   transform="scale(0.015625)" />
              </defs>
              <use
                 xlink:href="#ArialMT-31"
                 id="use2150" />
              <use
                 xlink:href="#ArialMT-31"
                 x="48.240234"
                 id="use2152" />
              <use
                 xlink:href="#ArialMT-2e"
                 x="103.855469"
                 id="use2154" />
              <use
                 xlink:href="#ArialMT-32"
                 x="131.638672"
                 id="use2156" />
            </g>
          </g>
        </g>
      </g>
      <g
         id="PathCollection_1">
        <defs
           id="defs2164">
          <path
             id="maac0773218"
             d="M 0 2.236068  C 0.593012 2.236068 1.161816 2.000462 1.581139 1.581139  C 2.000462 1.161816 2.236068 0.593012 2.236068 0  C 2.236068 -0.593012 2.000462 -1.161816 1.581139 -1.581139  C 1.161816 -2.000462 0.593012 -2.236068 0 -2.236068  C -0.593012 -2.236068 -1.161816 -2.000462 -1.581139 -1.581139  C -2.000462 -1.161816 -2.236068 -0.593012 -2.236068 0  C -2.236068 0.593012 -2.000462 1.161816 -1.581139 1.581139  C -1.161816 2.000462 -0.593012 2.236068 0 2.236068  z "
             style="stroke: #000000" />
        </defs>
        <g
           clip-path="url(#p975ba47684)"
           id="g2168">
          <use
             xlink:href="#maac0773218"
             x="35.681084"
             y="30.826991"
             style="fill: #d8d8d8; stroke: #000000"
             id="use2166" />
        </g>
      </g>
      <g
         id="line2d_9">
        <defs
           id="defs2172">
          <path
             id="m407399babb"
             d="M -2.5 0  L 2.5 0  "
             style="stroke: #000000" />
        </defs>
        <g
           id="g2178">
          <use
             xlink:href="#m407399babb"
             x="29.76875"
             y="50.115826"
             style="stroke: #000000"
             id="use2174" />
          <use
             xlink:href="#m407399babb"
             x="159.840091"
             y="50.115826"
             style="stroke: #000000"
             id="use2176" />
        </g>
      </g>
      <g
         id="patch_6">
        <path
           d="M 29.76875 50.115826  L 29.76875 19.642031  "
           style="fill: none; stroke: #000000; stroke-width: 0.8; stroke-linejoin: miter; stroke-linecap: square"
           id="path2181" />
      </g>
      <g
         id="patch_7">
        <path
           d="M 159.840091 50.115826  L 159.840091 19.642031  "
           style="fill: none; stroke: #000000; stroke-width: 0.8; stroke-linejoin: miter; stroke-linecap: square"
           id="path2184" />
      </g>
      <g
         id="patch_8">
        <path
           d="M 29.76875 19.642031  L 159.840091 19.642031  "
           style="fill: none; stroke: #000000; stroke-width: 0.8; stroke-linejoin: miter; stroke-linecap: square"
           id="path2187" />
      </g>
      <g
         id="text_3">
        <!-- a Hydrogen -->
        <g
           transform="translate(70.051608 13.642031) scale(0.09 -0.09)"
           id="g2222">
          <defs
             id="defs2200">
            <path
               id="Arial-BoldMT-61"
               d="M 1116 2306  L 319 2450  Q 453 2931 781 3162  Q 1109 3394 1756 3394  Q 2344 3394 2631 3255  Q 2919 3116 3036 2902  Q 3153 2688 3153 2116  L 3144 1091  Q 3144 653 3186 445  Q 3228 238 3344 0  L 2475 0  Q 2441 88 2391 259  Q 2369 338 2359 363  Q 2134 144 1878 34  Q 1622 -75 1331 -75  Q 819 -75 523 203  Q 228 481 228 906  Q 228 1188 362 1408  Q 497 1628 739 1745  Q 981 1863 1438 1950  Q 2053 2066 2291 2166  L 2291 2253  Q 2291 2506 2166 2614  Q 2041 2722 1694 2722  Q 1459 2722 1328 2630  Q 1197 2538 1116 2306  z M 2291 1594  Q 2122 1538 1756 1459  Q 1391 1381 1278 1306  Q 1106 1184 1106 997  Q 1106 813 1243 678  Q 1381 544 1594 544  Q 1831 544 2047 700  Q 2206 819 2256 991  Q 2291 1103 2291 1419  L 2291 1594  z "
               transform="scale(0.015625)" />
            <path
               id="Arial-BoldMT-20"
               transform="scale(0.015625)" />
            <path
               id="Arial-BoldMT-48"
               d="M 469 0  L 469 4581  L 1394 4581  L 1394 2778  L 3206 2778  L 3206 4581  L 4131 4581  L 4131 0  L 3206 0  L 3206 2003  L 1394 2003  L 1394 0  L 469 0  z "
               transform="scale(0.015625)" />
            <path
               id="Arial-BoldMT-79"
               d="M 44 3319  L 978 3319  L 1772 963  L 2547 3319  L 3456 3319  L 2284 125  L 2075 -453  Q 1959 -744 1854 -897  Q 1750 -1050 1614 -1145  Q 1478 -1241 1279 -1294  Q 1081 -1347 831 -1347  Q 578 -1347 334 -1294  L 256 -606  Q 463 -647 628 -647  Q 934 -647 1081 -467  Q 1228 -288 1306 -9  L 44 3319  z "
               transform="scale(0.015625)" />
            <path
               id="Arial-BoldMT-64"
               d="M 3503 0  L 2688 0  L 2688 488  Q 2484 203 2207 64  Q 1931 -75 1650 -75  Q 1078 -75 670 386  Q 263 847 263 1672  Q 263 2516 659 2955  Q 1056 3394 1663 3394  Q 2219 3394 2625 2931  L 2625 4581  L 3503 4581  L 3503 0  z M 1159 1731  Q 1159 1200 1306 963  Q 1519 619 1900 619  Q 2203 619 2415 876  Q 2628 1134 2628 1647  Q 2628 2219 2422 2470  Q 2216 2722 1894 2722  Q 1581 2722 1370 2473  Q 1159 2225 1159 1731  z "
               transform="scale(0.015625)" />
            <path
               id="Arial-BoldMT-72"
               d="M 1300 0  L 422 0  L 422 3319  L 1238 3319  L 1238 2847  Q 1447 3181 1614 3287  Q 1781 3394 1994 3394  Q 2294 3394 2572 3228  L 2300 2463  Q 2078 2606 1888 2606  Q 1703 2606 1575 2504  Q 1447 2403 1373 2137  Q 1300 1872 1300 1025  L 1300 0  z "
               transform="scale(0.015625)" />
            <path
               id="Arial-BoldMT-6f"
               d="M 256 1706  Q 256 2144 472 2553  Q 688 2963 1083 3178  Q 1478 3394 1966 3394  Q 2719 3394 3200 2905  Q 3681 2416 3681 1669  Q 3681 916 3195 420  Q 2709 -75 1972 -75  Q 1516 -75 1102 131  Q 688 338 472 736  Q 256 1134 256 1706  z M 1156 1659  Q 1156 1166 1390 903  Q 1625 641 1969 641  Q 2313 641 2545 903  Q 2778 1166 2778 1666  Q 2778 2153 2545 2415  Q 2313 2678 1969 2678  Q 1625 2678 1390 2415  Q 1156 2153 1156 1659  z "
               transform="scale(0.015625)" />
            <path
               id="Arial-BoldMT-67"
               d="M 378 -219  L 1381 -341  Q 1406 -516 1497 -581  Q 1622 -675 1891 -675  Q 2234 -675 2406 -572  Q 2522 -503 2581 -350  Q 2622 -241 2622 53  L 2622 538  Q 2228 0 1628 0  Q 959 0 569 566  Q 263 1013 263 1678  Q 263 2513 664 2953  Q 1066 3394 1663 3394  Q 2278 3394 2678 2853  L 2678 3319  L 3500 3319  L 3500 341  Q 3500 -247 3403 -537  Q 3306 -828 3131 -993  Q 2956 -1159 2664 -1253  Q 2372 -1347 1925 -1347  Q 1081 -1347 728 -1058  Q 375 -769 375 -325  Q 375 -281 378 -219  z M 1163 1728  Q 1163 1200 1367 954  Q 1572 709 1872 709  Q 2194 709 2416 961  Q 2638 1213 2638 1706  Q 2638 2222 2425 2472  Q 2213 2722 1888 2722  Q 1572 2722 1367 2476  Q 1163 2231 1163 1728  z "
               transform="scale(0.015625)" />
            <path
               id="Arial-BoldMT-65"
               d="M 2381 1056  L 3256 909  Q 3088 428 2723 176  Q 2359 -75 1813 -75  Q 947 -75 531 491  Q 203 944 203 1634  Q 203 2459 634 2926  Q 1066 3394 1725 3394  Q 2466 3394 2894 2905  Q 3322 2416 3303 1406  L 1103 1406  Q 1113 1016 1316 798  Q 1519 581 1822 581  Q 2028 581 2168 693  Q 2309 806 2381 1056  z M 2431 1944  Q 2422 2325 2234 2523  Q 2047 2722 1778 2722  Q 1491 2722 1303 2513  Q 1116 2303 1119 1944  L 2431 1944  z "
               transform="scale(0.015625)" />
            <path
               id="Arial-BoldMT-6e"
               d="M 3478 0  L 2600 0  L 2600 1694  Q 2600 2231 2544 2389  Q 2488 2547 2361 2634  Q 2234 2722 2056 2722  Q 1828 2722 1647 2597  Q 1466 2472 1398 2265  Q 1331 2059 1331 1503  L 1331 0  L 453 0  L 453 3319  L 1269 3319  L 1269 2831  Q 1703 3394 2363 3394  Q 2653 3394 2893 3289  Q 3134 3184 3257 3021  Q 3381 2859 3429 2653  Q 3478 2447 3478 2063  L 3478 0  z "
               transform="scale(0.015625)" />
          </defs>
          <use
             xlink:href="#Arial-BoldMT-61"
             id="use2202"
             transform="translate(-701.9137)" />
          <use
             xlink:href="#Arial-BoldMT-20"
             x="55.615234"
             id="use2204" />
          <use
             xlink:href="#Arial-BoldMT-48"
             x="83.398438"
             id="use2206" />
          <use
             xlink:href="#Arial-BoldMT-79"
             x="155.615234"
             id="use2208" />
          <use
             xlink:href="#Arial-BoldMT-64"
             x="211.230469"
             id="use2210" />
          <use
             xlink:href="#Arial-BoldMT-72"
             x="272.314453"
             id="use2212" />
          <use
             xlink:href="#Arial-BoldMT-6f"
             x="311.230469"
             id="use2214" />
          <use
             xlink:href="#Arial-BoldMT-67"
             x="372.314453"
             id="use2216" />
          <use
             xlink:href="#Arial-BoldMT-65"
             x="433.398438"
             id="use2218" />
          <use
             xlink:href="#Arial-BoldMT-6e"
             x="489.013672"
             id="use2220" />
        </g>
      </g>
    </g>
    <g
       id="axes_2">
      <g
         id="patch_9">
        <path
           d="M 29.76875 185.651006  L 159.840091 185.651006  L 159.840091 63.755826  L 29.76875 63.755826  z "
           style="fill: #ffffff"
           id="path2226" />
      </g>
      <g
         id="patch_10">
        <path
           d="M 35.681084 69.296516  L 75.096642 77.890866  L 75.096642 70.42147  z "
           clip-path="url(#pd05b86e32f)"
           style="fill: #a78dd8; opacity: 0.3"
           id="path2229" />
      </g>
      <g
         id="patch_11">
        <path
           d="M 75.096642 77.890866  L 114.5122 80.649361  L 114.5122 71.239093  L 75.096642 70.42147  z "
           clip-path="url(#pd05b86e32f)"
           style="fill: #a78dd8; opacity: 0.3"
           id="path2232" />
      </g>
      <g
         id="patch_12">
        <path
           d="M 114.5122 80.649361  L 153.927758 81.751784  L 153.927758 71.886856  L 114.5122 71.239093  z "
           clip-path="url(#pd05b86e32f)"
           style="fill: #a78dd8; opacity: 0.3"
           id="path2235" />
      </g>
      <g
         id="patch_13">
        <path
           d="M 35.681084 143.06391  L 75.096642 168.677842  L 75.096642 150.418176  z "
           clip-path="url(#pd05b86e32f)"
           style="fill: #6dd2ea; opacity: 0.3"
           id="path2238" />
      </g>
      <g
         id="patch_14">
        <path
           d="M 75.096642 168.677842  L 114.5122 177.701569  L 114.5122 156.705832  L 75.096642 150.418176  z "
           clip-path="url(#pd05b86e32f)"
           style="fill: #6dd2ea; opacity: 0.3"
           id="path2241" />
      </g>
      <g
         id="patch_15">
        <path
           d="M 114.5122 177.701569  L 153.927758 180.110316  L 153.927758 158.000345  L 114.5122 156.705832  z "
           clip-path="url(#pd05b86e32f)"
           style="fill: #6dd2ea; opacity: 0.3"
           id="path2244" />
      </g>
      <g
         id="patch_16">
        <path
           d="M 35.681084 93.535851  L 75.096642 146.157942  L 75.096642 114.472612  z "
           clip-path="url(#pd05b86e32f)"
           style="fill: #fb7b71; opacity: 0.3"
           id="path2247" />
      </g>
      <g
         id="patch_17">
        <path
           d="M 75.096642 146.157942  L 114.5122 159.833028  L 114.5122 127.535165  L 75.096642 114.472612  z "
           clip-path="url(#pd05b86e32f)"
           style="fill: #fb7b71; opacity: 0.3"
           id="path2250" />
      </g>
      <g
         id="patch_18">
        <path
           d="M 114.5122 159.833028  L 153.927758 164.534436  L 153.927758 132.95602  L 114.5122 127.535165  z "
           clip-path="url(#pd05b86e32f)"
           style="fill: #fb7b71; opacity: 0.3"
           id="path2253" />
      </g>
      <g
         id="line2d_10">
        <path
           d="M 35.681084 69.296516  L 75.096642 72.665508  "
           clip-path="url(#pd05b86e32f)"
           style="fill: none; stroke: #52318e; stroke-linecap: square"
           id="path2256" />
      </g>
      <g
         id="line2d_11">
        <path
           d="M 75.096642 72.665508  L 114.5122 77.152047  L 153.927758 79.674987  "
           clip-path="url(#pd05b86e32f)"
           style="fill: none; stroke: #52318e; stroke-linecap: square"
           id="path2259" />
      </g>
      <g
         id="line2d_12">
        <path
           d="M 35.681084 69.296516  L 75.096642 77.890866  "
           clip-path="url(#pd05b86e32f)"
           style="fill: none; stroke-dasharray: 3.7,1.6; stroke-dashoffset: 0; stroke: #52318e"
           id="path2262" />
      </g>
      <g
         id="line2d_13">
        <path
           d="M 75.096642 77.890866  L 114.5122 80.649361  L 153.927758 81.751784  "
           clip-path="url(#pd05b86e32f)"
           style="fill: none; stroke-dasharray: 3.7,1.6; stroke-dashoffset: 0; stroke: #52318e"
           id="path2265" />
      </g>
      <g
         id="line2d_14">
        <path
           d="M 35.681084 69.296516  L 75.096642 70.42147  "
           clip-path="url(#pd05b86e32f)"
           style="fill: none; stroke-dasharray: 6.4,1.6,1,1.6; stroke-dashoffset: 0; stroke: #52318e"
           id="path2268" />
      </g>
      <g
         id="line2d_15">
        <path
           d="M 75.096642 70.42147  L 114.5122 71.239093  L 153.927758 71.886856  "
           clip-path="url(#pd05b86e32f)"
           style="fill: none; stroke-dasharray: 6.4,1.6,1,1.6; stroke-dashoffset: 0; stroke: #52318e"
           id="path2271" />
      </g>
      <g
         id="line2d_16">
        <path
           d="M 35.681084 143.06391  L 75.096642 156.183878  "
           clip-path="url(#pd05b86e32f)"
           style="fill: none; stroke: #167f99; stroke-linecap: square"
           id="path2274" />
      </g>
      <g
         id="line2d_17">
        <path
           d="M 75.096642 156.183878  L 114.5122 169.190532  L 153.927758 175.104295  "
           clip-path="url(#pd05b86e32f)"
           style="fill: none; stroke: #167f99; stroke-linecap: square"
           id="path2277" />
      </g>
      <g
         id="line2d_18">
        <path
           d="M 35.681084 143.06391  L 75.096642 168.677842  "
           clip-path="url(#pd05b86e32f)"
           style="fill: none; stroke-dasharray: 3.7,1.6; stroke-dashoffset: 0; stroke: #167f99"
           id="path2280" />
      </g>
      <g
         id="line2d_19">
        <path
           d="M 75.096642 168.677842  L 114.5122 177.701569  L 153.927758 180.110316  "
           clip-path="url(#pd05b86e32f)"
           style="fill: none; stroke-dasharray: 3.7,1.6; stroke-dashoffset: 0; stroke: #167f99"
           id="path2283" />
      </g>
      <g
         id="line2d_20">
        <path
           d="M 35.681084 143.06391  L 75.096642 150.418176  "
           clip-path="url(#pd05b86e32f)"
           style="fill: none; stroke-dasharray: 6.4,1.6,1,1.6; stroke-dashoffset: 0; stroke: #167f99"
           id="path2286" />
      </g>
      <g
         id="line2d_21">
        <path
           d="M 75.096642 150.418176  L 114.5122 156.705832  L 153.927758 158.000345  "
           clip-path="url(#pd05b86e32f)"
           style="fill: none; stroke-dasharray: 6.4,1.6,1,1.6; stroke-dashoffset: 0; stroke: #167f99"
           id="path2289" />
      </g>
      <g
         id="line2d_22">
        <path
           d="M 35.681084 93.535851  L 75.096642 121.707018  "
           clip-path="url(#pd05b86e32f)"
           style="fill: none; stroke: #b71205; stroke-linecap: square"
           id="path2292" />
      </g>
      <g
         id="line2d_23">
        <path
           d="M 75.096642 121.707018  L 114.5122 143.643723  L 153.927758 159.3922  "
           clip-path="url(#pd05b86e32f)"
           style="fill: none; stroke: #b71205; stroke-linecap: square"
           id="path2295" />
      </g>
      <g
         id="line2d_24">
        <path
           d="M 35.681084 93.535851  L 75.096642 146.157942  "
           clip-path="url(#pd05b86e32f)"
           style="fill: none; stroke-dasharray: 3.7,1.6; stroke-dashoffset: 0; stroke: #b71205"
           id="path2298" />
      </g>
      <g
         id="line2d_25">
        <path
           d="M 75.096642 146.157942  L 114.5122 159.833028  L 153.927758 164.534436  "
           clip-path="url(#pd05b86e32f)"
           style="fill: none; stroke-dasharray: 3.7,1.6; stroke-dashoffset: 0; stroke: #b71205"
           id="path2301" />
      </g>
      <g
         id="line2d_26">
        <path
           d="M 35.681084 93.535851  L 75.096642 114.472612  "
           clip-path="url(#pd05b86e32f)"
           style="fill: none; stroke-dasharray: 6.4,1.6,1,1.6; stroke-dashoffset: 0; stroke: #b71205"
           id="path2304" />
      </g>
      <g
         id="line2d_27">
        <path
           d="M 75.096642 114.472612  L 114.5122 127.535165  L 153.927758 132.95602  "
           clip-path="url(#pd05b86e32f)"
           style="fill: none; stroke-dasharray: 6.4,1.6,1,1.6; stroke-dashoffset: 0; stroke: #b71205"
           id="path2307" />
      </g>
      <g
         id="matplotlib.axis_3">
        <g
           id="xtick_5">
          <g
             id="line2d_28">
            <defs
               id="defs2311">
              <path
                 id="mfb611172ae"
                 d="M 0 0  L 0 3.5  "
                 style="stroke: #000000; stroke-width: 0.8" />
            </defs>
            <g
               id="g2315">
              <use
                 xlink:href="#mfb611172ae"
                 x="35.681084"
                 y="185.651006"
                 style="stroke: #000000; stroke-width: 0.8"
                 id="use2313" />
            </g>
          </g>
          <g
             id="text_4">
            <!-- 2020 -->
            <g
               transform="translate(26.783584 198.377256) scale(0.08 -0.08)"
               id="g2326">
              <use
                 xlink:href="#ArialMT-32"
                 id="use2318" />
              <use
                 xlink:href="#ArialMT-30"
                 x="55.615234"
                 id="use2320" />
              <use
                 xlink:href="#ArialMT-32"
                 x="111.230469"
                 id="use2322" />
              <use
                 xlink:href="#ArialMT-30"
                 x="166.845703"
                 id="use2324" />
            </g>
          </g>
        </g>
        <g
           id="xtick_6">
          <g
             id="line2d_29">
            <g
               id="g2332">
              <use
                 xlink:href="#mfb611172ae"
                 x="75.096642"
                 y="185.651006"
                 style="stroke: #000000; stroke-width: 0.8"
                 id="use2330" />
            </g>
          </g>
          <g
             id="text_5">
            <!-- 2030 -->
            <g
               transform="translate(66.199142 198.377256) scale(0.08 -0.08)"
               id="g2346">
              <defs
                 id="defs2336">
                <path
                   id="ArialMT-33"
                   d="M 269 1209  L 831 1284  Q 928 806 1161 595  Q 1394 384 1728 384  Q 2125 384 2398 659  Q 2672 934 2672 1341  Q 2672 1728 2419 1979  Q 2166 2231 1775 2231  Q 1616 2231 1378 2169  L 1441 2663  Q 1497 2656 1531 2656  Q 1891 2656 2178 2843  Q 2466 3031 2466 3422  Q 2466 3731 2256 3934  Q 2047 4138 1716 4138  Q 1388 4138 1169 3931  Q 950 3725 888 3313  L 325 3413  Q 428 3978 793 4289  Q 1159 4600 1703 4600  Q 2078 4600 2393 4439  Q 2709 4278 2876 4000  Q 3044 3722 3044 3409  Q 3044 3113 2884 2869  Q 2725 2625 2413 2481  Q 2819 2388 3044 2092  Q 3269 1797 3269 1353  Q 3269 753 2831 336  Q 2394 -81 1725 -81  Q 1122 -81 723 278  Q 325 638 269 1209  z "
                   transform="scale(0.015625)" />
              </defs>
              <use
                 xlink:href="#ArialMT-32"
                 id="use2338" />
              <use
                 xlink:href="#ArialMT-30"
                 x="55.615234"
                 id="use2340" />
              <use
                 xlink:href="#ArialMT-33"
                 x="111.230469"
                 id="use2342" />
              <use
                 xlink:href="#ArialMT-30"
                 x="166.845703"
                 id="use2344" />
            </g>
          </g>
        </g>
        <g
           id="xtick_7">
          <g
             id="line2d_30">
            <g
               id="g2352">
              <use
                 xlink:href="#mfb611172ae"
                 x="114.5122"
                 y="185.651006"
                 style="stroke: #000000; stroke-width: 0.8"
                 id="use2350" />
            </g>
          </g>
          <g
             id="text_6">
            <!-- 2040 -->
            <g
               transform="translate(105.6147 198.377256) scale(0.08 -0.08)"
               id="g2366">
              <defs
                 id="defs2356">
                <path
                   id="ArialMT-34"
                   d="M 2069 0  L 2069 1097  L 81 1097  L 81 1613  L 2172 4581  L 2631 4581  L 2631 1613  L 3250 1613  L 3250 1097  L 2631 1097  L 2631 0  L 2069 0  z M 2069 1613  L 2069 3678  L 634 1613  L 2069 1613  z "
                   transform="scale(0.015625)" />
              </defs>
              <use
                 xlink:href="#ArialMT-32"
                 id="use2358" />
              <use
                 xlink:href="#ArialMT-30"
                 x="55.615234"
                 id="use2360" />
              <use
                 xlink:href="#ArialMT-34"
                 x="111.230469"
                 id="use2362" />
              <use
                 xlink:href="#ArialMT-30"
                 x="166.845703"
                 id="use2364" />
            </g>
          </g>
        </g>
        <g
           id="xtick_8">
          <g
             id="line2d_31">
            <g
               id="g2372">
              <use
                 xlink:href="#mfb611172ae"
                 x="153.927758"
                 y="185.651006"
                 style="stroke: #000000; stroke-width: 0.8"
                 id="use2370" />
            </g>
          </g>
          <g
             id="text_7">
            <!-- 2050 -->
            <g
               transform="translate(145.030258 198.377256) scale(0.08 -0.08)"
               id="g2386">
              <defs
                 id="defs2376">
                <path
                   id="ArialMT-35"
                   d="M 266 1200  L 856 1250  Q 922 819 1161 601  Q 1400 384 1738 384  Q 2144 384 2425 690  Q 2706 997 2706 1503  Q 2706 1984 2436 2262  Q 2166 2541 1728 2541  Q 1456 2541 1237 2417  Q 1019 2294 894 2097  L 366 2166  L 809 4519  L 3088 4519  L 3088 3981  L 1259 3981  L 1013 2750  Q 1425 3038 1878 3038  Q 2478 3038 2890 2622  Q 3303 2206 3303 1553  Q 3303 931 2941 478  Q 2500 -78 1738 -78  Q 1113 -78 717 272  Q 322 622 266 1200  z "
                   transform="scale(0.015625)" />
              </defs>
              <use
                 xlink:href="#ArialMT-32"
                 id="use2378" />
              <use
                 xlink:href="#ArialMT-30"
                 x="55.615234"
                 id="use2380" />
              <use
                 xlink:href="#ArialMT-35"
                 x="111.230469"
                 id="use2382" />
              <use
                 xlink:href="#ArialMT-30"
                 x="166.845703"
                 id="use2384" />
            </g>
          </g>
        </g>
      </g>
      <g
         id="matplotlib.axis_4">
        <g
           id="ytick_3">
          <g
             id="line2d_32">
            <g
               id="g2393">
              <use
                 xlink:href="#m3b22ae303a"
                 x="29.76875"
                 y="169.816628"
                 style="stroke: #000000; stroke-width: 0.8"
                 id="use2391" />
            </g>
          </g>
          <g
             id="text_8">
            <!-- 1.5 -->
            <g
               transform="translate(11.64875 172.679753) scale(0.08 -0.08)"
               id="g2402">
              <use
                 xlink:href="#ArialMT-31"
                 id="use2396" />
              <use
                 xlink:href="#ArialMT-2e"
                 x="55.615234"
                 id="use2398" />
              <use
                 xlink:href="#ArialMT-35"
                 x="83.398438"
                 id="use2400" />
            </g>
          </g>
        </g>
        <g
           id="ytick_4">
          <g
             id="line2d_33">
            <g
               id="g2408">
              <use
                 xlink:href="#m3b22ae303a"
                 x="29.76875"
                 y="125.182901"
                 style="stroke: #000000; stroke-width: 0.8"
                 id="use2406" />
            </g>
          </g>
          <g
             id="text_9">
            <!-- 3.0 -->
            <g
               transform="translate(11.64875 128.046026) scale(0.08 -0.08)"
               id="g2417">
              <use
                 xlink:href="#ArialMT-33"
                 id="use2411" />
              <use
                 xlink:href="#ArialMT-2e"
                 x="55.615234"
                 id="use2413" />
              <use
                 xlink:href="#ArialMT-30"
                 x="83.398438"
                 id="use2415" />
            </g>
          </g>
        </g>
        <g
           id="ytick_5">
          <g
             id="line2d_34">
            <g
               id="g2423">
              <use
                 xlink:href="#m3b22ae303a"
                 x="29.76875"
                 y="80.549175"
                 style="stroke: #000000; stroke-width: 0.8"
                 id="use2421" />
            </g>
          </g>
          <g
             id="text_10">
            <!-- 4.5 -->
            <g
               transform="translate(11.64875 83.4123) scale(0.08 -0.08)"
               id="g2432">
              <use
                 xlink:href="#ArialMT-34"
                 id="use2426" />
              <use
                 xlink:href="#ArialMT-2e"
                 x="55.615234"
                 id="use2428" />
              <use
                 xlink:href="#ArialMT-35"
                 x="83.398438"
                 id="use2430" />
            </g>
          </g>
        </g>
      </g>
      <g
         id="PathCollection_2">
        <defs
           id="defs2438">
          <path
             id="mc377612970"
             d="M -0 3.162278  L 1.897367 0  L 0 -3.162278  L -1.897367 -0  z "
             style="stroke: #52318e" />
        </defs>
        <g
           clip-path="url(#pd05b86e32f)"
           id="g2442">
          <use
             xlink:href="#mc377612970"
             x="35.681084"
             y="69.296516"
             style="fill: #a78dd8; stroke: #52318e"
             id="use2440" />
        </g>
      </g>
      <g
         id="PathCollection_3">
        <defs
           id="defs2446">
          <path
             id="m5e10ce9c3c"
             d="M 0 -2.236068  L -2.236068 2.236068  L 2.236068 2.236068  z "
             style="stroke: #167f99" />
        </defs>
        <g
           clip-path="url(#pd05b86e32f)"
           id="g2450">
          <use
             xlink:href="#m5e10ce9c3c"
             x="35.681084"
             y="143.06391"
             style="fill: #6dd2ea; stroke: #167f99"
             id="use2448" />
        </g>
      </g>
      <g
         id="PathCollection_4">
        <defs
           id="defs2454">
          <path
             id="m47db0cfd89"
             d="M 0 -2.236068  L -1.936492 -1.118034  L -1.936492 1.118034  L -0 2.236068  L 1.936492 1.118034  L 1.936492 -1.118034  z "
             style="stroke: #b71205" />
        </defs>
        <g
           clip-path="url(#pd05b86e32f)"
           id="g2458">
          <use
             xlink:href="#m47db0cfd89"
             x="35.681084"
             y="93.535851"
             style="fill: #fb7b71; stroke: #b71205"
             id="use2456" />
        </g>
      </g>
      <g
         id="line2d_35">
        <g
           id="g2465">
          <use
             xlink:href="#m407399babb"
             x="29.76875"
             y="63.755826"
             style="stroke: #000000"
             id="use2461" />
          <use
             xlink:href="#m407399babb"
             x="159.840091"
             y="63.755826"
             style="stroke: #000000"
             id="use2463" />
        </g>
      </g>
      <g
         id="patch_19">
        <path
           d="M 29.76875 185.651006  L 29.76875 63.755826  "
           style="fill: none; stroke: #000000; stroke-width: 0.8; stroke-linejoin: miter; stroke-linecap: square"
           id="path2468" />
      </g>
      <g
         id="patch_20">
        <path
           d="M 159.840091 185.651006  L 159.840091 63.755826  "
           style="fill: none; stroke: #000000; stroke-width: 0.8; stroke-linejoin: miter; stroke-linecap: square"
           id="path2471" />
      </g>
      <g
         id="patch_21">
        <path
           d="M 29.76875 185.651006  L 159.840091 185.651006  "
           style="fill: none; stroke: #000000; stroke-width: 0.8; stroke-linejoin: miter; stroke-linecap: square"
           id="path2474" />
      </g>
    </g>
  </g>
  <defs
     id="defs2485">
    <clipPath
       id="p975ba47684">
      <rect
         x="29.76875"
         y="19.642031"
         width="130.071341"
         height="30.473795"
         id="rect2479" />
    </clipPath>
    <clipPath
       id="pd05b86e32f">
      <rect
         x="29.76875"
         y="63.755826"
         width="130.071341"
         height="121.89518"
         id="rect2482" />
    </clipPath>
  </defs>
</svg>
