<?xml version="1.0" encoding="utf-8" standalone="no"?>
<!DOCTYPE svg PUBLIC "-//W3C//DTD SVG 1.1//EN"
  "http://www.w3.org/Graphics/SVG/1.1/DTD/svg11.dtd">
<svg xmlns:xlink="http://www.w3.org/1999/xlink" width="511.53984pt" height="552.926016pt" viewBox="0 0 511.53984 552.926016" xmlns="http://www.w3.org/2000/svg" version="1.1">
 <metadata>
  <rdf:RDF xmlns:dc="http://purl.org/dc/elements/1.1/" xmlns:cc="http://creativecommons.org/ns#" xmlns:rdf="http://www.w3.org/1999/02/22-rdf-syntax-ns#">
   <cc:Work>
    <dc:type rdf:resource="http://purl.org/dc/dcmitype/StillImage"/>
    <dc:date>2023-10-12T18:18:37.460347</dc:date>
    <dc:format>image/svg+xml</dc:format>
    <dc:creator>
     <cc:Agent>
      <dc:title>Matplotlib v3.7.2, https://matplotlib.org/</dc:title>
     </cc:Agent>
    </dc:creator>
   </cc:Work>
  </rdf:RDF>
 </metadata>
 <defs>
  <style type="text/css">*{stroke-linejoin: round; stroke-linecap: butt}</style>
 </defs>
 <g id="figure_1">
  <g id="patch_1">
   <path d="M 0 552.926016 
L 511.53984 552.926016 
L 511.53984 0 
L 0 0 
z
" style="fill: #ffffff"/>
  </g>
  <g id="axes_1">
   <g id="patch_2">
    <path d="M 31.429688 133.078574 
L 501.83984 133.078574 
L 501.83984 7.2 
L 31.429688 7.2 
z
" style="fill: #ffffff"/>
   </g>
   <g id="patch_3">
    <path d="M 52.811967 21.696277 
L 195.360498 36.525078 
L 195.360498 22.964101 
z
" clip-path="url(#p7eb9081de2)" style="fill: #808080; opacity: 0.3"/>
   </g>
   <g id="patch_4">
    <path d="M 195.360498 36.525078 
L 337.909029 40.586754 
L 337.909029 24.159645 
L 195.360498 22.964101 
z
" clip-path="url(#p7eb9081de2)" style="fill: #808080; opacity: 0.3"/>
   </g>
   <g id="patch_5">
    <path d="M 337.909029 40.586754 
L 480.45756 41.964267 
L 480.45756 25.723192 
L 337.909029 24.159645 
z
" clip-path="url(#p7eb9081de2)" style="fill: #808080; opacity: 0.3"/>
   </g>
   <g id="patch_6">
    <path d="M 52.811967 92.103344 
L 195.360498 123.343912 
L 195.360498 94.073737 
z
" clip-path="url(#p7eb9081de2)" style="fill: #a78dd8; opacity: 0.3"/>
   </g>
   <g id="patch_7">
    <path d="M 195.360498 123.343912 
L 337.909029 131.524078 
L 337.909029 96.337806 
L 195.360498 94.073737 
z
" clip-path="url(#p7eb9081de2)" style="fill: #a78dd8; opacity: 0.3"/>
   </g>
   <g id="patch_8">
    <path d="M 337.909029 131.524078 
L 480.45756 133.865996 
L 480.45756 99.655612 
L 337.909029 96.337806 
z
" clip-path="url(#p7eb9081de2)" style="fill: #a78dd8; opacity: 0.3"/>
   </g>
   <g id="line2d_1">
    <path d="M 52.811967 21.696277 
L 195.360498 26.658866 
" clip-path="url(#p7eb9081de2)" style="fill: none; stroke: #000000; stroke-linecap: square"/>
   </g>
   <g id="line2d_2">
    <path d="M 195.360498 26.658866 
L 337.909029 34.850301 
L 480.45756 40.263643 
" clip-path="url(#p7eb9081de2)" style="fill: none; stroke: #000000; stroke-linecap: square"/>
   </g>
   <g id="line2d_3">
    <path d="M 52.811967 21.696277 
L 195.360498 36.525078 
" clip-path="url(#p7eb9081de2)" style="fill: none; stroke-dasharray: 3.7,1.6; stroke-dashoffset: 0; stroke: #000000"/>
   </g>
   <g id="line2d_4">
    <path d="M 195.360498 36.525078 
L 337.909029 40.586754 
L 480.45756 41.964267 
" clip-path="url(#p7eb9081de2)" style="fill: none; stroke-dasharray: 3.7,1.6; stroke-dashoffset: 0; stroke: #000000"/>
   </g>
   <g id="line2d_5">
    <path d="M 52.811967 21.696277 
L 195.360498 22.964101 
" clip-path="url(#p7eb9081de2)" style="fill: none; stroke-dasharray: 6.4,1.6,1,1.6; stroke-dashoffset: 0; stroke: #000000"/>
   </g>
   <g id="line2d_6">
    <path d="M 195.360498 22.964101 
L 337.909029 24.159645 
L 480.45756 25.723192 
" clip-path="url(#p7eb9081de2)" style="fill: none; stroke-dasharray: 6.4,1.6,1,1.6; stroke-dashoffset: 0; stroke: #000000"/>
   </g>
   <g id="line2d_7">
    <path d="M 52.811967 92.103344 
L 195.360498 101.843227 
" clip-path="url(#p7eb9081de2)" style="fill: none; stroke: #52318e; stroke-linecap: square"/>
   </g>
   <g id="line2d_8">
    <path d="M 195.360498 101.843227 
L 337.909029 120.38517 
L 480.45756 131.903065 
" clip-path="url(#p7eb9081de2)" style="fill: none; stroke: #52318e; stroke-linecap: square"/>
   </g>
   <g id="line2d_9">
    <path d="M 52.811967 92.103344 
L 195.360498 123.343912 
" clip-path="url(#p7eb9081de2)" style="fill: none; stroke-dasharray: 3.7,1.6; stroke-dashoffset: 0; stroke: #52318e"/>
   </g>
   <g id="line2d_10">
    <path d="M 195.360498 123.343912 
L 337.909029 131.524078 
L 480.45756 133.865996 
" clip-path="url(#p7eb9081de2)" style="fill: none; stroke-dasharray: 3.7,1.6; stroke-dashoffset: 0; stroke: #52318e"/>
   </g>
   <g id="line2d_11">
    <path d="M 52.811967 92.103344 
L 195.360498 94.073737 
" clip-path="url(#p7eb9081de2)" style="fill: none; stroke-dasharray: 6.4,1.6,1,1.6; stroke-dashoffset: 0; stroke: #52318e"/>
   </g>
   <g id="line2d_12">
    <path d="M 195.360498 94.073737 
L 337.909029 96.337806 
L 480.45756 99.655612 
" clip-path="url(#p7eb9081de2)" style="fill: none; stroke-dasharray: 6.4,1.6,1,1.6; stroke-dashoffset: 0; stroke: #52318e"/>
   </g>
   <g id="matplotlib.axis_1">
    <g id="xtick_1"/>
    <g id="xtick_2"/>
    <g id="xtick_3"/>
    <g id="xtick_4"/>
   </g>
   <g id="matplotlib.axis_2">
    <g id="ytick_1">
     <g id="line2d_13">
      <defs>
       <path id="mf25c9852df" d="M 0 0 
L -3.5 0 
" style="stroke: #000000; stroke-width: 0.8"/>
      </defs>
      <g>
       <use xlink:href="#mf25c9852df" x="31.429688" y="133.078574" style="stroke: #000000; stroke-width: 0.8"/>
      </g>
     </g>
     <g id="text_1">
      <!-- 0.3 -->
      <g transform="translate(10.529687 136.657481) scale(0.1 -0.1)">
       <defs>
        <path id="ArialMT-30" d="M 266 2259 
Q 266 3072 433 3567 
Q 600 4063 929 4331 
Q 1259 4600 1759 4600 
Q 2128 4600 2406 4451 
Q 2684 4303 2865 4023 
Q 3047 3744 3150 3342 
Q 3253 2941 3253 2259 
Q 3253 1453 3087 958 
Q 2922 463 2592 192 
Q 2263 -78 1759 -78 
Q 1097 -78 719 397 
Q 266 969 266 2259 
z
M 844 2259 
Q 844 1131 1108 757 
Q 1372 384 1759 384 
Q 2147 384 2411 759 
Q 2675 1134 2675 2259 
Q 2675 3391 2411 3762 
Q 2147 4134 1753 4134 
Q 1366 4134 1134 3806 
Q 844 3388 844 2259 
z
" transform="scale(0.015625)"/>
        <path id="ArialMT-2e" d="M 581 0 
L 581 641 
L 1222 641 
L 1222 0 
L 581 0 
z
" transform="scale(0.015625)"/>
        <path id="ArialMT-33" d="M 269 1209 
L 831 1284 
Q 928 806 1161 595 
Q 1394 384 1728 384 
Q 2125 384 2398 659 
Q 2672 934 2672 1341 
Q 2672 1728 2419 1979 
Q 2166 2231 1775 2231 
Q 1616 2231 1378 2169 
L 1441 2663 
Q 1497 2656 1531 2656 
Q 1891 2656 2178 2843 
Q 2466 3031 2466 3422 
Q 2466 3731 2256 3934 
Q 2047 4138 1716 4138 
Q 1388 4138 1169 3931 
Q 950 3725 888 3313 
L 325 3413 
Q 428 3978 793 4289 
Q 1159 4600 1703 4600 
Q 2078 4600 2393 4439 
Q 2709 4278 2876 4000 
Q 3044 3722 3044 3409 
Q 3044 3113 2884 2869 
Q 2725 2625 2413 2481 
Q 2819 2388 3044 2092 
Q 3269 1797 3269 1353 
Q 3269 753 2831 336 
Q 2394 -81 1725 -81 
Q 1122 -81 723 278 
Q 325 638 269 1209 
z
" transform="scale(0.015625)"/>
       </defs>
       <use xlink:href="#ArialMT-30"/>
       <use xlink:href="#ArialMT-2e" x="55.615234"/>
       <use xlink:href="#ArialMT-33" x="83.398438"/>
      </g>
     </g>
    </g>
    <g id="ytick_2">
     <g id="line2d_14">
      <g>
       <use xlink:href="#mf25c9852df" x="31.429688" y="60.45632" style="stroke: #000000; stroke-width: 0.8"/>
      </g>
     </g>
     <g id="text_2">
      <!-- 0.6 -->
      <g transform="translate(10.529687 64.035226) scale(0.1 -0.1)">
       <defs>
        <path id="ArialMT-36" d="M 3184 3459 
L 2625 3416 
Q 2550 3747 2413 3897 
Q 2184 4138 1850 4138 
Q 1581 4138 1378 3988 
Q 1113 3794 959 3422 
Q 806 3050 800 2363 
Q 1003 2672 1297 2822 
Q 1591 2972 1913 2972 
Q 2475 2972 2870 2558 
Q 3266 2144 3266 1488 
Q 3266 1056 3080 686 
Q 2894 316 2569 119 
Q 2244 -78 1831 -78 
Q 1128 -78 684 439 
Q 241 956 241 2144 
Q 241 3472 731 4075 
Q 1159 4600 1884 4600 
Q 2425 4600 2770 4297 
Q 3116 3994 3184 3459 
z
M 888 1484 
Q 888 1194 1011 928 
Q 1134 663 1356 523 
Q 1578 384 1822 384 
Q 2178 384 2434 671 
Q 2691 959 2691 1453 
Q 2691 1928 2437 2201 
Q 2184 2475 1800 2475 
Q 1419 2475 1153 2201 
Q 888 1928 888 1484 
z
" transform="scale(0.015625)"/>
       </defs>
       <use xlink:href="#ArialMT-30"/>
       <use xlink:href="#ArialMT-2e" x="55.615234"/>
       <use xlink:href="#ArialMT-36" x="83.398438"/>
      </g>
     </g>
    </g>
   </g>
   <g id="PathCollection_1">
    <defs>
     <path id="mb60c097404" d="M 0 2.236068 
C 0.593012 2.236068 1.161816 2.000462 1.581139 1.581139 
C 2.000462 1.161816 2.236068 0.593012 2.236068 0 
C 2.236068 -0.593012 2.000462 -1.161816 1.581139 -1.581139 
C 1.161816 -2.000462 0.593012 -2.236068 0 -2.236068 
C -0.593012 -2.236068 -1.161816 -2.000462 -1.581139 -1.581139 
C -2.000462 -1.161816 -2.236068 -0.593012 -2.236068 0 
C -2.236068 0.593012 -2.000462 1.161816 -1.581139 1.581139 
C -1.161816 2.000462 -0.593012 2.236068 0 2.236068 
z
" style="stroke: #000000"/>
    </defs>
    <g clip-path="url(#p7eb9081de2)">
     <use xlink:href="#mb60c097404" x="52.811967" y="21.696277" style="fill: #d8d8d8; stroke: #000000"/>
    </g>
   </g>
   <g id="PathCollection_2">
    <defs>
     <path id="m66dfd0d821" d="M 0 3.162278 
L 1.897367 0 
L 0 -3.162278 
L -1.897367 0 
z
" style="stroke: #52318e"/>
    </defs>
    <g clip-path="url(#p7eb9081de2)">
     <use xlink:href="#m66dfd0d821" x="52.811967" y="92.103344" style="fill: #a78dd8; stroke: #52318e"/>
    </g>
   </g>
   <g id="line2d_15">
    <defs>
     <path id="m33d1151343" d="M -2.5 0 
L 2.5 0 
" style="stroke: #000000"/>
    </defs>
    <g>
     <use xlink:href="#m33d1151343" x="31.429688" y="133.078574" style="stroke: #000000"/>
     <use xlink:href="#m33d1151343" x="501.83984" y="133.078574" style="stroke: #000000"/>
    </g>
   </g>
   <g id="patch_9">
    <path d="M 31.429688 133.078574 
L 31.429688 7.2 
" style="fill: none; stroke: #000000; stroke-width: 0.8; stroke-linejoin: miter; stroke-linecap: square"/>
   </g>
   <g id="patch_10">
    <path d="M 501.83984 133.078574 
L 501.83984 7.2 
" style="fill: none; stroke: #000000; stroke-width: 0.8; stroke-linejoin: miter; stroke-linecap: square"/>
   </g>
   <g id="patch_11">
    <path d="M 31.429688 7.2 
L 501.83984 7.2 
" style="fill: none; stroke: #000000; stroke-width: 0.8; stroke-linejoin: miter; stroke-linecap: square"/>
   </g>
  </g>
  <g id="axes_2">
   <g id="patch_12">
    <path d="M 31.429688 529.580704 
L 501.83984 529.580704 
L 501.83984 151.944981 
L 31.429688 151.944981 
z
" style="fill: #ffffff"/>
   </g>
   <g id="patch_13">
    <path d="M 52.811967 274.58304 
L 195.360498 449.378764 
L 195.360498 301.478614 
z
" clip-path="url(#p8cc0d200f4)" style="fill: #6dd2ea; opacity: 0.3"/>
   </g>
   <g id="patch_14">
    <path d="M 195.360498 449.378764 
L 337.909029 498.058027 
L 337.909029 324.163387 
L 195.360498 301.478614 
z
" clip-path="url(#p8cc0d200f4)" style="fill: #6dd2ea; opacity: 0.3"/>
   </g>
   <g id="patch_15">
    <path d="M 337.909029 498.058027 
L 480.45756 512.415443 
L 480.45756 339.702581 
L 337.909029 324.163387 
z
" clip-path="url(#p8cc0d200f4)" style="fill: #6dd2ea; opacity: 0.3"/>
   </g>
   <g id="patch_16">
    <path d="M 52.811967 169.110241 
L 195.360498 401.421365 
L 195.360498 224.930506 
z
" clip-path="url(#p8cc0d200f4)" style="fill: #fb7b71; opacity: 0.3"/>
   </g>
   <g id="patch_17">
    <path d="M 195.360498 401.421365 
L 337.909029 460.00596 
L 337.909029 262.042802 
L 195.360498 224.930506 
z
" clip-path="url(#p8cc0d200f4)" style="fill: #fb7b71; opacity: 0.3"/>
   </g>
   <g id="patch_18">
    <path d="M 337.909029 460.00596 
L 480.45756 479.245726 
L 480.45756 286.369276 
L 337.909029 262.042802 
z
" clip-path="url(#p8cc0d200f4)" style="fill: #fb7b71; opacity: 0.3"/>
   </g>
   <g id="line2d_16">
    <path d="M 52.811967 274.58304 
L 195.360498 346.219158 
" clip-path="url(#p8cc0d200f4)" style="fill: none; stroke: #167f99; stroke-linecap: square"/>
   </g>
   <g id="line2d_17">
    <path d="M 195.360498 346.219158 
L 337.909029 438.546971 
L 480.45756 489.494875 
" clip-path="url(#p8cc0d200f4)" style="fill: none; stroke: #167f99; stroke-linecap: square"/>
   </g>
   <g id="line2d_18">
    <path d="M 52.811967 274.58304 
L 195.360498 449.378764 
" clip-path="url(#p8cc0d200f4)" style="fill: none; stroke-dasharray: 3.7,1.6; stroke-dashoffset: 0; stroke: #167f99"/>
   </g>
   <g id="line2d_19">
    <path d="M 195.360498 449.378764 
L 337.909029 498.058027 
L 480.45756 512.415443 
" clip-path="url(#p8cc0d200f4)" style="fill: none; stroke-dasharray: 3.7,1.6; stroke-dashoffset: 0; stroke: #167f99"/>
   </g>
   <g id="line2d_20">
    <path d="M 52.811967 274.58304 
L 195.360498 301.478614 
" clip-path="url(#p8cc0d200f4)" style="fill: none; stroke-dasharray: 6.4,1.6,1,1.6; stroke-dashoffset: 0; stroke: #167f99"/>
   </g>
   <g id="line2d_21">
    <path d="M 195.360498 301.478614 
L 337.909029 324.163387 
L 480.45756 339.702581 
" clip-path="url(#p8cc0d200f4)" style="fill: none; stroke-dasharray: 6.4,1.6,1,1.6; stroke-dashoffset: 0; stroke: #167f99"/>
   </g>
   <g id="line2d_22">
    <path d="M 52.811967 169.110241 
L 195.360498 272.798738 
" clip-path="url(#p8cc0d200f4)" style="fill: none; stroke: #b71205; stroke-linecap: square"/>
   </g>
   <g id="line2d_23">
    <path d="M 195.360498 272.798738 
L 337.909029 384.143599 
L 480.45756 456.035083 
" clip-path="url(#p8cc0d200f4)" style="fill: none; stroke: #b71205; stroke-linecap: square"/>
   </g>
   <g id="line2d_24">
    <path d="M 52.811967 169.110241 
L 195.360498 401.421365 
" clip-path="url(#p8cc0d200f4)" style="fill: none; stroke-dasharray: 3.7,1.6; stroke-dashoffset: 0; stroke: #b71205"/>
   </g>
   <g id="line2d_25">
    <path d="M 195.360498 401.421365 
L 337.909029 460.00596 
L 480.45756 479.245726 
" clip-path="url(#p8cc0d200f4)" style="fill: none; stroke-dasharray: 3.7,1.6; stroke-dashoffset: 0; stroke: #b71205"/>
   </g>
   <g id="line2d_26">
    <path d="M 52.811967 169.110241 
L 195.360498 224.930506 
" clip-path="url(#p8cc0d200f4)" style="fill: none; stroke-dasharray: 6.4,1.6,1,1.6; stroke-dashoffset: 0; stroke: #b71205"/>
   </g>
   <g id="line2d_27">
    <path d="M 195.360498 224.930506 
L 337.909029 262.042802 
L 480.45756 286.369276 
" clip-path="url(#p8cc0d200f4)" style="fill: none; stroke-dasharray: 6.4,1.6,1,1.6; stroke-dashoffset: 0; stroke: #b71205"/>
   </g>
   <g id="matplotlib.axis_3">
    <g id="xtick_5">
     <g id="line2d_28">
      <defs>
       <path id="me18ec459bd" d="M 0 0 
L 0 3.5 
" style="stroke: #000000; stroke-width: 0.8"/>
      </defs>
      <g>
       <use xlink:href="#me18ec459bd" x="52.811967" y="529.580704" style="stroke: #000000; stroke-width: 0.8"/>
      </g>
     </g>
     <g id="text_3">
      <!-- 2020 -->
      <g transform="translate(41.690092 543.738516) scale(0.1 -0.1)">
       <defs>
        <path id="ArialMT-32" d="M 3222 541 
L 3222 0 
L 194 0 
Q 188 203 259 391 
Q 375 700 629 1000 
Q 884 1300 1366 1694 
Q 2113 2306 2375 2664 
Q 2638 3022 2638 3341 
Q 2638 3675 2398 3904 
Q 2159 4134 1775 4134 
Q 1369 4134 1125 3890 
Q 881 3647 878 3216 
L 300 3275 
Q 359 3922 746 4261 
Q 1134 4600 1788 4600 
Q 2447 4600 2831 4234 
Q 3216 3869 3216 3328 
Q 3216 3053 3103 2787 
Q 2991 2522 2730 2228 
Q 2469 1934 1863 1422 
Q 1356 997 1212 845 
Q 1069 694 975 541 
L 3222 541 
z
" transform="scale(0.015625)"/>
       </defs>
       <use xlink:href="#ArialMT-32"/>
       <use xlink:href="#ArialMT-30" x="55.615234"/>
       <use xlink:href="#ArialMT-32" x="111.230469"/>
       <use xlink:href="#ArialMT-30" x="166.845703"/>
      </g>
     </g>
    </g>
    <g id="xtick_6">
     <g id="line2d_29">
      <g>
       <use xlink:href="#me18ec459bd" x="195.360498" y="529.580704" style="stroke: #000000; stroke-width: 0.8"/>
      </g>
     </g>
     <g id="text_4">
      <!-- 2030 -->
      <g transform="translate(184.238623 543.738516) scale(0.1 -0.1)">
       <use xlink:href="#ArialMT-32"/>
       <use xlink:href="#ArialMT-30" x="55.615234"/>
       <use xlink:href="#ArialMT-33" x="111.230469"/>
       <use xlink:href="#ArialMT-30" x="166.845703"/>
      </g>
     </g>
    </g>
    <g id="xtick_7">
     <g id="line2d_30">
      <g>
       <use xlink:href="#me18ec459bd" x="337.909029" y="529.580704" style="stroke: #000000; stroke-width: 0.8"/>
      </g>
     </g>
     <g id="text_5">
      <!-- 2040 -->
      <g transform="translate(326.787154 543.738516) scale(0.1 -0.1)">
       <defs>
        <path id="ArialMT-34" d="M 2069 0 
L 2069 1097 
L 81 1097 
L 81 1613 
L 2172 4581 
L 2631 4581 
L 2631 1613 
L 3250 1613 
L 3250 1097 
L 2631 1097 
L 2631 0 
L 2069 0 
z
M 2069 1613 
L 2069 3678 
L 634 1613 
L 2069 1613 
z
" transform="scale(0.015625)"/>
       </defs>
       <use xlink:href="#ArialMT-32"/>
       <use xlink:href="#ArialMT-30" x="55.615234"/>
       <use xlink:href="#ArialMT-34" x="111.230469"/>
       <use xlink:href="#ArialMT-30" x="166.845703"/>
      </g>
     </g>
    </g>
    <g id="xtick_8">
     <g id="line2d_31">
      <g>
       <use xlink:href="#me18ec459bd" x="480.45756" y="529.580704" style="stroke: #000000; stroke-width: 0.8"/>
      </g>
     </g>
     <g id="text_6">
      <!-- 2050 -->
      <g transform="translate(469.335685 543.738516) scale(0.1 -0.1)">
       <defs>
        <path id="ArialMT-35" d="M 266 1200 
L 856 1250 
Q 922 819 1161 601 
Q 1400 384 1738 384 
Q 2144 384 2425 690 
Q 2706 997 2706 1503 
Q 2706 1984 2436 2262 
Q 2166 2541 1728 2541 
Q 1456 2541 1237 2417 
Q 1019 2294 894 2097 
L 366 2166 
L 809 4519 
L 3088 4519 
L 3088 3981 
L 1259 3981 
L 1013 2750 
Q 1425 3038 1878 3038 
Q 2478 3038 2890 2622 
Q 3303 2206 3303 1553 
Q 3303 931 2941 478 
Q 2500 -78 1738 -78 
Q 1113 -78 717 272 
Q 322 622 266 1200 
z
" transform="scale(0.015625)"/>
       </defs>
       <use xlink:href="#ArialMT-32"/>
       <use xlink:href="#ArialMT-30" x="55.615234"/>
       <use xlink:href="#ArialMT-35" x="111.230469"/>
       <use xlink:href="#ArialMT-30" x="166.845703"/>
      </g>
     </g>
    </g>
   </g>
   <g id="matplotlib.axis_4">
    <g id="ytick_3">
     <g id="line2d_32">
      <g>
       <use xlink:href="#mf25c9852df" x="31.429688" y="457.166634" style="stroke: #000000; stroke-width: 0.8"/>
      </g>
     </g>
     <g id="text_7">
      <!-- -1.2 -->
      <g transform="translate(7.2 460.74554) scale(0.1 -0.1)">
       <defs>
        <path id="ArialMT-2d" d="M 203 1375 
L 203 1941 
L 1931 1941 
L 1931 1375 
L 203 1375 
z
" transform="scale(0.015625)"/>
        <path id="ArialMT-31" d="M 2384 0 
L 1822 0 
L 1822 3584 
Q 1619 3391 1289 3197 
Q 959 3003 697 2906 
L 697 3450 
Q 1169 3672 1522 3987 
Q 1875 4303 2022 4600 
L 2384 4600 
L 2384 0 
z
" transform="scale(0.015625)"/>
       </defs>
       <use xlink:href="#ArialMT-2d"/>
       <use xlink:href="#ArialMT-31" x="33.300781"/>
       <use xlink:href="#ArialMT-2e" x="88.916016"/>
       <use xlink:href="#ArialMT-32" x="116.699219"/>
      </g>
     </g>
    </g>
    <g id="ytick_4">
     <g id="line2d_33">
      <g>
       <use xlink:href="#mf25c9852df" x="31.429688" y="343.177669" style="stroke: #000000; stroke-width: 0.8"/>
      </g>
     </g>
     <g id="text_8">
      <!-- -1.0 -->
      <g transform="translate(7.2 346.756575) scale(0.1 -0.1)">
       <use xlink:href="#ArialMT-2d"/>
       <use xlink:href="#ArialMT-31" x="33.300781"/>
       <use xlink:href="#ArialMT-2e" x="88.916016"/>
       <use xlink:href="#ArialMT-30" x="116.699219"/>
      </g>
     </g>
    </g>
    <g id="ytick_5">
     <g id="line2d_34">
      <g>
       <use xlink:href="#mf25c9852df" x="31.429688" y="229.188704" style="stroke: #000000; stroke-width: 0.8"/>
      </g>
     </g>
     <g id="text_9">
      <!-- -0.8 -->
      <g transform="translate(7.2 232.767611) scale(0.1 -0.1)">
       <defs>
        <path id="ArialMT-38" d="M 1131 2484 
Q 781 2613 612 2850 
Q 444 3088 444 3419 
Q 444 3919 803 4259 
Q 1163 4600 1759 4600 
Q 2359 4600 2725 4251 
Q 3091 3903 3091 3403 
Q 3091 3084 2923 2848 
Q 2756 2613 2416 2484 
Q 2838 2347 3058 2040 
Q 3278 1734 3278 1309 
Q 3278 722 2862 322 
Q 2447 -78 1769 -78 
Q 1091 -78 675 323 
Q 259 725 259 1325 
Q 259 1772 486 2073 
Q 713 2375 1131 2484 
z
M 1019 3438 
Q 1019 3113 1228 2906 
Q 1438 2700 1772 2700 
Q 2097 2700 2305 2904 
Q 2513 3109 2513 3406 
Q 2513 3716 2298 3927 
Q 2084 4138 1766 4138 
Q 1444 4138 1231 3931 
Q 1019 3725 1019 3438 
z
M 838 1322 
Q 838 1081 952 856 
Q 1066 631 1291 507 
Q 1516 384 1775 384 
Q 2178 384 2440 643 
Q 2703 903 2703 1303 
Q 2703 1709 2433 1975 
Q 2163 2241 1756 2241 
Q 1359 2241 1098 1978 
Q 838 1716 838 1322 
z
" transform="scale(0.015625)"/>
       </defs>
       <use xlink:href="#ArialMT-2d"/>
       <use xlink:href="#ArialMT-30" x="33.300781"/>
       <use xlink:href="#ArialMT-2e" x="88.916016"/>
       <use xlink:href="#ArialMT-38" x="116.699219"/>
      </g>
     </g>
    </g>
   </g>
   <g id="PathCollection_3">
    <defs>
     <path id="md0d296680d" d="M 0 -2.236068 
L -2.236068 2.236068 
L 2.236068 2.236068 
z
" style="stroke: #167f99"/>
    </defs>
    <g clip-path="url(#p8cc0d200f4)">
     <use xlink:href="#md0d296680d" x="52.811967" y="274.58304" style="fill: #6dd2ea; stroke: #167f99"/>
    </g>
   </g>
   <g id="PathCollection_4">
    <defs>
     <path id="m3e037232e8" d="M 0 -2.236068 
L -1.936492 -1.118034 
L -1.936492 1.118034 
L -0 2.236068 
L 1.936492 1.118034 
L 1.936492 -1.118034 
z
" style="stroke: #b71205"/>
    </defs>
    <g clip-path="url(#p8cc0d200f4)">
     <use xlink:href="#m3e037232e8" x="52.811967" y="169.110241" style="fill: #fb7b71; stroke: #b71205"/>
    </g>
   </g>
   <g id="line2d_35">
    <g>
     <use xlink:href="#m33d1151343" x="31.429688" y="151.944981" style="stroke: #000000"/>
     <use xlink:href="#m33d1151343" x="501.83984" y="151.944981" style="stroke: #000000"/>
    </g>
   </g>
   <g id="patch_19">
    <path d="M 31.429688 529.580704 
L 31.429688 151.944981 
" style="fill: none; stroke: #000000; stroke-width: 0.8; stroke-linejoin: miter; stroke-linecap: square"/>
   </g>
   <g id="patch_20">
    <path d="M 501.83984 529.580704 
L 501.83984 151.944981 
" style="fill: none; stroke: #000000; stroke-width: 0.8; stroke-linejoin: miter; stroke-linecap: square"/>
   </g>
   <g id="patch_21">
    <path d="M 31.429688 529.580704 
L 501.83984 529.580704 
" style="fill: none; stroke: #000000; stroke-width: 0.8; stroke-linejoin: miter; stroke-linecap: square"/>
   </g>
  </g>
 </g>
 <defs>
  <clipPath id="p7eb9081de2">
   <rect x="31.429688" y="7.2" width="470.410152" height="125.878574"/>
  </clipPath>
  <clipPath id="p8cc0d200f4">
   <rect x="31.429688" y="151.944981" width="470.410152" height="377.635723"/>
  </clipPath>
 </defs>
</svg>
