<?xml version="1.0" encoding="UTF-8" standalone="no"?>
<svg
   width="170.021806pt"
   height="207.167256pt"
   viewBox="0 0 170.021806 207.167256"
   version="1.1"
   id="svg4672"
   sodipodi:docname="Methanol image SSP2 GLO.svg"
   inkscape:version="1.2.2 (732a01da63, 2022-12-09)"
   xmlns:inkscape="http://www.inkscape.org/namespaces/inkscape"
   xmlns:sodipodi="http://sodipodi.sourceforge.net/DTD/sodipodi-0.dtd"
   xmlns:xlink="http://www.w3.org/1999/xlink"
   xmlns="http://www.w3.org/2000/svg"
   xmlns:svg="http://www.w3.org/2000/svg"
   xmlns:rdf="http://www.w3.org/1999/02/22-rdf-syntax-ns#"
   xmlns:cc="http://creativecommons.org/ns#"
   xmlns:dc="http://purl.org/dc/elements/1.1/">
  <sodipodi:namedview
     id="namedview4674"
     pagecolor="#ffffff"
     bordercolor="#000000"
     borderopacity="0.25"
     inkscape:showpageshadow="2"
     inkscape:pageopacity="0.0"
     inkscape:pagecheckerboard="0"
     inkscape:deskcolor="#d1d1d1"
     inkscape:document-units="pt"
     showgrid="false"
     inkscape:zoom="2.4165576"
     inkscape:cx="79.865673"
     inkscape:cy="91.866214"
     inkscape:window-width="1920"
     inkscape:window-height="1137"
     inkscape:window-x="-8"
     inkscape:window-y="224"
     inkscape:window-maximized="1"
     inkscape:current-layer="g4429" />
  <metadata
     id="metadata4249">
    <rdf:RDF>
      <cc:Work>
        <dc:type
           rdf:resource="http://purl.org/dc/dcmitype/StillImage" />
        <dc:date>2023-10-12T18:50:05.831318</dc:date>
        <dc:format>image/svg+xml</dc:format>
        <dc:creator>
          <cc:Agent>
            <dc:title>Matplotlib v3.7.1, https://matplotlib.org/</dc:title>
          </cc:Agent>
        </dc:creator>
      </cc:Work>
    </rdf:RDF>
  </metadata>
  <defs
     id="defs4253">
    <style
       type="text/css"
       id="style4251">*{stroke-linejoin: round; stroke-linecap: butt}</style>
  </defs>
  <g
     id="figure_1">
    <g
       id="patch_1">
      <path
         d="M 0 207.167256  L 170.021806 207.167256  L 170.021806 0  L 0 0  z "
         style="fill: #ffffff"
         id="path4255" />
    </g>
    <g
       id="axes_1">
      <g
         id="patch_2">
        <path
           d="M 27.98375 69.780648  L 159.921476 69.780648  L 159.921476 19.642031  L 27.98375 19.642031  z "
           style="fill: #ffffff"
           id="path4258" />
      </g>
      <g
         id="patch_3">
        <path
           d="M 33.980919 25.416034  L 73.962048 31.322485  L 73.962048 25.92102  z "
           clip-path="url(#p2c40d3bf01)"
           style="fill: #808080; opacity: 0.3"
           id="path4261" />
      </g>
      <g
         id="patch_4">
        <path
           d="M 73.962048 31.322485  L 113.943177 32.940288  L 113.943177 26.397217  L 73.962048 25.92102  z "
           clip-path="url(#p2c40d3bf01)"
           style="fill: #808080; opacity: 0.3"
           id="path4264" />
      </g>
      <g
         id="patch_5">
        <path
           d="M 113.943177 32.940288  L 153.924306 33.488965  L 153.924306 27.019992  L 113.943177 26.397217  z "
           clip-path="url(#p2c40d3bf01)"
           style="fill: #808080; opacity: 0.3"
           id="path4267" />
      </g>
      <g
         id="patch_6">
        <path
           d="M 33.980919 53.459829  L 73.962048 65.903241  L 73.962048 54.244655  z "
           clip-path="url(#p2c40d3bf01)"
           style="fill: #a78dd8; opacity: 0.3"
           id="path4270" />
      </g>
      <g
         id="patch_7">
        <path
           d="M 73.962048 65.903241  L 113.943177 69.161477  L 113.943177 55.146455  L 73.962048 54.244655  z "
           clip-path="url(#p2c40d3bf01)"
           style="fill: #a78dd8; opacity: 0.3"
           id="path4273" />
      </g>
      <g
         id="patch_8">
        <path
           d="M 113.943177 69.161477  L 153.924306 70.094285  L 153.924306 56.467969  L 113.943177 55.146455  z "
           clip-path="url(#p2c40d3bf01)"
           style="fill: #a78dd8; opacity: 0.3"
           id="path4276" />
      </g>
      <g
         id="line2d_1">
        <path
           d="M 33.980919 25.416034  L 73.962048 27.39268  "
           clip-path="url(#p2c40d3bf01)"
           style="fill: none; stroke: #000000; stroke-linecap: square"
           id="path4279" />
      </g>
      <g
         id="line2d_2">
        <path
           d="M 73.962048 27.39268  L 113.943177 30.655405  L 153.924306 32.81159  "
           clip-path="url(#p2c40d3bf01)"
           style="fill: none; stroke: #000000; stroke-linecap: square"
           id="path4282" />
      </g>
      <g
         id="line2d_3">
        <path
           d="M 33.980919 25.416034  L 73.962048 31.322485  "
           clip-path="url(#p2c40d3bf01)"
           style="fill: none; stroke-dasharray: 3.7,1.6; stroke-dashoffset: 0; stroke: #000000"
           id="path4285" />
      </g>
      <g
         id="line2d_4">
        <path
           d="M 73.962048 31.322485  L 113.943177 32.940288  L 153.924306 33.488965  "
           clip-path="url(#p2c40d3bf01)"
           style="fill: none; stroke-dasharray: 3.7,1.6; stroke-dashoffset: 0; stroke: #000000"
           id="path4288" />
      </g>
      <g
         id="line2d_5">
        <path
           d="M 33.980919 25.416034  L 73.962048 25.92102  "
           clip-path="url(#p2c40d3bf01)"
           style="fill: none; stroke-dasharray: 6.4,1.6,1,1.6; stroke-dashoffset: 0; stroke: #000000"
           id="path4291" />
      </g>
      <g
         id="line2d_6">
        <path
           d="M 73.962048 25.92102  L 113.943177 26.397217  L 153.924306 27.019992  "
           clip-path="url(#p2c40d3bf01)"
           style="fill: none; stroke-dasharray: 6.4,1.6,1,1.6; stroke-dashoffset: 0; stroke: #000000"
           id="path4294" />
      </g>
      <g
         id="line2d_7">
        <path
           d="M 33.980919 53.459829  L 73.962048 57.339316  "
           clip-path="url(#p2c40d3bf01)"
           style="fill: none; stroke: #52318e; stroke-linecap: square"
           id="path4297" />
      </g>
      <g
         id="line2d_8">
        <path
           d="M 73.962048 57.339316  L 113.943177 64.724746  L 153.924306 69.312432  "
           clip-path="url(#p2c40d3bf01)"
           style="fill: none; stroke: #52318e; stroke-linecap: square"
           id="path4300" />
      </g>
      <g
         id="line2d_9">
        <path
           d="M 33.980919 53.459829  L 73.962048 65.903241  "
           clip-path="url(#p2c40d3bf01)"
           style="fill: none; stroke-dasharray: 3.7,1.6; stroke-dashoffset: 0; stroke: #52318e"
           id="path4303" />
      </g>
      <g
         id="line2d_10">
        <path
           d="M 73.962048 65.903241  L 113.943177 69.161477  L 153.924306 70.094285  "
           clip-path="url(#p2c40d3bf01)"
           style="fill: none; stroke-dasharray: 3.7,1.6; stroke-dashoffset: 0; stroke: #52318e"
           id="path4306" />
      </g>
      <g
         id="line2d_11">
        <path
           d="M 33.980919 53.459829  L 73.962048 54.244655  "
           clip-path="url(#p2c40d3bf01)"
           style="fill: none; stroke-dasharray: 6.4,1.6,1,1.6; stroke-dashoffset: 0; stroke: #52318e"
           id="path4309" />
      </g>
      <g
         id="line2d_12">
        <path
           d="M 73.962048 54.244655  L 113.943177 55.146455  L 153.924306 56.467969  "
           clip-path="url(#p2c40d3bf01)"
           style="fill: none; stroke-dasharray: 6.4,1.6,1,1.6; stroke-dashoffset: 0; stroke: #52318e"
           id="path4312" />
      </g>
      <g
         id="matplotlib.axis_1">
        <g
           id="xtick_1" />
        <g
           id="xtick_2" />
        <g
           id="xtick_3" />
        <g
           id="xtick_4" />
      </g>
      <g
         id="matplotlib.axis_2">
        <g
           id="ytick_1">
          <g
             id="line2d_13">
            <defs
               id="defs4321">
              <path
                 id="m964ded3828"
                 d="M 0 0  L -3.5 0  "
                 style="stroke: #000000; stroke-width: 0.8" />
            </defs>
            <g
               id="g4325">
              <use
                 xlink:href="#m964ded3828"
                 x="27.98375"
                 y="69.780648"
                 style="stroke: #000000; stroke-width: 0.8"
                 id="use4323" />
            </g>
          </g>
          <g
             id="text_1">
            <!-- 0.3 -->
            <g
               transform="translate(9.86375 72.643773) scale(0.08 -0.08)"
               id="g4339">
              <defs
                 id="defs4331">
                <path
                   id="ArialMT-30"
                   d="M 266 2259  Q 266 3072 433 3567  Q 600 4063 929 4331  Q 1259 4600 1759 4600  Q 2128 4600 2406 4451  Q 2684 4303 2865 4023  Q 3047 3744 3150 3342  Q 3253 2941 3253 2259  Q 3253 1453 3087 958  Q 2922 463 2592 192  Q 2263 -78 1759 -78  Q 1097 -78 719 397  Q 266 969 266 2259  z M 844 2259  Q 844 1131 1108 757  Q 1372 384 1759 384  Q 2147 384 2411 759  Q 2675 1134 2675 2259  Q 2675 3391 2411 3762  Q 2147 4134 1753 4134  Q 1366 4134 1134 3806  Q 844 3388 844 2259  z "
                   transform="scale(0.015625)" />
                <path
                   id="ArialMT-2e"
                   d="M 581 0  L 581 641  L 1222 641  L 1222 0  L 581 0  z "
                   transform="scale(0.015625)" />
                <path
                   id="ArialMT-33"
                   d="M 269 1209  L 831 1284  Q 928 806 1161 595  Q 1394 384 1728 384  Q 2125 384 2398 659  Q 2672 934 2672 1341  Q 2672 1728 2419 1979  Q 2166 2231 1775 2231  Q 1616 2231 1378 2169  L 1441 2663  Q 1497 2656 1531 2656  Q 1891 2656 2178 2843  Q 2466 3031 2466 3422  Q 2466 3731 2256 3934  Q 2047 4138 1716 4138  Q 1388 4138 1169 3931  Q 950 3725 888 3313  L 325 3413  Q 428 3978 793 4289  Q 1159 4600 1703 4600  Q 2078 4600 2393 4439  Q 2709 4278 2876 4000  Q 3044 3722 3044 3409  Q 3044 3113 2884 2869  Q 2725 2625 2413 2481  Q 2819 2388 3044 2092  Q 3269 1797 3269 1353  Q 3269 753 2831 336  Q 2394 -81 1725 -81  Q 1122 -81 723 278  Q 325 638 269 1209  z "
                   transform="scale(0.015625)" />
              </defs>
              <use
                 xlink:href="#ArialMT-30"
                 id="use4333" />
              <use
                 xlink:href="#ArialMT-2e"
                 x="55.615234"
                 id="use4335" />
              <use
                 xlink:href="#ArialMT-33"
                 x="83.398438"
                 id="use4337" />
            </g>
          </g>
        </g>
        <g
           id="ytick_2">
          <g
             id="line2d_14">
            <g
               id="g4345">
              <use
                 xlink:href="#m964ded3828"
                 x="27.98375"
                 y="40.854523"
                 style="stroke: #000000; stroke-width: 0.8"
                 id="use4343" />
            </g>
          </g>
          <g
             id="text_2">
            <!-- 0.6 -->
            <g
               transform="translate(9.86375 43.717648) scale(0.08 -0.08)"
               id="g4357">
              <defs
                 id="defs4349">
                <path
                   id="ArialMT-36"
                   d="M 3184 3459  L 2625 3416  Q 2550 3747 2413 3897  Q 2184 4138 1850 4138  Q 1581 4138 1378 3988  Q 1113 3794 959 3422  Q 806 3050 800 2363  Q 1003 2672 1297 2822  Q 1591 2972 1913 2972  Q 2475 2972 2870 2558  Q 3266 2144 3266 1488  Q 3266 1056 3080 686  Q 2894 316 2569 119  Q 2244 -78 1831 -78  Q 1128 -78 684 439  Q 241 956 241 2144  Q 241 3472 731 4075  Q 1159 4600 1884 4600  Q 2425 4600 2770 4297  Q 3116 3994 3184 3459  z M 888 1484  Q 888 1194 1011 928  Q 1134 663 1356 523  Q 1578 384 1822 384  Q 2178 384 2434 671  Q 2691 959 2691 1453  Q 2691 1928 2437 2201  Q 2184 2475 1800 2475  Q 1419 2475 1153 2201  Q 888 1928 888 1484  z "
                   transform="scale(0.015625)" />
              </defs>
              <use
                 xlink:href="#ArialMT-30"
                 id="use4351" />
              <use
                 xlink:href="#ArialMT-2e"
                 x="55.615234"
                 id="use4353" />
              <use
                 xlink:href="#ArialMT-36"
                 x="83.398438"
                 id="use4355" />
            </g>
          </g>
        </g>
      </g>
      <g
         id="PathCollection_1">
        <defs
           id="defs4363">
          <path
             id="m9ffb7b4da7"
             d="M 0 2.236068  C 0.593012 2.236068 1.161816 2.000462 1.581139 1.581139  C 2.000462 1.161816 2.236068 0.593012 2.236068 0  C 2.236068 -0.593012 2.000462 -1.161816 1.581139 -1.581139  C 1.161816 -2.000462 0.593012 -2.236068 0 -2.236068  C -0.593012 -2.236068 -1.161816 -2.000462 -1.581139 -1.581139  C -2.000462 -1.161816 -2.236068 -0.593012 -2.236068 0  C -2.236068 0.593012 -2.000462 1.161816 -1.581139 1.581139  C -1.161816 2.000462 -0.593012 2.236068 0 2.236068  z "
             style="stroke: #000000" />
        </defs>
        <g
           clip-path="url(#p2c40d3bf01)"
           id="g4367">
          <use
             xlink:href="#m9ffb7b4da7"
             x="33.980919"
             y="25.416034"
             style="fill: #d8d8d8; stroke: #000000"
             id="use4365" />
        </g>
      </g>
      <g
         id="PathCollection_2">
        <defs
           id="defs4371">
          <path
             id="m17ffc52e78"
             d="M -0 3.162278  L 1.897367 0  L 0 -3.162278  L -1.897367 -0  z "
             style="stroke: #52318e" />
        </defs>
        <g
           clip-path="url(#p2c40d3bf01)"
           id="g4375">
          <use
             xlink:href="#m17ffc52e78"
             x="33.980919"
             y="53.459829"
             style="fill: #a78dd8; stroke: #52318e"
             id="use4373" />
        </g>
      </g>
      <g
         id="line2d_15">
        <defs
           id="defs4379">
          <path
             id="m1d3d989475"
             d="M -2.5 0  L 2.5 0  "
             style="stroke: #000000" />
        </defs>
        <g
           id="g4385">
          <use
             xlink:href="#m1d3d989475"
             x="27.98375"
             y="69.780648"
             style="stroke: #000000"
             id="use4381" />
          <use
             xlink:href="#m1d3d989475"
             x="159.921476"
             y="69.780648"
             style="stroke: #000000"
             id="use4383" />
        </g>
      </g>
      <g
         id="patch_9">
        <path
           d="M 27.98375 69.780648  L 27.98375 19.642031  "
           style="fill: none; stroke: #000000; stroke-width: 0.8; stroke-linejoin: miter; stroke-linecap: square"
           id="path4388" />
      </g>
      <g
         id="patch_10">
        <path
           d="M 159.921476 69.780648  L 159.921476 19.642031  "
           style="fill: none; stroke: #000000; stroke-width: 0.8; stroke-linejoin: miter; stroke-linecap: square"
           id="path4391" />
      </g>
      <g
         id="patch_11">
        <path
           d="M 27.98375 19.642031  L 159.921476 19.642031  "
           style="fill: none; stroke: #000000; stroke-width: 0.8; stroke-linejoin: miter; stroke-linecap: square"
           id="path4394" />
      </g>
      <g
         id="text_3">
        <!-- c Methanol -->
        <g
           transform="translate(70.452769 13.642031) scale(0.09 -0.09)"
           id="g4429">
          <defs
             id="defs4407">
            <path
               id="Arial-BoldMT-63"
               d="M 3353 2338  L 2488 2181  Q 2444 2441 2289 2572  Q 2134 2703 1888 2703  Q 1559 2703 1364 2476  Q 1169 2250 1169 1719  Q 1169 1128 1367 884  Q 1566 641 1900 641  Q 2150 641 2309 783  Q 2469 925 2534 1272  L 3397 1125  Q 3263 531 2881 228  Q 2500 -75 1859 -75  Q 1131 -75 698 384  Q 266 844 266 1656  Q 266 2478 700 2936  Q 1134 3394 1875 3394  Q 2481 3394 2839 3133  Q 3197 2872 3353 2338  z "
               transform="scale(0.015625)" />
            <path
               id="Arial-BoldMT-20"
               transform="scale(0.015625)" />
            <path
               id="Arial-BoldMT-4d"
               d="M 453 0  L 453 4581  L 1838 4581  L 2669 1456  L 3491 4581  L 4878 4581  L 4878 0  L 4019 0  L 4019 3606  L 3109 0  L 2219 0  L 1313 3606  L 1313 0  L 453 0  z "
               transform="scale(0.015625)" />
            <path
               id="Arial-BoldMT-65"
               d="M 2381 1056  L 3256 909  Q 3088 428 2723 176  Q 2359 -75 1813 -75  Q 947 -75 531 491  Q 203 944 203 1634  Q 203 2459 634 2926  Q 1066 3394 1725 3394  Q 2466 3394 2894 2905  Q 3322 2416 3303 1406  L 1103 1406  Q 1113 1016 1316 798  Q 1519 581 1822 581  Q 2028 581 2168 693  Q 2309 806 2381 1056  z M 2431 1944  Q 2422 2325 2234 2523  Q 2047 2722 1778 2722  Q 1491 2722 1303 2513  Q 1116 2303 1119 1944  L 2431 1944  z "
               transform="scale(0.015625)" />
            <path
               id="Arial-BoldMT-74"
               d="M 1981 3319  L 1981 2619  L 1381 2619  L 1381 1281  Q 1381 875 1398 808  Q 1416 741 1477 697  Q 1538 653 1625 653  Q 1747 653 1978 738  L 2053 56  Q 1747 -75 1359 -75  Q 1122 -75 931 4  Q 741 84 652 211  Q 563 338 528 553  Q 500 706 500 1172  L 500 2619  L 97 2619  L 97 3319  L 500 3319  L 500 3978  L 1381 4491  L 1381 3319  L 1981 3319  z "
               transform="scale(0.015625)" />
            <path
               id="Arial-BoldMT-68"
               d="M 1334 4581  L 1334 2897  Q 1759 3394 2350 3394  Q 2653 3394 2897 3281  Q 3141 3169 3264 2994  Q 3388 2819 3433 2606  Q 3478 2394 3478 1947  L 3478 0  L 2600 0  L 2600 1753  Q 2600 2275 2550 2415  Q 2500 2556 2373 2639  Q 2247 2722 2056 2722  Q 1838 2722 1666 2615  Q 1494 2509 1414 2295  Q 1334 2081 1334 1663  L 1334 0  L 456 0  L 456 4581  L 1334 4581  z "
               transform="scale(0.015625)" />
            <path
               id="Arial-BoldMT-61"
               d="M 1116 2306  L 319 2450  Q 453 2931 781 3162  Q 1109 3394 1756 3394  Q 2344 3394 2631 3255  Q 2919 3116 3036 2902  Q 3153 2688 3153 2116  L 3144 1091  Q 3144 653 3186 445  Q 3228 238 3344 0  L 2475 0  Q 2441 88 2391 259  Q 2369 338 2359 363  Q 2134 144 1878 34  Q 1622 -75 1331 -75  Q 819 -75 523 203  Q 228 481 228 906  Q 228 1188 362 1408  Q 497 1628 739 1745  Q 981 1863 1438 1950  Q 2053 2066 2291 2166  L 2291 2253  Q 2291 2506 2166 2614  Q 2041 2722 1694 2722  Q 1459 2722 1328 2630  Q 1197 2538 1116 2306  z M 2291 1594  Q 2122 1538 1756 1459  Q 1391 1381 1278 1306  Q 1106 1184 1106 997  Q 1106 813 1243 678  Q 1381 544 1594 544  Q 1831 544 2047 700  Q 2206 819 2256 991  Q 2291 1103 2291 1419  L 2291 1594  z "
               transform="scale(0.015625)" />
            <path
               id="Arial-BoldMT-6e"
               d="M 3478 0  L 2600 0  L 2600 1694  Q 2600 2231 2544 2389  Q 2488 2547 2361 2634  Q 2234 2722 2056 2722  Q 1828 2722 1647 2597  Q 1466 2472 1398 2265  Q 1331 2059 1331 1503  L 1331 0  L 453 0  L 453 3319  L 1269 3319  L 1269 2831  Q 1703 3394 2363 3394  Q 2653 3394 2893 3289  Q 3134 3184 3257 3021  Q 3381 2859 3429 2653  Q 3478 2447 3478 2063  L 3478 0  z "
               transform="scale(0.015625)" />
            <path
               id="Arial-BoldMT-6f"
               d="M 256 1706  Q 256 2144 472 2553  Q 688 2963 1083 3178  Q 1478 3394 1966 3394  Q 2719 3394 3200 2905  Q 3681 2416 3681 1669  Q 3681 916 3195 420  Q 2709 -75 1972 -75  Q 1516 -75 1102 131  Q 688 338 472 736  Q 256 1134 256 1706  z M 1156 1659  Q 1156 1166 1390 903  Q 1625 641 1969 641  Q 2313 641 2545 903  Q 2778 1166 2778 1666  Q 2778 2153 2545 2415  Q 2313 2678 1969 2678  Q 1625 2678 1390 2415  Q 1156 2153 1156 1659  z "
               transform="scale(0.015625)" />
            <path
               id="Arial-BoldMT-6c"
               d="M 459 0  L 459 4581  L 1338 4581  L 1338 0  L 459 0  z "
               transform="scale(0.015625)" />
          </defs>
          <use
             xlink:href="#Arial-BoldMT-63"
             id="use4409"
             transform="translate(-673.67591)" />
          <use
             xlink:href="#Arial-BoldMT-20"
             x="55.615234"
             id="use4411" />
          <use
             xlink:href="#Arial-BoldMT-4d"
             x="83.398438"
             id="use4413" />
          <use
             xlink:href="#Arial-BoldMT-65"
             x="166.699219"
             id="use4415" />
          <use
             xlink:href="#Arial-BoldMT-74"
             x="222.314453"
             id="use4417" />
          <use
             xlink:href="#Arial-BoldMT-68"
             x="255.615234"
             id="use4419" />
          <use
             xlink:href="#Arial-BoldMT-61"
             x="316.699219"
             id="use4421" />
          <use
             xlink:href="#Arial-BoldMT-6e"
             x="372.314453"
             id="use4423" />
          <use
             xlink:href="#Arial-BoldMT-6f"
             x="433.398438"
             id="use4425" />
          <use
             xlink:href="#Arial-BoldMT-6c"
             x="494.482422"
             id="use4427" />
        </g>
      </g>
    </g>
    <g
       id="axes_2">
      <g
         id="patch_12">
        <path
           d="M 27.98375 185.651006  L 159.921476 185.651006  L 159.921476 85.373773  L 27.98375 85.373773  z "
           style="fill: #ffffff"
           id="path4433" />
      </g>
      <g
         id="patch_13">
        <path
           d="M 33.980919 117.939032  L 73.962048 164.354216  L 73.962048 125.080872  z "
           clip-path="url(#p329106e39e)"
           style="fill: #6dd2ea; opacity: 0.3"
           id="path4436" />
      </g>
      <g
         id="patch_14">
        <path
           d="M 73.962048 164.354216  L 113.943177 177.280487  L 113.943177 131.104577  L 73.962048 125.080872  z "
           clip-path="url(#p329106e39e)"
           style="fill: #6dd2ea; opacity: 0.3"
           id="path4439" />
      </g>
      <g
         id="patch_15">
        <path
           d="M 113.943177 177.280487  L 153.924306 181.09295  L 153.924306 135.230848  L 113.943177 131.104577  z "
           clip-path="url(#p329106e39e)"
           style="fill: #6dd2ea; opacity: 0.3"
           id="path4442" />
      </g>
      <g
         id="patch_16">
        <path
           d="M 33.980919 89.931829  L 73.962048 151.619629  L 73.962048 104.754319  z "
           clip-path="url(#p329106e39e)"
           style="fill: #fb7b71; opacity: 0.3"
           id="path4445" />
      </g>
      <g
         id="patch_17">
        <path
           d="M 73.962048 151.619629  L 113.943177 167.176158  L 113.943177 114.609103  L 73.962048 104.754319  z "
           clip-path="url(#p329106e39e)"
           style="fill: #fb7b71; opacity: 0.3"
           id="path4448" />
      </g>
      <g
         id="patch_18">
        <path
           d="M 113.943177 167.176158  L 153.924306 172.285077  L 153.924306 121.068744  L 113.943177 114.609103  z "
           clip-path="url(#p329106e39e)"
           style="fill: #fb7b71; opacity: 0.3"
           id="path4451" />
      </g>
      <g
         id="line2d_16">
        <path
           d="M 33.980919 117.939032  L 73.962048 136.961257  "
           clip-path="url(#p329106e39e)"
           style="fill: none; stroke: #167f99; stroke-linecap: square"
           id="path4454" />
      </g>
      <g
         id="line2d_17">
        <path
           d="M 73.962048 136.961257  L 113.943177 161.477947  L 153.924306 175.006632  "
           clip-path="url(#p329106e39e)"
           style="fill: none; stroke: #167f99; stroke-linecap: square"
           id="path4457" />
      </g>
      <g
         id="line2d_18">
        <path
           d="M 33.980919 117.939032  L 73.962048 164.354216  "
           clip-path="url(#p329106e39e)"
           style="fill: none; stroke-dasharray: 3.7,1.6; stroke-dashoffset: 0; stroke: #167f99"
           id="path4460" />
      </g>
      <g
         id="line2d_19">
        <path
           d="M 73.962048 164.354216  L 113.943177 177.280487  L 153.924306 181.09295  "
           clip-path="url(#p329106e39e)"
           style="fill: none; stroke-dasharray: 3.7,1.6; stroke-dashoffset: 0; stroke: #167f99"
           id="path4463" />
      </g>
      <g
         id="line2d_20">
        <path
           d="M 33.980919 117.939032  L 73.962048 125.080872  "
           clip-path="url(#p329106e39e)"
           style="fill: none; stroke-dasharray: 6.4,1.6,1,1.6; stroke-dashoffset: 0; stroke: #167f99"
           id="path4466" />
      </g>
      <g
         id="line2d_21">
        <path
           d="M 73.962048 125.080872  L 113.943177 131.104577  L 153.924306 135.230848  "
           clip-path="url(#p329106e39e)"
           style="fill: none; stroke-dasharray: 6.4,1.6,1,1.6; stroke-dashoffset: 0; stroke: #167f99"
           id="path4469" />
      </g>
      <g
         id="line2d_22">
        <path
           d="M 33.980919 89.931829  L 73.962048 117.465229  "
           clip-path="url(#p329106e39e)"
           style="fill: none; stroke: #b71205; stroke-linecap: square"
           id="path4472" />
      </g>
      <g
         id="line2d_23">
        <path
           d="M 73.962048 117.465229  L 113.943177 147.031698  L 153.924306 166.121732  "
           clip-path="url(#p329106e39e)"
           style="fill: none; stroke: #b71205; stroke-linecap: square"
           id="path4475" />
      </g>
      <g
         id="line2d_24">
        <path
           d="M 33.980919 89.931829  L 73.962048 151.619629  "
           clip-path="url(#p329106e39e)"
           style="fill: none; stroke-dasharray: 3.7,1.6; stroke-dashoffset: 0; stroke: #b71205"
           id="path4478" />
      </g>
      <g
         id="line2d_25">
        <path
           d="M 73.962048 151.619629  L 113.943177 167.176158  L 153.924306 172.285077  "
           clip-path="url(#p329106e39e)"
           style="fill: none; stroke-dasharray: 3.7,1.6; stroke-dashoffset: 0; stroke: #b71205"
           id="path4481" />
      </g>
      <g
         id="line2d_26">
        <path
           d="M 33.980919 89.931829  L 73.962048 104.754319  "
           clip-path="url(#p329106e39e)"
           style="fill: none; stroke-dasharray: 6.4,1.6,1,1.6; stroke-dashoffset: 0; stroke: #b71205"
           id="path4484" />
      </g>
      <g
         id="line2d_27">
        <path
           d="M 73.962048 104.754319  L 113.943177 114.609103  L 153.924306 121.068744  "
           clip-path="url(#p329106e39e)"
           style="fill: none; stroke-dasharray: 6.4,1.6,1,1.6; stroke-dashoffset: 0; stroke: #b71205"
           id="path4487" />
      </g>
      <g
         id="matplotlib.axis_3">
        <g
           id="xtick_5">
          <g
             id="line2d_28">
            <defs
               id="defs4491">
              <path
                 id="mf68c3027c1"
                 d="M 0 0  L 0 3.5  "
                 style="stroke: #000000; stroke-width: 0.8" />
            </defs>
            <g
               id="g4495">
              <use
                 xlink:href="#mf68c3027c1"
                 x="33.980919"
                 y="185.651006"
                 style="stroke: #000000; stroke-width: 0.8"
                 id="use4493" />
            </g>
          </g>
          <g
             id="text_4">
            <!-- 2020 -->
            <g
               transform="translate(25.083419 198.377256) scale(0.08 -0.08)"
               id="g4509">
              <defs
                 id="defs4499">
                <path
                   id="ArialMT-32"
                   d="M 3222 541  L 3222 0  L 194 0  Q 188 203 259 391  Q 375 700 629 1000  Q 884 1300 1366 1694  Q 2113 2306 2375 2664  Q 2638 3022 2638 3341  Q 2638 3675 2398 3904  Q 2159 4134 1775 4134  Q 1369 4134 1125 3890  Q 881 3647 878 3216  L 300 3275  Q 359 3922 746 4261  Q 1134 4600 1788 4600  Q 2447 4600 2831 4234  Q 3216 3869 3216 3328  Q 3216 3053 3103 2787  Q 2991 2522 2730 2228  Q 2469 1934 1863 1422  Q 1356 997 1212 845  Q 1069 694 975 541  L 3222 541  z "
                   transform="scale(0.015625)" />
              </defs>
              <use
                 xlink:href="#ArialMT-32"
                 id="use4501" />
              <use
                 xlink:href="#ArialMT-30"
                 x="55.615234"
                 id="use4503" />
              <use
                 xlink:href="#ArialMT-32"
                 x="111.230469"
                 id="use4505" />
              <use
                 xlink:href="#ArialMT-30"
                 x="166.845703"
                 id="use4507" />
            </g>
          </g>
        </g>
        <g
           id="xtick_6">
          <g
             id="line2d_29">
            <g
               id="g4515">
              <use
                 xlink:href="#mf68c3027c1"
                 x="73.962048"
                 y="185.651006"
                 style="stroke: #000000; stroke-width: 0.8"
                 id="use4513" />
            </g>
          </g>
          <g
             id="text_5">
            <!-- 2030 -->
            <g
               transform="translate(65.064548 198.377256) scale(0.08 -0.08)"
               id="g4526">
              <use
                 xlink:href="#ArialMT-32"
                 id="use4518" />
              <use
                 xlink:href="#ArialMT-30"
                 x="55.615234"
                 id="use4520" />
              <use
                 xlink:href="#ArialMT-33"
                 x="111.230469"
                 id="use4522" />
              <use
                 xlink:href="#ArialMT-30"
                 x="166.845703"
                 id="use4524" />
            </g>
          </g>
        </g>
        <g
           id="xtick_7">
          <g
             id="line2d_30">
            <g
               id="g4532">
              <use
                 xlink:href="#mf68c3027c1"
                 x="113.943177"
                 y="185.651006"
                 style="stroke: #000000; stroke-width: 0.8"
                 id="use4530" />
            </g>
          </g>
          <g
             id="text_6">
            <!-- 2040 -->
            <g
               transform="translate(105.045677 198.377256) scale(0.08 -0.08)"
               id="g4546">
              <defs
                 id="defs4536">
                <path
                   id="ArialMT-34"
                   d="M 2069 0  L 2069 1097  L 81 1097  L 81 1613  L 2172 4581  L 2631 4581  L 2631 1613  L 3250 1613  L 3250 1097  L 2631 1097  L 2631 0  L 2069 0  z M 2069 1613  L 2069 3678  L 634 1613  L 2069 1613  z "
                   transform="scale(0.015625)" />
              </defs>
              <use
                 xlink:href="#ArialMT-32"
                 id="use4538" />
              <use
                 xlink:href="#ArialMT-30"
                 x="55.615234"
                 id="use4540" />
              <use
                 xlink:href="#ArialMT-34"
                 x="111.230469"
                 id="use4542" />
              <use
                 xlink:href="#ArialMT-30"
                 x="166.845703"
                 id="use4544" />
            </g>
          </g>
        </g>
        <g
           id="xtick_8">
          <g
             id="line2d_31">
            <g
               id="g4552">
              <use
                 xlink:href="#mf68c3027c1"
                 x="153.924306"
                 y="185.651006"
                 style="stroke: #000000; stroke-width: 0.8"
                 id="use4550" />
            </g>
          </g>
          <g
             id="text_7">
            <!-- 2050 -->
            <g
               transform="translate(145.026806 198.377256) scale(0.08 -0.08)"
               id="g4566">
              <defs
                 id="defs4556">
                <path
                   id="ArialMT-35"
                   d="M 266 1200  L 856 1250  Q 922 819 1161 601  Q 1400 384 1738 384  Q 2144 384 2425 690  Q 2706 997 2706 1503  Q 2706 1984 2436 2262  Q 2166 2541 1728 2541  Q 1456 2541 1237 2417  Q 1019 2294 894 2097  L 366 2166  L 809 4519  L 3088 4519  L 3088 3981  L 1259 3981  L 1013 2750  Q 1425 3038 1878 3038  Q 2478 3038 2890 2622  Q 3303 2206 3303 1553  Q 3303 931 2941 478  Q 2500 -78 1738 -78  Q 1113 -78 717 272  Q 322 622 266 1200  z "
                   transform="scale(0.015625)" />
              </defs>
              <use
                 xlink:href="#ArialMT-32"
                 id="use4558" />
              <use
                 xlink:href="#ArialMT-30"
                 x="55.615234"
                 id="use4560" />
              <use
                 xlink:href="#ArialMT-35"
                 x="111.230469"
                 id="use4562" />
              <use
                 xlink:href="#ArialMT-30"
                 x="166.845703"
                 id="use4564" />
            </g>
          </g>
        </g>
      </g>
      <g
         id="matplotlib.axis_4">
        <g
           id="ytick_3">
          <g
             id="line2d_32">
            <g
               id="g4573">
              <use
                 xlink:href="#m964ded3828"
                 x="27.98375"
                 y="166.422204"
                 style="stroke: #000000; stroke-width: 0.8"
                 id="use4571" />
            </g>
          </g>
          <g
             id="text_8">
            <!-- -1.2 -->
            <g
               transform="translate(7.2 169.285329) scale(0.08 -0.08)"
               id="g4588">
              <defs
                 id="defs4578">
                <path
                   id="ArialMT-2d"
                   d="M 203 1375  L 203 1941  L 1931 1941  L 1931 1375  L 203 1375  z "
                   transform="scale(0.015625)" />
                <path
                   id="ArialMT-31"
                   d="M 2384 0  L 1822 0  L 1822 3584  Q 1619 3391 1289 3197  Q 959 3003 697 2906  L 697 3450  Q 1169 3672 1522 3987  Q 1875 4303 2022 4600  L 2384 4600  L 2384 0  z "
                   transform="scale(0.015625)" />
              </defs>
              <use
                 xlink:href="#ArialMT-2d"
                 id="use4580" />
              <use
                 xlink:href="#ArialMT-31"
                 x="33.300781"
                 id="use4582" />
              <use
                 xlink:href="#ArialMT-2e"
                 x="88.916016"
                 id="use4584" />
              <use
                 xlink:href="#ArialMT-32"
                 x="116.699219"
                 id="use4586" />
            </g>
          </g>
        </g>
        <g
           id="ytick_4">
          <g
             id="line2d_33">
            <g
               id="g4594">
              <use
                 xlink:href="#m964ded3828"
                 x="27.98375"
                 y="136.153622"
                 style="stroke: #000000; stroke-width: 0.8"
                 id="use4592" />
            </g>
          </g>
          <g
             id="text_9">
            <!-- -1.0 -->
            <g
               transform="translate(7.2 139.016747) scale(0.08 -0.08)"
               id="g4605">
              <use
                 xlink:href="#ArialMT-2d"
                 id="use4597" />
              <use
                 xlink:href="#ArialMT-31"
                 x="33.300781"
                 id="use4599" />
              <use
                 xlink:href="#ArialMT-2e"
                 x="88.916016"
                 id="use4601" />
              <use
                 xlink:href="#ArialMT-30"
                 x="116.699219"
                 id="use4603" />
            </g>
          </g>
        </g>
        <g
           id="ytick_5">
          <g
             id="line2d_34">
            <g
               id="g4611">
              <use
                 xlink:href="#m964ded3828"
                 x="27.98375"
                 y="105.885039"
                 style="stroke: #000000; stroke-width: 0.8"
                 id="use4609" />
            </g>
          </g>
          <g
             id="text_10">
            <!-- -0.8 -->
            <g
               transform="translate(7.2 108.748164) scale(0.08 -0.08)"
               id="g4625">
              <defs
                 id="defs4615">
                <path
                   id="ArialMT-38"
                   d="M 1131 2484  Q 781 2613 612 2850  Q 444 3088 444 3419  Q 444 3919 803 4259  Q 1163 4600 1759 4600  Q 2359 4600 2725 4251  Q 3091 3903 3091 3403  Q 3091 3084 2923 2848  Q 2756 2613 2416 2484  Q 2838 2347 3058 2040  Q 3278 1734 3278 1309  Q 3278 722 2862 322  Q 2447 -78 1769 -78  Q 1091 -78 675 323  Q 259 725 259 1325  Q 259 1772 486 2073  Q 713 2375 1131 2484  z M 1019 3438  Q 1019 3113 1228 2906  Q 1438 2700 1772 2700  Q 2097 2700 2305 2904  Q 2513 3109 2513 3406  Q 2513 3716 2298 3927  Q 2084 4138 1766 4138  Q 1444 4138 1231 3931  Q 1019 3725 1019 3438  z M 838 1322  Q 838 1081 952 856  Q 1066 631 1291 507  Q 1516 384 1775 384  Q 2178 384 2440 643  Q 2703 903 2703 1303  Q 2703 1709 2433 1975  Q 2163 2241 1756 2241  Q 1359 2241 1098 1978  Q 838 1716 838 1322  z "
                   transform="scale(0.015625)" />
              </defs>
              <use
                 xlink:href="#ArialMT-2d"
                 id="use4617" />
              <use
                 xlink:href="#ArialMT-30"
                 x="33.300781"
                 id="use4619" />
              <use
                 xlink:href="#ArialMT-2e"
                 x="88.916016"
                 id="use4621" />
              <use
                 xlink:href="#ArialMT-38"
                 x="116.699219"
                 id="use4623" />
            </g>
          </g>
        </g>
      </g>
      <g
         id="PathCollection_3">
        <defs
           id="defs4631">
          <path
             id="m9c522ffa79"
             d="M 0 -2.236068  L -2.236068 2.236068  L 2.236068 2.236068  z "
             style="stroke: #167f99" />
        </defs>
        <g
           clip-path="url(#p329106e39e)"
           id="g4635">
          <use
             xlink:href="#m9c522ffa79"
             x="33.980919"
             y="117.939032"
             style="fill: #6dd2ea; stroke: #167f99"
             id="use4633" />
        </g>
      </g>
      <g
         id="PathCollection_4">
        <defs
           id="defs4639">
          <path
             id="m596adfc701"
             d="M 0 -2.236068  L -1.936492 -1.118034  L -1.936492 1.118034  L -0 2.236068  L 1.936492 1.118034  L 1.936492 -1.118034  z "
             style="stroke: #b71205" />
        </defs>
        <g
           clip-path="url(#p329106e39e)"
           id="g4643">
          <use
             xlink:href="#m596adfc701"
             x="33.980919"
             y="89.931829"
             style="fill: #fb7b71; stroke: #b71205"
             id="use4641" />
        </g>
      </g>
      <g
         id="line2d_35">
        <g
           id="g4650">
          <use
             xlink:href="#m1d3d989475"
             x="27.98375"
             y="85.373773"
             style="stroke: #000000"
             id="use4646" />
          <use
             xlink:href="#m1d3d989475"
             x="159.921476"
             y="85.373773"
             style="stroke: #000000"
             id="use4648" />
        </g>
      </g>
      <g
         id="patch_19">
        <path
           d="M 27.98375 185.651006  L 27.98375 85.373773  "
           style="fill: none; stroke: #000000; stroke-width: 0.8; stroke-linejoin: miter; stroke-linecap: square"
           id="path4653" />
      </g>
      <g
         id="patch_20">
        <path
           d="M 159.921476 185.651006  L 159.921476 85.373773  "
           style="fill: none; stroke: #000000; stroke-width: 0.8; stroke-linejoin: miter; stroke-linecap: square"
           id="path4656" />
      </g>
      <g
         id="patch_21">
        <path
           d="M 27.98375 185.651006  L 159.921476 185.651006  "
           style="fill: none; stroke: #000000; stroke-width: 0.8; stroke-linejoin: miter; stroke-linecap: square"
           id="path4659" />
      </g>
    </g>
  </g>
  <defs
     id="defs4670">
    <clipPath
       id="p2c40d3bf01">
      <rect
         x="27.98375"
         y="19.642031"
         width="131.937726"
         height="50.138617"
         id="rect4664" />
    </clipPath>
    <clipPath
       id="p329106e39e">
      <rect
         x="27.98375"
         y="85.373773"
         width="131.937726"
         height="100.277233"
         id="rect4667" />
    </clipPath>
  </defs>
</svg>
