<?xml version="1.0" encoding="utf-8" standalone="no"?>
<!DOCTYPE svg PUBLIC "-//W3C//DTD SVG 1.1//EN"
  "http://www.w3.org/Graphics/SVG/1.1/DTD/svg11.dtd">
<svg xmlns:xlink="http://www.w3.org/1999/xlink" width="515.85984pt" height="572.399746pt" viewBox="0 0 515.85984 572.399746" xmlns="http://www.w3.org/2000/svg" version="1.1">
 <metadata>
  <rdf:RDF xmlns:dc="http://purl.org/dc/elements/1.1/" xmlns:cc="http://creativecommons.org/ns#" xmlns:rdf="http://www.w3.org/1999/02/22-rdf-syntax-ns#">
   <cc:Work>
    <dc:type rdf:resource="http://purl.org/dc/dcmitype/StillImage"/>
    <dc:date>2023-08-30T11:44:46.956005</dc:date>
    <dc:format>image/svg+xml</dc:format>
    <dc:creator>
     <cc:Agent>
      <dc:title>Matplotlib v3.7.1, https://matplotlib.org/</dc:title>
     </cc:Agent>
    </dc:creator>
   </cc:Work>
  </rdf:RDF>
 </metadata>
 <defs>
  <style type="text/css">*{stroke-linejoin: round; stroke-linecap: butt}</style>
 </defs>
 <g id="figure_1">
  <g id="patch_1">
   <path d="M 0 572.399746 
L 515.85984 572.399746 
L 515.85984 0 
L 0 0 
z
" style="fill: #ffffff"/>
  </g>
  <g id="axes_1">
   <g id="patch_2">
    <path d="M 31.60875 259.888373 
L 508.65984 259.888373 
L 508.65984 19.642031 
L 31.60875 19.642031 
z
" style="fill: #ffffff"/>
   </g>
   <g id="PathCollection_1">
    <defs>
     <path id="m4a1734b933" d="M 0 3 
C 0.795609 3 1.55874 2.683901 2.12132 2.12132 
C 2.683901 1.55874 3 0.795609 3 0 
C 3 -0.795609 2.683901 -1.55874 2.12132 -2.12132 
C 1.55874 -2.683901 0.795609 -3 0 -3 
C -0.795609 -3 -1.55874 -2.683901 -2.12132 -2.12132 
C -2.683901 -1.55874 -3 -0.795609 -3 0 
C -3 0.795609 -2.683901 1.55874 -2.12132 2.12132 
C -1.55874 2.683901 -0.795609 3 0 3 
z
" style="stroke: #000000"/>
    </defs>
    <g clip-path="url(#p047e3ff143)">
     <use xlink:href="#m4a1734b933" x="53.29289" y="241.092169" style="fill: #d8d8d8; stroke: #000000"/>
     <use xlink:href="#m4a1734b933" x="70.640203" y="240.944469" style="fill: #d8d8d8; stroke: #000000"/>
     <use xlink:href="#m4a1734b933" x="87.987515" y="239.929687" style="fill: #d8d8d8; stroke: #000000"/>
     <use xlink:href="#m4a1734b933" x="105.334828" y="240.59479" style="fill: #d8d8d8; stroke: #000000"/>
     <use xlink:href="#m4a1734b933" x="122.68214" y="240.87328" style="fill: #d8d8d8; stroke: #000000"/>
     <use xlink:href="#m4a1734b933" x="140.029452" y="240.267692" style="fill: #d8d8d8; stroke: #000000"/>
     <use xlink:href="#m4a1734b933" x="157.376765" y="240.269246" style="fill: #d8d8d8; stroke: #000000"/>
     <use xlink:href="#m4a1734b933" x="174.724077" y="240.310643" style="fill: #d8d8d8; stroke: #000000"/>
     <use xlink:href="#m4a1734b933" x="192.071389" y="239.105329" style="fill: #d8d8d8; stroke: #000000"/>
     <use xlink:href="#m4a1734b933" x="209.418702" y="241.145684" style="fill: #d8d8d8; stroke: #000000"/>
     <use xlink:href="#m4a1734b933" x="226.766014" y="240.523406" style="fill: #d8d8d8; stroke: #000000"/>
     <use xlink:href="#m4a1734b933" x="244.113326" y="240.437302" style="fill: #d8d8d8; stroke: #000000"/>
     <use xlink:href="#m4a1734b933" x="261.460639" y="240.333222" style="fill: #d8d8d8; stroke: #000000"/>
     <use xlink:href="#m4a1734b933" x="278.807951" y="240.795488" style="fill: #d8d8d8; stroke: #000000"/>
     <use xlink:href="#m4a1734b933" x="296.155264" y="240.96136" style="fill: #d8d8d8; stroke: #000000"/>
     <use xlink:href="#m4a1734b933" x="313.502576" y="240.820155" style="fill: #d8d8d8; stroke: #000000"/>
     <use xlink:href="#m4a1734b933" x="330.849888" y="240.557705" style="fill: #d8d8d8; stroke: #000000"/>
     <use xlink:href="#m4a1734b933" x="348.197201" y="240.34603" style="fill: #d8d8d8; stroke: #000000"/>
     <use xlink:href="#m4a1734b933" x="365.544513" y="240.613083" style="fill: #d8d8d8; stroke: #000000"/>
     <use xlink:href="#m4a1734b933" x="382.891825" y="240.683366" style="fill: #d8d8d8; stroke: #000000"/>
     <use xlink:href="#m4a1734b933" x="400.239138" y="240.746667" style="fill: #d8d8d8; stroke: #000000"/>
     <use xlink:href="#m4a1734b933" x="417.58645" y="241.629048" style="fill: #d8d8d8; stroke: #000000"/>
     <use xlink:href="#m4a1734b933" x="434.933762" y="242.156626" style="fill: #d8d8d8; stroke: #000000"/>
     <use xlink:href="#m4a1734b933" x="452.281075" y="240.265128" style="fill: #d8d8d8; stroke: #000000"/>
     <use xlink:href="#m4a1734b933" x="469.628387" y="240.873697" style="fill: #d8d8d8; stroke: #000000"/>
     <use xlink:href="#m4a1734b933" x="486.9757" y="241.488113" style="fill: #d8d8d8; stroke: #000000"/>
    </g>
   </g>
   <g id="PathCollection_2">
    <defs>
     <path id="m48293abd22" d="M -0 4.242641 
L 2.545584 0 
L 0 -4.242641 
L -2.545584 -0 
z
" style="stroke: #52318e"/>
    </defs>
    <g clip-path="url(#p047e3ff143)">
     <use xlink:href="#m48293abd22" x="53.29289" y="241.871759" style="fill: #a78dd8; stroke: #52318e"/>
     <use xlink:href="#m48293abd22" x="70.640203" y="240.296216" style="fill: #a78dd8; stroke: #52318e"/>
     <use xlink:href="#m48293abd22" x="87.987515" y="236.250479" style="fill: #a78dd8; stroke: #52318e"/>
     <use xlink:href="#m48293abd22" x="105.334828" y="237.778715" style="fill: #a78dd8; stroke: #52318e"/>
     <use xlink:href="#m48293abd22" x="122.68214" y="239.783163" style="fill: #a78dd8; stroke: #52318e"/>
     <use xlink:href="#m48293abd22" x="140.029452" y="235.434781" style="fill: #a78dd8; stroke: #52318e"/>
     <use xlink:href="#m48293abd22" x="157.376765" y="235.459704" style="fill: #a78dd8; stroke: #52318e"/>
     <use xlink:href="#m48293abd22" x="174.724077" y="235.774923" style="fill: #a78dd8; stroke: #52318e"/>
     <use xlink:href="#m48293abd22" x="192.071389" y="234.183871" style="fill: #a78dd8; stroke: #52318e"/>
     <use xlink:href="#m48293abd22" x="209.418702" y="241.712458" style="fill: #a78dd8; stroke: #52318e"/>
     <use xlink:href="#m48293abd22" x="226.766014" y="237.278148" style="fill: #a78dd8; stroke: #52318e"/>
     <use xlink:href="#m48293abd22" x="244.113326" y="236.6609" style="fill: #a78dd8; stroke: #52318e"/>
     <use xlink:href="#m48293abd22" x="261.460639" y="235.95589" style="fill: #a78dd8; stroke: #52318e"/>
     <use xlink:href="#m48293abd22" x="278.807951" y="239.178983" style="fill: #a78dd8; stroke: #52318e"/>
     <use xlink:href="#m48293abd22" x="296.155264" y="240.39985" style="fill: #a78dd8; stroke: #52318e"/>
     <use xlink:href="#m48293abd22" x="313.502576" y="239.395602" style="fill: #a78dd8; stroke: #52318e"/>
     <use xlink:href="#m48293abd22" x="330.849888" y="237.530458" style="fill: #a78dd8; stroke: #52318e"/>
     <use xlink:href="#m48293abd22" x="348.197201" y="239.745382" style="fill: #a78dd8; stroke: #52318e"/>
     <use xlink:href="#m48293abd22" x="365.544513" y="237.912058" style="fill: #a78dd8; stroke: #52318e"/>
     <use xlink:href="#m48293abd22" x="382.891825" y="238.42963" style="fill: #a78dd8; stroke: #52318e"/>
     <use xlink:href="#m48293abd22" x="400.239138" y="238.890745" style="fill: #a78dd8; stroke: #52318e"/>
     <use xlink:href="#m48293abd22" x="417.58645" y="245.166217" style="fill: #a78dd8; stroke: #52318e"/>
     <use xlink:href="#m48293abd22" x="434.933762" y="248.968085" style="fill: #a78dd8; stroke: #52318e"/>
     <use xlink:href="#m48293abd22" x="452.281075" y="238.088047" style="fill: #a78dd8; stroke: #52318e"/>
     <use xlink:href="#m48293abd22" x="469.628387" y="239.791815" style="fill: #a78dd8; stroke: #52318e"/>
     <use xlink:href="#m48293abd22" x="486.9757" y="244.147747" style="fill: #a78dd8; stroke: #52318e"/>
    </g>
   </g>
   <g id="PathCollection_3">
    <defs>
     <path id="m80ed4f4c9c" d="M 0 -3 
L -2.598076 -1.5 
L -2.598076 1.5 
L -0 3 
L 2.598076 1.5 
L 2.598076 -1.5 
z
" style="stroke: #b71205"/>
    </defs>
    <g clip-path="url(#p047e3ff143)">
     <use xlink:href="#m80ed4f4c9c" x="53.29289" y="230.417341" style="fill: #fb7b71; stroke: #b71205"/>
     <use xlink:href="#m80ed4f4c9c" x="70.640203" y="228.276308" style="fill: #fb7b71; stroke: #b71205"/>
     <use xlink:href="#m80ed4f4c9c" x="87.987515" y="222.816016" style="fill: #fb7b71; stroke: #b71205"/>
     <use xlink:href="#m80ed4f4c9c" x="105.334828" y="223.709548" style="fill: #fb7b71; stroke: #b71205"/>
     <use xlink:href="#m80ed4f4c9c" x="122.68214" y="226.855225" style="fill: #fb7b71; stroke: #b71205"/>
     <use xlink:href="#m80ed4f4c9c" x="140.029452" y="220.048839" style="fill: #fb7b71; stroke: #b71205"/>
     <use xlink:href="#m80ed4f4c9c" x="157.376765" y="220.032382" style="fill: #fb7b71; stroke: #b71205"/>
     <use xlink:href="#m80ed4f4c9c" x="174.724077" y="30.56232" style="fill: #fb7b71; stroke: #b71205"/>
     <use xlink:href="#m80ed4f4c9c" x="192.071389" y="220.377838" style="fill: #fb7b71; stroke: #b71205"/>
     <use xlink:href="#m80ed4f4c9c" x="209.418702" y="228.853562" style="fill: #fb7b71; stroke: #b71205"/>
     <use xlink:href="#m80ed4f4c9c" x="226.766014" y="222.903229" style="fill: #fb7b71; stroke: #b71205"/>
     <use xlink:href="#m80ed4f4c9c" x="244.113326" y="221.93065" style="fill: #fb7b71; stroke: #b71205"/>
     <use xlink:href="#m80ed4f4c9c" x="261.460639" y="223.428286" style="fill: #fb7b71; stroke: #b71205"/>
     <use xlink:href="#m80ed4f4c9c" x="278.807951" y="225.976525" style="fill: #fb7b71; stroke: #b71205"/>
     <use xlink:href="#m80ed4f4c9c" x="296.155264" y="227.850123" style="fill: #fb7b71; stroke: #b71205"/>
     <use xlink:href="#m80ed4f4c9c" x="313.502576" y="232.417769" style="fill: #fb7b71; stroke: #b71205"/>
     <use xlink:href="#m80ed4f4c9c" x="330.849888" y="223.29066" style="fill: #fb7b71; stroke: #b71205"/>
     <use xlink:href="#m80ed4f4c9c" x="348.197201" y="228.539955" style="fill: #fb7b71; stroke: #b71205"/>
     <use xlink:href="#m80ed4f4c9c" x="365.544513" y="223.919161" style="fill: #fb7b71; stroke: #b71205"/>
     <use xlink:href="#m80ed4f4c9c" x="382.891825" y="224.71005" style="fill: #fb7b71; stroke: #b71205"/>
     <use xlink:href="#m80ed4f4c9c" x="400.239138" y="225.425064" style="fill: #fb7b71; stroke: #b71205"/>
     <use xlink:href="#m80ed4f4c9c" x="417.58645" y="235.391973" style="fill: #fb7b71; stroke: #b71205"/>
     <use xlink:href="#m80ed4f4c9c" x="434.933762" y="241.351206" style="fill: #fb7b71; stroke: #b71205"/>
     <use xlink:href="#m80ed4f4c9c" x="452.281075" y="227.091817" style="fill: #fb7b71; stroke: #b71205"/>
     <use xlink:href="#m80ed4f4c9c" x="469.628387" y="226.859934" style="fill: #fb7b71; stroke: #b71205"/>
     <use xlink:href="#m80ed4f4c9c" x="486.9757" y="230.752003" style="fill: #fb7b71; stroke: #b71205"/>
    </g>
   </g>
   <g id="PathCollection_4">
    <defs>
     <path id="maccd269c6d" d="M 0 -3 
L -3 3 
L 3 3 
z
" style="stroke: #167f99"/>
    </defs>
    <g clip-path="url(#p047e3ff143)">
     <use xlink:href="#maccd269c6d" x="53.29289" y="238.122454" style="fill: #6dd2ea; stroke: #167f99"/>
     <use xlink:href="#maccd269c6d" x="70.640203" y="236.323213" style="fill: #6dd2ea; stroke: #167f99"/>
     <use xlink:href="#maccd269c6d" x="87.987515" y="231.376036" style="fill: #6dd2ea; stroke: #167f99"/>
     <use xlink:href="#maccd269c6d" x="105.334828" y="231.041294" style="fill: #6dd2ea; stroke: #167f99"/>
     <use xlink:href="#maccd269c6d" x="122.68214" y="234.560338" style="fill: #6dd2ea; stroke: #167f99"/>
     <use xlink:href="#maccd269c6d" x="140.029452" y="227.753952" style="fill: #6dd2ea; stroke: #167f99"/>
     <use xlink:href="#maccd269c6d" x="157.376765" y="227.737495" style="fill: #6dd2ea; stroke: #167f99"/>
     <use xlink:href="#maccd269c6d" x="174.724077" y="30.56232" style="fill: #6dd2ea; stroke: #167f99"/>
     <use xlink:href="#maccd269c6d" x="192.071389" y="229.981072" style="fill: #6dd2ea; stroke: #167f99"/>
     <use xlink:href="#maccd269c6d" x="209.418702" y="238.74349" style="fill: #6dd2ea; stroke: #167f99"/>
     <use xlink:href="#maccd269c6d" x="226.766014" y="232.762811" style="fill: #6dd2ea; stroke: #167f99"/>
     <use xlink:href="#maccd269c6d" x="244.113326" y="229.635763" style="fill: #6dd2ea; stroke: #167f99"/>
     <use xlink:href="#maccd269c6d" x="261.460639" y="230.260737" style="fill: #6dd2ea; stroke: #167f99"/>
     <use xlink:href="#maccd269c6d" x="278.807951" y="233.681638" style="fill: #6dd2ea; stroke: #167f99"/>
     <use xlink:href="#maccd269c6d" x="296.155264" y="235.555236" style="fill: #6dd2ea; stroke: #167f99"/>
     <use xlink:href="#maccd269c6d" x="313.502576" y="235.48036" style="fill: #6dd2ea; stroke: #167f99"/>
     <use xlink:href="#maccd269c6d" x="330.849888" y="230.995773" style="fill: #6dd2ea; stroke: #167f99"/>
     <use xlink:href="#maccd269c6d" x="348.197201" y="236.244714" style="fill: #6dd2ea; stroke: #167f99"/>
     <use xlink:href="#maccd269c6d" x="365.544513" y="229.743388" style="fill: #6dd2ea; stroke: #167f99"/>
     <use xlink:href="#maccd269c6d" x="382.891825" y="232.415163" style="fill: #6dd2ea; stroke: #167f99"/>
     <use xlink:href="#maccd269c6d" x="400.239138" y="233.130177" style="fill: #6dd2ea; stroke: #167f99"/>
     <use xlink:href="#maccd269c6d" x="417.58645" y="245.086525" style="fill: #6dd2ea; stroke: #167f99"/>
     <use xlink:href="#maccd269c6d" x="434.933762" y="247.225051" style="fill: #6dd2ea; stroke: #167f99"/>
     <use xlink:href="#maccd269c6d" x="452.281075" y="235.019242" style="fill: #6dd2ea; stroke: #167f99"/>
     <use xlink:href="#maccd269c6d" x="469.628387" y="234.565047" style="fill: #6dd2ea; stroke: #167f99"/>
     <use xlink:href="#maccd269c6d" x="486.9757" y="242.00773" style="fill: #6dd2ea; stroke: #167f99"/>
    </g>
   </g>
   <g id="matplotlib.axis_1"/>
   <g id="matplotlib.axis_2">
    <g id="ytick_1">
     <g id="line2d_1">
      <defs>
       <path id="m9c6a5a35e7" d="M 0 0 
L -3.5 0 
" style="stroke: #000000; stroke-width: 0.8"/>
      </defs>
      <g>
       <use xlink:href="#m9c6a5a35e7" x="31.60875" y="242.01317" style="stroke: #000000; stroke-width: 0.8"/>
      </g>
     </g>
     <g id="text_1">
      <!-- 0 -->
      <g transform="translate(20.16 244.876295) scale(0.08 -0.08)">
       <defs>
        <path id="ArialMT-30" d="M 266 2259 
Q 266 3072 433 3567 
Q 600 4063 929 4331 
Q 1259 4600 1759 4600 
Q 2128 4600 2406 4451 
Q 2684 4303 2865 4023 
Q 3047 3744 3150 3342 
Q 3253 2941 3253 2259 
Q 3253 1453 3087 958 
Q 2922 463 2592 192 
Q 2263 -78 1759 -78 
Q 1097 -78 719 397 
Q 266 969 266 2259 
z
M 844 2259 
Q 844 1131 1108 757 
Q 1372 384 1759 384 
Q 2147 384 2411 759 
Q 2675 1134 2675 2259 
Q 2675 3391 2411 3762 
Q 2147 4134 1753 4134 
Q 1366 4134 1134 3806 
Q 844 3388 844 2259 
z
" transform="scale(0.015625)"/>
       </defs>
       <use xlink:href="#ArialMT-30"/>
      </g>
     </g>
    </g>
    <g id="ytick_2">
     <g id="line2d_2">
      <g>
       <use xlink:href="#m9c6a5a35e7" x="31.60875" y="188.807174" style="stroke: #000000; stroke-width: 0.8"/>
      </g>
     </g>
     <g id="text_2">
      <!-- 1 -->
      <g transform="translate(20.16 191.670299) scale(0.08 -0.08)">
       <defs>
        <path id="ArialMT-31" d="M 2384 0 
L 1822 0 
L 1822 3584 
Q 1619 3391 1289 3197 
Q 959 3003 697 2906 
L 697 3450 
Q 1169 3672 1522 3987 
Q 1875 4303 2022 4600 
L 2384 4600 
L 2384 0 
z
" transform="scale(0.015625)"/>
       </defs>
       <use xlink:href="#ArialMT-31"/>
      </g>
     </g>
    </g>
    <g id="ytick_3">
     <g id="line2d_3">
      <g>
       <use xlink:href="#m9c6a5a35e7" x="31.60875" y="135.601178" style="stroke: #000000; stroke-width: 0.8"/>
      </g>
     </g>
     <g id="text_3">
      <!-- 2 -->
      <g transform="translate(20.16 138.464303) scale(0.08 -0.08)">
       <defs>
        <path id="ArialMT-32" d="M 3222 541 
L 3222 0 
L 194 0 
Q 188 203 259 391 
Q 375 700 629 1000 
Q 884 1300 1366 1694 
Q 2113 2306 2375 2664 
Q 2638 3022 2638 3341 
Q 2638 3675 2398 3904 
Q 2159 4134 1775 4134 
Q 1369 4134 1125 3890 
Q 881 3647 878 3216 
L 300 3275 
Q 359 3922 746 4261 
Q 1134 4600 1788 4600 
Q 2447 4600 2831 4234 
Q 3216 3869 3216 3328 
Q 3216 3053 3103 2787 
Q 2991 2522 2730 2228 
Q 2469 1934 1863 1422 
Q 1356 997 1212 845 
Q 1069 694 975 541 
L 3222 541 
z
" transform="scale(0.015625)"/>
       </defs>
       <use xlink:href="#ArialMT-32"/>
      </g>
     </g>
    </g>
    <g id="ytick_4">
     <g id="line2d_4">
      <g>
       <use xlink:href="#m9c6a5a35e7" x="31.60875" y="82.395182" style="stroke: #000000; stroke-width: 0.8"/>
      </g>
     </g>
     <g id="text_4">
      <!-- 3 -->
      <g transform="translate(20.16 85.258307) scale(0.08 -0.08)">
       <defs>
        <path id="ArialMT-33" d="M 269 1209 
L 831 1284 
Q 928 806 1161 595 
Q 1394 384 1728 384 
Q 2125 384 2398 659 
Q 2672 934 2672 1341 
Q 2672 1728 2419 1979 
Q 2166 2231 1775 2231 
Q 1616 2231 1378 2169 
L 1441 2663 
Q 1497 2656 1531 2656 
Q 1891 2656 2178 2843 
Q 2466 3031 2466 3422 
Q 2466 3731 2256 3934 
Q 2047 4138 1716 4138 
Q 1388 4138 1169 3931 
Q 950 3725 888 3313 
L 325 3413 
Q 428 3978 793 4289 
Q 1159 4600 1703 4600 
Q 2078 4600 2393 4439 
Q 2709 4278 2876 4000 
Q 3044 3722 3044 3409 
Q 3044 3113 2884 2869 
Q 2725 2625 2413 2481 
Q 2819 2388 3044 2092 
Q 3269 1797 3269 1353 
Q 3269 753 2831 336 
Q 2394 -81 1725 -81 
Q 1122 -81 723 278 
Q 325 638 269 1209 
z
" transform="scale(0.015625)"/>
       </defs>
       <use xlink:href="#ArialMT-33"/>
      </g>
     </g>
    </g>
    <g id="ytick_5">
     <g id="line2d_5">
      <g>
       <use xlink:href="#m9c6a5a35e7" x="31.60875" y="29.189186" style="stroke: #000000; stroke-width: 0.8"/>
      </g>
     </g>
     <g id="text_5">
      <!-- 4 -->
      <g transform="translate(20.16 32.052311) scale(0.08 -0.08)">
       <defs>
        <path id="ArialMT-34" d="M 2069 0 
L 2069 1097 
L 81 1097 
L 81 1613 
L 2172 4581 
L 2631 4581 
L 2631 1613 
L 3250 1613 
L 3250 1097 
L 2631 1097 
L 2631 0 
L 2069 0 
z
M 2069 1613 
L 2069 3678 
L 634 1613 
L 2069 1613 
z
" transform="scale(0.015625)"/>
       </defs>
       <use xlink:href="#ArialMT-34"/>
      </g>
     </g>
    </g>
    <g id="text_6">
     <!-- ΔGWP [kg CO$_\mathrm{2}$-eq kg$^\mathrm{-1}$] -->
     <g transform="translate(14.4 184.005202) rotate(-90) scale(0.08 -0.08)">
      <defs>
       <path id="ArialMT-394" d="M -6 0 
L 1753 4581 
L 2406 4581 
L 4281 0 
L -6 0 
z
M 834 541 
L 3381 541 
L 2391 3150 
Q 2169 3738 2066 4100 
Q 1981 3675 1819 3225 
L 834 541 
z
" transform="scale(0.015625)"/>
       <path id="ArialMT-47" d="M 2638 1797 
L 2638 2334 
L 4578 2338 
L 4578 638 
Q 4131 281 3656 101 
Q 3181 -78 2681 -78 
Q 2006 -78 1454 211 
Q 903 500 622 1047 
Q 341 1594 341 2269 
Q 341 2938 620 3517 
Q 900 4097 1425 4378 
Q 1950 4659 2634 4659 
Q 3131 4659 3532 4498 
Q 3934 4338 4162 4050 
Q 4391 3763 4509 3300 
L 3963 3150 
Q 3859 3500 3706 3700 
Q 3553 3900 3268 4020 
Q 2984 4141 2638 4141 
Q 2222 4141 1919 4014 
Q 1616 3888 1430 3681 
Q 1244 3475 1141 3228 
Q 966 2803 966 2306 
Q 966 1694 1177 1281 
Q 1388 869 1791 669 
Q 2194 469 2647 469 
Q 3041 469 3416 620 
Q 3791 772 3984 944 
L 3984 1797 
L 2638 1797 
z
" transform="scale(0.015625)"/>
       <path id="ArialMT-57" d="M 1294 0 
L 78 4581 
L 700 4581 
L 1397 1578 
Q 1509 1106 1591 641 
Q 1766 1375 1797 1488 
L 2669 4581 
L 3400 4581 
L 4056 2263 
Q 4303 1400 4413 641 
Q 4500 1075 4641 1638 
L 5359 4581 
L 5969 4581 
L 4713 0 
L 4128 0 
L 3163 3491 
Q 3041 3928 3019 4028 
Q 2947 3713 2884 3491 
L 1913 0 
L 1294 0 
z
" transform="scale(0.015625)"/>
       <path id="ArialMT-50" d="M 494 0 
L 494 4581 
L 2222 4581 
Q 2678 4581 2919 4538 
Q 3256 4481 3484 4323 
Q 3713 4166 3852 3881 
Q 3991 3597 3991 3256 
Q 3991 2672 3619 2267 
Q 3247 1863 2275 1863 
L 1100 1863 
L 1100 0 
L 494 0 
z
M 1100 2403 
L 2284 2403 
Q 2872 2403 3119 2622 
Q 3366 2841 3366 3238 
Q 3366 3525 3220 3729 
Q 3075 3934 2838 4000 
Q 2684 4041 2272 4041 
L 1100 4041 
L 1100 2403 
z
" transform="scale(0.015625)"/>
       <path id="ArialMT-20" transform="scale(0.015625)"/>
       <path id="ArialMT-5b" d="M 434 -1272 
L 434 4581 
L 1675 4581 
L 1675 4116 
L 997 4116 
L 997 -806 
L 1675 -806 
L 1675 -1272 
L 434 -1272 
z
" transform="scale(0.015625)"/>
       <path id="ArialMT-6b" d="M 425 0 
L 425 4581 
L 988 4581 
L 988 1969 
L 2319 3319 
L 3047 3319 
L 1778 2088 
L 3175 0 
L 2481 0 
L 1384 1697 
L 988 1316 
L 988 0 
L 425 0 
z
" transform="scale(0.015625)"/>
       <path id="ArialMT-67" d="M 319 -275 
L 866 -356 
Q 900 -609 1056 -725 
Q 1266 -881 1628 -881 
Q 2019 -881 2231 -725 
Q 2444 -569 2519 -288 
Q 2563 -116 2559 434 
Q 2191 0 1641 0 
Q 956 0 581 494 
Q 206 988 206 1678 
Q 206 2153 378 2554 
Q 550 2956 876 3175 
Q 1203 3394 1644 3394 
Q 2231 3394 2613 2919 
L 2613 3319 
L 3131 3319 
L 3131 450 
Q 3131 -325 2973 -648 
Q 2816 -972 2473 -1159 
Q 2131 -1347 1631 -1347 
Q 1038 -1347 672 -1080 
Q 306 -813 319 -275 
z
M 784 1719 
Q 784 1066 1043 766 
Q 1303 466 1694 466 
Q 2081 466 2343 764 
Q 2606 1063 2606 1700 
Q 2606 2309 2336 2618 
Q 2066 2928 1684 2928 
Q 1309 2928 1046 2623 
Q 784 2319 784 1719 
z
" transform="scale(0.015625)"/>
       <path id="ArialMT-43" d="M 3763 1606 
L 4369 1453 
Q 4178 706 3683 314 
Q 3188 -78 2472 -78 
Q 1731 -78 1267 223 
Q 803 525 561 1097 
Q 319 1669 319 2325 
Q 319 3041 592 3573 
Q 866 4106 1370 4382 
Q 1875 4659 2481 4659 
Q 3169 4659 3637 4309 
Q 4106 3959 4291 3325 
L 3694 3184 
Q 3534 3684 3231 3912 
Q 2928 4141 2469 4141 
Q 1941 4141 1586 3887 
Q 1231 3634 1087 3207 
Q 944 2781 944 2328 
Q 944 1744 1114 1308 
Q 1284 872 1643 656 
Q 2003 441 2422 441 
Q 2931 441 3284 734 
Q 3638 1028 3763 1606 
z
" transform="scale(0.015625)"/>
       <path id="ArialMT-4f" d="M 309 2231 
Q 309 3372 921 4017 
Q 1534 4663 2503 4663 
Q 3138 4663 3647 4359 
Q 4156 4056 4423 3514 
Q 4691 2972 4691 2284 
Q 4691 1588 4409 1038 
Q 4128 488 3612 205 
Q 3097 -78 2500 -78 
Q 1853 -78 1343 234 
Q 834 547 571 1087 
Q 309 1628 309 2231 
z
M 934 2222 
Q 934 1394 1379 917 
Q 1825 441 2497 441 
Q 3181 441 3623 922 
Q 4066 1403 4066 2288 
Q 4066 2847 3877 3264 
Q 3688 3681 3323 3911 
Q 2959 4141 2506 4141 
Q 1863 4141 1398 3698 
Q 934 3256 934 2222 
z
" transform="scale(0.015625)"/>
       <path id="DejaVuSans-32" d="M 1228 531 
L 3431 531 
L 3431 0 
L 469 0 
L 469 531 
Q 828 903 1448 1529 
Q 2069 2156 2228 2338 
Q 2531 2678 2651 2914 
Q 2772 3150 2772 3378 
Q 2772 3750 2511 3984 
Q 2250 4219 1831 4219 
Q 1534 4219 1204 4116 
Q 875 4013 500 3803 
L 500 4441 
Q 881 4594 1212 4672 
Q 1544 4750 1819 4750 
Q 2544 4750 2975 4387 
Q 3406 4025 3406 3419 
Q 3406 3131 3298 2873 
Q 3191 2616 2906 2266 
Q 2828 2175 2409 1742 
Q 1991 1309 1228 531 
z
" transform="scale(0.015625)"/>
       <path id="ArialMT-2d" d="M 203 1375 
L 203 1941 
L 1931 1941 
L 1931 1375 
L 203 1375 
z
" transform="scale(0.015625)"/>
       <path id="ArialMT-65" d="M 2694 1069 
L 3275 997 
Q 3138 488 2766 206 
Q 2394 -75 1816 -75 
Q 1088 -75 661 373 
Q 234 822 234 1631 
Q 234 2469 665 2931 
Q 1097 3394 1784 3394 
Q 2450 3394 2872 2941 
Q 3294 2488 3294 1666 
Q 3294 1616 3291 1516 
L 816 1516 
Q 847 969 1125 678 
Q 1403 388 1819 388 
Q 2128 388 2347 550 
Q 2566 713 2694 1069 
z
M 847 1978 
L 2700 1978 
Q 2663 2397 2488 2606 
Q 2219 2931 1791 2931 
Q 1403 2931 1139 2672 
Q 875 2413 847 1978 
z
" transform="scale(0.015625)"/>
       <path id="ArialMT-71" d="M 2538 -1272 
L 2538 353 
Q 2406 169 2170 47 
Q 1934 -75 1669 -75 
Q 1078 -75 651 397 
Q 225 869 225 1691 
Q 225 2191 398 2587 
Q 572 2984 901 3189 
Q 1231 3394 1625 3394 
Q 2241 3394 2594 2875 
L 2594 3319 
L 3100 3319 
L 3100 -1272 
L 2538 -1272 
z
M 803 1669 
Q 803 1028 1072 708 
Q 1341 388 1716 388 
Q 2075 388 2334 692 
Q 2594 997 2594 1619 
Q 2594 2281 2320 2615 
Q 2047 2950 1678 2950 
Q 1313 2950 1058 2639 
Q 803 2328 803 1669 
z
" transform="scale(0.015625)"/>
       <path id="DejaVuSans-2212" d="M 678 2272 
L 4684 2272 
L 4684 1741 
L 678 1741 
L 678 2272 
z
" transform="scale(0.015625)"/>
       <path id="DejaVuSans-31" d="M 794 531 
L 1825 531 
L 1825 4091 
L 703 3866 
L 703 4441 
L 1819 4666 
L 2450 4666 
L 2450 531 
L 3481 531 
L 3481 0 
L 794 0 
L 794 531 
z
" transform="scale(0.015625)"/>
       <path id="ArialMT-5d" d="M 1363 -1272 
L 122 -1272 
L 122 -806 
L 800 -806 
L 800 4116 
L 122 4116 
L 122 4581 
L 1363 4581 
L 1363 -1272 
z
" transform="scale(0.015625)"/>
      </defs>
      <use xlink:href="#ArialMT-394" transform="translate(0 0.684375)"/>
      <use xlink:href="#ArialMT-47" transform="translate(66.796875 0.684375)"/>
      <use xlink:href="#ArialMT-57" transform="translate(144.580078 0.684375)"/>
      <use xlink:href="#ArialMT-50" transform="translate(238.964844 0.684375)"/>
      <use xlink:href="#ArialMT-20" transform="translate(305.664062 0.684375)"/>
      <use xlink:href="#ArialMT-5b" transform="translate(333.447266 0.684375)"/>
      <use xlink:href="#ArialMT-6b" transform="translate(361.230469 0.684375)"/>
      <use xlink:href="#ArialMT-67" transform="translate(411.230469 0.684375)"/>
      <use xlink:href="#ArialMT-20" transform="translate(466.845703 0.684375)"/>
      <use xlink:href="#ArialMT-43" transform="translate(494.628906 0.684375)"/>
      <use xlink:href="#ArialMT-4f" transform="translate(566.845703 0.684375)"/>
      <use xlink:href="#DejaVuSans-32" transform="translate(645.585938 -15.721875) scale(0.7)"/>
      <use xlink:href="#ArialMT-2d" transform="translate(692.856445 0.684375)"/>
      <use xlink:href="#ArialMT-65" transform="translate(726.157227 0.684375)"/>
      <use xlink:href="#ArialMT-71" transform="translate(781.772461 0.684375)"/>
      <use xlink:href="#ArialMT-20" transform="translate(837.387695 0.684375)"/>
      <use xlink:href="#ArialMT-6b" transform="translate(865.170898 0.684375)"/>
      <use xlink:href="#ArialMT-67" transform="translate(915.170898 0.684375)"/>
      <use xlink:href="#DejaVuSans-2212" transform="translate(971.743164 38.965625) scale(0.7)"/>
      <use xlink:href="#DejaVuSans-31" transform="translate(1030.395508 38.965625) scale(0.7)"/>
      <use xlink:href="#ArialMT-5d" transform="translate(1077.666016 0.684375)"/>
     </g>
    </g>
   </g>
   <g id="patch_3">
    <path d="M 31.60875 259.888373 
L 31.60875 19.642031 
" style="fill: none; stroke: #000000; stroke-width: 0.8; stroke-linejoin: miter; stroke-linecap: square"/>
   </g>
   <g id="patch_4">
    <path d="M 508.65984 259.888373 
L 508.65984 19.642031 
" style="fill: none; stroke: #000000; stroke-width: 0.8; stroke-linejoin: miter; stroke-linecap: square"/>
   </g>
   <g id="patch_5">
    <path d="M 31.60875 259.888373 
L 508.65984 259.888373 
" style="fill: none; stroke: #000000; stroke-width: 0.8; stroke-linejoin: miter; stroke-linecap: square"/>
   </g>
   <g id="patch_6">
    <path d="M 31.60875 19.642031 
L 508.65984 19.642031 
" style="fill: none; stroke: #000000; stroke-width: 0.8; stroke-linejoin: miter; stroke-linecap: square"/>
   </g>
   <g id="text_7">
    <!-- a 3.5 °C -->
    <g transform="translate(253.82742 13.642031) scale(0.09 -0.09)">
     <defs>
      <path id="Arial-BoldMT-61" d="M 1116 2306 
L 319 2450 
Q 453 2931 781 3162 
Q 1109 3394 1756 3394 
Q 2344 3394 2631 3255 
Q 2919 3116 3036 2902 
Q 3153 2688 3153 2116 
L 3144 1091 
Q 3144 653 3186 445 
Q 3228 238 3344 0 
L 2475 0 
Q 2441 88 2391 259 
Q 2369 338 2359 363 
Q 2134 144 1878 34 
Q 1622 -75 1331 -75 
Q 819 -75 523 203 
Q 228 481 228 906 
Q 228 1188 362 1408 
Q 497 1628 739 1745 
Q 981 1863 1438 1950 
Q 2053 2066 2291 2166 
L 2291 2253 
Q 2291 2506 2166 2614 
Q 2041 2722 1694 2722 
Q 1459 2722 1328 2630 
Q 1197 2538 1116 2306 
z
M 2291 1594 
Q 2122 1538 1756 1459 
Q 1391 1381 1278 1306 
Q 1106 1184 1106 997 
Q 1106 813 1243 678 
Q 1381 544 1594 544 
Q 1831 544 2047 700 
Q 2206 819 2256 991 
Q 2291 1103 2291 1419 
L 2291 1594 
z
" transform="scale(0.015625)"/>
      <path id="Arial-BoldMT-20" transform="scale(0.015625)"/>
      <path id="Arial-BoldMT-33" d="M 241 1216 
L 1091 1319 
Q 1131 994 1309 822 
Q 1488 650 1741 650 
Q 2013 650 2198 856 
Q 2384 1063 2384 1413 
Q 2384 1744 2206 1937 
Q 2028 2131 1772 2131 
Q 1603 2131 1369 2066 
L 1466 2781 
Q 1822 2772 2009 2936 
Q 2197 3100 2197 3372 
Q 2197 3603 2059 3740 
Q 1922 3878 1694 3878 
Q 1469 3878 1309 3722 
Q 1150 3566 1116 3266 
L 306 3403 
Q 391 3819 561 4067 
Q 731 4316 1036 4458 
Q 1341 4600 1719 4600 
Q 2366 4600 2756 4188 
Q 3078 3850 3078 3425 
Q 3078 2822 2419 2463 
Q 2813 2378 3048 2084 
Q 3284 1791 3284 1375 
Q 3284 772 2843 347 
Q 2403 -78 1747 -78 
Q 1125 -78 715 280 
Q 306 638 241 1216 
z
" transform="scale(0.015625)"/>
      <path id="Arial-BoldMT-2e" d="M 459 0 
L 459 878 
L 1338 878 
L 1338 0 
L 459 0 
z
" transform="scale(0.015625)"/>
      <path id="Arial-BoldMT-35" d="M 284 1178 
L 1159 1269 
Q 1197 972 1381 798 
Q 1566 625 1806 625 
Q 2081 625 2272 848 
Q 2463 1072 2463 1522 
Q 2463 1944 2273 2155 
Q 2084 2366 1781 2366 
Q 1403 2366 1103 2031 
L 391 2134 
L 841 4519 
L 3163 4519 
L 3163 3697 
L 1506 3697 
L 1369 2919 
Q 1663 3066 1969 3066 
Q 2553 3066 2959 2641 
Q 3366 2216 3366 1538 
Q 3366 972 3038 528 
Q 2591 -78 1797 -78 
Q 1163 -78 763 262 
Q 363 603 284 1178 
z
" transform="scale(0.015625)"/>
      <path id="Arial-BoldMT-b0" d="M 269 3663 
Q 269 4078 561 4368 
Q 853 4659 1266 4659 
Q 1678 4659 1970 4367 
Q 2263 4075 2263 3663 
Q 2263 3250 1970 2958 
Q 1678 2666 1266 2666 
Q 853 2666 561 2958 
Q 269 3250 269 3663 
z
M 788 3663 
Q 788 3466 928 3325 
Q 1069 3184 1266 3184 
Q 1463 3184 1603 3325 
Q 1744 3466 1744 3663 
Q 1744 3859 1603 4000 
Q 1463 4141 1266 4141 
Q 1069 4141 928 4000 
Q 788 3859 788 3663 
z
" transform="scale(0.015625)"/>
      <path id="Arial-BoldMT-43" d="M 3397 1684 
L 4294 1400 
Q 4088 650 3608 286 
Q 3128 -78 2391 -78 
Q 1478 -78 890 545 
Q 303 1169 303 2250 
Q 303 3394 893 4026 
Q 1484 4659 2447 4659 
Q 3288 4659 3813 4163 
Q 4125 3869 4281 3319 
L 3366 3100 
Q 3284 3456 3026 3662 
Q 2769 3869 2400 3869 
Q 1891 3869 1573 3503 
Q 1256 3138 1256 2319 
Q 1256 1450 1568 1081 
Q 1881 713 2381 713 
Q 2750 713 3015 947 
Q 3281 1181 3397 1684 
z
" transform="scale(0.015625)"/>
     </defs>
     <use xlink:href="#Arial-BoldMT-61"/>
     <use xlink:href="#Arial-BoldMT-20" x="55.615234"/>
     <use xlink:href="#Arial-BoldMT-33" x="83.398438"/>
     <use xlink:href="#Arial-BoldMT-2e" x="139.013672"/>
     <use xlink:href="#Arial-BoldMT-35" x="166.796875"/>
     <use xlink:href="#Arial-BoldMT-20" x="222.412109"/>
     <use xlink:href="#Arial-BoldMT-b0" x="250.195312"/>
     <use xlink:href="#Arial-BoldMT-43" x="290.185547"/>
    </g>
   </g>
  </g>
  <g id="axes_2">
   <g id="patch_7">
    <path d="M 31.60875 521.216746 
L 508.65984 521.216746 
L 508.65984 280.970404 
L 31.60875 280.970404 
z
" style="fill: #ffffff"/>
   </g>
   <g id="PathCollection_5">
    <g clip-path="url(#pa8f41f696a)">
     <use xlink:href="#m4a1734b933" x="53.29289" y="504.380816" style="fill: #d8d8d8; stroke: #000000"/>
     <use xlink:href="#m4a1734b933" x="70.640203" y="504.081077" style="fill: #d8d8d8; stroke: #000000"/>
     <use xlink:href="#m4a1734b933" x="87.987515" y="502.437314" style="fill: #d8d8d8; stroke: #000000"/>
     <use xlink:href="#m4a1734b933" x="105.334828" y="503.813143" style="fill: #d8d8d8; stroke: #000000"/>
     <use xlink:href="#m4a1734b933" x="122.68214" y="504.421692" style="fill: #d8d8d8; stroke: #000000"/>
     <use xlink:href="#m4a1734b933" x="140.029452" y="503.338336" style="fill: #d8d8d8; stroke: #000000"/>
     <use xlink:href="#m4a1734b933" x="157.376765" y="502.824275" style="fill: #d8d8d8; stroke: #000000"/>
     <use xlink:href="#m4a1734b933" x="174.724077" y="504.185258" style="fill: #d8d8d8; stroke: #000000"/>
     <use xlink:href="#m4a1734b933" x="192.071389" y="501.458784" style="fill: #d8d8d8; stroke: #000000"/>
     <use xlink:href="#m4a1734b933" x="209.418702" y="503.728525" style="fill: #d8d8d8; stroke: #000000"/>
     <use xlink:href="#m4a1734b933" x="226.766014" y="504.297585" style="fill: #d8d8d8; stroke: #000000"/>
     <use xlink:href="#m4a1734b933" x="244.113326" y="504.088865" style="fill: #d8d8d8; stroke: #000000"/>
     <use xlink:href="#m4a1734b933" x="261.460639" y="503.387823" style="fill: #d8d8d8; stroke: #000000"/>
     <use xlink:href="#m4a1734b933" x="278.807951" y="503.997944" style="fill: #d8d8d8; stroke: #000000"/>
     <use xlink:href="#m4a1734b933" x="296.155264" y="504.196106" style="fill: #d8d8d8; stroke: #000000"/>
     <use xlink:href="#m4a1734b933" x="313.502576" y="504.067104" style="fill: #d8d8d8; stroke: #000000"/>
     <use xlink:href="#m4a1734b933" x="330.849888" y="504.01877" style="fill: #d8d8d8; stroke: #000000"/>
     <use xlink:href="#m4a1734b933" x="348.197201" y="502.924898" style="fill: #d8d8d8; stroke: #000000"/>
     <use xlink:href="#m4a1734b933" x="365.544513" y="503.403314" style="fill: #d8d8d8; stroke: #000000"/>
     <use xlink:href="#m4a1734b933" x="382.891825" y="503.558102" style="fill: #d8d8d8; stroke: #000000"/>
     <use xlink:href="#m4a1734b933" x="400.239138" y="504.9089" style="fill: #d8d8d8; stroke: #000000"/>
     <use xlink:href="#m4a1734b933" x="417.58645" y="505.713646" style="fill: #d8d8d8; stroke: #000000"/>
     <use xlink:href="#m4a1734b933" x="434.933762" y="504.487769" style="fill: #d8d8d8; stroke: #000000"/>
     <use xlink:href="#m4a1734b933" x="452.281075" y="502.898684" style="fill: #d8d8d8; stroke: #000000"/>
     <use xlink:href="#m4a1734b933" x="469.628387" y="503.338987" style="fill: #d8d8d8; stroke: #000000"/>
     <use xlink:href="#m4a1734b933" x="486.9757" y="504.663741" style="fill: #d8d8d8; stroke: #000000"/>
    </g>
   </g>
   <g id="PathCollection_6">
    <g clip-path="url(#pa8f41f696a)">
     <use xlink:href="#m48293abd22" x="53.29289" y="501.876426" style="fill: #a78dd8; stroke: #52318e"/>
     <use xlink:href="#m48293abd22" x="70.640203" y="498.709127" style="fill: #a78dd8; stroke: #52318e"/>
     <use xlink:href="#m48293abd22" x="87.987515" y="493.714997" style="fill: #a78dd8; stroke: #52318e"/>
     <use xlink:href="#m48293abd22" x="105.334828" y="496.793696" style="fill: #a78dd8; stroke: #52318e"/>
     <use xlink:href="#m48293abd22" x="122.68214" y="501.10407" style="fill: #a78dd8; stroke: #52318e"/>
     <use xlink:href="#m48293abd22" x="140.029452" y="493.350027" style="fill: #a78dd8; stroke: #52318e"/>
     <use xlink:href="#m48293abd22" x="157.376765" y="489.764034" style="fill: #a78dd8; stroke: #52318e"/>
     <use xlink:href="#m48293abd22" x="174.724077" y="499.422557" style="fill: #a78dd8; stroke: #52318e"/>
     <use xlink:href="#m48293abd22" x="192.071389" y="493.147577" style="fill: #a78dd8; stroke: #52318e"/>
     <use xlink:href="#m48293abd22" x="209.418702" y="496.212018" style="fill: #a78dd8; stroke: #52318e"/>
     <use xlink:href="#m48293abd22" x="226.766014" y="500.22471" style="fill: #a78dd8; stroke: #52318e"/>
     <use xlink:href="#m48293abd22" x="244.113326" y="498.706447" style="fill: #a78dd8; stroke: #52318e"/>
     <use xlink:href="#m48293abd22" x="261.460639" y="493.792263" style="fill: #a78dd8; stroke: #52318e"/>
     <use xlink:href="#m48293abd22" x="278.807951" y="498.079232" style="fill: #a78dd8; stroke: #52318e"/>
     <use xlink:href="#m48293abd22" x="296.155264" y="499.494626" style="fill: #a78dd8; stroke: #52318e"/>
     <use xlink:href="#m48293abd22" x="313.502576" y="498.56615" style="fill: #a78dd8; stroke: #52318e"/>
     <use xlink:href="#m48293abd22" x="330.849888" y="498.223696" style="fill: #a78dd8; stroke: #52318e"/>
     <use xlink:href="#m48293abd22" x="348.197201" y="498.103873" style="fill: #a78dd8; stroke: #52318e"/>
     <use xlink:href="#m48293abd22" x="365.544513" y="493.812329" style="fill: #a78dd8; stroke: #52318e"/>
     <use xlink:href="#m48293abd22" x="382.891825" y="494.990076" style="fill: #a78dd8; stroke: #52318e"/>
     <use xlink:href="#m48293abd22" x="400.239138" y="504.594898" style="fill: #a78dd8; stroke: #52318e"/>
     <use xlink:href="#m48293abd22" x="417.58645" y="510.296458" style="fill: #a78dd8; stroke: #52318e"/>
     <use xlink:href="#m48293abd22" x="434.933762" y="501.592494" style="fill: #a78dd8; stroke: #52318e"/>
     <use xlink:href="#m48293abd22" x="452.281075" y="496.537991" style="fill: #a78dd8; stroke: #52318e"/>
     <use xlink:href="#m48293abd22" x="469.628387" y="493.347445" style="fill: #a78dd8; stroke: #52318e"/>
     <use xlink:href="#m48293abd22" x="486.9757" y="502.856234" style="fill: #a78dd8; stroke: #52318e"/>
    </g>
   </g>
   <g id="PathCollection_7">
    <g clip-path="url(#pa8f41f696a)">
     <use xlink:href="#m80ed4f4c9c" x="53.29289" y="487.257535" style="fill: #fb7b71; stroke: #b71205"/>
     <use xlink:href="#m80ed4f4c9c" x="70.640203" y="482.362061" style="fill: #fb7b71; stroke: #b71205"/>
     <use xlink:href="#m80ed4f4c9c" x="87.987515" y="477.015295" style="fill: #fb7b71; stroke: #b71205"/>
     <use xlink:href="#m80ed4f4c9c" x="105.334828" y="478.667907" style="fill: #fb7b71; stroke: #b71205"/>
     <use xlink:href="#m80ed4f4c9c" x="122.68214" y="485.541752" style="fill: #fb7b71; stroke: #b71205"/>
     <use xlink:href="#m80ed4f4c9c" x="140.029452" y="473.317914" style="fill: #fb7b71; stroke: #b71205"/>
     <use xlink:href="#m80ed4f4c9c" x="157.376765" y="467.498185" style="fill: #fb7b71; stroke: #b71205"/>
     <use xlink:href="#m80ed4f4c9c" x="174.724077" y="291.890692" style="fill: #fb7b71; stroke: #b71205"/>
     <use xlink:href="#m80ed4f4c9c" x="192.071389" y="478.139627" style="fill: #fb7b71; stroke: #b71205"/>
     <use xlink:href="#m80ed4f4c9c" x="209.418702" y="476.544806" style="fill: #fb7b71; stroke: #b71205"/>
     <use xlink:href="#m80ed4f4c9c" x="226.766014" y="484.139906" style="fill: #fb7b71; stroke: #b71205"/>
     <use xlink:href="#m80ed4f4c9c" x="244.113326" y="481.782318" style="fill: #fb7b71; stroke: #b71205"/>
     <use xlink:href="#m80ed4f4c9c" x="261.460639" y="476.756854" style="fill: #fb7b71; stroke: #b71205"/>
     <use xlink:href="#m80ed4f4c9c" x="278.807951" y="480.755326" style="fill: #fb7b71; stroke: #b71205"/>
     <use xlink:href="#m80ed4f4c9c" x="296.155264" y="482.993647" style="fill: #fb7b71; stroke: #b71205"/>
     <use xlink:href="#m80ed4f4c9c" x="313.502576" y="488.20596" style="fill: #fb7b71; stroke: #b71205"/>
     <use xlink:href="#m80ed4f4c9c" x="330.849888" y="480.990559" style="fill: #fb7b71; stroke: #b71205"/>
     <use xlink:href="#m80ed4f4c9c" x="348.197201" y="484.435645" style="fill: #fb7b71; stroke: #b71205"/>
     <use xlink:href="#m80ed4f4c9c" x="365.544513" y="474.086885" style="fill: #fb7b71; stroke: #b71205"/>
     <use xlink:href="#m80ed4f4c9c" x="382.891825" y="475.787106" style="fill: #fb7b71; stroke: #b71205"/>
     <use xlink:href="#m80ed4f4c9c" x="400.239138" y="491.044985" style="fill: #fb7b71; stroke: #b71205"/>
     <use xlink:href="#m80ed4f4c9c" x="417.58645" y="500.134964" style="fill: #fb7b71; stroke: #b71205"/>
     <use xlink:href="#m80ed4f4c9c" x="434.933762" y="486.288116" style="fill: #fb7b71; stroke: #b71205"/>
     <use xlink:href="#m80ed4f4c9c" x="452.281075" y="482.974443" style="fill: #fb7b71; stroke: #b71205"/>
     <use xlink:href="#m80ed4f4c9c" x="469.628387" y="473.312101" style="fill: #fb7b71; stroke: #b71205"/>
     <use xlink:href="#m80ed4f4c9c" x="486.9757" y="484.971564" style="fill: #fb7b71; stroke: #b71205"/>
    </g>
   </g>
   <g id="PathCollection_8">
    <g clip-path="url(#pa8f41f696a)">
     <use xlink:href="#maccd269c6d" x="53.29289" y="494.022389" style="fill: #6dd2ea; stroke: #167f99"/>
     <use xlink:href="#maccd269c6d" x="70.640203" y="489.822433" style="fill: #6dd2ea; stroke: #167f99"/>
     <use xlink:href="#maccd269c6d" x="87.987515" y="484.990985" style="fill: #6dd2ea; stroke: #167f99"/>
     <use xlink:href="#maccd269c6d" x="105.334828" y="484.901884" style="fill: #6dd2ea; stroke: #167f99"/>
     <use xlink:href="#maccd269c6d" x="122.68214" y="492.306605" style="fill: #6dd2ea; stroke: #167f99"/>
     <use xlink:href="#maccd269c6d" x="140.029452" y="480.082768" style="fill: #6dd2ea; stroke: #167f99"/>
     <use xlink:href="#maccd269c6d" x="157.376765" y="474.263038" style="fill: #6dd2ea; stroke: #167f99"/>
     <use xlink:href="#maccd269c6d" x="174.724077" y="291.890692" style="fill: #6dd2ea; stroke: #167f99"/>
     <use xlink:href="#maccd269c6d" x="192.071389" y="487.302473" style="fill: #6dd2ea; stroke: #167f99"/>
     <use xlink:href="#maccd269c6d" x="209.418702" y="486.049856" style="fill: #6dd2ea; stroke: #167f99"/>
     <use xlink:href="#maccd269c6d" x="226.766014" y="493.968117" style="fill: #6dd2ea; stroke: #167f99"/>
     <use xlink:href="#maccd269c6d" x="244.113326" y="488.547171" style="fill: #6dd2ea; stroke: #167f99"/>
     <use xlink:href="#maccd269c6d" x="261.460639" y="483.188795" style="fill: #6dd2ea; stroke: #167f99"/>
     <use xlink:href="#maccd269c6d" x="278.807951" y="487.520179" style="fill: #6dd2ea; stroke: #167f99"/>
     <use xlink:href="#maccd269c6d" x="296.155264" y="489.758501" style="fill: #6dd2ea; stroke: #167f99"/>
     <use xlink:href="#maccd269c6d" x="313.502576" y="490.462727" style="fill: #6dd2ea; stroke: #167f99"/>
     <use xlink:href="#maccd269c6d" x="330.849888" y="487.755412" style="fill: #6dd2ea; stroke: #167f99"/>
     <use xlink:href="#maccd269c6d" x="348.197201" y="491.199995" style="fill: #6dd2ea; stroke: #167f99"/>
     <use xlink:href="#maccd269c6d" x="365.544513" y="478.177379" style="fill: #6dd2ea; stroke: #167f99"/>
     <use xlink:href="#maccd269c6d" x="382.891825" y="482.551959" style="fill: #6dd2ea; stroke: #167f99"/>
     <use xlink:href="#maccd269c6d" x="400.239138" y="497.809839" style="fill: #6dd2ea; stroke: #167f99"/>
     <use xlink:href="#maccd269c6d" x="417.58645" y="509.728525" style="fill: #6dd2ea; stroke: #167f99"/>
     <use xlink:href="#maccd269c6d" x="434.933762" y="490.44108" style="fill: #6dd2ea; stroke: #167f99"/>
     <use xlink:href="#maccd269c6d" x="452.281075" y="490.602771" style="fill: #6dd2ea; stroke: #167f99"/>
     <use xlink:href="#maccd269c6d" x="469.628387" y="480.076954" style="fill: #6dd2ea; stroke: #167f99"/>
     <use xlink:href="#maccd269c6d" x="486.9757" y="495.732003" style="fill: #6dd2ea; stroke: #167f99"/>
    </g>
   </g>
   <g id="matplotlib.axis_3">
    <g id="xtick_1">
     <g id="line2d_6">
      <defs>
       <path id="md7c3af4c76" d="M 0 0 
L 0 3.5 
" style="stroke: #000000; stroke-width: 0.8"/>
      </defs>
      <g>
       <use xlink:href="#md7c3af4c76" x="53.29289" y="521.216746" style="stroke: #000000; stroke-width: 0.8"/>
      </g>
     </g>
     <g id="text_8">
      <!-- BRA -->
      <g transform="translate(48.939322 543.897723) rotate(-45) scale(0.08 -0.08)">
       <defs>
        <path id="ArialMT-42" d="M 469 0 
L 469 4581 
L 2188 4581 
Q 2713 4581 3030 4442 
Q 3347 4303 3526 4014 
Q 3706 3725 3706 3409 
Q 3706 3116 3547 2856 
Q 3388 2597 3066 2438 
Q 3481 2316 3704 2022 
Q 3928 1728 3928 1328 
Q 3928 1006 3792 729 
Q 3656 453 3456 303 
Q 3256 153 2954 76 
Q 2653 0 2216 0 
L 469 0 
z
M 1075 2656 
L 2066 2656 
Q 2469 2656 2644 2709 
Q 2875 2778 2992 2937 
Q 3109 3097 3109 3338 
Q 3109 3566 3000 3739 
Q 2891 3913 2687 3977 
Q 2484 4041 1991 4041 
L 1075 4041 
L 1075 2656 
z
M 1075 541 
L 2216 541 
Q 2509 541 2628 563 
Q 2838 600 2978 687 
Q 3119 775 3209 942 
Q 3300 1109 3300 1328 
Q 3300 1584 3169 1773 
Q 3038 1963 2805 2039 
Q 2572 2116 2134 2116 
L 1075 2116 
L 1075 541 
z
" transform="scale(0.015625)"/>
        <path id="ArialMT-52" d="M 503 0 
L 503 4581 
L 2534 4581 
Q 3147 4581 3465 4457 
Q 3784 4334 3975 4021 
Q 4166 3709 4166 3331 
Q 4166 2844 3850 2509 
Q 3534 2175 2875 2084 
Q 3116 1969 3241 1856 
Q 3506 1613 3744 1247 
L 4541 0 
L 3778 0 
L 3172 953 
Q 2906 1366 2734 1584 
Q 2563 1803 2427 1890 
Q 2291 1978 2150 2013 
Q 2047 2034 1813 2034 
L 1109 2034 
L 1109 0 
L 503 0 
z
M 1109 2559 
L 2413 2559 
Q 2828 2559 3062 2645 
Q 3297 2731 3419 2920 
Q 3541 3109 3541 3331 
Q 3541 3656 3305 3865 
Q 3069 4075 2559 4075 
L 1109 4075 
L 1109 2559 
z
" transform="scale(0.015625)"/>
        <path id="ArialMT-41" d="M -9 0 
L 1750 4581 
L 2403 4581 
L 4278 0 
L 3588 0 
L 3053 1388 
L 1138 1388 
L 634 0 
L -9 0 
z
M 1313 1881 
L 2866 1881 
L 2388 3150 
Q 2169 3728 2063 4100 
Q 1975 3659 1816 3225 
L 1313 1881 
z
" transform="scale(0.015625)"/>
       </defs>
       <use xlink:href="#ArialMT-42"/>
       <use xlink:href="#ArialMT-52" x="66.699219"/>
       <use xlink:href="#ArialMT-41" x="138.916016"/>
      </g>
     </g>
    </g>
    <g id="xtick_2">
     <g id="line2d_7">
      <g>
       <use xlink:href="#md7c3af4c76" x="70.640203" y="521.216746" style="stroke: #000000; stroke-width: 0.8"/>
      </g>
     </g>
     <g id="text_9">
      <!-- CAN -->
      <g transform="translate(66.130629 544.209733) rotate(-45) scale(0.08 -0.08)">
       <defs>
        <path id="ArialMT-4e" d="M 488 0 
L 488 4581 
L 1109 4581 
L 3516 984 
L 3516 4581 
L 4097 4581 
L 4097 0 
L 3475 0 
L 1069 3600 
L 1069 0 
L 488 0 
z
" transform="scale(0.015625)"/>
       </defs>
       <use xlink:href="#ArialMT-43"/>
       <use xlink:href="#ArialMT-41" x="72.216797"/>
       <use xlink:href="#ArialMT-4e" x="138.916016"/>
      </g>
     </g>
    </g>
    <g id="xtick_3">
     <g id="line2d_8">
      <g>
       <use xlink:href="#md7c3af4c76" x="87.987515" y="521.216746" style="stroke: #000000; stroke-width: 0.8"/>
      </g>
     </g>
     <g id="text_10">
      <!-- CEU -->
      <g transform="translate(83.477942 544.209733) rotate(-45) scale(0.08 -0.08)">
       <defs>
        <path id="ArialMT-45" d="M 506 0 
L 506 4581 
L 3819 4581 
L 3819 4041 
L 1113 4041 
L 1113 2638 
L 3647 2638 
L 3647 2100 
L 1113 2100 
L 1113 541 
L 3925 541 
L 3925 0 
L 506 0 
z
" transform="scale(0.015625)"/>
        <path id="ArialMT-55" d="M 3500 4581 
L 4106 4581 
L 4106 1934 
Q 4106 1244 3950 837 
Q 3794 431 3386 176 
Q 2978 -78 2316 -78 
Q 1672 -78 1262 144 
Q 853 366 678 786 
Q 503 1206 503 1934 
L 503 4581 
L 1109 4581 
L 1109 1938 
Q 1109 1341 1220 1058 
Q 1331 775 1601 622 
Q 1872 469 2263 469 
Q 2931 469 3215 772 
Q 3500 1075 3500 1938 
L 3500 4581 
z
" transform="scale(0.015625)"/>
       </defs>
       <use xlink:href="#ArialMT-43"/>
       <use xlink:href="#ArialMT-45" x="72.216797"/>
       <use xlink:href="#ArialMT-55" x="138.916016"/>
      </g>
     </g>
    </g>
    <g id="xtick_4">
     <g id="line2d_9">
      <g>
       <use xlink:href="#md7c3af4c76" x="105.334828" y="521.216746" style="stroke: #000000; stroke-width: 0.8"/>
      </g>
     </g>
     <g id="text_11">
      <!-- CHN -->
      <g transform="translate(100.669249 544.521744) rotate(-45) scale(0.08 -0.08)">
       <defs>
        <path id="ArialMT-48" d="M 513 0 
L 513 4581 
L 1119 4581 
L 1119 2700 
L 3500 2700 
L 3500 4581 
L 4106 4581 
L 4106 0 
L 3500 0 
L 3500 2159 
L 1119 2159 
L 1119 0 
L 513 0 
z
" transform="scale(0.015625)"/>
       </defs>
       <use xlink:href="#ArialMT-43"/>
       <use xlink:href="#ArialMT-48" x="72.216797"/>
       <use xlink:href="#ArialMT-4e" x="144.433594"/>
      </g>
     </g>
    </g>
    <g id="xtick_5">
     <g id="line2d_10">
      <g>
       <use xlink:href="#md7c3af4c76" x="122.68214" y="521.216746" style="stroke: #000000; stroke-width: 0.8"/>
      </g>
     </g>
     <g id="text_12">
      <!-- EAF -->
      <g transform="translate(118.643676 543.267514) rotate(-45) scale(0.08 -0.08)">
       <defs>
        <path id="ArialMT-46" d="M 525 0 
L 525 4581 
L 3616 4581 
L 3616 4041 
L 1131 4041 
L 1131 2622 
L 3281 2622 
L 3281 2081 
L 1131 2081 
L 1131 0 
L 525 0 
z
" transform="scale(0.015625)"/>
       </defs>
       <use xlink:href="#ArialMT-45"/>
       <use xlink:href="#ArialMT-41" x="66.699219"/>
       <use xlink:href="#ArialMT-46" x="133.398438"/>
      </g>
     </g>
    </g>
    <g id="xtick_6">
     <g id="line2d_11">
      <g>
       <use xlink:href="#md7c3af4c76" x="140.029452" y="521.216746" style="stroke: #000000; stroke-width: 0.8"/>
      </g>
     </g>
     <g id="text_13">
      <!-- INDIA -->
      <g transform="translate(133.948334 547.352823) rotate(-45) scale(0.08 -0.08)">
       <defs>
        <path id="ArialMT-49" d="M 597 0 
L 597 4581 
L 1203 4581 
L 1203 0 
L 597 0 
z
" transform="scale(0.015625)"/>
        <path id="ArialMT-44" d="M 494 0 
L 494 4581 
L 2072 4581 
Q 2606 4581 2888 4516 
Q 3281 4425 3559 4188 
Q 3922 3881 4101 3404 
Q 4281 2928 4281 2316 
Q 4281 1794 4159 1391 
Q 4038 988 3847 723 
Q 3656 459 3429 307 
Q 3203 156 2883 78 
Q 2563 0 2147 0 
L 494 0 
z
M 1100 541 
L 2078 541 
Q 2531 541 2789 625 
Q 3047 709 3200 863 
Q 3416 1078 3536 1442 
Q 3656 1806 3656 2325 
Q 3656 3044 3420 3430 
Q 3184 3816 2847 3947 
Q 2603 4041 2063 4041 
L 1100 4041 
L 1100 541 
z
" transform="scale(0.015625)"/>
       </defs>
       <use xlink:href="#ArialMT-49"/>
       <use xlink:href="#ArialMT-4e" x="27.783203"/>
       <use xlink:href="#ArialMT-44" x="100"/>
       <use xlink:href="#ArialMT-49" x="172.216797"/>
       <use xlink:href="#ArialMT-41" x="200"/>
      </g>
     </g>
    </g>
    <g id="xtick_7">
     <g id="line2d_12">
      <g>
       <use xlink:href="#md7c3af4c76" x="157.376765" y="521.216746" style="stroke: #000000; stroke-width: 0.8"/>
      </g>
     </g>
     <g id="text_14">
      <!-- INDO -->
      <g transform="translate(151.768082 546.407952) rotate(-45) scale(0.08 -0.08)">
       <use xlink:href="#ArialMT-49"/>
       <use xlink:href="#ArialMT-4e" x="27.783203"/>
       <use xlink:href="#ArialMT-44" x="100"/>
       <use xlink:href="#ArialMT-4f" x="172.216797"/>
      </g>
     </g>
    </g>
    <g id="xtick_8">
     <g id="line2d_13">
      <g>
       <use xlink:href="#md7c3af4c76" x="174.724077" y="521.216746" style="stroke: #000000; stroke-width: 0.8"/>
      </g>
     </g>
     <g id="text_15">
      <!-- IR -->
      <g transform="translate(173.358035 537.92267) rotate(-45) scale(0.08 -0.08)">
       <use xlink:href="#ArialMT-49"/>
       <use xlink:href="#ArialMT-52" x="27.783203"/>
      </g>
     </g>
    </g>
    <g id="xtick_9">
     <g id="line2d_14">
      <g>
       <use xlink:href="#md7c3af4c76" x="192.071389" y="521.216746" style="stroke: #000000; stroke-width: 0.8"/>
      </g>
     </g>
     <g id="text_16">
      <!-- JPN -->
      <g transform="translate(188.190257 542.952851) rotate(-45) scale(0.08 -0.08)">
       <defs>
        <path id="ArialMT-4a" d="M 184 1300 
L 731 1375 
Q 753 850 928 656 
Q 1103 463 1413 463 
Q 1641 463 1806 567 
Q 1972 672 2034 851 
Q 2097 1031 2097 1425 
L 2097 4581 
L 2703 4581 
L 2703 1459 
Q 2703 884 2564 568 
Q 2425 253 2123 87 
Q 1822 -78 1416 -78 
Q 813 -78 492 269 
Q 172 616 184 1300 
z
" transform="scale(0.015625)"/>
       </defs>
       <use xlink:href="#ArialMT-4a"/>
       <use xlink:href="#ArialMT-50" x="50"/>
       <use xlink:href="#ArialMT-4e" x="116.699219"/>
      </g>
     </g>
    </g>
    <g id="xtick_10">
     <g id="line2d_15">
      <g>
       <use xlink:href="#md7c3af4c76" x="209.418702" y="521.216746" style="stroke: #000000; stroke-width: 0.8"/>
      </g>
     </g>
     <g id="text_17">
      <!-- KOR -->
      <g transform="translate(204.751797 544.524396) rotate(-45) scale(0.08 -0.08)">
       <defs>
        <path id="ArialMT-4b" d="M 469 0 
L 469 4581 
L 1075 4581 
L 1075 2309 
L 3350 4581 
L 4172 4581 
L 2250 2725 
L 4256 0 
L 3456 0 
L 1825 2319 
L 1075 1588 
L 1075 0 
L 469 0 
z
" transform="scale(0.015625)"/>
       </defs>
       <use xlink:href="#ArialMT-4b"/>
       <use xlink:href="#ArialMT-4f" x="66.699219"/>
       <use xlink:href="#ArialMT-52" x="144.482422"/>
      </g>
     </g>
    </g>
    <g id="xtick_11">
     <g id="line2d_16">
      <g>
       <use xlink:href="#md7c3af4c76" x="226.766014" y="521.216746" style="stroke: #000000; stroke-width: 0.8"/>
      </g>
     </g>
     <g id="text_18">
      <!-- MEX -->
      <g transform="translate(222.099109 544.524396) rotate(-45) scale(0.08 -0.08)">
       <defs>
        <path id="ArialMT-4d" d="M 475 0 
L 475 4581 
L 1388 4581 
L 2472 1338 
Q 2622 884 2691 659 
Q 2769 909 2934 1394 
L 4031 4581 
L 4847 4581 
L 4847 0 
L 4263 0 
L 4263 3834 
L 2931 0 
L 2384 0 
L 1059 3900 
L 1059 0 
L 475 0 
z
" transform="scale(0.015625)"/>
        <path id="ArialMT-58" d="M 28 0 
L 1800 2388 
L 238 4581 
L 959 4581 
L 1791 3406 
Q 2050 3041 2159 2844 
Q 2313 3094 2522 3366 
L 3444 4581 
L 4103 4581 
L 2494 2422 
L 4228 0 
L 3478 0 
L 2325 1634 
Q 2228 1775 2125 1941 
Q 1972 1691 1906 1597 
L 756 0 
L 28 0 
z
" transform="scale(0.015625)"/>
       </defs>
       <use xlink:href="#ArialMT-4d"/>
       <use xlink:href="#ArialMT-45" x="83.300781"/>
       <use xlink:href="#ArialMT-58" x="150"/>
      </g>
     </g>
    </g>
    <g id="xtick_12">
     <g id="line2d_17">
      <g>
       <use xlink:href="#md7c3af4c76" x="244.113326" y="521.216746" style="stroke: #000000; stroke-width: 0.8"/>
      </g>
     </g>
     <g id="text_19">
      <!-- NAF -->
      <g transform="translate(239.918857 543.579524) rotate(-45) scale(0.08 -0.08)">
       <use xlink:href="#ArialMT-4e"/>
       <use xlink:href="#ArialMT-41" x="72.216797"/>
       <use xlink:href="#ArialMT-46" x="138.916016"/>
      </g>
     </g>
    </g>
    <g id="xtick_13">
     <g id="line2d_18">
      <g>
       <use xlink:href="#md7c3af4c76" x="261.460639" y="521.216746" style="stroke: #000000; stroke-width: 0.8"/>
      </g>
     </g>
     <g id="text_20">
      <!-- OCE -->
      <g transform="translate(256.793734 544.524396) rotate(-45) scale(0.08 -0.08)">
       <use xlink:href="#ArialMT-4f"/>
       <use xlink:href="#ArialMT-43" x="77.783203"/>
       <use xlink:href="#ArialMT-45" x="150"/>
      </g>
     </g>
    </g>
    <g id="xtick_14">
     <g id="line2d_19">
      <g>
       <use xlink:href="#md7c3af4c76" x="278.807951" y="521.216746" style="stroke: #000000; stroke-width: 0.8"/>
      </g>
     </g>
     <g id="text_21">
      <!-- RCAM -->
      <g transform="translate(271.942386 548.921716) rotate(-45) scale(0.08 -0.08)">
       <use xlink:href="#ArialMT-52"/>
       <use xlink:href="#ArialMT-43" x="72.216797"/>
       <use xlink:href="#ArialMT-41" x="144.433594"/>
       <use xlink:href="#ArialMT-4d" x="211.132812"/>
      </g>
     </g>
    </g>
    <g id="xtick_15">
     <g id="line2d_20">
      <g>
       <use xlink:href="#md7c3af4c76" x="296.155264" y="521.216746" style="stroke: #000000; stroke-width: 0.8"/>
      </g>
     </g>
     <g id="text_22">
      <!-- RSAF -->
      <g transform="translate(290.074145 547.352823) rotate(-45) scale(0.08 -0.08)">
       <defs>
        <path id="ArialMT-53" d="M 288 1472 
L 859 1522 
Q 900 1178 1048 958 
Q 1197 738 1509 602 
Q 1822 466 2213 466 
Q 2559 466 2825 569 
Q 3091 672 3220 851 
Q 3350 1031 3350 1244 
Q 3350 1459 3225 1620 
Q 3100 1781 2813 1891 
Q 2628 1963 1997 2114 
Q 1366 2266 1113 2400 
Q 784 2572 623 2826 
Q 463 3081 463 3397 
Q 463 3744 659 4045 
Q 856 4347 1234 4503 
Q 1613 4659 2075 4659 
Q 2584 4659 2973 4495 
Q 3363 4331 3572 4012 
Q 3781 3694 3797 3291 
L 3216 3247 
Q 3169 3681 2898 3903 
Q 2628 4125 2100 4125 
Q 1550 4125 1298 3923 
Q 1047 3722 1047 3438 
Q 1047 3191 1225 3031 
Q 1400 2872 2139 2705 
Q 2878 2538 3153 2413 
Q 3553 2228 3743 1945 
Q 3934 1663 3934 1294 
Q 3934 928 3725 604 
Q 3516 281 3123 101 
Q 2731 -78 2241 -78 
Q 1619 -78 1198 103 
Q 778 284 539 648 
Q 300 1013 288 1472 
z
" transform="scale(0.015625)"/>
       </defs>
       <use xlink:href="#ArialMT-52"/>
       <use xlink:href="#ArialMT-53" x="72.216797"/>
       <use xlink:href="#ArialMT-41" x="138.916016"/>
       <use xlink:href="#ArialMT-46" x="205.615234"/>
      </g>
     </g>
    </g>
    <g id="xtick_16">
     <g id="line2d_21">
      <g>
       <use xlink:href="#md7c3af4c76" x="313.502576" y="521.216746" style="stroke: #000000; stroke-width: 0.8"/>
      </g>
     </g>
     <g id="text_23">
      <!-- RSAM -->
      <g transform="translate(306.793016 548.609705) rotate(-45) scale(0.08 -0.08)">
       <use xlink:href="#ArialMT-52"/>
       <use xlink:href="#ArialMT-53" x="72.216797"/>
       <use xlink:href="#ArialMT-41" x="138.916016"/>
       <use xlink:href="#ArialMT-4d" x="205.615234"/>
      </g>
     </g>
    </g>
    <g id="xtick_17">
     <g id="line2d_22">
      <g>
       <use xlink:href="#md7c3af4c76" x="330.849888" y="521.216746" style="stroke: #000000; stroke-width: 0.8"/>
      </g>
     </g>
     <g id="text_24">
      <!-- RSAS -->
      <g transform="translate(324.609671 547.671021) rotate(-45) scale(0.08 -0.08)">
       <use xlink:href="#ArialMT-52"/>
       <use xlink:href="#ArialMT-53" x="72.216797"/>
       <use xlink:href="#ArialMT-41" x="138.916016"/>
       <use xlink:href="#ArialMT-53" x="205.615234"/>
      </g>
     </g>
    </g>
    <g id="xtick_18">
     <g id="line2d_23">
      <g>
       <use xlink:href="#md7c3af4c76" x="348.197201" y="521.216746" style="stroke: #000000; stroke-width: 0.8"/>
      </g>
     </g>
     <g id="text_25">
      <!-- RUS -->
      <g transform="translate(343.687627 544.209733) rotate(-45) scale(0.08 -0.08)">
       <use xlink:href="#ArialMT-52"/>
       <use xlink:href="#ArialMT-55" x="72.216797"/>
       <use xlink:href="#ArialMT-53" x="144.433594"/>
      </g>
     </g>
    </g>
    <g id="xtick_19">
     <g id="line2d_24">
      <g>
       <use xlink:href="#md7c3af4c76" x="365.544513" y="521.216746" style="stroke: #000000; stroke-width: 0.8"/>
      </g>
     </g>
     <g id="text_26">
      <!-- SAF -->
      <g transform="translate(361.506049 543.267514) rotate(-45) scale(0.08 -0.08)">
       <use xlink:href="#ArialMT-53"/>
       <use xlink:href="#ArialMT-41" x="66.699219"/>
       <use xlink:href="#ArialMT-46" x="133.398438"/>
      </g>
     </g>
    </g>
    <g id="xtick_20">
     <g id="line2d_25">
      <g>
       <use xlink:href="#md7c3af4c76" x="382.891825" y="521.216746" style="stroke: #000000; stroke-width: 0.8"/>
      </g>
     </g>
     <g id="text_27">
      <!-- SEAS -->
      <g transform="translate(376.807613 547.35901) rotate(-45) scale(0.08 -0.08)">
       <use xlink:href="#ArialMT-53"/>
       <use xlink:href="#ArialMT-45" x="66.699219"/>
       <use xlink:href="#ArialMT-41" x="133.398438"/>
       <use xlink:href="#ArialMT-53" x="200.097656"/>
      </g>
     </g>
    </g>
    <g id="xtick_21">
     <g id="line2d_26">
      <g>
       <use xlink:href="#md7c3af4c76" x="400.239138" y="521.216746" style="stroke: #000000; stroke-width: 0.8"/>
      </g>
     </g>
     <g id="text_28">
      <!-- STAN -->
      <g transform="translate(394.366616 546.93563) rotate(-45) scale(0.08 -0.08)">
       <defs>
        <path id="ArialMT-54" d="M 1659 0 
L 1659 4041 
L 150 4041 
L 150 4581 
L 3781 4581 
L 3781 4041 
L 2266 4041 
L 2266 0 
L 1659 0 
z
" transform="scale(0.015625)"/>
       </defs>
       <use xlink:href="#ArialMT-53"/>
       <use xlink:href="#ArialMT-54" x="66.699219"/>
       <use xlink:href="#ArialMT-41" x="120.408203"/>
       <use xlink:href="#ArialMT-4e" x="187.107422"/>
      </g>
     </g>
    </g>
    <g id="xtick_22">
     <g id="line2d_27">
      <g>
       <use xlink:href="#md7c3af4c76" x="417.58645" y="521.216746" style="stroke: #000000; stroke-width: 0.8"/>
      </g>
     </g>
     <g id="text_29">
      <!-- TUR -->
      <g transform="translate(413.235976 543.891535) rotate(-45) scale(0.08 -0.08)">
       <use xlink:href="#ArialMT-54"/>
       <use xlink:href="#ArialMT-55" x="61.083984"/>
       <use xlink:href="#ArialMT-52" x="133.300781"/>
      </g>
     </g>
    </g>
    <g id="xtick_23">
     <g id="line2d_28">
      <g>
       <use xlink:href="#md7c3af4c76" x="434.933762" y="521.216746" style="stroke: #000000; stroke-width: 0.8"/>
      </g>
     </g>
     <g id="text_30">
      <!-- UKR -->
      <g transform="translate(430.424189 544.209733) rotate(-45) scale(0.08 -0.08)">
       <use xlink:href="#ArialMT-55"/>
       <use xlink:href="#ArialMT-4b" x="72.216797"/>
       <use xlink:href="#ArialMT-52" x="138.916016"/>
      </g>
     </g>
    </g>
    <g id="xtick_24">
     <g id="line2d_29">
      <g>
       <use xlink:href="#md7c3af4c76" x="452.281075" y="521.216746" style="stroke: #000000; stroke-width: 0.8"/>
      </g>
     </g>
     <g id="text_31">
      <!-- USA -->
      <g transform="translate(447.927507 543.897723) rotate(-45) scale(0.08 -0.08)">
       <use xlink:href="#ArialMT-55"/>
       <use xlink:href="#ArialMT-53" x="72.216797"/>
       <use xlink:href="#ArialMT-41" x="138.916016"/>
      </g>
     </g>
    </g>
    <g id="xtick_25">
     <g id="line2d_30">
      <g>
       <use xlink:href="#md7c3af4c76" x="469.628387" y="521.216746" style="stroke: #000000; stroke-width: 0.8"/>
      </g>
     </g>
     <g id="text_32">
      <!-- WAF -->
      <g transform="translate(464.912869 544.621623) rotate(-45) scale(0.08 -0.08)">
       <use xlink:href="#ArialMT-57"/>
       <use xlink:href="#ArialMT-41" x="90.634766"/>
       <use xlink:href="#ArialMT-46" x="157.333984"/>
      </g>
     </g>
    </g>
    <g id="xtick_26">
     <g id="line2d_31">
      <g>
       <use xlink:href="#md7c3af4c76" x="486.9757" y="521.216746" style="stroke: #000000; stroke-width: 0.8"/>
      </g>
     </g>
     <g id="text_33">
      <!-- WEU -->
      <g transform="translate(481.839011 545.463964) rotate(-45) scale(0.08 -0.08)">
       <use xlink:href="#ArialMT-57"/>
       <use xlink:href="#ArialMT-45" x="94.384766"/>
       <use xlink:href="#ArialMT-55" x="161.083984"/>
      </g>
     </g>
    </g>
   </g>
   <g id="matplotlib.axis_4">
    <g id="ytick_6">
     <g id="line2d_32">
      <g>
       <use xlink:href="#m9c6a5a35e7" x="31.60875" y="507.880392" style="stroke: #000000; stroke-width: 0.8"/>
      </g>
     </g>
     <g id="text_34">
      <!-- 0 -->
      <g transform="translate(20.16 510.743517) scale(0.08 -0.08)">
       <use xlink:href="#ArialMT-30"/>
      </g>
     </g>
    </g>
    <g id="ytick_7">
     <g id="line2d_33">
      <g>
       <use xlink:href="#m9c6a5a35e7" x="31.60875" y="474.194352" style="stroke: #000000; stroke-width: 0.8"/>
      </g>
     </g>
     <g id="text_35">
      <!-- 1 -->
      <g transform="translate(20.16 477.057477) scale(0.08 -0.08)">
       <use xlink:href="#ArialMT-31"/>
      </g>
     </g>
    </g>
    <g id="ytick_8">
     <g id="line2d_34">
      <g>
       <use xlink:href="#m9c6a5a35e7" x="31.60875" y="440.508312" style="stroke: #000000; stroke-width: 0.8"/>
      </g>
     </g>
     <g id="text_36">
      <!-- 2 -->
      <g transform="translate(20.16 443.371437) scale(0.08 -0.08)">
       <use xlink:href="#ArialMT-32"/>
      </g>
     </g>
    </g>
    <g id="ytick_9">
     <g id="line2d_35">
      <g>
       <use xlink:href="#m9c6a5a35e7" x="31.60875" y="406.822272" style="stroke: #000000; stroke-width: 0.8"/>
      </g>
     </g>
     <g id="text_37">
      <!-- 3 -->
      <g transform="translate(20.16 409.685397) scale(0.08 -0.08)">
       <use xlink:href="#ArialMT-33"/>
      </g>
     </g>
    </g>
    <g id="ytick_10">
     <g id="line2d_36">
      <g>
       <use xlink:href="#m9c6a5a35e7" x="31.60875" y="373.136231" style="stroke: #000000; stroke-width: 0.8"/>
      </g>
     </g>
     <g id="text_38">
      <!-- 4 -->
      <g transform="translate(20.16 375.999356) scale(0.08 -0.08)">
       <use xlink:href="#ArialMT-34"/>
      </g>
     </g>
    </g>
    <g id="ytick_11">
     <g id="line2d_37">
      <g>
       <use xlink:href="#m9c6a5a35e7" x="31.60875" y="339.450191" style="stroke: #000000; stroke-width: 0.8"/>
      </g>
     </g>
     <g id="text_39">
      <!-- 5 -->
      <g transform="translate(20.16 342.313316) scale(0.08 -0.08)">
       <defs>
        <path id="ArialMT-35" d="M 266 1200 
L 856 1250 
Q 922 819 1161 601 
Q 1400 384 1738 384 
Q 2144 384 2425 690 
Q 2706 997 2706 1503 
Q 2706 1984 2436 2262 
Q 2166 2541 1728 2541 
Q 1456 2541 1237 2417 
Q 1019 2294 894 2097 
L 366 2166 
L 809 4519 
L 3088 4519 
L 3088 3981 
L 1259 3981 
L 1013 2750 
Q 1425 3038 1878 3038 
Q 2478 3038 2890 2622 
Q 3303 2206 3303 1553 
Q 3303 931 2941 478 
Q 2500 -78 1738 -78 
Q 1113 -78 717 272 
Q 322 622 266 1200 
z
" transform="scale(0.015625)"/>
       </defs>
       <use xlink:href="#ArialMT-35"/>
      </g>
     </g>
    </g>
    <g id="ytick_12">
     <g id="line2d_38">
      <g>
       <use xlink:href="#m9c6a5a35e7" x="31.60875" y="305.764151" style="stroke: #000000; stroke-width: 0.8"/>
      </g>
     </g>
     <g id="text_40">
      <!-- 6 -->
      <g transform="translate(20.16 308.627276) scale(0.08 -0.08)">
       <defs>
        <path id="ArialMT-36" d="M 3184 3459 
L 2625 3416 
Q 2550 3747 2413 3897 
Q 2184 4138 1850 4138 
Q 1581 4138 1378 3988 
Q 1113 3794 959 3422 
Q 806 3050 800 2363 
Q 1003 2672 1297 2822 
Q 1591 2972 1913 2972 
Q 2475 2972 2870 2558 
Q 3266 2144 3266 1488 
Q 3266 1056 3080 686 
Q 2894 316 2569 119 
Q 2244 -78 1831 -78 
Q 1128 -78 684 439 
Q 241 956 241 2144 
Q 241 3472 731 4075 
Q 1159 4600 1884 4600 
Q 2425 4600 2770 4297 
Q 3116 3994 3184 3459 
z
M 888 1484 
Q 888 1194 1011 928 
Q 1134 663 1356 523 
Q 1578 384 1822 384 
Q 2178 384 2434 671 
Q 2691 959 2691 1453 
Q 2691 1928 2437 2201 
Q 2184 2475 1800 2475 
Q 1419 2475 1153 2201 
Q 888 1928 888 1484 
z
" transform="scale(0.015625)"/>
       </defs>
       <use xlink:href="#ArialMT-36"/>
      </g>
     </g>
    </g>
    <g id="text_41">
     <!-- ΔGWP [kg CO$_\mathrm{2}$-eq kg$^\mathrm{-1}$] -->
     <g transform="translate(14.4 445.333575) rotate(-90) scale(0.08 -0.08)">
      <use xlink:href="#ArialMT-394" transform="translate(0 0.684375)"/>
      <use xlink:href="#ArialMT-47" transform="translate(66.796875 0.684375)"/>
      <use xlink:href="#ArialMT-57" transform="translate(144.580078 0.684375)"/>
      <use xlink:href="#ArialMT-50" transform="translate(238.964844 0.684375)"/>
      <use xlink:href="#ArialMT-20" transform="translate(305.664062 0.684375)"/>
      <use xlink:href="#ArialMT-5b" transform="translate(333.447266 0.684375)"/>
      <use xlink:href="#ArialMT-6b" transform="translate(361.230469 0.684375)"/>
      <use xlink:href="#ArialMT-67" transform="translate(411.230469 0.684375)"/>
      <use xlink:href="#ArialMT-20" transform="translate(466.845703 0.684375)"/>
      <use xlink:href="#ArialMT-43" transform="translate(494.628906 0.684375)"/>
      <use xlink:href="#ArialMT-4f" transform="translate(566.845703 0.684375)"/>
      <use xlink:href="#DejaVuSans-32" transform="translate(645.585938 -15.721875) scale(0.7)"/>
      <use xlink:href="#ArialMT-2d" transform="translate(692.856445 0.684375)"/>
      <use xlink:href="#ArialMT-65" transform="translate(726.157227 0.684375)"/>
      <use xlink:href="#ArialMT-71" transform="translate(781.772461 0.684375)"/>
      <use xlink:href="#ArialMT-20" transform="translate(837.387695 0.684375)"/>
      <use xlink:href="#ArialMT-6b" transform="translate(865.170898 0.684375)"/>
      <use xlink:href="#ArialMT-67" transform="translate(915.170898 0.684375)"/>
      <use xlink:href="#DejaVuSans-2212" transform="translate(971.743164 38.965625) scale(0.7)"/>
      <use xlink:href="#DejaVuSans-31" transform="translate(1030.395508 38.965625) scale(0.7)"/>
      <use xlink:href="#ArialMT-5d" transform="translate(1077.666016 0.684375)"/>
     </g>
    </g>
   </g>
   <g id="patch_8">
    <path d="M 31.60875 521.216746 
L 31.60875 280.970404 
" style="fill: none; stroke: #000000; stroke-width: 0.8; stroke-linejoin: miter; stroke-linecap: square"/>
   </g>
   <g id="patch_9">
    <path d="M 508.65984 521.216746 
L 508.65984 280.970404 
" style="fill: none; stroke: #000000; stroke-width: 0.8; stroke-linejoin: miter; stroke-linecap: square"/>
   </g>
   <g id="patch_10">
    <path d="M 31.60875 521.216746 
L 508.65984 521.216746 
" style="fill: none; stroke: #000000; stroke-width: 0.8; stroke-linejoin: miter; stroke-linecap: square"/>
   </g>
   <g id="patch_11">
    <path d="M 31.60875 280.970404 
L 508.65984 280.970404 
" style="fill: none; stroke: #000000; stroke-width: 0.8; stroke-linejoin: miter; stroke-linecap: square"/>
   </g>
   <g id="text_42">
    <!-- b 1.5 °C -->
    <g transform="translate(253.581326 274.970404) scale(0.09 -0.09)">
     <defs>
      <path id="Arial-BoldMT-62" d="M 422 0 
L 422 4581 
L 1300 4581 
L 1300 2931 
Q 1706 3394 2263 3394 
Q 2869 3394 3266 2955 
Q 3663 2516 3663 1694 
Q 3663 844 3258 384 
Q 2853 -75 2275 -75 
Q 1991 -75 1714 67 
Q 1438 209 1238 488 
L 1238 0 
L 422 0 
z
M 1294 1731 
Q 1294 1216 1456 969 
Q 1684 619 2063 619 
Q 2353 619 2558 867 
Q 2763 1116 2763 1650 
Q 2763 2219 2556 2470 
Q 2350 2722 2028 2722 
Q 1713 2722 1503 2476 
Q 1294 2231 1294 1731 
z
" transform="scale(0.015625)"/>
      <path id="Arial-BoldMT-31" d="M 2519 0 
L 1641 0 
L 1641 3309 
Q 1159 2859 506 2644 
L 506 3441 
Q 850 3553 1253 3867 
Q 1656 4181 1806 4600 
L 2519 4600 
L 2519 0 
z
" transform="scale(0.015625)"/>
     </defs>
     <use xlink:href="#Arial-BoldMT-62"/>
     <use xlink:href="#Arial-BoldMT-20" x="61.083984"/>
     <use xlink:href="#Arial-BoldMT-31" x="88.867188"/>
     <use xlink:href="#Arial-BoldMT-2e" x="144.482422"/>
     <use xlink:href="#Arial-BoldMT-35" x="172.265625"/>
     <use xlink:href="#Arial-BoldMT-20" x="227.880859"/>
     <use xlink:href="#Arial-BoldMT-b0" x="255.664062"/>
     <use xlink:href="#Arial-BoldMT-43" x="295.654297"/>
    </g>
   </g>
  </g>
  <g id="legend_1">
   <g id="line2d_39">
    <path d="M 178.990865 557.609746 
L 186.990865 557.609746 
L 194.990865 557.609746 
" style="fill: none; stroke: #000000; stroke-opacity: 0; stroke-width: 1.5; stroke-linecap: square"/>
    <defs>
     <path id="m249843855c" d="M -0 2.828427 
L 2.828427 0 
L 0 -2.828427 
L -2.828427 -0 
z
" style="stroke: #000000; stroke-linejoin: miter"/>
    </defs>
    <g>
     <use xlink:href="#m249843855c" x="186.990865" y="557.609746" style="fill: #d8d8d8; stroke: #000000; stroke-linejoin: miter"/>
    </g>
   </g>
   <g id="text_43">
    <!-- Fossil -->
    <g transform="translate(195.790865 560.409746) scale(0.08 -0.08)">
     <defs>
      <path id="ArialMT-6f" d="M 213 1659 
Q 213 2581 725 3025 
Q 1153 3394 1769 3394 
Q 2453 3394 2887 2945 
Q 3322 2497 3322 1706 
Q 3322 1066 3130 698 
Q 2938 331 2570 128 
Q 2203 -75 1769 -75 
Q 1072 -75 642 372 
Q 213 819 213 1659 
z
M 791 1659 
Q 791 1022 1069 705 
Q 1347 388 1769 388 
Q 2188 388 2466 706 
Q 2744 1025 2744 1678 
Q 2744 2294 2464 2611 
Q 2184 2928 1769 2928 
Q 1347 2928 1069 2612 
Q 791 2297 791 1659 
z
" transform="scale(0.015625)"/>
      <path id="ArialMT-73" d="M 197 991 
L 753 1078 
Q 800 744 1014 566 
Q 1228 388 1613 388 
Q 2000 388 2187 545 
Q 2375 703 2375 916 
Q 2375 1106 2209 1216 
Q 2094 1291 1634 1406 
Q 1016 1563 777 1677 
Q 538 1791 414 1992 
Q 291 2194 291 2438 
Q 291 2659 392 2848 
Q 494 3038 669 3163 
Q 800 3259 1026 3326 
Q 1253 3394 1513 3394 
Q 1903 3394 2198 3281 
Q 2494 3169 2634 2976 
Q 2775 2784 2828 2463 
L 2278 2388 
Q 2241 2644 2061 2787 
Q 1881 2931 1553 2931 
Q 1166 2931 1000 2803 
Q 834 2675 834 2503 
Q 834 2394 903 2306 
Q 972 2216 1119 2156 
Q 1203 2125 1616 2013 
Q 2213 1853 2448 1751 
Q 2684 1650 2818 1456 
Q 2953 1263 2953 975 
Q 2953 694 2789 445 
Q 2625 197 2315 61 
Q 2006 -75 1616 -75 
Q 969 -75 630 194 
Q 291 463 197 991 
z
" transform="scale(0.015625)"/>
      <path id="ArialMT-69" d="M 425 3934 
L 425 4581 
L 988 4581 
L 988 3934 
L 425 3934 
z
M 425 0 
L 425 3319 
L 988 3319 
L 988 0 
L 425 0 
z
" transform="scale(0.015625)"/>
      <path id="ArialMT-6c" d="M 409 0 
L 409 4581 
L 972 4581 
L 972 0 
L 409 0 
z
" transform="scale(0.015625)"/>
     </defs>
     <use xlink:href="#ArialMT-46"/>
     <use xlink:href="#ArialMT-6f" x="61.083984"/>
     <use xlink:href="#ArialMT-73" x="116.699219"/>
     <use xlink:href="#ArialMT-73" x="166.699219"/>
     <use xlink:href="#ArialMT-69" x="216.699219"/>
     <use xlink:href="#ArialMT-6c" x="238.916016"/>
    </g>
   </g>
   <g id="line2d_40">
    <path d="M 232.680865 557.609746 
L 240.680865 557.609746 
L 248.680865 557.609746 
" style="fill: none; stroke: #000000; stroke-opacity: 0; stroke-width: 1.5; stroke-linecap: square"/>
    <defs>
     <path id="m3e483f9065" d="M -0 3.535534 
L 2.12132 0 
L -0 -3.535534 
L -2.12132 -0 
z
" style="stroke: #52318e; stroke-linejoin: miter"/>
    </defs>
    <g>
     <use xlink:href="#m3e483f9065" x="240.680865" y="557.609746" style="fill: #a78dd8; stroke: #52318e; stroke-linejoin: miter"/>
    </g>
   </g>
   <g id="text_44">
    <!-- Blue -->
    <g transform="translate(249.480865 560.409746) scale(0.08 -0.08)">
     <defs>
      <path id="ArialMT-75" d="M 2597 0 
L 2597 488 
Q 2209 -75 1544 -75 
Q 1250 -75 995 37 
Q 741 150 617 320 
Q 494 491 444 738 
Q 409 903 409 1263 
L 409 3319 
L 972 3319 
L 972 1478 
Q 972 1038 1006 884 
Q 1059 663 1231 536 
Q 1403 409 1656 409 
Q 1909 409 2131 539 
Q 2353 669 2445 892 
Q 2538 1116 2538 1541 
L 2538 3319 
L 3100 3319 
L 3100 0 
L 2597 0 
z
" transform="scale(0.015625)"/>
     </defs>
     <use xlink:href="#ArialMT-42"/>
     <use xlink:href="#ArialMT-6c" x="66.699219"/>
     <use xlink:href="#ArialMT-75" x="88.916016"/>
     <use xlink:href="#ArialMT-65" x="144.53125"/>
    </g>
   </g>
   <g id="line2d_41">
    <path d="M 281.492115 557.609746 
L 289.492115 557.609746 
L 297.492115 557.609746 
" style="fill: none; stroke: #000000; stroke-opacity: 0; stroke-width: 1.5; stroke-linecap: square"/>
    <defs>
     <path id="m6af1206ca5" d="M 0 -2.5 
L -2.165064 -1.25 
L -2.165064 1.25 
L -0 2.5 
L 2.165064 1.25 
L 2.165064 -1.25 
z
" style="stroke: #b71205; stroke-linejoin: miter"/>
    </defs>
    <g>
     <use xlink:href="#m6af1206ca5" x="289.492115" y="557.609746" style="fill: #fb7b71; stroke: #b71205; stroke-linejoin: miter"/>
    </g>
   </g>
   <g id="text_45">
    <!-- Solar -->
    <g transform="translate(298.292115 560.409746) scale(0.08 -0.08)">
     <defs>
      <path id="ArialMT-61" d="M 2588 409 
Q 2275 144 1986 34 
Q 1697 -75 1366 -75 
Q 819 -75 525 192 
Q 231 459 231 875 
Q 231 1119 342 1320 
Q 453 1522 633 1644 
Q 813 1766 1038 1828 
Q 1203 1872 1538 1913 
Q 2219 1994 2541 2106 
Q 2544 2222 2544 2253 
Q 2544 2597 2384 2738 
Q 2169 2928 1744 2928 
Q 1347 2928 1158 2789 
Q 969 2650 878 2297 
L 328 2372 
Q 403 2725 575 2942 
Q 747 3159 1072 3276 
Q 1397 3394 1825 3394 
Q 2250 3394 2515 3294 
Q 2781 3194 2906 3042 
Q 3031 2891 3081 2659 
Q 3109 2516 3109 2141 
L 3109 1391 
Q 3109 606 3145 398 
Q 3181 191 3288 0 
L 2700 0 
Q 2613 175 2588 409 
z
M 2541 1666 
Q 2234 1541 1622 1453 
Q 1275 1403 1131 1340 
Q 988 1278 909 1158 
Q 831 1038 831 891 
Q 831 666 1001 516 
Q 1172 366 1500 366 
Q 1825 366 2078 508 
Q 2331 650 2450 897 
Q 2541 1088 2541 1459 
L 2541 1666 
z
" transform="scale(0.015625)"/>
      <path id="ArialMT-72" d="M 416 0 
L 416 3319 
L 922 3319 
L 922 2816 
Q 1116 3169 1280 3281 
Q 1444 3394 1641 3394 
Q 1925 3394 2219 3213 
L 2025 2691 
Q 1819 2813 1613 2813 
Q 1428 2813 1281 2702 
Q 1134 2591 1072 2394 
Q 978 2094 978 1738 
L 978 0 
L 416 0 
z
" transform="scale(0.015625)"/>
     </defs>
     <use xlink:href="#ArialMT-53"/>
     <use xlink:href="#ArialMT-6f" x="66.699219"/>
     <use xlink:href="#ArialMT-6c" x="122.314453"/>
     <use xlink:href="#ArialMT-61" x="144.53125"/>
     <use xlink:href="#ArialMT-72" x="200.146484"/>
    </g>
   </g>
   <g id="line2d_42">
    <path d="M 332.967115 557.609746 
L 340.967115 557.609746 
L 348.967115 557.609746 
" style="fill: none; stroke: #000000; stroke-opacity: 0; stroke-width: 1.5; stroke-linecap: square"/>
    <defs>
     <path id="m07512fcb23" d="M 0 -2.5 
L -2.5 2.5 
L 2.5 2.5 
z
" style="stroke: #167f99; stroke-linejoin: miter"/>
    </defs>
    <g>
     <use xlink:href="#m07512fcb23" x="340.967115" y="557.609746" style="fill: #6dd2ea; stroke: #167f99; stroke-linejoin: miter"/>
    </g>
   </g>
   <g id="text_46">
    <!-- Wind -->
    <g transform="translate(349.767115 560.409746) scale(0.08 -0.08)">
     <defs>
      <path id="ArialMT-6e" d="M 422 0 
L 422 3319 
L 928 3319 
L 928 2847 
Q 1294 3394 1984 3394 
Q 2284 3394 2536 3286 
Q 2788 3178 2913 3003 
Q 3038 2828 3088 2588 
Q 3119 2431 3119 2041 
L 3119 0 
L 2556 0 
L 2556 2019 
Q 2556 2363 2490 2533 
Q 2425 2703 2258 2804 
Q 2091 2906 1866 2906 
Q 1506 2906 1245 2678 
Q 984 2450 984 1813 
L 984 0 
L 422 0 
z
" transform="scale(0.015625)"/>
      <path id="ArialMT-64" d="M 2575 0 
L 2575 419 
Q 2259 -75 1647 -75 
Q 1250 -75 917 144 
Q 584 363 401 755 
Q 219 1147 219 1656 
Q 219 2153 384 2558 
Q 550 2963 881 3178 
Q 1213 3394 1622 3394 
Q 1922 3394 2156 3267 
Q 2391 3141 2538 2938 
L 2538 4581 
L 3097 4581 
L 3097 0 
L 2575 0 
z
M 797 1656 
Q 797 1019 1065 703 
Q 1334 388 1700 388 
Q 2069 388 2326 689 
Q 2584 991 2584 1609 
Q 2584 2291 2321 2609 
Q 2059 2928 1675 2928 
Q 1300 2928 1048 2622 
Q 797 2316 797 1656 
z
" transform="scale(0.015625)"/>
     </defs>
     <use xlink:href="#ArialMT-57"/>
     <use xlink:href="#ArialMT-69" x="94.384766"/>
     <use xlink:href="#ArialMT-6e" x="116.601562"/>
     <use xlink:href="#ArialMT-64" x="172.216797"/>
    </g>
   </g>
  </g>
 </g>
 <defs>
  <clipPath id="p047e3ff143">
   <rect x="31.60875" y="19.642031" width="477.05109" height="240.246342"/>
  </clipPath>
  <clipPath id="pa8f41f696a">
   <rect x="31.60875" y="280.970404" width="477.05109" height="240.246342"/>
  </clipPath>
 </defs>
</svg>
