<?xml version="1.0" encoding="utf-8" standalone="no"?>
<!DOCTYPE svg PUBLIC "-//W3C//DTD SVG 1.1//EN"
  "http://www.w3.org/Graphics/SVG/1.1/DTD/svg11.dtd">
<svg xmlns:xlink="http://www.w3.org/1999/xlink" width="371.52pt" height="308.98375pt" viewBox="0 0 371.52 308.98375" xmlns="http://www.w3.org/2000/svg" version="1.1">
 <metadata>
  <rdf:RDF xmlns:dc="http://purl.org/dc/elements/1.1/" xmlns:cc="http://creativecommons.org/ns#" xmlns:rdf="http://www.w3.org/1999/02/22-rdf-syntax-ns#">
   <cc:Work>
    <dc:type rdf:resource="http://purl.org/dc/dcmitype/StillImage"/>
    <dc:date>2024-05-29T13:07:56.336084</dc:date>
    <dc:format>image/svg+xml</dc:format>
    <dc:creator>
     <cc:Agent>
      <dc:title>Matplotlib v3.8.2, https://matplotlib.org/</dc:title>
     </cc:Agent>
    </dc:creator>
   </cc:Work>
  </rdf:RDF>
 </metadata>
 <defs>
  <style type="text/css">*{stroke-linejoin: round; stroke-linecap: butt}</style>
 </defs>
 <g id="figure_1">
  <g id="patch_1">
   <path d="M 0 308.98375 
L 371.52 308.98375 
L 371.52 0 
L 0 0 
z
" style="fill: #ffffff"/>
  </g>
  <g id="axes_1">
   <g id="line2d_1"/>
  </g>
  <g id="legend_1">
   <g id="line2d_2">
    <path d="M 122.21125 294.08 
L 130.21125 294.08 
L 138.21125 294.08 
" style="fill: none; stroke: #000000; stroke-opacity: 0; stroke-width: 1.5; stroke-linecap: square"/>
    <defs>
     <path id="mb7a3527d0e" d="M -2.5 2.5 
L 2.5 2.5 
L 2.5 -2.5 
L -2.5 -2.5 
z
" style="stroke: #000000; stroke-opacity: 0; stroke-linejoin: miter"/>
    </defs>
    <g>
     <use xlink:href="#mb7a3527d0e" x="130.21125" y="294.08" style="fill: #fedddb; stroke: #000000; stroke-opacity: 0; stroke-linejoin: miter"/>
    </g>
   </g>
   <g id="text_1">
    <!-- Infeasible -->
    <g transform="translate(139.01125 296.88) scale(0.08 -0.08)">
     <defs>
      <path id="FiraSans-Regular-49" d="M 1248 4410 
L 1248 0 
L 640 0 
L 640 4410 
L 1248 4410 
z
" transform="scale(0.015625)"/>
      <path id="FiraSans-Regular-6e" d="M 2195 3450 
Q 2656 3450 2915 3174 
Q 3174 2899 3174 2419 
L 3174 0 
L 2586 0 
L 2586 2336 
Q 2586 2694 2451 2841 
Q 2317 2989 2054 2989 
Q 1786 2989 1581 2835 
Q 1376 2682 1197 2394 
L 1197 0 
L 608 0 
L 608 3373 
L 1114 3373 
L 1165 2874 
Q 1344 3142 1609 3296 
Q 1875 3450 2195 3450 
z
" transform="scale(0.015625)"/>
      <path id="FiraSans-Regular-66" d="M 1754 4326 
Q 1485 4326 1369 4208 
Q 1254 4090 1254 3840 
L 1254 3373 
L 2074 3373 
L 2010 2918 
L 1254 2918 
L 1254 0 
L 666 0 
L 666 2918 
L 64 2918 
L 64 3373 
L 666 3373 
L 666 3834 
Q 666 4269 944 4534 
Q 1222 4800 1722 4800 
Q 1952 4800 2134 4758 
Q 2317 4717 2528 4627 
L 2342 4198 
Q 2054 4326 1754 4326 
z
" transform="scale(0.015625)"/>
      <path id="FiraSans-Regular-65" d="M 3155 1786 
Q 3155 1638 3142 1485 
L 992 1485 
Q 1030 928 1273 665 
Q 1517 403 1901 403 
Q 2144 403 2349 473 
Q 2554 544 2778 698 
L 3034 346 
Q 2496 -77 1856 -77 
Q 1152 -77 758 384 
Q 365 845 365 1651 
Q 365 2176 534 2582 
Q 704 2989 1021 3219 
Q 1338 3450 1766 3450 
Q 2438 3450 2796 3008 
Q 3155 2566 3155 1786 
z
M 2573 1958 
Q 2573 2458 2374 2720 
Q 2176 2982 1779 2982 
Q 1056 2982 992 1920 
L 2573 1920 
L 2573 1958 
z
" transform="scale(0.015625)"/>
      <path id="FiraSans-Regular-61" d="M 2880 787 
Q 2880 582 2950 483 
Q 3021 384 3162 333 
L 3027 -77 
Q 2765 -45 2605 70 
Q 2445 186 2368 429 
Q 2029 -77 1363 -77 
Q 864 -77 576 204 
Q 288 486 288 941 
Q 288 1478 675 1766 
Q 1062 2054 1773 2054 
L 2291 2054 
L 2291 2304 
Q 2291 2662 2118 2816 
Q 1946 2970 1587 2970 
Q 1216 2970 678 2790 
L 531 3219 
Q 1158 3450 1696 3450 
Q 2291 3450 2585 3158 
Q 2880 2867 2880 2330 
L 2880 787 
z
M 1498 365 
Q 2003 365 2291 890 
L 2291 1664 
L 1850 1664 
Q 915 1664 915 973 
Q 915 672 1062 518 
Q 1210 365 1498 365 
z
" transform="scale(0.015625)"/>
      <path id="FiraSans-Regular-73" d="M 1523 3450 
Q 1869 3450 2144 3354 
Q 2419 3258 2669 3066 
L 2419 2694 
Q 2189 2842 1981 2912 
Q 1773 2982 1542 2982 
Q 1254 2982 1088 2864 
Q 922 2746 922 2541 
Q 922 2336 1078 2221 
Q 1235 2106 1645 1997 
Q 2208 1856 2486 1613 
Q 2765 1370 2765 947 
Q 2765 448 2377 185 
Q 1990 -77 1434 -77 
Q 666 -77 160 365 
L 474 723 
Q 902 397 1421 397 
Q 1754 397 1949 534 
Q 2144 672 2144 909 
Q 2144 1082 2073 1187 
Q 2003 1293 1830 1373 
Q 1658 1453 1325 1542 
Q 787 1683 547 1920 
Q 307 2157 307 2522 
Q 307 2784 464 2998 
Q 621 3213 899 3331 
Q 1178 3450 1523 3450 
z
" transform="scale(0.015625)"/>
      <path id="FiraSans-Regular-69" d="M 1197 3373 
L 1197 0 
L 608 0 
L 608 3373 
L 1197 3373 
z
M 896 4992 
Q 1082 4992 1197 4877 
Q 1312 4762 1312 4589 
Q 1312 4416 1197 4304 
Q 1082 4192 896 4192 
Q 717 4192 601 4304 
Q 486 4416 486 4589 
Q 486 4762 601 4877 
Q 717 4992 896 4992 
z
" transform="scale(0.015625)"/>
      <path id="FiraSans-Regular-62" d="M 2150 3450 
Q 2726 3450 3065 2986 
Q 3405 2522 3405 1690 
Q 3405 1165 3245 765 
Q 3085 365 2784 144 
Q 2483 -77 2080 -77 
Q 1549 -77 1184 371 
L 1126 0 
L 608 0 
L 608 4730 
L 1197 4800 
L 1197 2950 
Q 1562 3450 2150 3450 
z
M 1939 390 
Q 2330 390 2550 707 
Q 2771 1024 2771 1690 
Q 2771 2374 2566 2678 
Q 2362 2982 1984 2982 
Q 1536 2982 1197 2458 
L 1197 845 
Q 1331 634 1526 512 
Q 1722 390 1939 390 
z
" transform="scale(0.015625)"/>
      <path id="FiraSans-Regular-6c" d="M 1280 -77 
Q 954 -77 765 118 
Q 576 314 576 666 
L 576 4730 
L 1165 4800 
L 1165 678 
Q 1165 538 1213 474 
Q 1261 410 1376 410 
Q 1498 410 1594 448 
L 1747 38 
Q 1536 -77 1280 -77 
z
" transform="scale(0.015625)"/>
     </defs>
     <use xlink:href="#FiraSans-Regular-49"/>
     <use xlink:href="#FiraSans-Regular-6e" x="29.499985"/>
     <use xlink:href="#FiraSans-Regular-66" x="88.099976"/>
     <use xlink:href="#FiraSans-Regular-65" x="121.59996"/>
     <use xlink:href="#FiraSans-Regular-61" x="176.099945"/>
     <use xlink:href="#FiraSans-Regular-73" x="230.499939"/>
     <use xlink:href="#FiraSans-Regular-69" x="277.199936"/>
     <use xlink:href="#FiraSans-Regular-62" x="305.399933"/>
     <use xlink:href="#FiraSans-Regular-6c" x="364.799927"/>
     <use xlink:href="#FiraSans-Regular-65" x="394.099915"/>
    </g>
   </g>
   <g id="line2d_3">
    <path d="M 190.9 294.08 
L 198.9 294.08 
L 206.9 294.08 
" style="fill: none; stroke: #000000; stroke-opacity: 0; stroke-width: 1.5; stroke-linecap: square"/>
    <defs>
     <path id="mdc38a3f728" d="M -2.5 2.5 
L 2.5 2.5 
L 2.5 -2.5 
L -2.5 -2.5 
z
" style="stroke: #000000; stroke-opacity: 0; stroke-linejoin: miter"/>
    </defs>
    <g>
     <use xlink:href="#mdc38a3f728" x="198.9" y="294.08" style="fill: #fa5649; stroke: #000000; stroke-opacity: 0; stroke-linejoin: miter"/>
    </g>
   </g>
   <g id="text_2">
    <!-- Feasible -->
    <g transform="translate(207.7 296.88) scale(0.08 -0.08)">
     <defs>
      <path id="FiraSans-Regular-46" d="M 640 0 
L 640 4410 
L 2982 4410 
L 2912 3923 
L 1248 3923 
L 1248 2419 
L 2688 2419 
L 2688 1939 
L 1248 1939 
L 1248 0 
L 640 0 
z
" transform="scale(0.015625)"/>
     </defs>
     <use xlink:href="#FiraSans-Regular-46"/>
     <use xlink:href="#FiraSans-Regular-65" x="49.099991"/>
     <use xlink:href="#FiraSans-Regular-61" x="103.599976"/>
     <use xlink:href="#FiraSans-Regular-73" x="157.999969"/>
     <use xlink:href="#FiraSans-Regular-69" x="204.699966"/>
     <use xlink:href="#FiraSans-Regular-62" x="232.899963"/>
     <use xlink:href="#FiraSans-Regular-6c" x="292.299957"/>
     <use xlink:href="#FiraSans-Regular-65" x="321.599945"/>
    </g>
   </g>
  </g>
 </g>
</svg>
